<?xml version="1.0" encoding="utf-8"?>
<!-- Generator: Adobe Illustrator 16.0.3, SVG Export Plug-In . SVG Version: 6.00 Build 0)  -->
<!DOCTYPE svg PUBLIC "-//W3C//DTD SVG 1.1//EN" "http://www.w3.org/Graphics/SVG/1.1/DTD/svg11.dtd">
<svg version="1.1" id="Layer_1" xmlns="http://www.w3.org/2000/svg" xmlns:xlink="http://www.w3.org/1999/xlink" x="0px" y="0px"
	 width="33.498px" height="18.421px" viewBox="0 0 33.498 18.421" enable-background="new 0 0 33.498 18.421" xml:space="preserve">
<g>
	<path fill="none" stroke="#ffffff" stroke-linejoin="round" stroke-miterlimit="10" d="M22.264,8.671
		c-0.178,0-0.346,0.03-0.518,0.052c-0.456-3.102-3.121-5.486-6.35-5.486c-2.976,0-5.472,2.025-6.203,4.771
		C9.057,7.981,8.916,7.966,8.771,7.966c-0.767,0-1.434,0.406-1.813,1.011C6.484,8.782,5.966,8.671,5.421,8.671
		c-2.241,0-4.058,1.816-4.058,4.058c0,2.111,1.62,3.826,3.682,4.02l16.82,0.037l0,0h0.398c2.24,0,4.058-1.816,4.058-4.057
		C26.321,10.487,24.504,8.671,22.264,8.671z"/>
	<path fill="none" stroke="#ffffff" stroke-linecap="round" stroke-linejoin="round" stroke-miterlimit="10" d="M17.279,3.236
		c0.93-1.054,2.289-1.719,3.806-1.719c2.353,0,4.327,1.602,4.905,3.773c0.107-0.022,0.22-0.034,0.334-0.034
		c0.605,0,1.134,0.321,1.434,0.799c0.375-0.154,0.785-0.242,1.215-0.242c1.773,0,3.209,1.437,3.209,3.209
		c0,1.67-1.28,3.026-2.911,3.178l-2.829,0.007"/>
</g>
</svg>
