<?xml version="1.0" encoding="utf-8"?>
<!-- Generator: Adobe Illustrator 16.0.3, SVG Export Plug-In . SVG Version: 6.00 Build 0)  -->
<!DOCTYPE svg PUBLIC "-//W3C//DTD SVG 1.1//EN" "http://www.w3.org/Graphics/SVG/1.1/DTD/svg11.dtd">
<svg version="1.1" id="Layer_1" xmlns="http://www.w3.org/2000/svg" xmlns:xlink="http://www.w3.org/1999/xlink" x="0px" y="0px"
	 width="34.156px" height="34.32px" viewBox="0 0 34.156 34.32" enable-background="new 0 0 34.156 34.32" xml:space="preserve">
<g>
	<g id="tHERqm.tif_5_">
		<g>
			<path fill="none" stroke="#ffffff" stroke-linecap="round" stroke-miterlimit="10" d="M5.191,25.389
				c-2.017,0.054-1.8,0.294-2.559-1.659c-0.307-0.789-0.603-1.584-0.943-2.358c-0.255-0.581-0.125-1.008,0.354-1.396
				c0.514-0.417,1.011-0.857,1.497-1.307c1.081-1,1.107-2.397,0.063-3.433c-0.489-0.485-0.996-0.953-1.511-1.411
				c-0.41-0.365-0.516-0.772-0.294-1.278c0.5-1.139,0.997-2.279,1.48-3.425c0.218-0.519,0.595-0.7,1.135-0.656
				C5.125,8.523,5.84,8.581,6.555,8.593C7.954,8.619,8.907,7.68,8.914,6.276C8.917,5.561,8.897,4.844,8.856,4.13
				c-0.032-0.557,0.2-0.902,0.711-1.1c1.16-0.449,2.299-0.958,3.482-1.333c0.335-0.106,0.887,0.053,1.17,0.291
				c0.542,0.455,0.947,1.067,1.436,1.59c0.979,1.047,2.361,1.073,3.375,0.064c0.488-0.486,0.958-0.991,1.412-1.51
				c0.383-0.438,0.802-0.549,1.342-0.309c1.111,0.496,2.229,0.981,3.353,1.447c0.554,0.229,0.739,0.619,0.688,1.192
				c-0.063,0.712-0.115,1.428-0.124,2.143c-0.017,1.358,0.915,2.303,2.278,2.319c0.715,0.008,1.432-0.01,2.146-0.057
				c0.591-0.038,0.948,0.203,1.156,0.747c0.435,1.137,0.874,2.272,1.341,3.396c0.217,0.526,0.089,0.917-0.322,1.267
				c-0.523,0.447-1.049,0.894-1.555,1.362c-1.084,1.001-1.111,2.393-0.066,3.432c0.489,0.485,0.996,0.953,1.512,1.411
				c0.409,0.363,0.521,0.77,0.299,1.277c-0.5,1.139-0.998,2.278-1.481,3.424c-0.219,0.52-0.597,0.697-1.136,0.656
				c-0.74-0.058-1.481-0.119-2.223-0.124c-1.317-0.009-2.256,0.917-2.276,2.235c-0.012,0.742,0.015,1.485,0.056,2.227
				c0.03,0.557-0.204,0.901-0.714,1.099c-1.159,0.45-2.319,0.899-3.47,1.37c-0.494,0.201-0.872,0.078-1.203-0.304
				c-0.469-0.54-0.927-1.092-1.414-1.615c-0.974-1.045-2.36-1.07-3.376-0.062c-0.489,0.485-0.958,0.991-1.413,1.51
				c-0.384,0.438-0.803,0.549-1.343,0.309c-1.111-0.496-2.228-0.982-3.352-1.449c-0.553-0.229-0.745-0.616-0.689-1.191
				c0.059-0.605,0.089-1.215,0.115-1.824c0.074-1.739-0.852-2.678-2.586-2.633C5.721,25.395,5.456,25.389,5.191,25.389z
				 M21.78,17.182c0.009-2.595-2.029-4.656-4.609-4.665c-2.596-0.008-4.655,2.026-4.665,4.608c-0.01,2.595,2.025,4.656,4.608,4.665
				C19.708,21.8,21.77,19.763,21.78,17.182z M23.709,17.193c0.014-3.675-2.873-6.595-6.528-6.606
				c-3.676-0.012-6.593,2.87-6.606,6.527c-0.013,3.675,2.869,6.594,6.527,6.607C20.776,23.735,23.698,20.849,23.709,17.193z"/>
		</g>
	</g>
</g>
</svg>
