<?xml version="1.0" encoding="utf-8"?>
<!-- Generator: Adobe Illustrator 16.0.3, SVG Export Plug-In . SVG Version: 6.00 Build 0)  -->
<!DOCTYPE svg PUBLIC "-//W3C//DTD SVG 1.1//EN" "http://www.w3.org/Graphics/SVG/1.1/DTD/svg11.dtd">
<svg version="1.1" id="Layer_1" xmlns="http://www.w3.org/2000/svg" xmlns:xlink="http://www.w3.org/1999/xlink" x="0px" y="0px"
	 width="48px" height="48px" viewBox="0 0 48 48" enable-background="new 0 0 48 48" xml:space="preserve">
<g>
	<path fill="#FFFFFF" d="M27.163,13.682h-0.13v-1.414l-0.253,0.118v0l-1.55,0.764l-0.782,0.383l-1.383,0.675l-1.241,0.608
		l-0.582,1.253l1.16-0.566v-0.002l2.409-1.176l0.785-0.383l0.116-0.059l1.066-0.525v0.323h-0.136c-0.055,0-0.099,0.054-0.099,0.122
		v0.211c0,0.032,0.01,0.061,0.027,0.083c0,0,0.229,0.18,0.236,0.182v0.061c0,0.087,0.038,0.172,0.103,0.239
		c0.022,0.02,0.037,0.057,0.037,0.093c0,0.045-0.019,0.091-0.075,0.115c-0.077,0.035-0.225,0.037-0.271-0.152
		c-0.047-0.184-0.09-0.192-0.116-0.181c-0.04,0.017-0.006,0.049-0.012,0.167c-0.011,0.138,0.026,0.227,0.168,0.322
		c0.162,0.108,0.525,0.047,0.564-0.237c0.009-0.099-0.022-0.168-0.073-0.223c-0.053-0.053-0.124-0.102-0.124-0.187v-0.026
		c0.002,0,0.226-0.174,0.226-0.174c0.014-0.022,0.023-0.051,0.023-0.083v-0.211C27.258,13.736,27.213,13.682,27.163,13.682
		 M26.907,14.071c-0.063,0-0.113-0.049-0.113-0.104c0-0.057,0.051-0.105,0.113-0.105c0.061,0,0.111,0.049,0.111,0.105
		C27.019,14.022,26.968,14.071,26.907,14.071"/>
	<polygon fill="#FFFFFF" points="23.915,12.374 24.274,13.156 25.059,12.773 23.921,10.291 22.101,14.217 23.342,13.61 	"/>
	<polygon fill="#FFFFFF" points="24.972,14.709 25.611,16.07 26.571,16.07 25.769,14.32 	"/>
	<path fill="none" stroke="#FFFFFF" stroke-linecap="round" stroke-linejoin="round" stroke-miterlimit="10" d="M29.023,34.342
		c0,0,0.471-0.247,0.947,0.01"/>
	<path fill="none" stroke="#FFFFFF" stroke-linecap="round" stroke-linejoin="round" stroke-miterlimit="10" d="M27.013,33.999
		c0,0,0.352-0.169,0.811-0.012"/>
	<path fill="none" stroke="#FFFFFF" stroke-linecap="round" stroke-linejoin="round" stroke-miterlimit="10" d="M27.259,29.872
		c0,0,0.683-0.397,1.301,0.137"/>
	<path fill="none" stroke="#FFFFFF" stroke-linecap="round" stroke-linejoin="round" stroke-miterlimit="10" d="M46.075,7.418
		c-1.608,2.341-2.982,4.442-4.123,6.25c-2.259,3.557-3.628,5.989-4.128,6.944"/>
	<path fill="none" stroke="#FFFFFF" stroke-linecap="round" stroke-linejoin="round" stroke-miterlimit="10" d="M26.669,34.463
		c-0.017,0.025-0.033,0.042-0.054,0.059c-0.239,0.235-0.595,0.017-0.595,0.017s-1.37-0.277-0.493-1.854
		c0.096-0.17,0.195-0.326,0.299-0.476c0.471-0.683,1.013-1.249,1.431-2.337c0.285-0.74,0.513-1.721,0.616-3.147v-0.004
		c0.024-0.327,0.041-0.674,0.05-1.047c0.145-5.376,3.809-7.54,3.809-7.54l5.898-9.583l1.088-1.77"/>
	<path fill="none" stroke="#FFFFFF" stroke-linecap="round" stroke-linejoin="round" stroke-miterlimit="10" d="M37.58,20.157
		c0.078,0.145,0.161,0.298,0.244,0.455c0.174,0.327,0.36,0.674,0.525,0.989c0.413,0.781,0.629,1.65,0.612,2.535
		c-0.021,1.047-0.699,2.543-0.902,3.858c-0.339,2.213-0.219,2.697-1.021,2.709c-0.137,0-0.269-0.032-0.393-0.103
		c-0.616-0.356-1.071-1.663-0.877-4.521c0.235-3.442-0.455-3.744-0.455-3.744"/>
	<path fill="none" stroke="#FFFFFF" stroke-linecap="round" stroke-linejoin="round" stroke-miterlimit="10" d="M35.136,28.719
		c-0.695-0.203-1.055,0.604-1.055,0.604c-0.389,0.848-1.398,2.485-2.15,3.54c-0.236,0.331-0.447,0.604-0.604,0.782
		c-0.169,0.194-0.252,0.43-0.252,0.665c0,0.261,0.104,0.526,0.307,0.716c0.021,0.025,0.041,0.042,0.065,0.063
		c0.385,0.31,0.939,0.293,1.303-0.042c2.3-2.121,3.813-4.326,3.896-4.445v-0.005"/>
	<path fill="none" stroke="#FFFFFF" stroke-linecap="round" stroke-linejoin="round" stroke-miterlimit="10" d="M32.617,30.187
		c-0.703-0.368-1.34,0.327-1.34,0.327c-0.353,0.781-1.419,2.568-2.255,3.829c-0.363,0.547-0.683,0.997-0.881,1.221
		c-0.132,0.145-0.211,0.314-0.239,0.487c-0.013,0.066-0.017,0.129-0.017,0.19c0.004,0.286,0.132,0.567,0.376,0.762
		c0.381,0.311,0.938,0.294,1.303-0.042c0.712-0.653,1.315-1.323,1.816-1.936"/>
	<path fill="none" stroke="#FFFFFF" stroke-linecap="round" stroke-linejoin="round" stroke-miterlimit="10" d="M30.26,30.638
		c-0.505-0.426-1.167-0.211-1.167-0.211c-0.438,0.964-1.712,3.061-2.478,4.095c-0.124,0.165-0.231,0.302-0.322,0.405
		c-0.178,0.189-0.256,0.438-0.256,0.678c0.004,0.281,0.132,0.566,0.376,0.762c0.385,0.31,0.938,0.293,1.303-0.042l0.187-0.273"/>
	<path fill="none" stroke="#FFFFFF" stroke-linecap="round" stroke-linejoin="round" stroke-miterlimit="10" d="M30.906,22.976
		c1.641,3.446,4.863,3.104,4.863,3.104"/>
	<path fill="none" stroke="#FFFFFF" stroke-linecap="round" stroke-linejoin="round" stroke-miterlimit="10" d="M27.872,26.722
		c0,0,1.953-0.251,3.518,0.669"/>
	<path fill="none" stroke="#FFFFFF" stroke-linecap="round" stroke-linejoin="round" stroke-miterlimit="10" d="M35.77,26.08
		c0,0-0.75,0.683-3.797-0.191"/>
	<path fill="none" stroke="#FFFFFF" stroke-linecap="round" stroke-linejoin="round" stroke-miterlimit="10" d="M37.579,20.158
		c0,0-1.109-1.577-3.658-1.277"/>
	<path fill="none" stroke="#FFFFFF" stroke-linecap="round" stroke-linejoin="round" stroke-miterlimit="10" d="M31.931,32.86
		c0,0,0.512-0.481,1.079-0.18"/>
	<path fill="none" stroke="#FFFFFF" stroke-linecap="round" stroke-linejoin="round" stroke-miterlimit="10" d="M25.826,32.21
		c0,0,0.469-0.279,0.88,0.069"/>
	<path fill="none" stroke="#FFFFFF" stroke-linecap="round" stroke-linejoin="round" stroke-miterlimit="10" d="M39.2,16.393
		c-1.145,1.83-2.184,3.067-1.412,4.035"/>
	<path fill="none" stroke="#FFFFFF" stroke-linecap="round" stroke-linejoin="round" stroke-miterlimit="10" d="M19.478,34.342
		c0,0-0.471-0.247-0.947,0.01"/>
	<path fill="none" stroke="#FFFFFF" stroke-linecap="round" stroke-linejoin="round" stroke-miterlimit="10" d="M21.488,33.999
		c0,0-0.352-0.169-0.81-0.012"/>
	<path fill="none" stroke="#FFFFFF" stroke-linecap="round" stroke-linejoin="round" stroke-miterlimit="10" d="M21.243,29.872
		c0,0-0.683-0.397-1.301,0.137"/>
	<path fill="none" stroke="#FFFFFF" stroke-linecap="round" stroke-linejoin="round" stroke-miterlimit="10" d="M2.424,7.418
		c1.609,2.341,2.982,4.442,4.128,6.25c2.254,3.557,3.623,5.989,4.124,6.944"/>
	<path fill="none" stroke="#FFFFFF" stroke-linecap="round" stroke-linejoin="round" stroke-miterlimit="10" d="M9.782,6.781
		l1.088,1.77l5.898,9.583c0,0,3.664,2.163,3.809,7.54c0.008,0.373,0.029,0.72,0.05,1.047v0.004c0.104,1.427,0.331,2.407,0.616,3.147
		c0.417,1.088,0.963,1.654,1.431,2.337c0.108,0.149,0.203,0.306,0.298,0.476c0.881,1.576-0.492,1.853-0.492,1.853
		s-0.352,0.22-0.596-0.016c-0.016-0.017-0.037-0.033-0.054-0.059"/>
	<path fill="none" stroke="#FFFFFF" stroke-linecap="round" stroke-linejoin="round" stroke-miterlimit="10" d="M13.186,22.336
		c0,0-0.69,0.302-0.455,3.744c0.199,2.861-0.256,4.164-0.876,4.521c-0.124,0.07-0.256,0.103-0.393,0.103
		c-0.802-0.012-0.682-0.496-1.021-2.709c-0.203-1.315-0.881-2.812-0.897-3.858c-0.017-0.885,0.198-1.754,0.608-2.535
		c0.166-0.314,0.352-0.662,0.525-0.989c0.087-0.157,0.169-0.31,0.248-0.455"/>
	<path fill="none" stroke="#FFFFFF" stroke-linecap="round" stroke-linejoin="round" stroke-miterlimit="10" d="M13.364,28.719
		c0.694-0.203,1.059,0.604,1.059,0.604c0.389,0.848,1.398,2.485,2.146,3.54c0.236,0.331,0.447,0.604,0.604,0.782
		c0.169,0.194,0.252,0.43,0.252,0.665c0,0.261-0.103,0.526-0.302,0.72c-0.021,0.021-0.042,0.038-0.066,0.059
		c-0.384,0.31-0.943,0.293-1.307-0.042c-2.295-2.121-3.813-4.326-3.896-4.445v-0.005"/>
	<path fill="none" stroke="#FFFFFF" stroke-linecap="round" stroke-linejoin="round" stroke-miterlimit="10" d="M17.119,35.025
		l0.004,0.004c0.5,0.612,1.104,1.278,1.812,1.932c0.368,0.336,0.922,0.353,1.303,0.042c0.244-0.194,0.373-0.476,0.376-0.762
		c0-0.062-0.004-0.124-0.017-0.19c-0.029-0.173-0.107-0.343-0.24-0.487c-0.658-0.744-2.626-3.934-3.135-5.05
		c0,0-0.637-0.695-1.336-0.327"/>
	<path fill="none" stroke="#FFFFFF" stroke-linecap="round" stroke-linejoin="round" stroke-miterlimit="10" d="M20.598,36.051
		l0.187,0.273c0.368,0.335,0.922,0.352,1.303,0.042c0.244-0.195,0.372-0.48,0.376-0.762c0.004-0.239-0.079-0.488-0.257-0.678
		c-0.091-0.104-0.198-0.24-0.323-0.405c-0.765-1.034-2.035-3.131-2.473-4.095c0,0-0.666-0.215-1.166,0.211"/>
	<path fill="none" stroke="#FFFFFF" stroke-linecap="round" stroke-linejoin="round" stroke-miterlimit="10" d="M17.595,22.976
		c-1.641,3.446-4.863,3.104-4.863,3.104"/>
	<path fill="none" stroke="#FFFFFF" stroke-linecap="round" stroke-linejoin="round" stroke-miterlimit="10" d="M20.63,26.722
		c0,0-1.954-0.251-3.519,0.669"/>
	<path fill="none" stroke="#FFFFFF" stroke-linecap="round" stroke-linejoin="round" stroke-miterlimit="10" d="M12.732,26.08
		c0,0,0.75,0.683,3.797-0.191"/>
	<path fill="none" stroke="#FFFFFF" stroke-linecap="round" stroke-linejoin="round" stroke-miterlimit="10" d="M10.922,20.158
		c0,0,1.109-1.577,3.657-1.277"/>
	<path fill="none" stroke="#FFFFFF" stroke-linecap="round" stroke-linejoin="round" stroke-miterlimit="10" d="M16.57,32.86
		c0,0-0.512-0.481-1.078-0.18"/>
	<path fill="none" stroke="#FFFFFF" stroke-linecap="round" stroke-linejoin="round" stroke-miterlimit="10" d="M22.674,32.21
		c0,0-0.469-0.279-0.879,0.069"/>
	<path fill="none" stroke="#FFFFFF" stroke-linecap="round" stroke-linejoin="round" stroke-miterlimit="10" d="M9.301,16.393
		c1.145,1.83,2.183,3.067,1.413,4.035"/>
	<path fill="none" stroke="#FFFFFF" stroke-miterlimit="10" d="M44.855,24.218c0,11.378-9.228,20.605-20.605,20.605
		S3.648,35.597,3.648,24.218c0-3.854,1.059-7.465,2.904-10.551c2.254,3.557,3.623,5.989,4.124,6.944
		c-0.174,0.327-0.36,0.674-0.525,0.989c-0.41,0.781-0.625,1.65-0.608,2.535c0.017,1.047,0.695,2.544,0.897,3.858
		c0.339,2.213,0.219,2.697,1.021,2.709c0.137,0,0.269-0.032,0.393-0.103c0.083,0.119,1.601,2.324,3.896,4.445
		c0.364,0.335,0.922,0.352,1.307,0.042c0.025-0.021,0.046-0.037,0.066-0.059c0.5,0.612,1.104,1.278,1.812,1.932
		c0.368,0.336,0.922,0.353,1.303,0.042c0.244-0.194,0.373-0.476,0.376-0.762c0-0.062-0.004-0.124-0.017-0.19l0.187,0.273
		c0.368,0.335,0.922,0.352,1.303,0.042c0.244-0.195,0.372-0.48,0.376-0.762c0.004-0.239-0.079-0.488-0.257-0.678
		c-0.091-0.104-0.198-0.24-0.323-0.405c0.244,0.235,0.596,0.017,0.596,0.017s1.373-0.277,0.492-1.854
		c-0.095-0.17-0.19-0.326-0.298-0.476c-0.467-0.683-1.013-1.249-1.431-2.337c-0.286-0.74-0.513-1.721-0.616-3.147v-0.004
		c-0.021-0.327-0.042-0.674-0.05-1.047c-0.145-5.376-3.809-7.54-3.809-7.54L10.87,8.551c3.598-3.077,8.276-4.938,13.38-4.938
		c5.104,0,9.777,1.857,13.38,4.938l-5.898,9.583c0,0-3.664,2.163-3.809,7.54c-0.009,0.373-0.025,0.72-0.05,1.047v0.004
		c-0.104,1.427-0.331,2.407-0.616,3.147c-0.418,1.088-0.96,1.654-1.431,2.337c-0.104,0.149-0.203,0.306-0.299,0.476
		c-0.876,1.576,0.493,1.854,0.493,1.854s0.355,0.219,0.595-0.017c-0.124,0.165-0.231,0.302-0.322,0.405
		c-0.178,0.189-0.256,0.438-0.256,0.678c0.004,0.281,0.132,0.566,0.376,0.762c0.385,0.31,0.938,0.293,1.303-0.042l0.187-0.273
		c-0.013,0.066-0.017,0.129-0.017,0.19c0.004,0.286,0.132,0.567,0.376,0.762c0.381,0.311,0.938,0.294,1.303-0.042
		c0.712-0.653,1.315-1.323,1.816-1.936c0.021,0.025,0.041,0.042,0.065,0.063c0.385,0.31,0.939,0.293,1.303-0.042
		c2.3-2.121,3.813-4.326,3.896-4.445c0.124,0.07,0.256,0.103,0.393,0.103c0.803-0.012,0.683-0.496,1.021-2.709
		c0.203-1.314,0.881-2.812,0.902-3.858c0.017-0.885-0.199-1.754-0.612-2.535c-0.165-0.314-0.352-0.662-0.525-0.989
		c0.5-0.956,1.869-3.387,4.128-6.944C43.796,16.753,44.855,20.364,44.855,24.218z"/>
</g>
</svg>
