<?xml version="1.0" encoding="utf-8"?>
<!-- Generator: Adobe Illustrator 16.0.3, SVG Export Plug-In . SVG Version: 6.00 Build 0)  -->
<!DOCTYPE svg PUBLIC "-//W3C//DTD SVG 1.1//EN" "http://www.w3.org/Graphics/SVG/1.1/DTD/svg11.dtd">
<svg version="1.1" id="Layer_1" xmlns="http://www.w3.org/2000/svg" xmlns:xlink="http://www.w3.org/1999/xlink" x="0px" y="0px"
	 width="115.203px" height="109.122px" viewBox="0 0 115.203 109.122" enable-background="new 0 0 115.203 109.122"
	 xml:space="preserve">
<g>
	<path fill="#FFFFFF" d="M64.388,28.676h-0.313v-3.417l-0.611,0.284v-0.001l-3.746,1.848l-1.892,0.927l-3.343,1.632l-3.001,1.471
		l-1.407,3.03l2.805-1.368v-0.005l5.823-2.843l1.898-0.927l0.283-0.142l2.577-1.269v0.78h-0.328c-0.133,0-0.239,0.132-0.239,0.294
		v0.51c0,0.078,0.023,0.147,0.067,0.201c0,0,0.554,0.436,0.569,0.441v0.147c0,0.211,0.093,0.417,0.25,0.578
		c0.054,0.049,0.088,0.138,0.088,0.226c0,0.108-0.044,0.221-0.181,0.279c-0.188,0.084-0.544,0.089-0.657-0.367
		c-0.113-0.446-0.216-0.466-0.28-0.437c-0.098,0.04-0.014,0.118-0.029,0.402c-0.024,0.334,0.064,0.549,0.407,0.78
		c0.393,0.26,1.271,0.113,1.363-0.574c0.023-0.24-0.054-0.407-0.177-0.539c-0.127-0.127-0.3-0.245-0.3-0.451v-0.064
		c0.006,0,0.545-0.421,0.545-0.421c0.034-0.054,0.059-0.123,0.059-0.201v-0.51C64.618,28.808,64.51,28.676,64.388,28.676
		 M63.771,29.617c-0.152,0-0.275-0.118-0.275-0.25c0-0.137,0.123-0.255,0.275-0.255c0.146,0,0.27,0.118,0.27,0.255
		C64.04,29.499,63.917,29.617,63.771,29.617"/>
	<polygon fill="#FFFFFF" points="56.536,25.513 57.404,27.405 59.301,26.479 56.551,20.478 52.148,29.969 55.149,28.503 	"/>
	<polygon fill="#FFFFFF" points="59.091,31.16 60.635,34.45 62.958,34.45 61.017,30.219 	"/>
</g>
<path fill="none" stroke="#FFFFFF" stroke-linecap="round" stroke-linejoin="round" stroke-miterlimit="10" d="M68.886,78.628
	c0,0,1.139-0.598,2.29,0.023"/>
<path fill="none" stroke="#FFFFFF" stroke-linecap="round" stroke-linejoin="round" stroke-miterlimit="10" d="M64.025,77.799
	c0,0,0.85-0.407,1.958-0.029"/>
<path fill="none" stroke="#FFFFFF" stroke-linecap="round" stroke-linejoin="round" stroke-miterlimit="10" d="M64.619,67.82
	c0,0,1.651-0.96,3.146,0.33"/>
<path fill="none" stroke="#FFFFFF" stroke-linecap="round" stroke-linejoin="round" stroke-miterlimit="10" d="M110.114,13.531
	c-3.89,5.66-7.21,10.74-9.97,15.11c-5.46,8.6-8.77,14.48-9.979,16.79"/>
<path fill="none" stroke="#FFFFFF" stroke-linecap="round" stroke-linejoin="round" stroke-miterlimit="10" d="M63.194,78.921
	c-0.04,0.061-0.08,0.101-0.13,0.141c-0.58,0.569-1.439,0.04-1.439,0.04s-3.311-0.67-1.19-4.48c0.23-0.41,0.47-0.79,0.72-1.15
	c1.141-1.649,2.45-3.02,3.46-5.649c0.69-1.79,1.24-4.16,1.49-7.61v-0.01c0.061-0.79,0.101-1.63,0.12-2.53
	c0.351-13,9.21-18.229,9.21-18.229l14.26-23.17l2.631-4.28"/>
<path fill="none" stroke="#FFFFFF" stroke-linecap="round" stroke-linejoin="round" stroke-miterlimit="10" d="M89.575,44.331
	c0.189,0.35,0.39,0.72,0.59,1.1c0.42,0.79,0.87,1.63,1.27,2.39c1,1.89,1.521,3.99,1.48,6.13c-0.051,2.53-1.69,6.149-2.181,9.33
	c-0.819,5.35-0.529,6.52-2.47,6.55c-0.33,0-0.65-0.08-0.95-0.25c-1.489-0.86-2.59-4.02-2.12-10.93c0.57-8.32-1.1-9.05-1.1-9.05"/>
<path fill="none" stroke="#FFFFFF" stroke-linecap="round" stroke-linejoin="round" stroke-miterlimit="10" d="M83.665,65.031
	c-1.681-0.49-2.551,1.46-2.551,1.46c-0.939,2.05-3.38,6.01-5.199,8.56c-0.57,0.8-1.08,1.46-1.46,1.891
	c-0.41,0.47-0.61,1.04-0.61,1.609c0,0.63,0.25,1.271,0.74,1.73c0.05,0.06,0.1,0.1,0.16,0.149c0.93,0.75,2.27,0.71,3.149-0.1
	c5.561-5.13,9.22-10.46,9.42-10.75v-0.01"/>
<path fill="none" stroke="#FFFFFF" stroke-linecap="round" stroke-linejoin="round" stroke-miterlimit="10" d="M77.575,68.581
	c-1.7-0.89-3.24,0.79-3.24,0.79c-0.851,1.89-3.431,6.21-5.45,9.26c-0.88,1.32-1.65,2.41-2.13,2.95c-0.32,0.35-0.51,0.76-0.58,1.18
	c-0.03,0.16-0.04,0.311-0.04,0.46c0.01,0.69,0.32,1.37,0.91,1.841c0.92,0.75,2.27,0.71,3.149-0.101c1.721-1.58,3.181-3.2,4.391-4.68
	"/>
<path fill="none" stroke="#FFFFFF" stroke-linecap="round" stroke-linejoin="round" stroke-miterlimit="10" d="M71.875,69.671
	c-1.221-1.029-2.82-0.51-2.82-0.51c-1.06,2.33-4.14,7.4-5.99,9.9c-0.3,0.399-0.56,0.729-0.779,0.979
	c-0.431,0.46-0.62,1.061-0.62,1.641c0.01,0.68,0.319,1.369,0.91,1.84c0.93,0.75,2.27,0.71,3.149-0.101l0.45-0.66"/>
<path fill="none" stroke="#FFFFFF" stroke-linecap="round" stroke-linejoin="round" stroke-miterlimit="10" d="M73.438,51.148
	c3.968,8.331,11.758,7.505,11.758,7.505"/>
<path fill="none" stroke="#FFFFFF" stroke-linecap="round" stroke-linejoin="round" stroke-miterlimit="10" d="M66.102,60.204
	c0,0,4.724-0.607,8.507,1.617"/>
<path fill="none" stroke="#FFFFFF" stroke-linecap="round" stroke-linejoin="round" stroke-miterlimit="10" d="M85.196,58.653
	c0,0-1.813,1.649-9.18-0.465"/>
<path fill="none" stroke="#FFFFFF" stroke-linecap="round" stroke-linejoin="round" stroke-miterlimit="10" d="M89.571,44.335
	c0,0-2.682-3.814-8.843-3.088"/>
<path fill="none" stroke="#FFFFFF" stroke-linecap="round" stroke-linejoin="round" stroke-miterlimit="10" d="M75.916,75.047
	c0,0,1.237-1.165,2.607-0.435"/>
<path fill="none" stroke="#FFFFFF" stroke-linecap="round" stroke-linejoin="round" stroke-miterlimit="10" d="M61.157,73.474
	c0,0,1.133-0.675,2.125,0.167"/>
<path fill="none" stroke="#FFFFFF" stroke-linecap="round" stroke-linejoin="round" stroke-miterlimit="10" d="M93.492,35.231
	c-2.767,4.423-5.279,7.417-3.415,9.756"/>
<path fill="none" stroke="#FFFFFF" stroke-linecap="round" stroke-linejoin="round" stroke-miterlimit="10" d="M45.807,78.628
	c0,0-1.139-0.598-2.29,0.023"/>
<path fill="none" stroke="#FFFFFF" stroke-linecap="round" stroke-linejoin="round" stroke-miterlimit="10" d="M50.668,77.799
	c0,0-0.85-0.407-1.958-0.029"/>
<path fill="none" stroke="#FFFFFF" stroke-linecap="round" stroke-linejoin="round" stroke-miterlimit="10" d="M50.074,67.82
	c0,0-1.651-0.96-3.146,0.33"/>
<path fill="none" stroke="#FFFFFF" stroke-linecap="round" stroke-linejoin="round" stroke-miterlimit="10" d="M4.575,13.531
	c3.89,5.66,7.21,10.74,9.98,15.11c5.45,8.6,8.76,14.48,9.97,16.79"/>
<path fill="none" stroke="#FFFFFF" stroke-linecap="round" stroke-linejoin="round" stroke-miterlimit="10" d="M22.365,11.991
	l2.63,4.28l14.26,23.17c0,0,8.86,5.23,9.21,18.23c0.02,0.9,0.07,1.74,0.12,2.53v0.01c0.25,3.45,0.8,5.82,1.49,7.61
	c1.01,2.63,2.33,4,3.46,5.649c0.26,0.36,0.49,0.74,0.72,1.15c2.13,3.81-1.19,4.479-1.19,4.479s-0.85,0.53-1.44-0.039
	c-0.04-0.04-0.09-0.08-0.13-0.141"/>
<path fill="none" stroke="#FFFFFF" stroke-linecap="round" stroke-linejoin="round" stroke-miterlimit="10" d="M30.595,49.601
	c0,0-1.67,0.73-1.1,9.05c0.48,6.92-0.62,10.069-2.12,10.93c-0.3,0.17-0.62,0.25-0.95,0.25c-1.94-0.03-1.65-1.2-2.47-6.55
	c-0.49-3.181-2.13-6.8-2.17-9.33c-0.04-2.14,0.48-4.24,1.47-6.13c0.4-0.76,0.85-1.6,1.27-2.39c0.21-0.38,0.41-0.75,0.6-1.1"/>
<path fill="none" stroke="#FFFFFF" stroke-linecap="round" stroke-linejoin="round" stroke-miterlimit="10" d="M31.025,65.031
	c1.68-0.49,2.56,1.46,2.56,1.46c0.94,2.05,3.38,6.01,5.19,8.56c0.57,0.8,1.08,1.46,1.46,1.891c0.41,0.47,0.61,1.04,0.61,1.609
	c0,0.63-0.25,1.271-0.73,1.74c-0.05,0.05-0.1,0.09-0.16,0.14c-0.93,0.75-2.28,0.71-3.16-0.1c-5.55-5.13-9.22-10.46-9.42-10.75v-0.01
	"/>
<path fill="none" stroke="#FFFFFF" stroke-linecap="round" stroke-linejoin="round" stroke-miterlimit="10" d="M40.104,80.281
	l0.01,0.01c1.21,1.48,2.67,3.09,4.38,4.67c0.89,0.811,2.23,0.851,3.15,0.101c0.59-0.471,0.9-1.15,0.91-1.841
	c0-0.149-0.01-0.3-0.04-0.46c-0.07-0.42-0.26-0.83-0.58-1.18c-1.59-1.8-6.35-9.51-7.58-12.21c0,0-1.54-1.68-3.23-0.79"/>
<path fill="none" stroke="#FFFFFF" stroke-linecap="round" stroke-linejoin="round" stroke-miterlimit="10" d="M48.515,82.761
	l0.45,0.66c0.89,0.811,2.23,0.851,3.15,0.101c0.59-0.471,0.9-1.16,0.91-1.84c0.01-0.58-0.19-1.181-0.62-1.641
	c-0.22-0.25-0.48-0.58-0.78-0.979c-1.85-2.5-4.92-7.57-5.98-9.9c0,0-1.61-0.52-2.82,0.51"/>
<path fill="none" stroke="#FFFFFF" stroke-linecap="round" stroke-linejoin="round" stroke-miterlimit="10" d="M41.254,51.148
	c-3.968,8.331-11.758,7.505-11.758,7.505"/>
<path fill="none" stroke="#FFFFFF" stroke-linecap="round" stroke-linejoin="round" stroke-miterlimit="10" d="M48.592,60.204
	c0,0-4.724-0.607-8.507,1.617"/>
<path fill="none" stroke="#FFFFFF" stroke-linecap="round" stroke-linejoin="round" stroke-miterlimit="10" d="M29.496,58.653
	c0,0,1.814,1.649,9.18-0.465"/>
<path fill="none" stroke="#FFFFFF" stroke-linecap="round" stroke-linejoin="round" stroke-miterlimit="10" d="M25.121,44.335
	c0,0,2.682-3.814,8.843-3.088"/>
<path fill="none" stroke="#FFFFFF" stroke-linecap="round" stroke-linejoin="round" stroke-miterlimit="10" d="M38.777,75.047
	c0,0-1.237-1.165-2.607-0.435"/>
<path fill="none" stroke="#FFFFFF" stroke-linecap="round" stroke-linejoin="round" stroke-miterlimit="10" d="M53.536,73.474
	c0,0-1.133-0.675-2.125,0.167"/>
<path fill="none" stroke="#FFFFFF" stroke-linecap="round" stroke-linejoin="round" stroke-miterlimit="10" d="M21.201,35.231
	c2.767,4.423,5.279,7.417,3.415,9.756"/>
<path fill="none" stroke="#FFFFFF" stroke-miterlimit="10" d="M107.165,54.151c0,27.51-22.311,49.819-49.82,49.819
	s-49.81-22.31-49.81-49.819c0-9.32,2.56-18.05,7.02-25.51c5.45,8.6,8.76,14.48,9.97,16.79c-0.42,0.79-0.87,1.63-1.27,2.39
	c-0.99,1.89-1.51,3.99-1.47,6.13c0.04,2.53,1.68,6.15,2.17,9.33c0.82,5.35,0.53,6.52,2.47,6.55c0.33,0,0.65-0.08,0.95-0.25
	c0.2,0.29,3.87,5.62,9.42,10.75c0.88,0.81,2.23,0.85,3.16,0.1c0.06-0.05,0.11-0.09,0.16-0.14c1.21,1.48,2.67,3.09,4.38,4.67
	c0.89,0.811,2.23,0.851,3.15,0.101c0.59-0.471,0.9-1.15,0.91-1.841c0-0.149-0.01-0.3-0.04-0.46l0.45,0.66
	c0.89,0.811,2.23,0.851,3.15,0.101c0.59-0.471,0.9-1.16,0.91-1.841c0.01-0.579-0.19-1.18-0.62-1.64c-0.22-0.25-0.48-0.58-0.78-0.979
	c0.59,0.569,1.44,0.04,1.44,0.04s3.32-0.671,1.19-4.48c-0.23-0.41-0.46-0.79-0.72-1.15c-1.13-1.649-2.45-3.02-3.46-5.649
	c-0.69-1.79-1.24-4.16-1.49-7.61v-0.01c-0.05-0.79-0.1-1.63-0.12-2.53c-0.35-13-9.21-18.23-9.21-18.23l-14.26-23.17
	c8.7-7.44,20.01-11.94,32.35-11.94s23.64,4.49,32.35,11.94l-14.26,23.17c0,0-8.859,5.23-9.21,18.23c-0.02,0.9-0.06,1.74-0.12,2.53
	v0.01c-0.25,3.45-0.8,5.82-1.49,7.61c-1.01,2.63-2.319,4-3.46,5.649c-0.25,0.36-0.489,0.74-0.72,1.15
	c-2.12,3.81,1.19,4.48,1.19,4.48s0.859,0.529,1.439-0.04c-0.3,0.399-0.56,0.729-0.779,0.979c-0.431,0.46-0.62,1.061-0.62,1.64
	c0.01,0.681,0.319,1.37,0.91,1.841c0.93,0.75,2.27,0.71,3.149-0.101l0.45-0.66c-0.03,0.16-0.04,0.311-0.04,0.46
	c0.01,0.69,0.32,1.37,0.91,1.841c0.92,0.75,2.27,0.71,3.149-0.101c1.721-1.58,3.181-3.2,4.391-4.68c0.05,0.06,0.1,0.1,0.16,0.149
	c0.93,0.75,2.27,0.71,3.149-0.1c5.561-5.13,9.22-10.46,9.42-10.75c0.3,0.17,0.62,0.25,0.95,0.25c1.94-0.03,1.65-1.2,2.47-6.55
	c0.49-3.18,2.13-6.8,2.181-9.33c0.04-2.14-0.48-4.24-1.48-6.13c-0.399-0.76-0.85-1.6-1.27-2.39c1.21-2.31,4.52-8.19,9.979-16.79
	C104.604,36.101,107.165,44.831,107.165,54.151z"/>
</svg>
