<?xml version="1.0" encoding="utf-8"?>
<!-- Generator: Adobe Illustrator 16.0.3, SVG Export Plug-In . SVG Version: 6.00 Build 0)  -->
<!DOCTYPE svg PUBLIC "-//W3C//DTD SVG 1.1//EN" "http://www.w3.org/Graphics/SVG/1.1/DTD/svg11.dtd">
<svg version="1.1" id="Layer_1" xmlns="http://www.w3.org/2000/svg" xmlns:xlink="http://www.w3.org/1999/xlink" x="0px" y="0px"
	 width="34.32px" height="25.384px" viewBox="0 0 34.32 25.384" enable-background="new 0 0 34.32 25.384" xml:space="preserve">
<g>
	<path fill="none" stroke="#ffffff" stroke-miterlimit="10" d="M30.773,23.619H3.42c-0.93,0-1.683-0.754-1.683-1.684V3.39
		c0-0.929,0.753-1.683,1.683-1.683h27.353c0.929,0,1.683,0.753,1.683,1.683v18.545C32.456,22.865,31.702,23.619,30.773,23.619z"/>
	<polyline fill="none" stroke="#ffffff" stroke-linecap="round" stroke-linejoin="round" stroke-miterlimit="10" points="
		3.914,3.65 3.914,21.326 29.635,21.326 	"/>
	<g>
		
			<line fill="none" stroke="#ffffff" stroke-linecap="round" stroke-linejoin="round" stroke-miterlimit="10" x1="3.169" y1="4.922" x2="4.705" y2="4.922"/>
		
			<line fill="none" stroke="#ffffff" stroke-linecap="round" stroke-linejoin="round" stroke-miterlimit="10" x1="3.169" y1="9.207" x2="4.705" y2="9.207"/>
		
			<line fill="none" stroke="#ffffff" stroke-linecap="round" stroke-linejoin="round" stroke-miterlimit="10" x1="3.169" y1="13.493" x2="4.705" y2="13.493"/>
		
			<line fill="none" stroke="#ffffff" stroke-linecap="round" stroke-linejoin="round" stroke-miterlimit="10" x1="3.169" y1="17.778" x2="4.705" y2="17.778"/>
	</g>
	<g>
		
			<line fill="none" stroke="#ffffff" stroke-linecap="round" stroke-linejoin="round" stroke-miterlimit="10" x1="27.491" y1="20.558" x2="27.491" y2="22.093"/>
		
			<line fill="none" stroke="#ffffff" stroke-linecap="round" stroke-linejoin="round" stroke-miterlimit="10" x1="21.27" y1="20.558" x2="21.27" y2="22.093"/>
		
			<line fill="none" stroke="#ffffff" stroke-linecap="round" stroke-linejoin="round" stroke-miterlimit="10" x1="15.048" y1="20.558" x2="15.048" y2="22.093"/>
		
			<line fill="none" stroke="#ffffff" stroke-linecap="round" stroke-linejoin="round" stroke-miterlimit="10" x1="8.827" y1="20.558" x2="8.827" y2="22.093"/>
	</g>
	
		<rect x="7.243" y="9.621" fill="none" stroke="#ffffff" stroke-linecap="round" stroke-linejoin="round" stroke-miterlimit="10" width="3.168" height="9.441"/>
	
		<rect x="19.686" y="11.762" fill="none" stroke="#ffffff" stroke-linecap="round" stroke-linejoin="round" stroke-miterlimit="10" width="3.168" height="7.3"/>
	
		<rect x="25.907" y="9.207" fill="none" stroke="#ffffff" stroke-linecap="round" stroke-linejoin="round" stroke-miterlimit="10" width="3.168" height="9.855"/>
	
		<rect x="13.464" y="6.147" fill="none" stroke="#ffffff" stroke-linecap="round" stroke-linejoin="round" stroke-miterlimit="10" width="3.168" height="12.915"/>
</g>
</svg>
