<?xml version="1.0" encoding="utf-8"?>
<!-- Generator: Adobe Illustrator 16.0.3, SVG Export Plug-In . SVG Version: 6.00 Build 0)  -->
<!DOCTYPE svg PUBLIC "-//W3C//DTD SVG 1.1//EN" "http://www.w3.org/Graphics/SVG/1.1/DTD/svg11.dtd">
<svg version="1.1" id="Layer_1" xmlns="http://www.w3.org/2000/svg" xmlns:xlink="http://www.w3.org/1999/xlink" x="0px" y="0px"
	 width="585px" height="353px" viewBox="-10.601 -16.552 585 353" enable-background="new -10.601 -16.552 585 353"
	 xml:space="preserve">
<g id="Guides_For_Artboard">
</g>
<g id="Layer_1_1_">
</g>
<g id="Layer_2">
	<g>
		<g>
			<g>
				
					<path fill="none" stroke="#231F20" stroke-width="2" stroke-linecap="round" stroke-linejoin="round" stroke-miterlimit="10" d="
					M212.48,175.64c5.28,16.117,4.916,54.399,4.916,60.669c0,6.268-4.124,43.772-4.124,43.772v26.431c0,0,0,3.762,6.187,4.283
					c6.187,0.522,11.686,5.852,13.06,6.373c1.375,0.522,27.266,1.566,29.786-0.521c2.521-2.09,9.967-1.358,9.967-1.358
					c7.104,0.94,41.014,0,41.014,0s1.719-0.209,3.322-3.134c1.604-2.926,15.66-15.079,15.66-15.079c2.549-1.788,0.979-5.185,0-6.794
					c-0.98-1.607-4.902-10.726-5.098-13.943s-2.156-7.329-2.156-7.329s-4.314-9.832-10.391-21.632
					c-6.076-11.799-37.27-80.734-37.27-80.734s5.487,59.413-0.563,88.435c0,0-27.417-71.083-30.464-87.261
					c0,0,0.789,51.805-1.726,59.158c0,0-26.501-41.298-29.989-52.626c0,0,27.013,57.548,14.471,89.389
					c0,0-8.409-29.762-9.548-52.765l-5.723-35.828"/>
				
					<path fill="none" stroke="#231F20" stroke-width="2" stroke-linecap="round" stroke-linejoin="round" stroke-miterlimit="10" d="
					M311.872,241.766c0,0-1.836,8.817-6.068,0c0,0,0.373,9.958-3.859,3.919c0,0-0.797,11.798-5.688,3.729"/>
				
					<path fill="none" stroke="#231F20" stroke-width="2" stroke-linecap="round" stroke-linejoin="round" stroke-miterlimit="10" d="
					M305.804,241.766l-26.643-71.134c5.498,18.168,21.069,77.154,16.903,96.632c-4.168,19.477-19.273-12.188-19.273-12.188
					s-0.603,23.476-15.216-0.929L244.6,226.973c0,0,1.833,16.736-4.682,37.608c-6.515,20.873-10.836-0.847-10.836-0.847"/>
				
					<line fill="none" stroke="#231F20" stroke-width="2" stroke-linecap="round" stroke-linejoin="round" stroke-miterlimit="10" x1="301.942" y1="245.685" x2="280.105" y2="173.152"/>
				
					<path fill="none" stroke="#231F20" stroke-width="2" stroke-linecap="round" stroke-linejoin="round" stroke-miterlimit="10" d="
					M296.724,261.235c0,0-9.553-17.688-12.241-37.047l-5.802-50.981"/>
				
					<path fill="none" stroke="#231F20" stroke-width="2" stroke-linecap="round" stroke-linejoin="round" stroke-miterlimit="10" d="
					M289.153,243.299c0,0-3.681,11.237-5.095,0c0,0-2.058,13.226-6.125,4.994"/>
				
					<line fill="none" stroke="#231F20" stroke-width="2" stroke-linecap="round" stroke-linejoin="round" stroke-miterlimit="10" x1="284.059" y1="243.299" x2="278.68" y2="175.103"/>
				
					<path fill="none" stroke="#231F20" stroke-width="2" stroke-linecap="round" stroke-linejoin="round" stroke-miterlimit="10" d="
					M244.601,236.34c0,0-5.556,2.901-8.322-6.56c0,0,5.037,34.439-4.191,20.695"/>
				
					<path fill="none" stroke="#231F20" stroke-width="2" stroke-linecap="round" stroke-linejoin="round" stroke-miterlimit="10" d="
					M236.279,229.78c0,0-11.133-40.27-20.576-52.554"/>
				
					<line fill="none" stroke="#231F20" stroke-width="2" stroke-linecap="round" stroke-linejoin="round" stroke-miterlimit="10" x1="270.072" y1="315.175" x2="286.171" y2="304.302"/>
				
					<path fill="none" stroke="#231F20" stroke-width="2" stroke-linecap="round" stroke-linejoin="round" stroke-miterlimit="10" d="
					M327.169,276.338c0,0-2.033,4.307,0,11.817"/>
				
					<path fill="none" stroke="#231F20" stroke-width="2" stroke-linecap="round" stroke-linejoin="round" stroke-miterlimit="10" d="
					M272.531,246.201c0,0-7.006,3.808-9.743-6.622c0,0-1.984,12.266-7.15,5.063"/>
				
					<path fill="none" stroke="#231F20" stroke-width="2" stroke-linecap="round" stroke-linejoin="round" stroke-miterlimit="10" d="
					M247.295,172.009c1.834,15.867,15.495,67.57,15.495,67.57"/>
				
					<path fill="none" stroke="#231F20" stroke-width="2" stroke-linecap="round" stroke-linejoin="round" stroke-miterlimit="10" d="
					M251.509,238.032c0,0-4.554-64.257-4.554-64.792"/>
				
					<path fill="none" stroke="#231F20" stroke-width="2" stroke-linecap="round" stroke-linejoin="round" stroke-miterlimit="10" d="
					M213.272,298.328c0,0,10.69,2.44,21.295-6.869"/>
				
					<path fill="none" stroke="#231F20" stroke-width="2" stroke-linecap="round" stroke-linejoin="round" stroke-miterlimit="10" d="
					M213.272,305.649c0,0,14.654,0.633,25.073-10.123"/>
				
					<path fill="none" stroke="#231F20" stroke-width="2" stroke-linecap="round" stroke-linejoin="round" stroke-miterlimit="10" d="
					M219.458,310.797c0,0,9.955-1.606,16.695-6.495"/>
				
					<path fill="none" stroke="#231F20" stroke-width="2" stroke-linecap="round" stroke-linejoin="round" stroke-miterlimit="10" d="
					M227.805,290.645c0,0-0.375,13.737,6.762,22.326"/>
				
					<path fill="none" stroke="#231F20" stroke-width="2" stroke-linecap="round" stroke-linejoin="round" stroke-miterlimit="10" d="
					M221.285,291.459c0,0-1.53,11.714,6.52,22.533"/>
				
					<path fill="none" stroke="#231F20" stroke-width="2" stroke-linecap="round" stroke-linejoin="round" stroke-miterlimit="10" d="
					M237.004,252.237c0,0,0.938,13.875-2.979,21.373"/>
				
					<path fill="none" stroke="#231F20" stroke-width="2" stroke-linecap="round" stroke-linejoin="round" stroke-miterlimit="10" d="
					M311.499,253.716c0,0,4.764,8.509,6.408,15.377"/>
				
					<path fill="none" stroke="#231F20" stroke-width="2" stroke-linecap="round" stroke-linejoin="round" stroke-miterlimit="10" d="
					M308.728,261.235c0,0,4.07,8.373,5.283,15.103"/>
				
					<path fill="none" stroke="#231F20" stroke-width="2" stroke-linecap="round" stroke-linejoin="round" stroke-miterlimit="10" d="
					M317.907,253.892c0,0-4.48,12.356-13.844,13.463"/>
				
					<path fill="none" stroke="#231F20" stroke-width="2" stroke-linecap="round" stroke-linejoin="round" stroke-miterlimit="10" d="
					M321.528,261.404c0,0-9.229,10.531-17.465,12.505"/>
				
					<line fill="none" stroke="#231F20" stroke-width="2" stroke-linecap="round" stroke-linejoin="round" stroke-miterlimit="10" x1="315.396" y1="281.174" x2="316.087" y2="284.016"/>
				
					<path fill="none" stroke="#231F20" stroke-width="2" stroke-linecap="round" stroke-linejoin="round" stroke-miterlimit="10" d="
					M315.741,313.473c0,0,1.516-12.914,2.166-16.783"/>
				
					<path fill="none" stroke="#231F20" stroke-width="2" stroke-linecap="round" stroke-linejoin="round" stroke-miterlimit="10" d="
					M308.341,315.411c0,0,4.414-15.919,3.895-23.952"/>
				
					<path fill="none" stroke="#231F20" stroke-width="2" stroke-linecap="round" stroke-linejoin="round" stroke-miterlimit="10" d="
					M306.175,287.61c0,0,0.086,12.002-3.465,19.582"/>
				
					<path fill="none" stroke="#231F20" stroke-width="2" stroke-linecap="round" stroke-linejoin="round" stroke-miterlimit="10" d="
					M320.894,300.592c0,0-12.555-0.311-21.213-9.133"/>
				
					<path fill="none" stroke="#231F20" stroke-width="2" stroke-linecap="round" stroke-linejoin="round" stroke-miterlimit="10" d="
					M320.894,307.416c0,0-17.836-2.118-28.141-10.726"/>
				
					<path fill="none" stroke="#231F20" stroke-width="2" stroke-linecap="round" stroke-linejoin="round" stroke-miterlimit="10" d="
					M266.608,261.404c0,0,5.459,10.308,11.513,11.64"/>
				
					<path fill="none" stroke="#231F20" stroke-width="2" stroke-linecap="round" stroke-linejoin="round" stroke-miterlimit="10" d="
					M237.481,270.719c0,0-2.641,9.883-12.994,5.619"/>
				
					<path fill="none" stroke="#231F20" stroke-width="2" stroke-linecap="round" stroke-linejoin="round" stroke-miterlimit="10" d="
					M263.605,281.174c0,0-0.861,8.467,3.003,15.518"/>
				
					<path fill="none" stroke="#231F20" stroke-width="2" stroke-linecap="round" stroke-linejoin="round" stroke-miterlimit="10" d="
					M258.201,286.906c0,0-0.057,8.747,4.587,15.819"/>
				
					<path fill="none" stroke="#231F20" stroke-width="2" stroke-linecap="round" stroke-linejoin="round" stroke-miterlimit="10" d="
					M269.006,286.906c0,0-8.205,6.468-17.499,6.673"/>
				
					<path fill="none" stroke="#231F20" stroke-width="2" stroke-linecap="round" stroke-linejoin="round" stroke-miterlimit="10" d="
					M271.538,292.189c0,0-8.207,6.468-17.499,6.673"/>
				
					<path fill="none" stroke="#231F20" stroke-width="2" stroke-linecap="round" stroke-linejoin="round" stroke-miterlimit="10" d="
					M244.826,231.409c0,0,6.76,13.53,4.416,28.61"/>
				
					<line fill="none" stroke="#231F20" stroke-width="2" stroke-linecap="round" stroke-linejoin="round" stroke-miterlimit="10" x1="247.797" y1="265.719" x2="245.661" y2="269.756"/>
				
					<path fill="none" stroke="#231F20" stroke-width="2" stroke-linecap="round" stroke-linejoin="round" stroke-miterlimit="10" d="
					M293.739,272.637c0,0-2.361,4.154-7.059,2.861"/>
				
					<path fill="none" stroke="#231F20" stroke-width="2" stroke-linecap="round" stroke-linejoin="round" stroke-miterlimit="10" d="
					M262.303,316.647c0,0-1.117-2.142-7.362-3.174"/>
			</g>
			
				<line fill="none" stroke="#231F20" stroke-width="2" stroke-linecap="round" stroke-linejoin="round" stroke-miterlimit="10" x1="92.254" y1="212.055" x2="106.756" y2="212.055"/>
			
				<line fill="none" stroke="#231F20" stroke-width="2" stroke-linecap="round" stroke-linejoin="round" stroke-miterlimit="10" x1="125.692" y1="212.417" x2="133.346" y2="212.417"/>
			
				<line fill="none" stroke="#231F20" stroke-width="2" stroke-linecap="round" stroke-linejoin="round" stroke-miterlimit="10" x1="112.799" y1="198.503" x2="116.023" y2="198.503"/>
			
				<line fill="none" stroke="#231F20" stroke-width="2" stroke-linecap="round" stroke-linejoin="round" stroke-miterlimit="10" x1="394.61" y1="204.896" x2="400.202" y2="204.896"/>
			
				<line fill="none" stroke="#231F20" stroke-width="2" stroke-linecap="round" stroke-linejoin="round" stroke-miterlimit="10" x1="442.665" y1="205.388" x2="447.015" y2="205.388"/>
			
				<line fill="none" stroke="#231F20" stroke-width="2" stroke-linecap="round" stroke-linejoin="round" stroke-miterlimit="10" x1="347.649" y1="241.684" x2="354.272" y2="241.684"/>
			
				<line fill="none" stroke="#231F20" stroke-width="2" stroke-linecap="round" stroke-linejoin="round" stroke-miterlimit="10" x1="380.401" y1="64.204" x2="388.366" y2="64.204"/>
			
				<line fill="none" stroke="#231F20" stroke-width="2" stroke-linecap="round" stroke-linejoin="round" stroke-miterlimit="10" x1="416.046" y1="67.083" x2="420.241" y2="67.083"/>
			<g>
				
					<path fill="none" stroke="#231F20" stroke-width="2" stroke-linecap="round" stroke-linejoin="round" stroke-miterlimit="10" d="
					M495.278,82.135c-0.275-1.078-0.213-2.156,0.484-3.022c0,0,3.383-7.968,14.9-8.158h1.311"/>
				
					<path fill="none" stroke="#231F20" stroke-width="2" stroke-linecap="round" stroke-linejoin="round" stroke-miterlimit="10" d="
					M191.538,157.99l-51.486-4.058c0,0-8.708,0.211-8.201-5.518c0,0-9.067-0.888-14.668-1.67c-5.58-0.781-13.421-3.931-16.782-6.149
					c-3.339-2.24-10.293-12.533-10.166-16.57c0.105-4.016,3.339-6.932,6.15-8.729c2.79-1.775,6.193-4.903,6.193-4.903l16.337-15.302
					c7.06-6.764,23.735-7.609,23.735-7.609c2.262-5.389,6.256-5.22,6.256-5.22c23.46-6.425,83.232-7.651,83.232-7.651
					s3.487-3.466,10.25-2.452c6.764,0.994,46.541,10.124,55.291,10.335c8.75,0.19,13.717,1.185,16.508,1.987
					c2.768,0.803,14.52,6.171,16.104,10.927c0,0,13.125,12.66,17.691,14.794c4.586,2.114,98.639,26.97,98.639,26.97
					s4.988,1.015,6.764-1.586l40.982-43.688"/>
				
					<path fill="none" stroke="#231F20" stroke-width="2" stroke-linecap="round" stroke-linejoin="round" stroke-miterlimit="10" d="
					M216.415,159.934l0.19,0.021l75.517,4.164l7.08-2.282l143.766,3.952c6.234,0,15.789-3.655,15.789-3.655l12.131-3.741
					l64.717-4.396l-17.141-20.015l-17.143,0.655l5.939-9.701h3.824c0,0,1.988-0.423,2.326-2.494
					c0.316-2.092-1.521-2.219-1.521-2.219l-10.568-1.1l21.115-27.855"/>
				
					<line fill="none" stroke="#231F20" stroke-width="2" stroke-linecap="round" stroke-linejoin="round" stroke-miterlimit="10" x1="198.661" y1="158.539" x2="198.365" y2="158.518"/>
				
					<path fill="none" stroke="#231F20" stroke-width="2" stroke-linecap="round" stroke-linejoin="round" stroke-miterlimit="10" d="
					M251.367,102.273l-32.824-3.147c0,0,2.967,28.868-2.518,47.033l33.723,2.878C249.748,149.037,257.301,125.297,251.367,102.273z"
					/>
				
					<path fill="none" stroke="#231F20" stroke-width="2" stroke-linecap="round" stroke-linejoin="round" stroke-miterlimit="10" d="
					M131.846,148.418c0,0,6.758-16.516,4.273-31.765l12.463-23.31c0.532-0.996,1.567-1.619,2.696-1.625l15.768-0.081
					c0,0-4.112-3.17-7.881-4.026c-3.77-0.856-16.505-0.14-16.505-0.14"/>
				
					<polyline fill="none" stroke="#231F20" stroke-width="2" stroke-linecap="round" stroke-linejoin="round" stroke-miterlimit="10" points="
					220.84,74.965 222.743,71.366 228.911,71.366 230.364,74.657 				"/>
				<g>
					
						<line fill="none" stroke="#231F20" stroke-width="2" stroke-linecap="round" stroke-linejoin="round" stroke-miterlimit="10" x1="223.917" y1="70.954" x2="223.917" y2="60.37"/>
					
						<line fill="none" stroke="#231F20" stroke-width="2" stroke-linecap="round" stroke-linejoin="round" stroke-miterlimit="10" x1="227.984" y1="70.954" x2="227.984" y2="60.872"/>
				</g>
				
					<path fill="none" stroke="#231F20" stroke-width="2" stroke-linecap="round" stroke-linejoin="round" stroke-miterlimit="10" d="
					M155.143,155.116c0.888,0.973,1.775,1.944,2.663,2.917c0.253,0.275,0.486,0.528,0.74,0.804c1.818,1.986,3.656,3.994,5.474,6.002
					c0.888,0.95,1.754,1.881,2.621,2.832c0.592,0.676,1.839,1.627,1.966,2.493c0.127,1.101-1.099,2.451-2.24,2.198
					c-1.184-0.296-1.902-1.163-2.706-1.987c-1.881-1.943-3.762-3.889-5.643-5.854c-1.078-1.121-2.177-2.262-3.255-3.383
					c-1.078-1.119-2.135-2.219-3.213-3.339c-1.036-1.078-2.071-2.136-3.106-3.213"/>
				
					<line fill="none" stroke="#231F20" stroke-width="2" stroke-linecap="round" stroke-linejoin="round" stroke-miterlimit="10" x1="170.553" y1="156.326" x2="168.006" y2="168.642"/>
				
					<path fill="none" stroke="#231F20" stroke-width="2" stroke-linecap="round" stroke-linejoin="round" stroke-miterlimit="10" d="
					M172.157,169.13c0,5.979-4.65,10.842-10.399,10.842s-10.398-4.861-10.398-10.842c0-3.172,1.311-6.004,3.403-7.99
					c1.078,1.121,2.177,2.262,3.255,3.383c1.881,1.965,3.762,3.909,5.643,5.854c0.803,0.824,1.522,1.691,2.706,1.987
					c1.141,0.253,2.367-1.099,2.24-2.198c-0.127-0.866-1.374-1.817-1.966-2.493c-0.866-0.951-1.733-1.882-2.621-2.832
					c-1.818-2.009-3.656-4.017-5.474-6.002c1.015-0.339,2.092-0.528,3.212-0.528C167.507,158.307,172.157,163.168,172.157,169.13z"
					/>
				<path fill="#231F20" d="M162.68,162.114c-0.339,0-0.666,0.05-0.99,0.104l5.356,5.623c2.441,2.188,0.801,3.662,0.801,3.662
					c-1.6,1.643-3.747-0.337-3.747-0.337l-6.174-6.725c-0.92,1.133-1.496,2.58-1.496,4.181c0,3.596,2.798,6.511,6.25,6.511
					c3.452,0,6.25-2.915,6.25-6.511C168.93,165.028,166.132,162.114,162.68,162.114z"/>
				
					<path fill="none" stroke="#231F20" stroke-width="2" stroke-linecap="round" stroke-linejoin="round" stroke-miterlimit="10" d="
					M165.763,142.739l18.849,8.619l4.625-3.503v-5.115l-18.008-7.427c0,0-6.446-2.032-8.128,2.102
					C161.419,141.55,165.763,142.739,165.763,142.739z"/>
				
					<line fill="none" stroke="#231F20" stroke-width="2" stroke-linecap="round" stroke-linejoin="round" stroke-miterlimit="10" x1="185.25" y1="150.873" x2="196.415" y2="163.49"/>
				
					<line fill="none" stroke="#231F20" stroke-width="2" stroke-linecap="round" stroke-linejoin="round" stroke-miterlimit="10" x1="189.236" y1="147.854" x2="198.365" y2="158.518"/>
				<g>
					
						<ellipse fill="none" stroke="#231F20" stroke-width="2" stroke-linecap="round" stroke-linejoin="round" stroke-miterlimit="10" cx="207.107" cy="165.528" rx="10.665" ry="11.486"/>
					
						<ellipse fill="none" stroke="#231F20" stroke-width="2" stroke-linecap="round" stroke-linejoin="round" stroke-miterlimit="10" cx="208.621" cy="165.315" rx="5.296" ry="5.704"/>
					<ellipse fill="#231F20" cx="209.485" cy="165.315" rx="1.905" ry="2.501"/>
				</g>
				<g>
					
						<ellipse fill="none" stroke="#231F20" stroke-width="2" stroke-linecap="round" stroke-linejoin="round" stroke-miterlimit="10" cx="328.681" cy="190.354" rx="6.895" ry="7.427"/>
					<ellipse fill="#231F20" cx="329.659" cy="190.217" rx="3.426" ry="3.688"/>
				</g>
				<g>
					
						<path fill="none" stroke="#231F20" stroke-width="2" stroke-linecap="round" stroke-linejoin="round" stroke-miterlimit="10" d="
						M325.429,197.219c-0.723,0.275-1.498,0.426-2.307,0.426c-3.811,0-6.896-3.324-6.896-7.428c0-3.339,2.045-6.161,4.859-7.098"/>
				</g>
				
					<line fill="none" stroke="#231F20" stroke-width="2" stroke-linecap="round" stroke-linejoin="round" stroke-miterlimit="10" x1="206.281" y1="154.078" x2="206.772" y2="148.803"/>
				
					<line fill="none" stroke="#231F20" stroke-width="2" stroke-linecap="round" stroke-linejoin="round" stroke-miterlimit="10" x1="210.896" y1="154.791" x2="211.326" y2="149.037"/>
				
					<path fill="none" stroke="#231F20" stroke-width="2" stroke-linecap="round" stroke-linejoin="round" stroke-miterlimit="10" d="
					M205.057,148.418c0,0,4.51-0.909,8.038,1.145"/>
				
					<polyline fill="none" stroke="#231F20" stroke-width="2" stroke-linecap="round" stroke-linejoin="round" stroke-miterlimit="10" points="
					216.025,146.159 217.144,149.849 250.499,152.83 249.748,149.037 				"/>
				
					<path fill="none" stroke="#231F20" stroke-width="2" stroke-linecap="round" stroke-linejoin="round" stroke-miterlimit="10" d="
					M260.715,132.082l0.389-17.61c0,0-0.098-2.576,2.621-2.479l16.11,1.747c0,0,2.523,0.485,2.523,2.718l-0.582,17.566"/>
				
					<path fill="none" stroke="#231F20" stroke-width="2" stroke-linecap="round" stroke-linejoin="round" stroke-miterlimit="10" d="
					M167.046,91.637l28.202,1.813c0,0,3.357-0.12,4.556,1.918c1.199,2.039,5.603,10.192,3.521,34.053"/>
				
					<line fill="none" stroke="#231F20" stroke-width="2" stroke-linecap="round" stroke-linejoin="round" stroke-miterlimit="10" x1="160.624" y1="88.05" x2="188.308" y2="89.291"/>
				
					<line fill="none" stroke="#231F20" stroke-width="2" stroke-linecap="round" stroke-linejoin="round" stroke-miterlimit="10" x1="193.857" y1="89.644" x2="197.556" y2="89.82"/>
				
					<path fill="none" stroke="#231F20" stroke-width="2" stroke-linecap="round" stroke-linejoin="round" stroke-miterlimit="10" d="
					M238.18,83.16c0,0,4.547,1.421,8.146,0.758"/>
				
					<path fill="none" stroke="#231F20" stroke-width="2" stroke-linecap="round" stroke-linejoin="round" stroke-miterlimit="10" d="
					M231.653,76.395c0,0-1.624,1.034-1.918,3.248h-5.818c0,0-4.22-0.323-4.441,4.452c-0.222,4.773,3.69,6.028,3.69,6.028
					l6.569,0.518c0,0,3.395-0.582,3.321-4.793c-0.074-4.211-3.321-6.205-3.321-6.205"/>
				
					<path fill="none" stroke="#231F20" stroke-width="2" stroke-linecap="round" stroke-linejoin="round" stroke-miterlimit="10" d="
					M229.189,90.64c0,0,1.041,8.955,4.444,5.704c7.806-7.456,4.547-13.186,4.547-13.186s-3.315-1.516-5.4-3.979
					c-2.084-2.463-0.641-4.572-0.641-4.572"/>
				
					<path fill="none" stroke="#231F20" stroke-width="2" stroke-linecap="round" stroke-linejoin="round" stroke-miterlimit="10" d="
					M232.21,97.055l10.044,0.667c0,0,3.199,0.479,4.073-4.646"/>
				
					<line fill="none" stroke="#231F20" stroke-width="2" stroke-linecap="round" stroke-linejoin="round" stroke-miterlimit="10" x1="247.334" y1="88.948" x2="247.556" y2="87.693"/>
				
					<path fill="none" stroke="#231F20" stroke-width="2" stroke-linecap="round" stroke-linejoin="round" stroke-miterlimit="10" d="
					M244.797,96.647l8.374-0.403c0,0,63.955,11.992,77.77,19.775c0,0,2.484-13.511,4.504-15.802"/>
				
					<path fill="none" stroke="#231F20" stroke-width="2" stroke-linecap="round" stroke-linejoin="round" stroke-miterlimit="10" d="
					M305.96,83.16c0,0-5.037,0.271-5.512,7.48c-0.473,7.21,1.139,10.088,3.67,11.239c0,0,17.613,5.18,17.959,5.18
					s3.912,1.151,4.719-1.842l3.498-9.812"/>
				
					<polyline fill="none" stroke="#231F20" stroke-width="2" stroke-linecap="round" stroke-linejoin="round" stroke-miterlimit="10" points="
					501.321,134.635 482.169,136.111 486.735,146.935 				"/>
				
					<line fill="none" stroke="#231F20" stroke-width="2" stroke-linecap="round" stroke-linejoin="round" stroke-miterlimit="10" x1="490.854" y1="157.035" x2="488.597" y2="152.01"/>
				
					<polyline fill="none" stroke="#231F20" stroke-width="2" stroke-linecap="round" stroke-linejoin="round" stroke-miterlimit="10" points="
					319.313,162.389 320.22,166.642 325.894,167.003 327.981,162.629 				"/>
				<g>
					
						<line fill="none" stroke="#231F20" stroke-width="2" stroke-linecap="round" stroke-linejoin="round" stroke-miterlimit="10" x1="321.341" y1="167.168" x2="321.897" y2="189.012"/>
					
						<line fill="none" stroke="#231F20" stroke-width="2" stroke-linecap="round" stroke-linejoin="round" stroke-miterlimit="10" x1="325.058" y1="167.168" x2="325.712" y2="183.65"/>
				</g>
				
					<polyline fill="none" stroke="#231F20" stroke-width="2" stroke-linecap="round" stroke-linejoin="round" stroke-miterlimit="10" points="
					325.894,167.003 330.495,176.111 326.812,183.206 				"/>
				
					<path fill="none" stroke="#231F20" stroke-width="2" stroke-linecap="round" stroke-linejoin="round" stroke-miterlimit="10" d="
					M177.41,156.876c0,0,0.547,6.062,5.248,6.614l13.784,1.015"/>
				
					<polyline fill="none" stroke="#231F20" stroke-width="2" stroke-linecap="round" stroke-linejoin="round" stroke-miterlimit="10" points="
					217.771,165.527 250.117,167.36 253.066,165.314 264.77,165.789 264.77,162.813 				"/>
				
					<path fill="none" stroke="#231F20" stroke-width="2" stroke-linecap="round" stroke-linejoin="round" stroke-miterlimit="10" d="
					M323.628,107.277c0,0-8.271,0.531-10.758,2.343"/>
				
					<path fill="none" stroke="#231F20" stroke-width="2" stroke-linecap="round" stroke-linejoin="round" stroke-miterlimit="10" d="
					M302.974,101.179c0,0-6.734,0.202-15.541-1.346"/>
				
					<line fill="none" stroke="#231F20" stroke-width="2" stroke-linecap="round" stroke-linejoin="round" stroke-miterlimit="10" x1="282.716" y1="98.546" x2="280.245" y2="97.837"/>
				
					<polyline fill="none" stroke="#231F20" stroke-width="2" stroke-linecap="round" stroke-linejoin="round" stroke-miterlimit="10" points="
					250.207,151.357 273.144,152.427 273.144,145.038 307.253,148.732 307.71,154.588 				"/>
				
					<path fill="none" stroke="#231F20" stroke-width="2" stroke-linecap="round" stroke-linejoin="round" stroke-miterlimit="10" d="
					M153.169,96.107l-9.311,15.389c0,0-1.716,2.52,1.193,2.976c2.909,0.457,20.663,1.799,20.663,1.799s2.835-1.939,1.865-7.087
					c-0.97-5.147-0.566-4.477,0.202-5.967c0.768-1.492,1.33-5.458-1.952-6.429C162.547,95.818,153.169,96.107,153.169,96.107z"/>
				
					<line fill="none" stroke="#231F20" stroke-width="2" stroke-linecap="round" stroke-linejoin="round" stroke-miterlimit="10" x1="229.968" y1="94.221" x2="207.242" y2="92.218"/>
				
					<line fill="none" stroke="#231F20" stroke-width="2" stroke-linecap="round" stroke-linejoin="round" stroke-miterlimit="10" x1="394.847" y1="152.243" x2="402.981" y2="152.83"/>
				
					<path fill="none" stroke="#231F20" stroke-width="2" stroke-linecap="round" stroke-linejoin="round" stroke-miterlimit="10" d="
					M233.728,48.348l-1.024-3.073c-4.529-1.886-8.623-1.87-12.292,0l-0.945,2.753C219.466,48.028,225.729,49.972,233.728,48.348z"/>
				
					<path fill="none" stroke="#231F20" stroke-width="2" stroke-linecap="round" stroke-linejoin="round" stroke-miterlimit="10" d="
					M219.466,48.028h-6.376l-1.856-0.982h-5.081l-2.736,1.466c0,0,2.345,0.684,1.759,3.126s-3.42,2.052-3.42,2.052l3.225,3.322
					h4.397l2.149,1.954h9.313l3.077,1.403V56.54l-2.397-2.258"/>
				
					<line fill="none" stroke="#231F20" stroke-width="2" stroke-linecap="round" stroke-linejoin="round" stroke-miterlimit="10" x1="212.836" y1="59.214" x2="212.836" y2="74.61"/>
				
					<path fill="none" stroke="#231F20" stroke-width="2" stroke-linecap="round" stroke-linejoin="round" stroke-miterlimit="10" d="
					M203.417,48.511c0,0-55.062-10.452-115.909-31.929l-24.657-1.59c0,0,108.791,31.063,138.904,38.697"/>
				
					<path fill="none" stroke="#231F20" stroke-width="2" stroke-linecap="round" stroke-linejoin="round" stroke-miterlimit="10" d="
					M233.728,48.348l7.109,0.646l3.346-1.951h6.494l2.559,1.951c0,0-0.492,4.241,2.066,7.096l-2.952,2.36h-5.016l-2.819,1.918
					l-13.123-0.639l-3.408,1.142v-4.389l2.743-2.776"/>
				
					<line fill="none" stroke="#231F20" stroke-width="2" stroke-linecap="round" stroke-linejoin="round" stroke-miterlimit="10" x1="234.481" y1="59.882" x2="234.481" y2="72.366"/>
				
					<line fill="none" stroke="#231F20" stroke-width="2" stroke-linecap="round" stroke-linejoin="round" stroke-miterlimit="10" x1="242.254" y1="60.37" x2="242.254" y2="71.852"/>
				
					<line fill="none" stroke="#231F20" stroke-width="2" stroke-linecap="round" stroke-linejoin="round" stroke-miterlimit="10" x1="219.965" y1="58.967" x2="219.965" y2="74.039"/>
				
					<path fill="none" stroke="#231F20" stroke-width="2" stroke-linecap="round" stroke-linejoin="round" stroke-miterlimit="10" d="
					M110.062,108.829c0,0,12.88-1.725,23.576,3.565l11.5-20.757c0,0-17.02-0.403-23.23,5.462L110.062,108.829z"/>
				
					<path fill="none" stroke="#231F20" stroke-width="2" stroke-linecap="round" stroke-linejoin="round" stroke-miterlimit="10" d="
					M97.901,119.567c0,0-6.188,2.084-2.476,8.403"/>
				
					<line fill="none" stroke="#231F20" stroke-width="2" stroke-linecap="round" stroke-linejoin="round" stroke-miterlimit="10" x1="96.989" y1="131.292" x2="98.162" y2="133.508"/>
				
					<line fill="none" stroke="#231F20" stroke-width="2" stroke-linecap="round" stroke-linejoin="round" stroke-miterlimit="10" x1="300.366" y1="161.869" x2="268.06" y2="159.611"/>
				
					<path fill="none" stroke="#231F20" stroke-width="2" stroke-linecap="round" stroke-linejoin="round" stroke-miterlimit="10" d="
					M333.632,106.133l1.813,11.261c0,0,3.225,2.569,4.943,6.688c1.721,4.12,13.266,35.759,8.105,38.732"/>
				
					<path fill="none" stroke="#231F20" stroke-width="2" stroke-linecap="round" stroke-linejoin="round" stroke-miterlimit="10" d="
					M352.794,111.748l4.436,9.25c0,0,6.928,1.409,9.393,6.105c2.467,4.696,11.391,27.483,11.391,27.483s4.58,8.154,0,9.417"/>
				
					<path fill="none" stroke="#231F20" stroke-width="2" stroke-linecap="round" stroke-linejoin="round" stroke-miterlimit="10" d="
					M360.306,114.135l3.635,7.565c0,0,6.934,1.396,9.385,6.087c2.475,4.713,11.393,27.498,11.393,27.498s3.824,6.806,0.992,8.94"/>
				
					<path fill="none" stroke="#231F20" stroke-width="2" stroke-linecap="round" stroke-linejoin="round" stroke-miterlimit="10" d="
					M445.173,137.876l-0.691,5.452c0,0,3.158,1.481,3.85,2.962c0.693,1.481,7.021,15.963,5.584,17.46"/>
				
					<path fill="none" stroke="#231F20" stroke-width="2" stroke-linecap="round" stroke-linejoin="round" stroke-miterlimit="10" d="
					M196.249,52.264l-2.737,1.693c0,0,1.434,2.509,0.441,3.722l2.296,1.286h5.506l3.225-1.954"/>
				
					<polyline fill="none" stroke="#231F20" stroke-width="2" stroke-linecap="round" stroke-linejoin="round" stroke-miterlimit="10" points="
					193.512,53.959 7.676,47.046 2.001,48.995 169.731,58.967 193.953,57.68 				"/>
				
					<polyline fill="none" stroke="#231F20" stroke-width="2" stroke-linecap="round" stroke-linejoin="round" stroke-miterlimit="10" points="
					253.235,48.995 465.712,26.715 478.55,29.986 288.774,55.615 255.301,56.091 				"/>
				
					<polyline fill="none" stroke="#231F20" stroke-width="2" stroke-linecap="round" stroke-linejoin="round" stroke-miterlimit="10" points="
					294.515,54.841 367.634,59.882 352.243,62.285 258.583,60.872 247.334,58.451 				"/>
				
					<path fill="none" stroke="#231F20" stroke-width="2" stroke-linecap="round" stroke-linejoin="round" stroke-miterlimit="10" d="
					M133.241,144.428c0,0-17.48-1.145-24.614-5.269"/>
				
					<path fill="none" stroke="#231F20" stroke-width="2" stroke-linecap="round" stroke-linejoin="round" stroke-miterlimit="10" d="
					M465.712,26.715c0,0-67.715-7.889-115.9-10.401"/>
				
					<line fill="none" stroke="#231F20" stroke-width="2" stroke-linecap="round" stroke-linejoin="round" stroke-miterlimit="10" x1="336.915" y1="15.653" x2="327.548" y2="14.992"/>
				
					<path fill="none" stroke="#231F20" stroke-width="2" stroke-linecap="round" stroke-linejoin="round" stroke-miterlimit="10" d="
					M386.755,12.903c0,0-48.803-4.93-73.887-5.423"/>
				
					<path fill="none" stroke="#231F20" stroke-width="2" stroke-linecap="round" stroke-linejoin="round" stroke-miterlimit="10" d="
					M62.851,14.992c0,0,12.337-12.984,95.861-14.992"/>
				
					<path fill="none" stroke="#231F20" stroke-width="2" stroke-linecap="round" stroke-linejoin="round" stroke-miterlimit="10" d="
					M99.575,8.957c0,0,21.579-2.717,34.686-3.356"/>
				
					<line fill="none" stroke="#231F20" stroke-width="2" stroke-linecap="round" stroke-linejoin="round" stroke-miterlimit="10" x1="169.587" y1="0.001" x2="174.466" y2="0.001"/>
				
					<path fill="none" stroke="#231F20" stroke-width="2" stroke-linecap="round" stroke-linejoin="round" stroke-miterlimit="10" d="
					M2.001,48.995c0,0,4.942,15.363,84.938,17.507"/>
				
					<path fill="none" stroke="#231F20" stroke-width="2" stroke-linecap="round" stroke-linejoin="round" stroke-miterlimit="10" d="
					M210.927,16.313c0,0,20.894-1.696,52.367,0.979"/>
				
					<path fill="none" stroke="#231F20" stroke-width="2" stroke-linecap="round" stroke-linejoin="round" stroke-miterlimit="10" d="
					M203.417,22.631c0,0,24.602-2.185,46.906,0"/>
				
					<line fill="none" stroke="#231F20" stroke-width="2" stroke-linecap="round" stroke-linejoin="round" stroke-miterlimit="10" x1="263.293" y1="23.94" x2="269.133" y2="24.523"/>
				<circle fill="#231F20" cx="178.966" cy="109.107" r="1.895"/>
				<circle fill="#231F20" cx="181.751" cy="115.287" r="1.895"/>
				
					<circle fill="none" stroke="#231F20" stroke-width="2" stroke-linecap="round" stroke-linejoin="round" stroke-miterlimit="10" cx="518.353" cy="74.984" r="6.221"/>
				<g>
					
						<polyline fill="none" stroke="#231F20" stroke-width="2" stroke-linecap="round" stroke-linejoin="round" stroke-miterlimit="10" points="
						512.712,72.367 509.626,66.505 515.901,63.494 518.353,68.762 					"/>
					
						<polyline fill="none" stroke="#231F20" stroke-width="2" stroke-linecap="round" stroke-linejoin="round" stroke-miterlimit="10" points="
						523.991,78.569 527.077,84.432 520.804,87.441 517.952,81.312 					"/>
				</g>
				<g>
					
						<polyline fill="none" stroke="#231F20" stroke-width="2" stroke-linecap="round" stroke-linejoin="round" stroke-miterlimit="10" points="
						521.917,69.584 527.315,66.742 530.325,73.017 525.058,75.469 					"/>
					
						<polyline fill="none" stroke="#231F20" stroke-width="2" stroke-linecap="round" stroke-linejoin="round" stroke-miterlimit="10" points="
						515.747,80.846 509.388,84.194 506.378,77.92 511.647,75.469 					"/>
				</g>
				<g>
					
						<path fill="none" stroke="#231F20" stroke-width="2" stroke-linecap="round" stroke-linejoin="round" stroke-miterlimit="10" d="
						M506.923,79.07l-11.646,3.064l-20.121,5.305c0,0,1.311,6.996,4.713,13.379l14.5-8.919l14.457-8.898"/>
					
						<path fill="none" stroke="#231F20" stroke-width="2" stroke-linecap="round" stroke-linejoin="round" stroke-miterlimit="10" d="
						M514.425,63.999l-3.064-11.646l-5.305-20.121c0,0-6.996,1.311-13.379,4.713l8.918,14.499l8.898,14.457"/>
				</g>
				<g>
					
						<path fill="none" stroke="#231F20" stroke-width="2" stroke-linecap="round" stroke-linejoin="round" stroke-miterlimit="10" d="
						M529.933,72.197l11.334-2.981l20.121-5.306c0,0-1.311-6.996-4.713-13.379l-14.5,8.919l-13.986,8.608"/>
					
						<path fill="none" stroke="#231F20" stroke-width="2" stroke-linecap="round" stroke-linejoin="round" stroke-miterlimit="10" d="
						M522.12,87.349l3.064,11.646l5.305,20.121c0,0,6.996-1.311,13.379-4.713l-8.92-14.499l-8.896-14.457"/>
				</g>
				
					<path fill="none" stroke="#231F20" stroke-width="2" stroke-linecap="round" stroke-linejoin="round" stroke-miterlimit="10" d="
					M506.056,32.233c0,0,10.867-2.357,24.27,2.483"/>
				
					<path fill="none" stroke="#231F20" stroke-width="2" stroke-linecap="round" stroke-linejoin="round" stroke-miterlimit="10" d="
					M521.917,37.602c0,0,9.059,1.21,14.457,6.423"/>
				
					<line fill="none" stroke="#231F20" stroke-width="2" stroke-linecap="round" stroke-linejoin="round" stroke-miterlimit="10" x1="535.604" y1="37.602" x2="538.608" y2="39.836"/>
				
					<path fill="none" stroke="#231F20" stroke-width="2" stroke-linecap="round" stroke-linejoin="round" stroke-miterlimit="10" d="
					M475.157,87.439c0,0-5.811-16.323,1.729-30.194"/>
				
					<path fill="none" stroke="#231F20" stroke-width="2" stroke-linecap="round" stroke-linejoin="round" stroke-miterlimit="10" d="
					M477.632,74.984c0,0-0.279-13.643,8.006-22.115"/>
				
					<path fill="none" stroke="#231F20" stroke-width="2" stroke-linecap="round" stroke-linejoin="round" stroke-miterlimit="10" d="
					M483.31,67.931c0,0,0.188-4.729,3.725-8.172"/>
				
					<path fill="none" stroke="#231F20" stroke-width="2" stroke-linecap="round" stroke-linejoin="round" stroke-miterlimit="10" d="
					M561.388,63.909c0,0,2.564,15.807-5.123,30.374"/>
				
					<path fill="none" stroke="#231F20" stroke-width="2" stroke-linecap="round" stroke-linejoin="round" stroke-miterlimit="10" d="
					M530.489,119.116c0,0-6.705,1.114-10.949,0.788"/>
				
					<path fill="none" stroke="#231F20" stroke-width="2" stroke-linecap="round" stroke-linejoin="round" stroke-miterlimit="10" d="
					M522.515,115.878c0,0-12.984,0.869-24.191-5.768"/>
				
					<path fill="none" stroke="#231F20" stroke-width="2" stroke-linecap="round" stroke-linejoin="round" stroke-miterlimit="10" d="
					M245.923,101.684c-0.175-0.018-5.623-0.632-6.294,4.049s1.436,8.098,3.828,7.415c2.392-0.684,4.84-1.481,5.295-4.214
					C249.208,106.201,248.963,101.976,245.923,101.684z"/>
				
					<path fill="none" stroke="#231F20" stroke-width="2" stroke-linecap="round" stroke-linejoin="round" stroke-miterlimit="10" d="
					M239.503,104.608c0,0-2.921-0.683-5.021-0.838c-2.101-0.155-4.89-0.311-5.975-0.388s-7.366,1.316-9.328,5.501"/>
				
					<path fill="none" stroke="#231F20" stroke-width="2" stroke-linecap="round" stroke-linejoin="round" stroke-miterlimit="10" d="
					M219.466,112.095c0,0,1.419,0.177,2.495-1.566s4.055-3.396,5.709-3.087s6.082,3.56,6.082,3.56"/>
				
					<path fill="none" stroke="#231F20" stroke-width="2" stroke-linecap="round" stroke-linejoin="round" stroke-miterlimit="10" d="
					M248.336,110.529c0,0,1.672,0.879,1.635,2.706c-0.037,1.827,0.558,2.627,1.115,2.784c0.558,0.158,2.727,0.229,2.497,2.088"/>
				
					<path fill="none" stroke="#231F20" stroke-width="2" stroke-linecap="round" stroke-linejoin="round" stroke-miterlimit="10" d="
					M249.56,119.101v7.183c0,0,0.117,2.803,3.775,2.721"/>
				
					<path fill="none" stroke="#231F20" stroke-width="2" stroke-linecap="round" stroke-linejoin="round" stroke-miterlimit="10" d="
					M230.364,109.107c0,0-2.028,7.047-2.38,9.386c-0.352,2.338,12.841,4.413,14.27,3.431c1.428-0.982,0.819-5.038,2.543-5.904
					s2.349,0.195,2.349,0.195s0.037,2.526,0.706,3.01c0.669,0.482,1.858-0.706,2.564,0.26s2.548,1.783,3.225,0.929"/>
				
					<path fill="none" stroke="#231F20" stroke-width="2" stroke-linecap="round" stroke-linejoin="round" stroke-miterlimit="10" d="
					M227.984,118.493c0,0-2.929,7.827-3.367,11.661s-5.438,15.448-5.438,15.448"/>
				
					<path fill="none" stroke="#231F20" stroke-width="2" stroke-linecap="round" stroke-linejoin="round" stroke-miterlimit="10" d="
					M238.856,125.772c0,0-5.955,0.219-6.646,4.382l-1.129,3.869l-6.574,12.136"/>
				
					<path fill="none" stroke="#231F20" stroke-width="2" stroke-linecap="round" stroke-linejoin="round" stroke-miterlimit="10" d="
					M242.254,121.924l2.543,7.901c0,0,1.117,1.981,0,6.141c-1.117,4.158-3.155,11.718-3.155,11.718"/>
				
					<path fill="none" stroke="#231F20" stroke-width="2" stroke-linecap="round" stroke-linejoin="round" stroke-miterlimit="10" d="
					M234.833,126.825c0,0,3.588,4.165,3.753,7.198c0.164,3.033-1.876,13.66-1.876,13.66"/>
				
					<path fill="none" stroke="#231F20" stroke-width="2" stroke-linecap="round" stroke-linejoin="round" stroke-miterlimit="10" d="
					M252.713,134.812c0,0-4.189-2.5-5.158,1.154c-0.969,3.652-2.262,12.251-2.262,12.251"/>
				
					<line fill="none" stroke="#231F20" stroke-width="2" stroke-linecap="round" stroke-linejoin="round" stroke-miterlimit="10" x1="219.341" y1="116.019" x2="227.984" y2="116.271"/>
				
					<line fill="none" stroke="#231F20" stroke-width="2" stroke-linecap="round" stroke-linejoin="round" stroke-miterlimit="10" x1="219.179" y1="131.479" x2="223.984" y2="131.591"/>
				
					<line fill="none" stroke="#231F20" stroke-width="2" stroke-linecap="round" stroke-linejoin="round" stroke-miterlimit="10" x1="219.466" y1="120.668" x2="227.171" y2="120.776"/>
				<path fill="#231F20" d="M221.449,131.532c0,0-2.655-0.271-3.018,2.446c-0.363,2.718-1.138,7.12-1.138,7.12s-1.166,4.854,0,5.062
					s1.725-1.123,2.939-3.073c1.214-1.952,3.431-9.107,3.431-9.107S225.148,131.528,221.449,131.532z"/>
				
					<line fill="none" stroke="#231F20" stroke-width="2" stroke-linecap="round" stroke-linejoin="round" stroke-miterlimit="10" x1="230.424" y1="135.237" x2="238.537" y2="135.684"/>
				
					<line fill="none" stroke="#231F20" stroke-width="2" stroke-linecap="round" stroke-linejoin="round" stroke-miterlimit="10" x1="228.352" y1="139.062" x2="238.056" y2="139.735"/>
				<path fill="#231F20" d="M236.733,129.422c0,0-1.9-3.649-4.332,0c-1.714,2.571-2.593,5.968,0.393,6.04
					c2.986,0.07,6.232,0.358,5.711-2.077C237.984,130.948,236.733,129.422,236.733,129.422z"/>
				
					<path fill="none" stroke="#231F20" stroke-width="2" stroke-linecap="round" stroke-linejoin="round" stroke-miterlimit="10" d="
					M247.188,116.966c0,0,0.699-2.902,2.94-2.203"/>
				<path fill="#231F20" d="M247.444,118.493c0,0-0.428-3.956-3.116-2.095s-1.405,7.269-1.171,7.655
					c0.233,0.386,2.78,7.387,2.136,9.924s-3.177,11.949-3.177,11.949s-0.411,2.424,0.953,2.541c1.364,0.116,2.268-0.58,2.5-2.014
					c0.232-1.433,2.157-10.992,2.157-10.992s0.993-1.907,3.576-1.257c2.583,0.651,1.733-2.015,1.733-2.015s0.928-3.385-1.132-3.663
					s-2.704-2.027-2.343-4.865c0.36-2.837,0.961-4.393-1.225-4.197C246.15,119.658,247.444,118.493,247.444,118.493z"/>
				<path fill="#231F20" d="M251.713,103.683c0,0-3.324-2.856-3.055,0c0.269,2.855,0.206,4.406,0.206,4.406s0.404,2.069,0.893,4.011
					c0.489,1.94,0.383,3.721,1.33,3.919c0.947,0.199,2.518,0.65,2.25-1.965C253.068,111.438,251.713,103.683,251.713,103.683z"/>
				<path fill="#231F20" d="M230.87,100.308l-11.935-1.145l0.406,6.504c0,0-0.271,2.575,1.744,0.772
					c2.014-1.804,8.06-3.391,13.748-2.399c5.688,0.992,5.53-0.66,5.53-0.66s2.732-1.652,0-2.038
					C237.631,100.956,230.87,100.308,230.87,100.308z"/>
				
					<polyline fill="none" stroke="#231F20" stroke-width="2" stroke-linecap="round" stroke-linejoin="round" stroke-miterlimit="10" points="
					483.233,138.632 515.278,137.386 529.362,154.42 				"/>
			</g>
			<path fill="none" stroke="#231F20" stroke-width="2" stroke-linecap="round" stroke-linejoin="round" stroke-miterlimit="10" d="
				M273.698,163.103c0,0,0.902,6.013,3.783,4.99c2.881-1.023,2.26-4.604,2.26-4.604"/>
			<path fill="none" stroke="#231F20" stroke-width="2" stroke-linecap="round" stroke-linejoin="round" stroke-miterlimit="10" d="
				M286.347,248.214c0,0,2.063,16.893,9.031,21.542"/>
			<path fill="none" stroke="#231F20" stroke-width="2" stroke-linecap="round" stroke-linejoin="round" stroke-miterlimit="10" d="
				M281.369,250.618c0,0,6.318,16.202,2.176,16.075"/>
			<path fill="none" stroke="#231F20" stroke-width="2" stroke-linecap="round" stroke-linejoin="round" stroke-miterlimit="10" d="
				M243.159,166.968c0,0,0.344,4.667,3.796,4.247c3.452-0.419,3.162-3.854,3.162-3.854"/>
		</g>
		<path fill="none" stroke="#231F20" stroke-width="2" stroke-linecap="round" stroke-linejoin="round" stroke-miterlimit="10" d="
			M300.366,111.039c0,0,22.68,5.282,28.646,9.391"/>
		
			<line fill="none" stroke="#231F20" stroke-width="2" stroke-linecap="round" stroke-linejoin="round" stroke-miterlimit="10" x1="481.634" y1="113.455" x2="462.821" y2="134.472"/>
		
			<line fill="none" stroke="#231F20" stroke-width="2" stroke-linecap="round" stroke-linejoin="round" stroke-miterlimit="10" x1="501.321" y1="119.121" x2="494.368" y2="118.58"/>
	</g>
</g>
</svg>
