<?xml version="1.0" encoding="utf-8"?>
<!-- Generator: Adobe Illustrator 16.0.3, SVG Export Plug-In . SVG Version: 6.00 Build 0)  -->
<!DOCTYPE svg PUBLIC "-//W3C//DTD SVG 1.1//EN" "http://www.w3.org/Graphics/SVG/1.1/DTD/svg11.dtd">
<svg version="1.1" id="Layer_1" xmlns="http://www.w3.org/2000/svg" xmlns:xlink="http://www.w3.org/1999/xlink" x="0px" y="0px"
	 width="510px" height="319px" viewBox="0 0 510 319" enable-background="new 0 0 510 319" xml:space="preserve">
<g id="Guides_For_Artboard">
</g>
<g id="Layer_1_1_">
</g>
<g id="Layer_2">
	<g>
		<g>
			<g>
				
					<line fill="none" stroke="#231F20" stroke-width="2" stroke-linecap="round" stroke-linejoin="round" stroke-miterlimit="10" x1="453.188" y1="215.18" x2="453.189" y2="223.656"/>
				
					<line fill="none" stroke="#231F20" stroke-width="2" stroke-linecap="round" stroke-linejoin="round" stroke-miterlimit="10" x1="453.189" y1="227.961" x2="453.189" y2="230.182"/>
				<g>
					<g>
						<g>
							
								<polyline fill="none" stroke="#231F20" stroke-width="2" stroke-linecap="round" stroke-linejoin="round" stroke-miterlimit="10" points="
								251.084,170.852 264.225,170.852 264.225,166.436 366.945,168.42 366.945,155.299 377.787,155.299 377.787,150.767 
								397.85,150.767 397.85,137.22 442.373,138.302 442.373,151.511 446.674,151.511 446.674,215.18 							"/>
							
								<polyline fill="none" stroke="#231F20" stroke-width="2" stroke-linecap="round" stroke-linejoin="round" stroke-miterlimit="10" points="
								417.82,214.859 417.82,224.342 417.82,240.752 							"/>
							
								<polyline fill="none" stroke="#231F20" stroke-width="2" stroke-linecap="round" stroke-linejoin="round" stroke-miterlimit="10" points="
								446.674,215.189 453.188,215.189 453.188,210.727 458.936,206.105 458.936,240.842 454.361,247.063 414.801,246.793 
								413.133,248.303 398.615,248.303 396.52,246.229 380.02,245.98 338.432,245.395 266.502,244.357 258.996,244.246 
								254.285,242.082 237.13,242.082 233.66,239.512 197.368,238.926 192.522,232.457 192.522,219.404 193.243,219.404 
								209.653,219.404 210.171,196.75 210.826,168.484 214.229,165.871 225.658,165.871 							"/>
							
								<polyline fill="none" stroke="#231F20" stroke-width="2" stroke-linecap="round" stroke-linejoin="round" stroke-miterlimit="10" points="
								231.496,165.871 241.91,165.871 242.248,170.852 244.615,170.852 							"/>
							
								<line fill="none" stroke="#231F20" stroke-width="2" stroke-linecap="round" stroke-linejoin="round" stroke-miterlimit="10" x1="258.996" y1="244.244" x2="258.996" y2="249.201"/>
							
								<line fill="none" stroke="#231F20" stroke-width="2" stroke-linecap="round" stroke-linejoin="round" stroke-miterlimit="10" x1="349.801" y1="246.09" x2="349.801" y2="259.072"/>
							
								<polyline fill="none" stroke="#231F20" stroke-width="2" stroke-linecap="round" stroke-linejoin="round" stroke-miterlimit="10" points="
								357.852,246.723 357.852,252.58 359.84,259.072 368.102,259.072 370.549,266.68 370.549,281.691 365.5,281.691 							"/>
							
								<path fill="none" stroke="#231F20" stroke-width="2" stroke-linecap="round" stroke-linejoin="round" stroke-miterlimit="10" d="
								M370.549,266.68l23.627,0.438c0,0-6.25-8.045-17.561-8.045H368.1"/>
						</g>
						
							<path fill="none" stroke="#231F20" stroke-width="2" stroke-linecap="round" stroke-linejoin="round" stroke-miterlimit="10" d="
							M254.291,242.08c-1.805-0.684-3.721-1.969-4.477-3.811c-0.727-1.771-0.021-3.389,0.846-4.963
							c2.338-4.24,6.074-6.662,9.861-9.453l-3.256-51.061"/>
						<ellipse fill="#231F20" cx="256.279" cy="235.51" rx="2.506" ry="3.043"/>
						<ellipse fill="#231F20" cx="266.736" cy="215.18" rx="2.504" ry="3.043"/>
						<ellipse fill="#231F20" cx="280.334" cy="215.18" rx="2.508" ry="3.043"/>
						
							<polyline fill="none" stroke="#231F20" stroke-width="2" stroke-linecap="round" stroke-linejoin="round" stroke-miterlimit="10" points="
							260.521,223.854 262.23,239.361 266.502,244.354 						"/>
						
							<line fill="none" stroke="#231F20" stroke-width="2" stroke-linecap="round" stroke-linejoin="round" stroke-miterlimit="10" x1="209.654" y1="219.406" x2="229.97" y2="219.406"/>
						
							<polyline fill="none" stroke="#231F20" stroke-width="2" stroke-linecap="round" stroke-linejoin="round" stroke-miterlimit="10" points="
							287.186,244.244 281.033,237.725 280.334,221.791 368.102,223.328 368.102,228.092 383.736,228.092 						"/>
						
							<line fill="none" stroke="#231F20" stroke-width="2" stroke-linecap="round" stroke-linejoin="round" stroke-miterlimit="10" x1="280.334" y1="221.791" x2="260.521" y2="221.791"/>
						
							<polyline fill="none" stroke="#231F20" stroke-width="2" stroke-linecap="round" stroke-linejoin="round" stroke-miterlimit="10" points="
							281.033,237.725 383.736,240.207 379.947,246.09 						"/>
						
							<polyline fill="none" stroke="#231F20" stroke-width="2" stroke-linecap="round" stroke-linejoin="round" stroke-miterlimit="10" points="
							396.531,246.23 400.15,240.746 383.736,240.207 						"/>
						
							<polyline fill="none" stroke="#231F20" stroke-width="2" stroke-linecap="round" stroke-linejoin="round" stroke-miterlimit="10" points="
							414.795,246.785 417.826,240.746 458.934,240.834 						"/>
					</g>
					
						<polyline fill="none" stroke="#231F20" stroke-width="2" stroke-linecap="round" stroke-linejoin="round" stroke-miterlimit="10" points="
						383.736,240.207 383.736,217.648 394.957,217.648 394.957,240.207 					"/>
					
						<line fill="none" stroke="#231F20" stroke-width="2" stroke-linecap="round" stroke-linejoin="round" stroke-miterlimit="10" x1="394.957" y1="224.338" x2="417.826" y2="224.338"/>
					
						<polyline fill="none" stroke="#231F20" stroke-width="2" stroke-linecap="round" stroke-linejoin="round" stroke-miterlimit="10" points="
						210.177,196.752 193.244,196.752 193.244,219.406 					"/>
					
						<line fill="none" stroke="#231F20" stroke-width="2" stroke-linecap="round" stroke-linejoin="round" stroke-miterlimit="10" x1="193.244" y1="209.203" x2="209.654" y2="209.203"/>
					
						<line fill="none" stroke="#231F20" stroke-width="2" stroke-linecap="round" stroke-linejoin="round" stroke-miterlimit="10" x1="204.142" y1="196.752" x2="204.142" y2="218.48"/>
					
						<line fill="none" stroke="#231F20" stroke-width="2" stroke-linecap="round" stroke-linejoin="round" stroke-miterlimit="10" x1="198.497" y1="196.752" x2="198.497" y2="218.48"/>
					
						<path fill="none" stroke="#231F20" stroke-width="2" stroke-linecap="round" stroke-linejoin="round" stroke-miterlimit="10" d="
						M339.922,264.887c-1.391-1.236-2.967-2.217-4.68-2.961c-5.705-2.479-21.521-8.646-38.395-9.074
						c-21.145-0.535-60.125-5.789-76.644-3.65c-16.518,2.143-28.741,2.563-32.045,3.65c-3.303,1.09-17.051,4.664-17.445,19.771
						c-0.395,15.111,7.369,29.566,23.061,29.65c15.691,0.084,134.458,2.689,140.569,1.549c6.109-1.141,15.842-6.098,15.438-19.541
						C349.494,274.744,343.424,268,339.922,264.887z"/>
					
						<path fill="none" stroke="#231F20" stroke-width="2" stroke-linecap="round" stroke-linejoin="round" stroke-miterlimit="10" d="
						M321.475,299.605c-21.211,0-63.48-0.754-94.346-1.301c-16.119-0.287-28.853-0.516-33.329-0.537
						c-4.8-0.027-8.428-2.131-11.978-4.938c-4.879-3.854-7.248-11.895-6.6-20.088c0.856-10.814,7.474-13.428,13.73-15.412
						l0.62-0.197c1.259-0.416,6.01-0.854,11.041-1.313c5.48-0.504,12.305-1.131,20.17-2.146c2.42-0.314,5.598-0.477,9.441-0.477
						c10.424,0,24.213,1.135,37.549,2.23c10.811,0.889,21.02,1.729,28.959,1.928c15.977,0.406,30.996,6.221,36.711,8.705
						c1.316,0.57,2.486,1.307,3.479,2.188c3.021,2.688,8.117,8.354,8.354,16.166c0.354,11.789-8.91,14.443-11.76,14.979
						c-0.309,0.041-2.24,0.211-12.039,0.211C321.477,299.605,321.477,299.605,321.475,299.605z"/>
					
						<path fill="none" stroke="#231F20" stroke-width="2" stroke-linecap="round" stroke-linejoin="round" stroke-miterlimit="10" d="
						M273.443,251.266c0,0,37.887-2.021,54.891,2.615c17.002,4.637,22.67,5.668,26.404,8.242
						c3.736,2.576,10.949,12.623,10.564,22.801c-0.389,10.176-3.803,17-6.637,17.898c-2.834,0.902-24.051,1-24.051,1"/>
					
						<ellipse fill="none" stroke="#231F20" stroke-width="2" stroke-linecap="round" stroke-linejoin="round" stroke-miterlimit="10" cx="329.436" cy="282.971" rx="8.99" ry="10.611"/>
					
						<path fill="none" stroke="#231F20" stroke-width="2" stroke-linecap="round" stroke-linejoin="round" stroke-miterlimit="10" d="
						M329.436,272.359l-134.935-5.666c-3.74-0.184-7.378,1.672-9.151,4.971c-0.783,1.457-1.348,3.313-1.45,5.662
						c-0.004,0.09-0.007,0.184-0.01,0.271c-0.153,5.426,4.229,9.908,9.651,10.18l135.895,5.805"/>
					
						<path fill="none" stroke="#231F20" stroke-width="2" stroke-linecap="round" stroke-linejoin="round" stroke-miterlimit="10" d="
						M205.728,267.164c0,0-2.361-7.727-13.211-6.438c-10.851,1.285-13.566,10.783-13.098,17.365c0,0-0.05,13.893,16.421,15.959
						c0,0,9.892,0.604,11.765-5.605"/>
					
						<line fill="none" stroke="#231F20" stroke-width="2" stroke-linecap="round" stroke-linejoin="round" stroke-miterlimit="10" x1="211.9" y1="288.561" x2="211.9" y2="297.658"/>
					
						<line fill="none" stroke="#231F20" stroke-width="2" stroke-linecap="round" stroke-linejoin="round" stroke-miterlimit="10" x1="221.445" y1="289.168" x2="221.445" y2="297.316"/>
					
						<line fill="none" stroke="#231F20" stroke-width="2" stroke-linecap="round" stroke-linejoin="round" stroke-miterlimit="10" x1="227.073" y1="289.572" x2="227.073" y2="297.316"/>
					
						<line fill="none" stroke="#231F20" stroke-width="2" stroke-linecap="round" stroke-linejoin="round" stroke-miterlimit="10" x1="235.515" y1="290.098" x2="235.515" y2="297.316"/>
					
						<line fill="none" stroke="#231F20" stroke-width="2" stroke-linecap="round" stroke-linejoin="round" stroke-miterlimit="10" x1="242.136" y1="289.854" x2="242.136" y2="297.658"/>
					
						<line fill="none" stroke="#231F20" stroke-width="2" stroke-linecap="round" stroke-linejoin="round" stroke-miterlimit="10" x1="249.395" y1="290.162" x2="249.32" y2="297.658"/>
					
						<line fill="none" stroke="#231F20" stroke-width="2" stroke-linecap="round" stroke-linejoin="round" stroke-miterlimit="10" x1="257.113" y1="290.492" x2="257.113" y2="297.979"/>
					
						<line fill="none" stroke="#231F20" stroke-width="2" stroke-linecap="round" stroke-linejoin="round" stroke-miterlimit="10" x1="264.43" y1="290.805" x2="264.43" y2="298.516"/>
					
						<line fill="none" stroke="#231F20" stroke-width="2" stroke-linecap="round" stroke-linejoin="round" stroke-miterlimit="10" x1="272.213" y1="291.139" x2="272.213" y2="298.516"/>
					
						<line fill="none" stroke="#231F20" stroke-width="2" stroke-linecap="round" stroke-linejoin="round" stroke-miterlimit="10" x1="279.063" y1="291.43" x2="279.063" y2="298.516"/>
					
						<line fill="none" stroke="#231F20" stroke-width="2" stroke-linecap="round" stroke-linejoin="round" stroke-miterlimit="10" x1="286.586" y1="291.752" x2="286.586" y2="298.516"/>
					
						<line fill="none" stroke="#231F20" stroke-width="2" stroke-linecap="round" stroke-linejoin="round" stroke-miterlimit="10" x1="293.164" y1="292.404" x2="293.164" y2="298.516"/>
					
						<line fill="none" stroke="#231F20" stroke-width="2" stroke-linecap="round" stroke-linejoin="round" stroke-miterlimit="10" x1="300.818" y1="292.74" x2="300.818" y2="298.516"/>
					
						<line fill="none" stroke="#231F20" stroke-width="2" stroke-linecap="round" stroke-linejoin="round" stroke-miterlimit="10" x1="307.129" y1="292.74" x2="307.129" y2="298.516"/>
					
						<line fill="none" stroke="#231F20" stroke-width="2" stroke-linecap="round" stroke-linejoin="round" stroke-miterlimit="10" x1="314.783" y1="293.242" x2="314.783" y2="298.516"/>
					
						<line fill="none" stroke="#231F20" stroke-width="2" stroke-linecap="round" stroke-linejoin="round" stroke-miterlimit="10" x1="319.887" y1="293.445" x2="320.02" y2="298.516"/>
					
						<polyline fill="none" stroke="#231F20" stroke-width="2" stroke-linecap="round" stroke-linejoin="round" stroke-miterlimit="10" points="
						338.426,245.393 338.426,250.826 349.801,251.318 					"/>
					
						<line fill="none" stroke="#231F20" stroke-width="2" stroke-linecap="round" stroke-linejoin="round" stroke-miterlimit="10" x1="344.529" y1="269.912" x2="354.787" y2="269.912"/>
					
						<line fill="none" stroke="#231F20" stroke-width="2" stroke-linecap="round" stroke-linejoin="round" stroke-miterlimit="10" x1="348.156" y1="276.402" x2="363.773" y2="276.402"/>
					
						<line fill="none" stroke="#231F20" stroke-width="2" stroke-linecap="round" stroke-linejoin="round" stroke-miterlimit="10" x1="349.793" y1="281.691" x2="359.281" y2="281.691"/>
					
						<line fill="none" stroke="#231F20" stroke-width="2" stroke-linecap="round" stroke-linejoin="round" stroke-miterlimit="10" x1="349.658" y1="287.656" x2="365.096" y2="287.656"/>
					
						<line fill="none" stroke="#231F20" stroke-width="2" stroke-linecap="round" stroke-linejoin="round" stroke-miterlimit="10" x1="348.156" y1="293.582" x2="352.949" y2="293.582"/>
					
						<line fill="none" stroke="#231F20" stroke-width="2" stroke-linecap="round" stroke-linejoin="round" stroke-miterlimit="10" x1="357.852" y1="293.756" x2="359.281" y2="293.756"/>
					
						<line fill="none" stroke="#231F20" stroke-width="2" stroke-linecap="round" stroke-linejoin="round" stroke-miterlimit="10" x1="339.922" y1="264.887" x2="357.377" y2="264.887"/>
					
						<line fill="none" stroke="#231F20" stroke-width="2" stroke-linecap="round" stroke-linejoin="round" stroke-miterlimit="10" x1="332.984" y1="260.98" x2="340.48" y2="260.98"/>
					
						<path fill="none" stroke="#231F20" stroke-width="2" stroke-linecap="round" stroke-linejoin="round" stroke-miterlimit="10" d="
						M387.83,261.994c0,0,20.246,3.043,19.715,17.441c-0.328,8.924-2.414,12.449-4.752,14.904c-1.279,1.344-2.314,1.641-4.172,1.641
						l-34.848,0.541"/>
					
						<path fill="none" stroke="#231F20" stroke-width="2" stroke-linecap="round" stroke-linejoin="round" stroke-miterlimit="10" d="
						M358.406,254.396l27.637,1.463c0,0,25.414,4.275,25.945,20.543c0.443,13.568-2.453,19.207-7.59,22.633
						c-1.824,1.215-3.992,1.826-6.188,1.826l-37.229,0.033"/>
					
						<path fill="none" stroke="#231F20" stroke-width="2" stroke-linecap="round" stroke-linejoin="round" stroke-miterlimit="10" d="
						M386.043,255.859c0,0,33.539-0.115,36.211,18.096c1.379,9.385-0.082,16.236-2.088,20.527c-1.797,3.852-5.77,6.217-10.02,6.217
						h-9.996"/>
				</g>
				
					<line fill="none" stroke="#231F20" stroke-width="2" stroke-linecap="round" stroke-linejoin="round" stroke-miterlimit="10" x1="406.832" y1="265.428" x2="417.92" y2="265.428"/>
				
					<line fill="none" stroke="#231F20" stroke-width="2" stroke-linecap="round" stroke-linejoin="round" stroke-miterlimit="10" x1="410.828" y1="271.104" x2="417.16" y2="271.104"/>
				
					<line fill="none" stroke="#231F20" stroke-width="2" stroke-linecap="round" stroke-linejoin="round" stroke-miterlimit="10" x1="411.988" y1="276.402" x2="422.199" y2="276.402"/>
				
					<line fill="none" stroke="#231F20" stroke-width="2" stroke-linecap="round" stroke-linejoin="round" stroke-miterlimit="10" x1="412.033" y1="281.691" x2="416.4" y2="281.691"/>
				
					<line fill="none" stroke="#231F20" stroke-width="2" stroke-linecap="round" stroke-linejoin="round" stroke-miterlimit="10" x1="411.455" y1="286.992" x2="419.162" y2="286.992"/>
				
					<line fill="none" stroke="#231F20" stroke-width="2" stroke-linecap="round" stroke-linejoin="round" stroke-miterlimit="10" x1="409.775" y1="292.754" x2="414.795" y2="292.754"/>
				
					<path fill="none" stroke="#231F20" stroke-width="2" stroke-linecap="round" stroke-linejoin="round" stroke-miterlimit="10" d="
					M394.176,267.117c0,0,7.365,4.145,5.975,15.125c-1.393,10.982-9.74,13.738-9.74,13.738"/>
				
					<path fill="none" stroke="#231F20" stroke-width="2" stroke-linecap="round" stroke-linejoin="round" stroke-miterlimit="10" d="
					M370.549,272.359l16.896,0.877c0,0,6.369,0.551,5.93,7.578c-0.061,0.986-0.191,1.857-0.375,2.627
					c-0.783,3.332-3.848,5.623-7.27,5.621l-20.412-0.01"/>
			</g>
			<path fill="none" stroke="#231F20" stroke-width="2" stroke-linecap="round" stroke-linejoin="round" stroke-miterlimit="10" d="
				M384.248,284.41c0,0,4.674,1.232,4.746-3.043"/>
		</g>
		
			<line fill="none" stroke="#231F20" stroke-width="2" stroke-linecap="round" stroke-linejoin="round" stroke-miterlimit="10" x1="443.951" y1="151.513" x2="397.846" y2="150.773"/>
		
			<line fill="none" stroke="#231F20" stroke-width="2" stroke-linecap="round" stroke-linejoin="round" stroke-miterlimit="10" x1="397.846" y1="146.558" x2="442.379" y2="147.164"/>
		
			<rect x="371.24" y="159.512" fill="none" stroke="#231F20" stroke-width="2" stroke-linecap="round" stroke-linejoin="round" stroke-miterlimit="10" width="12.053" height="9.908"/>
		
			<polyline fill="none" stroke="#231F20" stroke-width="2" stroke-linecap="round" stroke-linejoin="round" stroke-miterlimit="10" points="
			377.777,155.293 387.436,155.293 387.436,217.648 		"/>
		
			<polyline fill="none" stroke="#231F20" stroke-width="2" stroke-linecap="round" stroke-linejoin="round" stroke-miterlimit="10" points="
			250.66,233.307 249.398,221.145 256.279,221.145 256.66,226.246 		"/>
		
			<polyline fill="none" stroke="#231F20" stroke-width="2" stroke-linecap="round" stroke-linejoin="round" stroke-miterlimit="10" points="
			240.403,149.901 240.585,154.347 251.248,153.962 251.248,150.284 		"/>
		<path fill="none" stroke="#231F20" stroke-width="2" stroke-linecap="round" stroke-linejoin="round" stroke-miterlimit="10" d="
			M244.836,67.753l5.348,73.707l2.402,5.875c0.434,1.057-0.322,2.22-1.465,2.252l-10.719,0.313c-1.038,0.03-1.841-0.903-1.656-1.925
			l1.18-6.516l-4.258-71.771"/>
		
			<line fill="none" stroke="#231F20" stroke-width="2" stroke-linecap="round" stroke-linejoin="round" stroke-miterlimit="10" x1="243.044" y1="154.347" x2="249.398" y2="221.145"/>
		
			<line fill="none" stroke="#231F20" stroke-width="2" stroke-linecap="round" stroke-linejoin="round" stroke-miterlimit="10" x1="249.398" y1="154.347" x2="256.279" y2="221.145"/>
		
			<line fill="none" stroke="#231F20" stroke-width="2" stroke-linecap="round" stroke-linejoin="round" stroke-miterlimit="10" x1="239.927" y1="141.46" x2="244.19" y2="141.46"/>
		<path fill="none" stroke="#231F20" stroke-width="2" stroke-linecap="round" stroke-linejoin="round" stroke-miterlimit="10" d="
			M230.638,228.602l-2.051,0.744c0,0-2.164,1.33-1.983,3.967c0.157,2.637,2.931,3.764,2.931,3.764l4.125,2.438"/>
		
			<polyline fill="none" stroke="#231F20" stroke-width="2" stroke-linecap="round" stroke-linejoin="round" stroke-miterlimit="10" points="
			236.724,226.369 236.771,226.348 236.837,217.691 249.01,217.016 		"/>
		<path fill="none" stroke="#231F20" stroke-width="2" stroke-linecap="round" stroke-linejoin="round" stroke-miterlimit="10" d="
			M230.763,233.018l-0.338-10.662l6.373-0.525l-0.16,12.273C236.638,234.104,232.892,237.563,230.763,233.018z"/>
		
			<line fill="none" stroke="#231F20" stroke-width="2" stroke-linecap="round" stroke-linejoin="round" stroke-miterlimit="10" x1="230.425" y1="222.355" x2="224.684" y2="154.347"/>
		
			<line fill="none" stroke="#231F20" stroke-width="2" stroke-linecap="round" stroke-linejoin="round" stroke-miterlimit="10" x1="236.638" y1="221.842" x2="230.425" y2="154.347"/>
		
			<polygon fill="none" stroke="#231F20" stroke-width="2" stroke-linecap="round" stroke-linejoin="round" stroke-miterlimit="10" points="
			328.707,233.105 307.764,232.502 307.764,226.359 328.707,226.963 		"/>
		
			<polyline fill="none" stroke="#231F20" stroke-width="2" stroke-linecap="round" stroke-linejoin="round" stroke-miterlimit="10" points="
			280.545,226.58 298.393,226.727 298.393,233.018 280.828,233.018 		"/>
		
			<line fill="none" stroke="#231F20" stroke-width="2" stroke-linecap="round" stroke-linejoin="round" stroke-miterlimit="10" x1="312.723" y1="229.732" x2="311.32" y2="167.531"/>
		
			<line fill="none" stroke="#231F20" stroke-width="2" stroke-linecap="round" stroke-linejoin="round" stroke-miterlimit="10" x1="324.484" y1="229.732" x2="323.092" y2="167.906"/>
		<g>
			
				<line fill="none" stroke="#231F20" stroke-width="2" stroke-linecap="round" stroke-linejoin="round" stroke-miterlimit="10" x1="312.018" y1="175.154" x2="323.176" y2="174.871"/>
			
				<line fill="none" stroke="#231F20" stroke-width="2" stroke-linecap="round" stroke-linejoin="round" stroke-miterlimit="10" x1="312.018" y1="182.006" x2="323.176" y2="181.723"/>
			
				<line fill="none" stroke="#231F20" stroke-width="2" stroke-linecap="round" stroke-linejoin="round" stroke-miterlimit="10" x1="312.018" y1="188.855" x2="323.176" y2="188.572"/>
			
				<line fill="none" stroke="#231F20" stroke-width="2" stroke-linecap="round" stroke-linejoin="round" stroke-miterlimit="10" x1="312.018" y1="195.707" x2="323.176" y2="195.424"/>
			
				<line fill="none" stroke="#231F20" stroke-width="2" stroke-linecap="round" stroke-linejoin="round" stroke-miterlimit="10" x1="312.307" y1="202.551" x2="323.176" y2="202.275"/>
			
				<line fill="none" stroke="#231F20" stroke-width="2" stroke-linecap="round" stroke-linejoin="round" stroke-miterlimit="10" x1="312.264" y1="209.402" x2="323.176" y2="209.125"/>
			
				<line fill="none" stroke="#231F20" stroke-width="2" stroke-linecap="round" stroke-linejoin="round" stroke-miterlimit="10" x1="312.418" y1="216.25" x2="323.176" y2="215.977"/>
		</g>
		
			<polyline fill="none" stroke="#231F20" stroke-width="2" stroke-linecap="round" stroke-linejoin="round" stroke-miterlimit="10" points="
			236.722,227.658 240.878,226.58 249.984,226.58 		"/>
		
			<polyline fill="none" stroke="#231F20" stroke-width="2" stroke-linecap="round" stroke-linejoin="round" stroke-miterlimit="10" points="
			329.707,222.656 329.707,211.678 357.859,212.775 357.859,222.656 		"/>
		
			<polyline fill="none" stroke="#231F20" stroke-width="2" stroke-linecap="round" stroke-linejoin="round" stroke-miterlimit="10" points="
			399.416,224.338 399.416,156.443 446.674,157.271 		"/>
		<g>
			
				<line fill="none" stroke="#231F20" stroke-width="2" stroke-linecap="round" stroke-linejoin="round" stroke-miterlimit="10" x1="399.416" y1="162.287" x2="446.674" y2="162.756"/>
			
				<line fill="none" stroke="#231F20" stroke-width="2" stroke-linecap="round" stroke-linejoin="round" stroke-miterlimit="10" x1="399.416" y1="168.107" x2="446.674" y2="168.578"/>
			
				<line fill="none" stroke="#231F20" stroke-width="2" stroke-linecap="round" stroke-linejoin="round" stroke-miterlimit="10" x1="399.416" y1="173.928" x2="446.674" y2="174.398"/>
			
				<line fill="none" stroke="#231F20" stroke-width="2" stroke-linecap="round" stroke-linejoin="round" stroke-miterlimit="10" x1="399.416" y1="179.75" x2="446.674" y2="180.221"/>
			
				<line fill="none" stroke="#231F20" stroke-width="2" stroke-linecap="round" stroke-linejoin="round" stroke-miterlimit="10" x1="399.416" y1="185.57" x2="446.674" y2="186.043"/>
			
				<line fill="none" stroke="#231F20" stroke-width="2" stroke-linecap="round" stroke-linejoin="round" stroke-miterlimit="10" x1="399.416" y1="191.393" x2="446.674" y2="191.863"/>
			
				<line fill="none" stroke="#231F20" stroke-width="2" stroke-linecap="round" stroke-linejoin="round" stroke-miterlimit="10" x1="399.416" y1="197.213" x2="446.674" y2="197.684"/>
			
				<line fill="none" stroke="#231F20" stroke-width="2" stroke-linecap="round" stroke-linejoin="round" stroke-miterlimit="10" x1="399.416" y1="203.035" x2="446.674" y2="203.506"/>
			
				<line fill="none" stroke="#231F20" stroke-width="2" stroke-linecap="round" stroke-linejoin="round" stroke-miterlimit="10" x1="399.416" y1="208.855" x2="446.674" y2="209.326"/>
			
				<line fill="none" stroke="#231F20" stroke-width="2" stroke-linecap="round" stroke-linejoin="round" stroke-miterlimit="10" x1="399.416" y1="214.676" x2="446.674" y2="215.148"/>
		</g>
		
			<line fill="none" stroke="#231F20" stroke-width="2" stroke-linecap="round" stroke-linejoin="round" stroke-miterlimit="10" x1="275.961" y1="109.968" x2="255.432" y2="49.516"/>
		
			<polyline fill="none" stroke="#231F20" stroke-width="2" stroke-linecap="round" stroke-linejoin="round" stroke-miterlimit="10" points="
			239.273,145.064 233.525,139.654 232.623,140.419 231.427,141.412 228.474,143.892 227.078,145.085 231.902,150.023 
			243.781,162.174 		"/>
		
			<polyline fill="none" stroke="#231F20" stroke-width="2" stroke-linecap="round" stroke-linejoin="round" stroke-miterlimit="10" points="
			232.623,140.419 231.292,138.955 231.292,138.933 221.419,128.044 202.8,106.368 197.459,110.621 221.78,136.724 228.474,143.892 
					"/>
		<path fill="none" stroke="#231F20" stroke-width="2" stroke-linecap="round" stroke-linejoin="round" stroke-miterlimit="10" d="
			M239.552,135.151c-0.01-0.162-35.887-43.823-35.887-43.823l7.279-6.471l27.522,31.996"/>
		<path fill="none" stroke="#231F20" stroke-width="2" stroke-linecap="round" stroke-linejoin="round" stroke-miterlimit="10" d="
			M210.738,35.522v-7.135l10.117-2.876l31.417,29.287l-5.645,8.094c0,0-0.52,6.814-7.075,7.348c0,0-3.361,0.639-5.918-3.195
			l-7.455,0.709c0,0-6.176,6.672-10.862,0c0,0-2.13-2.52-0.106-8.483l-3.195-8.095c0,0-5.644-1.383-5.856-8.52
			C206.159,42.657,205.946,37.757,210.738,35.522z"/>
		
			<polyline fill="none" stroke="#231F20" stroke-width="2" stroke-linecap="round" stroke-linejoin="round" stroke-miterlimit="10" points="
			220.856,25.509 225.832,22.332 257.75,44.698 252.273,54.796 		"/>
		
			<circle fill="none" stroke="#231F20" stroke-width="2" stroke-linecap="round" stroke-linejoin="round" stroke-miterlimit="10" cx="239.599" cy="63.41" r="2.904"/>
		
			<circle fill="none" stroke="#231F20" stroke-width="2" stroke-linecap="round" stroke-linejoin="round" stroke-miterlimit="10" cx="221.044" cy="63.41" r="2.904"/>
		
			<polyline fill="none" stroke="#231F20" stroke-width="2" stroke-linecap="round" stroke-linejoin="round" stroke-miterlimit="10" points="
			230.436,123.943 230.436,123.988 231.292,138.933 231.292,138.955 		"/>
		
			<polyline fill="none" stroke="#231F20" stroke-width="2" stroke-linecap="round" stroke-linejoin="round" stroke-miterlimit="10" points="
			231.902,150.023 232.126,153.833 222.546,154.306 221.78,136.724 		"/>
		
			<polyline fill="none" stroke="#231F20" stroke-width="2" stroke-linecap="round" stroke-linejoin="round" stroke-miterlimit="10" points="
			221.419,128.044 220.72,112.109 220.72,112.085 		"/>
		
			<line fill="none" stroke="#231F20" stroke-width="2" stroke-linecap="round" stroke-linejoin="round" stroke-miterlimit="10" x1="218.138" y1="70.718" x2="238.3" y2="114.042"/>
		
			<polygon fill="none" stroke="#231F20" stroke-width="2" stroke-linecap="round" stroke-linejoin="round" stroke-miterlimit="10" points="
			298.502,186.168 286.313,185.848 286.313,181.08 298.502,181.396 		"/>
		
			<polygon fill="none" stroke="#231F20" stroke-width="2" stroke-linecap="round" stroke-linejoin="round" stroke-miterlimit="10" points="
			298.502,198.748 286.313,198.43 286.313,193.66 298.502,193.979 		"/>
		
			<polygon fill="none" stroke="#231F20" stroke-width="2" stroke-linecap="round" stroke-linejoin="round" stroke-miterlimit="10" points="
			298.502,211.332 286.313,211.012 286.313,206.242 298.502,206.563 		"/>
		
			<line fill="none" stroke="#231F20" stroke-width="2" stroke-linecap="round" stroke-linejoin="round" stroke-miterlimit="10" x1="366.945" y1="163.668" x2="250.133" y2="161.479"/>
		
			<line fill="none" stroke="#231F20" stroke-width="2" stroke-linecap="round" stroke-linejoin="round" stroke-miterlimit="10" x1="426.883" y1="137.901" x2="426.883" y2="146.612"/>
		
			<line fill="none" stroke="#231F20" stroke-width="2" stroke-linecap="round" stroke-linejoin="round" stroke-miterlimit="10" x1="422.9" y1="137.901" x2="422.9" y2="146.453"/>
		
			<polyline fill="none" stroke="#231F20" stroke-width="2" stroke-linecap="round" stroke-linejoin="round" stroke-miterlimit="10" points="
			325.148,162.883 325.148,112.647 269.803,110.759 265.695,109.968 248.42,109.968 		"/>
		
			<line fill="none" stroke="#231F20" stroke-width="2" stroke-linecap="round" stroke-linejoin="round" stroke-miterlimit="10" x1="269.803" y1="110.759" x2="269.803" y2="160.555"/>
		
			<polyline fill="none" stroke="#231F20" stroke-width="2" stroke-linecap="round" stroke-linejoin="round" stroke-miterlimit="10" points="
			248.186,113.914 262.705,113.914 269.803,118.145 		"/>
		
			<polygon fill="none" stroke="#231F20" stroke-width="2" stroke-linecap="round" stroke-linejoin="round" stroke-miterlimit="10" points="
			302.846,146.408 275.203,145.55 275.203,123.978 302.846,124.835 		"/>
		
			<polygon fill="none" stroke="#231F20" stroke-width="2" stroke-linecap="round" stroke-linejoin="round" stroke-miterlimit="10" points="
			319.598,157.891 308.539,157.473 308.539,125.406 319.598,125.824 		"/>
		
			<polyline fill="none" stroke="#231F20" stroke-width="2" stroke-linecap="round" stroke-linejoin="round" stroke-miterlimit="10" points="
			325.148,146.612 357.859,146.612 370.279,134.19 387.436,134.19 387.436,123.978 442.373,125.232 442.373,137.901 		"/>
		
			<polyline fill="none" stroke="#231F20" stroke-width="2" stroke-linecap="round" stroke-linejoin="round" stroke-miterlimit="10" points="
			325.148,142.255 355.891,142.255 367.666,129.835 383.643,129.835 383.643,119.173 446.674,120.75 446.674,151.511 		"/>
		
			<line fill="none" stroke="#231F20" stroke-width="2" stroke-linecap="round" stroke-linejoin="round" stroke-miterlimit="10" x1="339.23" y1="146.612" x2="339.23" y2="162.174"/>
		
			<line fill="none" stroke="#231F20" stroke-width="2" stroke-linecap="round" stroke-linejoin="round" stroke-miterlimit="10" x1="352.674" y1="146.612" x2="352.674" y2="162.883"/>
		
			<line fill="none" stroke="#231F20" stroke-width="2" stroke-linecap="round" stroke-linejoin="round" stroke-miterlimit="10" x1="370.279" y1="134.19" x2="370.279" y2="155.293"/>
		
			<line fill="none" stroke="#231F20" stroke-width="2" stroke-linecap="round" stroke-linejoin="round" stroke-miterlimit="10" x1="387.436" y1="134.19" x2="387.436" y2="150.767"/>
		
			<line fill="none" stroke="#231F20" stroke-width="2" stroke-linecap="round" stroke-linejoin="round" stroke-miterlimit="10" x1="403.629" y1="124.348" x2="403.629" y2="137.22"/>
		
			<line fill="none" stroke="#231F20" stroke-width="2" stroke-linecap="round" stroke-linejoin="round" stroke-miterlimit="10" x1="417.75" y1="124.669" x2="417.75" y2="137.22"/>
		
			<line fill="none" stroke="#231F20" stroke-width="2" stroke-linecap="round" stroke-linejoin="round" stroke-miterlimit="10" x1="430.283" y1="125.406" x2="430.283" y2="137.22"/>
		
			<polyline fill="none" stroke="#231F20" stroke-width="2" stroke-linecap="round" stroke-linejoin="round" stroke-miterlimit="10" points="
			256.352,52.223 272.721,46.637 294.223,111.591 		"/>
		
			<line fill="none" stroke="#231F20" stroke-width="2" stroke-linecap="round" stroke-linejoin="round" stroke-miterlimit="10" x1="277.967" y1="65.255" x2="263.805" y2="71.287"/>
		
			<line fill="none" stroke="#231F20" stroke-width="2" stroke-linecap="round" stroke-linejoin="round" stroke-miterlimit="10" x1="284.785" y1="84.857" x2="270.885" y2="91.085"/>
		
			<line fill="none" stroke="#231F20" stroke-width="2" stroke-linecap="round" stroke-linejoin="round" stroke-miterlimit="10" x1="291.094" y1="102.14" x2="275.961" y2="108.828"/>
		
			<line fill="none" stroke="#231F20" stroke-width="2" stroke-linecap="round" stroke-linejoin="round" stroke-miterlimit="10" x1="264.285" y1="49.516" x2="285.703" y2="110.759"/>
		<path fill="none" stroke="#231F20" stroke-width="2" stroke-linecap="round" stroke-linejoin="round" stroke-miterlimit="10" d="
			M245.602,78.292c0,0,0.973,14.104,7.74,17.582c6.766,3.479,27.412,1.129,30.186,15.354"/>
		
			<polyline fill="none" stroke="#231F20" stroke-width="2" stroke-linecap="round" stroke-linejoin="round" stroke-miterlimit="10" points="
			208.648,36.916 176.98,29.3 161.75,30.617 114.18,63.41 112.676,79.114 212.015,51.175 224.638,48.115 217.872,32.042 
			210.738,35.522 		"/>
		
			<polyline fill="none" stroke="#231F20" stroke-width="2" stroke-linecap="round" stroke-linejoin="round" stroke-miterlimit="10" points="
			161.75,30.617 142.196,32.498 116.118,50.177 		"/>
		
			<polyline fill="none" stroke="#231F20" stroke-width="2" stroke-linecap="round" stroke-linejoin="round" stroke-miterlimit="10" points="
			195.484,33.75 196.736,29.3 216.72,20.852 219.829,25.509 		"/>
		
			<line fill="none" stroke="#231F20" stroke-width="2" stroke-linecap="round" stroke-linejoin="round" stroke-miterlimit="10" x1="214.375" y1="64.768" x2="179.206" y2="75.173"/>
		
			<line fill="none" stroke="#231F20" stroke-width="2" stroke-linecap="round" stroke-linejoin="round" stroke-miterlimit="10" x1="216.39" y1="69.026" x2="180.33" y2="80.395"/>
		
			<polyline fill="none" stroke="#231F20" stroke-width="2" stroke-linecap="round" stroke-linejoin="round" stroke-miterlimit="10" points="
			115.03,100.481 170.652,82.423 174.57,83.583 180.511,81.699 177.757,73 170.508,74.753 168.383,77.639 111.392,94.742 		"/>
		<ellipse fill="#231F20" cx="174.443" cy="78.623" rx="1.772" ry="1.772"/>
		
			<polyline fill="none" stroke="#231F20" stroke-width="2" stroke-linecap="round" stroke-linejoin="round" stroke-miterlimit="10" points="
			95.167,49.218 95.167,46.875 105.761,22.327 113.718,23.589 116.108,48.114 114.192,63.419 		"/>
		
			<polyline fill="none" stroke="#231F20" stroke-width="2" stroke-linecap="round" stroke-linejoin="round" stroke-miterlimit="10" points="
			98.819,61.684 100.599,63.419 97.646,117.271 95.167,157.92 		"/>
		<path fill="none" stroke="#231F20" stroke-width="2" stroke-linecap="round" stroke-linejoin="round" stroke-miterlimit="10" d="
			M116.539,147.578c-5.748,4.598-10.775,4.824-10.775,4.824v-4.824l3.291-32.933l3.629-35.524"/>
		
			<polyline fill="none" stroke="#231F20" stroke-width="2" stroke-linecap="round" stroke-linejoin="round" stroke-miterlimit="10" points="
			110.95,96.013 115.03,98.4 114.305,106.169 109.61,110.521 		"/>
		
			<polyline fill="none" stroke="#231F20" stroke-width="2" stroke-linecap="round" stroke-linejoin="round" stroke-miterlimit="10" points="
			105.769,22.332 74.524,28.114 71.892,36.012 		"/>
		<path fill="none" stroke="#231F20" stroke-width="2" stroke-linecap="round" stroke-linejoin="round" stroke-miterlimit="10" d="
			M16.908,54.632l29.321-6.649l10.58,0.504l4.736-2.116l19.346,13.704l1.612,14.106l2.015,0.906l4.836-6.448L110.86,52.82
			l0.531-5.038l-1.136-11.769L95.173,49.226L77.38,42.621l-0.454-4.05L54.254,28.142l-2.381-14.964H50.06
			c0,0-2.154,11.903-2.154,11.563c0-0.34-1.587-10.089-1.587-10.089h-2.607l-1.474,8.842l-1.701-8.162l-2.947,0.228l-1.474,8.049
			l-1.701-7.142l-2.154,0.453l-1.02,8.275l-2.494,0.34l-1.02-5.781l-2.38,0.681l-0.454,7.481l-2.494,0.793l-2.041-5.101
			l-1.813,0.907v7.48c0,0-3.061,10.43-2.721,21.652c0,0,2.041,22.219,6.008,35.369l-2.041,1.247l2.267,7.936h1.36
			c0,0,2.461,10.996,5.595,15.417c0,0,25.044,48.756,80.592,44.354c0,0,11.546-5.953,14.346-10.397h-18.187"/>
		
			<line fill="none" stroke="#231F20" stroke-width="2" stroke-linecap="round" stroke-linejoin="round" stroke-miterlimit="10" x1="15.8" y1="50.571" x2="35.689" y2="45.808"/>
		
			<line fill="none" stroke="#231F20" stroke-width="2" stroke-linecap="round" stroke-linejoin="round" stroke-miterlimit="10" x1="40.138" y1="44.805" x2="41.831" y2="44.492"/>
		
			<polyline fill="none" stroke="#231F20" stroke-width="2" stroke-linecap="round" stroke-linejoin="round" stroke-miterlimit="10" points="
			77.382,42.618 70.534,40.016 68.851,44.223 61.278,41.11 62.12,36.566 55.304,32.948 		"/>
		<ellipse fill="#231F20" cx="105.695" cy="48.541" rx="1.925" ry="3.95"/>
		<path fill="none" stroke="#231F20" stroke-width="2" stroke-linecap="round" stroke-linejoin="round" stroke-miterlimit="10" d="
			M52.78,38.585c0,0-2.711,20.736,3.113,45.438"/>
		
			<polyline fill="none" stroke="#231F20" stroke-width="2" stroke-linecap="round" stroke-linejoin="round" stroke-miterlimit="10" points="
			21.835,89.014 55.304,85.319 81.27,67.356 		"/>
		
			<polyline fill="none" stroke="#231F20" stroke-width="2" stroke-linecap="round" stroke-linejoin="round" stroke-miterlimit="10" points="
			23.422,98.197 58.717,92.776 82.866,75.112 		"/>
		<path fill="none" stroke="#231F20" stroke-width="2" stroke-linecap="round" stroke-linejoin="round" stroke-miterlimit="10" d="
			M205.207,89.957c0.137-0.121-11.765-13.789-11.765-13.789"/>
		<path fill="none" stroke="#231F20" stroke-width="2" stroke-linecap="round" stroke-linejoin="round" stroke-miterlimit="10" d="
			M209.743,85.923c-0.282-0.459-9.825-11.432-9.825-11.432"/>
		
			<line fill="none" stroke="#231F20" stroke-width="2" stroke-linecap="round" stroke-linejoin="round" stroke-miterlimit="10" x1="198.234" y1="110.003" x2="174.57" y2="83.583"/>
		
			<line fill="none" stroke="#231F20" stroke-width="2" stroke-linecap="round" stroke-linejoin="round" stroke-miterlimit="10" x1="180.511" y1="81.699" x2="201.467" y2="106.833"/>
		
			<line fill="none" stroke="#231F20" stroke-width="2" stroke-linecap="round" stroke-linejoin="round" stroke-miterlimit="10" x1="289.023" y1="130.957" x2="285.385" y2="135.193"/>
		
			<line fill="none" stroke="#231F20" stroke-width="2" stroke-linecap="round" stroke-linejoin="round" stroke-miterlimit="10" x1="295.305" y1="130.681" x2="288.279" y2="139.085"/>
		
			<polyline fill="none" stroke="#231F20" stroke-width="2" stroke-linecap="round" stroke-linejoin="round" stroke-miterlimit="10" points="
			219.829,94.759 219.829,85.494 207.656,71.78 		"/>
		
			<line fill="none" stroke="#231F20" stroke-width="2" stroke-linecap="round" stroke-linejoin="round" stroke-miterlimit="10" x1="224.699" y1="69.026" x2="237.14" y2="94.498"/>
		<path fill="none" stroke="#231F20" stroke-width="2" stroke-linecap="round" stroke-linejoin="round" stroke-miterlimit="10" d="
			M172.402,38.565c0,0-24.68,24.931-7.917,40.245"/>
		<path fill="none" stroke="#231F20" stroke-width="2" stroke-linecap="round" stroke-linejoin="round" stroke-miterlimit="10" d="
			M169.454,34.621c0,0-32.134,28.418-12.248,46.372"/>
		
			<line fill="none" stroke="#231F20" stroke-width="2" stroke-linecap="round" stroke-linejoin="round" stroke-miterlimit="10" x1="241.111" y1="69.971" x2="242.886" y2="95.587"/>
		
			<line fill="none" stroke="#231F20" stroke-width="2" stroke-linecap="round" stroke-linejoin="round" stroke-miterlimit="10" x1="243.359" y1="101.423" x2="243.556" y2="103.386"/>
		<path fill="none" stroke="#231F20" stroke-width="2" stroke-linecap="round" stroke-linejoin="round" stroke-miterlimit="10" d="
			M111.617,89.478c0,0,16.664,1.184,19.374-15.514"/>
		<path fill="none" stroke="#231F20" stroke-width="2" stroke-linecap="round" stroke-linejoin="round" stroke-miterlimit="10" d="
			M112.049,85.253c0,0,12.111-1.291,13.083-9.643"/>
		<path fill="none" stroke="#231F20" stroke-width="2" stroke-linecap="round" stroke-linejoin="round" stroke-miterlimit="10" d="
			M134.418,73c0,0,1.363,12.961,9.914,11.856"/>
		
			<line fill="none" stroke="#231F20" stroke-width="2" stroke-linecap="round" stroke-linejoin="round" stroke-miterlimit="10" x1="203.665" y1="54.208" x2="213.743" y2="63.395"/>
		<path fill="none" stroke="#231F20" stroke-width="2" stroke-linecap="round" stroke-linejoin="round" stroke-miterlimit="10" d="
			M188.578,72.401c0,0-4.605-7.7,1.974-10.362s9.711,6.108,9.711,6.108"/>
		<circle fill="#231F20" cx="193.136" cy="67.997" r="2.721"/>
		<path fill="none" stroke="#231F20" stroke-width="2" stroke-linecap="round" stroke-linejoin="round" stroke-miterlimit="10" d="
			M58.717,92.776c0,0,0.501,3.778,2.368,6.226"/>
		<path fill="none" stroke="#231F20" stroke-width="2" stroke-linecap="round" stroke-linejoin="round" stroke-miterlimit="10" d="
			M45.292,48.195c0,0,0.034,13.977,1.319,20.918"/>
		
			<line fill="none" stroke="#231F20" stroke-width="2" stroke-linecap="round" stroke-linejoin="round" stroke-miterlimit="10" x1="402.203" y1="300.623" x2="463.377" y2="300.623"/>
		
			<line fill="none" stroke="#231F20" stroke-width="2" stroke-linecap="round" stroke-linejoin="round" stroke-miterlimit="10" x1="475.133" y1="300.623" x2="479.488" y2="300.623"/>
		
			<line fill="none" stroke="#231F20" stroke-width="2" stroke-linecap="round" stroke-linejoin="round" stroke-miterlimit="10" x1="432.791" y1="309.717" x2="497.34" y2="309.717"/>
		
			<line fill="none" stroke="#231F20" stroke-width="2" stroke-linecap="round" stroke-linejoin="round" stroke-miterlimit="10" x1="407.555" y1="309.717" x2="402.203" y2="309.717"/>
		
			<line fill="none" stroke="#231F20" stroke-width="2" stroke-linecap="round" stroke-linejoin="round" stroke-miterlimit="10" x1="377.777" y1="310.586" x2="315.992" y2="310.586"/>
		
			<line fill="none" stroke="#231F20" stroke-width="2" stroke-linecap="round" stroke-linejoin="round" stroke-miterlimit="10" x1="175.118" y1="311.787" x2="180.53" y2="311.787"/>
		
			<line fill="none" stroke="#231F20" stroke-width="2" stroke-linecap="round" stroke-linejoin="round" stroke-miterlimit="10" x1="198.497" y1="311.787" x2="242.059" y2="311.787"/>
		
			<rect x="334.492" y="181.08" fill="none" stroke="#231F20" stroke-width="2" stroke-linecap="round" stroke-linejoin="round" stroke-miterlimit="10" width="43.285" height="19.609"/>
		<path fill="none" stroke="#231F20" stroke-width="2" stroke-linecap="round" stroke-linejoin="round" stroke-miterlimit="10" d="
			M201.076,261.994c0,0,15.454-5.105,51.762-2.121"/>
		
			<line fill="none" stroke="#231F20" stroke-width="2" stroke-linecap="round" stroke-linejoin="round" stroke-miterlimit="10" x1="260.201" y1="260.465" x2="264.43" y2="260.98"/>
		<path fill="none" stroke="#231F20" stroke-width="2" stroke-linecap="round" stroke-linejoin="round" stroke-miterlimit="10" d="
			M188.341,278.09c0,0,0,5.75,5.621,5.75l28.54,1.475"/>
		
			<line fill="none" stroke="#231F20" stroke-width="2" stroke-linecap="round" stroke-linejoin="round" stroke-miterlimit="10" x1="322.236" y1="289.717" x2="287.221" y2="288.205"/>
		<path fill="none" stroke="#231F20" stroke-width="2" stroke-linecap="round" stroke-linejoin="round" stroke-miterlimit="10" d="
			M327.527,289.063c0,0,5.518,1.656,6.84-4.547"/>
		<path fill="none" stroke="#231F20" stroke-width="2" stroke-linecap="round" stroke-linejoin="round" stroke-miterlimit="10" d="
			M96.023,143.892c0,0-21.408-6.568-28.227-28.129"/>
		<path fill="none" stroke="#231F20" stroke-width="2" stroke-linecap="round" stroke-linejoin="round" stroke-miterlimit="10" d="
			M28.54,97.412c0,0,7.157,20.239,20.036,31.245"/>
		
			<line fill="none" stroke="#231F20" stroke-width="2" stroke-linecap="round" stroke-linejoin="round" stroke-miterlimit="10" x1="53.144" y1="132.402" x2="55.893" y2="135.33"/>
	</g>
</g>
</svg>
