<?xml version="1.0" encoding="utf-8"?>
<!-- Generator: Adobe Illustrator 16.0.3, SVG Export Plug-In . SVG Version: 6.00 Build 0)  -->
<!DOCTYPE svg PUBLIC "-//W3C//DTD SVG 1.1//EN" "http://www.w3.org/Graphics/SVG/1.1/DTD/svg11.dtd">
<svg version="1.1" id="Layer_1" xmlns="http://www.w3.org/2000/svg" xmlns:xlink="http://www.w3.org/1999/xlink" x="0px" y="0px"
	 width="573px" height="292px" viewBox="0 0 573 292" enable-background="new 0 0 573 292" xml:space="preserve">
<g id="Guides_For_Artboard">
</g>
<g id="Layer_1_1_">
</g>
<g id="Layer_2">
	<g>
		<g>
			<g>
				
					<path fill="none" stroke="#231F20" stroke-width="2" stroke-linecap="round" stroke-linejoin="round" stroke-miterlimit="10" d="
					M548.727,224.645l-3.952,0.729c-42.697,7.054-97.597,2.098-97.597,2.098l3.24,18.489c66.715,6.29,99.691-7.625,99.691-7.625
					v-13.532l-3.813-2.669l2.098-2.286c0.382-6.102-3.428-37.229-3.428-37.229c-0.459-5.287-8.508-7.983-8.508-7.983
					c-15.549-5.184-54.096-11.177-54.096-11.177s-10.974-30.031-14.98-36.754c0,0-2.846-4.396-8.018-5.688
					c0,0-37.496-6.595-67.881-4.913l-31.808,0.775c0,0-2.846,0.646-3.104,3.49c0,0-5.562,60.641-3.621,81.845
					c0,0,0,3.491,2.199,3.361l35.702,2.793c0,0-7.938,10.031-7.661,39.228h11.868"/>
				
					<path fill="none" stroke="#231F20" stroke-width="2" stroke-linecap="round" stroke-linejoin="round" stroke-miterlimit="10" d="
					M535.5,178.854c0,0-19.234-2.279-38.035-0.195c-1.867,0.208-3.307,1.727-3.367,3.604c-0.194,5.803-0.055,18.576,3.941,30.793
					c0,0,2.037,4.887,4.582,4.581c2.258-0.271,27.363-0.462,38.109-1.854c1.866-0.241,3.209-1.896,3.043-3.771
					c-0.617-6.983-2.13-23.428-3.082-28.272C540.691,183.738,539.479,179.073,535.5,178.854z"/>
				
					<path fill="none" stroke="#231F20" stroke-width="2" stroke-linecap="round" stroke-linejoin="round" stroke-miterlimit="10" d="
					M529.107,243.846c-1.33,11.439-9.968,21.164-21.886,23.348c-13.932,2.552-27.317-6.121-30.86-19.596"/>
				
					<path fill="none" stroke="#231F20" stroke-width="2" stroke-linecap="round" stroke-linejoin="round" stroke-miterlimit="10" d="
					M548.395,219.845c0,0-42.995,9.39-102.475,2.021c0,0-10.988-27.928-34.91-24.954c-23.92,2.975-23.791,50.683-23.791,50.683"/>
				
					<path fill="none" stroke="#231F20" stroke-width="2" stroke-linecap="round" stroke-linejoin="round" stroke-miterlimit="10" d="
					M494.043,180.059c0,0-42.207-7.252-67.074-8.287"/>
				
					<path fill="none" stroke="#231F20" stroke-width="2" stroke-linecap="round" stroke-linejoin="round" stroke-miterlimit="10" d="
					M495.938,224.662c0,0-12.28-44.012-70.743-38.979c0,0-24.648,1.063-34.334,22.682"/>
				
					<path fill="none" stroke="#231F20" stroke-width="2" stroke-linecap="round" stroke-linejoin="round" stroke-miterlimit="10" d="
					M409.316,189.938c0.225-0.103,0-11.705,0-11.705s-1.134-8.795,5.547-10.02"/>
				
					<path fill="none" stroke="#231F20" stroke-width="2" stroke-linecap="round" stroke-linejoin="round" stroke-miterlimit="10" d="
					M399.365,128.216l7.801,30.795c0,0,2.254,7.328,10.992,5.354c0,0,42.133-4.791,60.031-2.113l-13.39-31.707
					c0,0-2.709-5.683-7.764-5.955c0,0-31.279-4.713-49.104-2.391C407.936,122.198,397.896,122.677,399.365,128.216z"/>
				
					<path fill="none" stroke="#231F20" stroke-width="2" stroke-linecap="round" stroke-linejoin="round" stroke-miterlimit="10" d="
					M390.277,126.813c-0.476-1.27-1.84-1.977-3.189-2.085c-3.981-0.32-12.565-0.87-18.365-0.235c0,0-3.403,0.106-4.149,4.363
					c0,0-1.365,11.9-1.107,21.88c0.043,1.683,0.597,3.355,1.746,4.582c0.709,0.759,1.703,1.455,3.086,1.847l22.564,5.215
					c0,0,4.682,0.64,5.319-4.685C396.18,157.695,395.389,140.495,390.277,126.813z"/>
				
					<path fill="none" stroke="#231F20" stroke-width="2" stroke-linecap="round" stroke-linejoin="round" stroke-miterlimit="10" d="
					M388.092,116.183c0,0,5.107,1.211,6.387,7.688l5.732,25.467c0.607,2.703,0.912,5.453,0.914,8.225
					c0,1.467-0.012,3.158-0.051,4.844v31.584"/>
				
					<path fill="none" stroke="#231F20" stroke-width="2" stroke-linecap="round" stroke-linejoin="round" stroke-miterlimit="10" d="
					M476.361,147.561l0.272-15.39c0.031-1.746-1.34-3.197-3.086-3.264l-5.09-0.191"/>
				
					<path fill="none" stroke="#231F20" stroke-width="2" stroke-linecap="round" stroke-linejoin="round" stroke-miterlimit="10" d="
					M485.016,214.456c0.445,0.916-0.264,1.985-1.278,1.924c-5.763-0.36-21.47-1.371-23.23-1.756
					c-2.162-0.472-6.949-3.144-6.559-7.854c0.393-4.713,8.483-2.75,8.483-2.75s9.195,1.758,13.759,2.61
					c1.95,0.364,3.735,1.3,5.133,2.711C482.553,210.586,483.973,212.316,485.016,214.456z"/>
				
					<polyline fill="none" stroke="#231F20" stroke-width="2" stroke-linecap="round" stroke-linejoin="round" stroke-miterlimit="10" points="
					388.684,212.331 360.576,210.492 348.096,213.034 387.221,216.124 				"/>
				
					<polyline fill="none" stroke="#231F20" stroke-width="2" stroke-linecap="round" stroke-linejoin="round" stroke-miterlimit="10" points="
					348.096,213.034 348.096,230.423 383.707,234.134 				"/>
				
					<line fill="none" stroke="#231F20" stroke-width="2" stroke-linecap="round" stroke-linejoin="round" stroke-miterlimit="10" x1="348.096" y1="230.423" x2="345.168" y2="236.586"/>
				
					<line fill="none" stroke="#231F20" stroke-width="2" stroke-linecap="round" stroke-linejoin="round" stroke-miterlimit="10" x1="353.293" y1="230.965" x2="349.656" y2="236.92"/>
				
					<line fill="none" stroke="#231F20" stroke-width="2" stroke-linecap="round" stroke-linejoin="round" stroke-miterlimit="10" x1="380.988" y1="233.852" x2="377.52" y2="241.943"/>
				
					<path fill="none" stroke="#231F20" stroke-width="2" stroke-linecap="round" stroke-linejoin="round" stroke-miterlimit="10" d="
					M454.756,228.029c-0.633-1.787-1.365-3.646-2.207-5.256"/>
				<g>
					
						<path fill="none" stroke="#231F20" stroke-width="2" stroke-linecap="round" stroke-linejoin="round" stroke-miterlimit="10" d="
						M439.52,241.08c1.371,18.62-7.454,34.246-19.715,34.898c-12.26,0.654-23.311-13.91-24.682-32.53
						c-1.371-18.621,7.455-34.246,19.715-34.899C427.098,207.895,438.146,222.459,439.52,241.08z"/>
					
						<path fill="none" stroke="#231F20" stroke-width="2" stroke-linecap="round" stroke-linejoin="round" stroke-miterlimit="10" d="
						M427.584,242.002c0.805,10.987-4.227,20.196-11.234,20.568c-7.007,0.373-13.342-8.229-14.146-19.217
						c-0.803-10.988,4.229-20.196,11.236-20.569C420.447,222.412,426.781,231.018,427.584,242.002z"/>
					<path fill="#231F20" d="M418.469,242.426c0.304,4.124-1.588,7.581-4.219,7.723c-2.631,0.14-5.008-3.092-5.311-7.215
						c-0.304-4.125,1.588-7.582,4.219-7.723S418.166,238.301,418.469,242.426z"/>
					
						<path fill="none" stroke="#231F20" stroke-width="2" stroke-linecap="round" stroke-linejoin="round" stroke-miterlimit="10" d="
						M427.838,206.893l0.398-0.066c0.748-0.176,1.475-0.266,2.27-0.309c2.107-0.11,3.818,0.063,5.83,0.702"/>
					
						<path fill="none" stroke="#231F20" stroke-width="2" stroke-linecap="round" stroke-linejoin="round" stroke-miterlimit="10" d="
						M435.561,273.936c11.279-0.607,19.916-12.285,21.201-27.427"/>
					
						<line fill="none" stroke="#231F20" stroke-width="2" stroke-linecap="round" stroke-linejoin="round" stroke-miterlimit="10" x1="421.479" y1="275.885" x2="435.555" y2="273.953"/>
					
						<line fill="none" stroke="#231F20" stroke-width="2" stroke-linecap="round" stroke-linejoin="round" stroke-miterlimit="10" x1="416.434" y1="208.457" x2="430.508" y2="206.525"/>
				</g>
				<g>
					
						<path fill="none" stroke="#231F20" stroke-width="2" stroke-linecap="round" stroke-linejoin="round" stroke-miterlimit="10" d="
						M256.426,239.811c-2.737,4.088-6.469,6.688-10.665,6.909c-9.009,0.479-16.741-10.178-17.271-23.8
						c-0.53-13.623,6.344-25.056,15.353-25.533c3.378-0.181,6.577,1.207,9.284,3.729"/>
					
						<path fill="none" stroke="#231F20" stroke-width="2" stroke-linecap="round" stroke-linejoin="round" stroke-miterlimit="10" d="
						M252.326,221.866c0.257,6.342-2.129,11.864-5.687,14.041c-0.959,0.585-1.989,0.938-3.065,1.007
						c-5.148,0.279-9.572-6.016-9.899-14.063c-0.304-8.027,3.627-14.769,8.776-15.049c1.311-0.07,2.598,0.28,3.744,1.029
						C249.586,210.867,252.092,215.876,252.326,221.866z"/>
					
						<path fill="none" stroke="#231F20" stroke-width="2" stroke-linecap="round" stroke-linejoin="round" stroke-miterlimit="10" d="
						M252.326,221.866c0.257,6.342-2.129,11.864-5.687,14.041c-4.47-0.817-8.05-6.248-8.308-13.058
						c-0.257-7.067,3.183-13.082,7.863-14.02C249.586,210.867,252.092,215.876,252.326,221.866z"/>
					
						<line fill="none" stroke="#231F20" stroke-width="2" stroke-linecap="round" stroke-linejoin="round" stroke-miterlimit="10" x1="246.992" y1="246.65" x2="256.192" y2="245.396"/>
					
						<line fill="none" stroke="#231F20" stroke-width="2" stroke-linecap="round" stroke-linejoin="round" stroke-miterlimit="10" x1="245.014" y1="197.32" x2="253.419" y2="196.175"/>
				</g>
				<g>
					
						<path fill="none" stroke="#231F20" stroke-width="2" stroke-linecap="round" stroke-linejoin="round" stroke-miterlimit="10" d="
						M228.806,216.414c-1.193-12.146-8.846-21.412-17.528-20.99c-8.986,0.443-15.679,11.209-14.954,24.032
						c0.749,12.824,8.659,22.862,17.645,22.396c7.348-0.352,13.152-7.604,14.626-17.246"/>
					<g>
						
							<path fill="none" stroke="#231F20" stroke-width="2" stroke-linecap="round" stroke-linejoin="round" stroke-miterlimit="10" d="
							M214.72,231.43c-0.949,0.649-2.009,1.045-3.134,1.092c-4.856,0.256-9.116-5.617-9.535-13.14
							c-0.397-7.497,3.201-13.788,8.056-14.043c1.324-0.069,2.604,0.323,3.774,1.091c3.112,1.996,5.452,6.592,5.761,12.047
							C219.951,224.232,217.897,229.271,214.72,231.43z"/>
						
							<path fill="none" stroke="#231F20" stroke-width="2" stroke-linecap="round" stroke-linejoin="round" stroke-miterlimit="10" d="
							M214.72,231.43c-4.458-0.396-8.188-5.548-8.542-12.048c-0.375-6.731,3.046-12.419,7.703-12.952
							c3.112,1.996,5.452,6.592,5.761,12.047C219.951,224.232,217.897,229.271,214.72,231.43z"/>
					</g>
					
						<path fill="none" stroke="#231F20" stroke-width="2" stroke-linecap="round" stroke-linejoin="round" stroke-miterlimit="10" d="
						M223.844,195.127c1.546-0.075,2.799,0.045,4.266,0.484c0,0,6.537,2.205,6.63,6.638"/>
					
						<path fill="none" stroke="#231F20" stroke-width="2" stroke-linecap="round" stroke-linejoin="round" stroke-miterlimit="10" d="
						M232.388,238.182c-2.042,1.351-4.361,2.147-6.816,2.271"/>
					
						<line fill="none" stroke="#231F20" stroke-width="2" stroke-linecap="round" stroke-linejoin="round" stroke-miterlimit="10" x1="215.207" y1="241.795" x2="225.558" y2="240.465"/>
					
						<line fill="none" stroke="#231F20" stroke-width="2" stroke-linecap="round" stroke-linejoin="round" stroke-miterlimit="10" x1="212.459" y1="195.359" x2="223.845" y2="195.134"/>
				</g>
				
					<path fill="none" stroke="#231F20" stroke-width="2" stroke-linecap="round" stroke-linejoin="round" stroke-miterlimit="10" d="
					M379.578,242.264l-37.031-5.68c0,0-1.396-0.314-1.615,0.713c-0.221,1.027-0.223,2.352,1.615,2.57l35.414,6.394
					c0,0,2.205,0.733,2.572-0.81C380.533,245.452,381.635,242.584,379.578,242.264z"/>
				
					<line fill="none" stroke="#231F20" stroke-width="2" stroke-linecap="round" stroke-linejoin="round" stroke-miterlimit="10" x1="380.656" y1="243.027" x2="383.326" y2="239.795"/>
				
					<polyline fill="none" stroke="#231F20" stroke-width="2" stroke-linecap="round" stroke-linejoin="round" stroke-miterlimit="10" points="
					378.059,116.427 378.059,94.884 385.627,95.296 386.521,97.841 389.41,99.011 389.41,110.361 386.934,111.531 386.934,115.825 
									"/>
				
					<path fill="none" stroke="#231F20" stroke-width="2" stroke-linecap="round" stroke-linejoin="round" stroke-miterlimit="10" d="
					M292.365,25.667c2.738-2.365,7.582-0.563,7.582-0.563l11.141,6.248"/>
				
					<polyline fill="none" stroke="#231F20" stroke-width="2" stroke-linecap="round" stroke-linejoin="round" stroke-miterlimit="10" points="
					322.461,37.718 382.275,71.253 383.727,95.192 				"/>
				
					<path fill="none" stroke="#231F20" stroke-width="2" stroke-linecap="round" stroke-linejoin="round" stroke-miterlimit="10" d="
					M288.275,35.542c0,0,6.932-1.234,11.014,0.854c4.084,2.088,36.084,20.795,36.084,20.795s2.279,1.044,5.033,4.559l25.639,29.53
					l12.016,5.413"/>
				
					<line fill="none" stroke="#231F20" stroke-width="2" stroke-linecap="round" stroke-linejoin="round" stroke-miterlimit="10" x1="378.063" y1="101.839" x2="366.924" y2="96.925"/>
				
					<polyline fill="none" stroke="#231F20" stroke-width="2" stroke-linecap="round" stroke-linejoin="round" stroke-miterlimit="10" points="
					347.172,77.126 363.016,95.192 363.367,95.356 				"/>
				
					<path fill="none" stroke="#231F20" stroke-width="2" stroke-linecap="round" stroke-linejoin="round" stroke-miterlimit="10" d="
					M289.908,35.331l39.502,23.238c1.99,1.17,3.791,2.668,5.336,4.398l1.193,1.357"/>
				
					<polyline fill="none" stroke="#231F20" stroke-width="2" stroke-linecap="round" stroke-linejoin="round" stroke-miterlimit="10" points="
					378.059,107.475 369.811,107.475 369.811,116.183 				"/>
				
					<line fill="none" stroke="#231F20" stroke-width="2" stroke-linecap="round" stroke-linejoin="round" stroke-miterlimit="10" x1="372.471" y1="107.479" x2="372.471" y2="99.358"/>
				
					<circle fill="none" stroke="#231F20" stroke-width="2" stroke-linecap="round" stroke-linejoin="round" stroke-miterlimit="10" cx="318.354" cy="31.735" r="7.285"/>
				
					<polyline fill="none" stroke="#231F20" stroke-width="2" stroke-linecap="round" stroke-linejoin="round" stroke-miterlimit="10" points="
					356.322,80.075 347.172,77.126 304.699,63.46 303.107,60.184 304.605,56.089 307.297,54.919 335.939,64.325 345.324,67.415 				
					"/>
				
					<line fill="none" stroke="#231F20" stroke-width="2" stroke-linecap="round" stroke-linejoin="round" stroke-miterlimit="10" x1="367.566" y1="91.966" x2="364.432" y2="116.183"/>
				
					<line fill="none" stroke="#231F20" stroke-width="2" stroke-linecap="round" stroke-linejoin="round" stroke-miterlimit="10" x1="364.232" y1="89.193" x2="360.424" y2="116.427"/>
				
					<path fill="none" stroke="#231F20" stroke-width="2" stroke-linecap="round" stroke-linejoin="round" stroke-miterlimit="10" d="
					M388.092,168.525v-3.256l6.519,1.213l-0.177,3.184l-3.573-0.703l-13.187-2.081c-1.104-0.174-1.93-1.116-1.951-2.235
					l-0.846-41.371c-0.025-1.296,1.018-2.36,2.314-2.36h12.221"/>
				
					<path fill="none" stroke="#231F20" stroke-width="2" stroke-linecap="round" stroke-linejoin="round" stroke-miterlimit="10" d="
					M358.725,166.825c0,0-0.276,21.684,0,28.54"/>
				
					<path fill="none" stroke="#231F20" stroke-width="2" stroke-linecap="round" stroke-linejoin="round" stroke-miterlimit="10" d="
					M358.602,184.282c0,0,0.722,6.44,21.597,6.44"/>
				<path fill="#231F20" d="M358.662,175.523c0,0,1.027-3.385,4.41-2.364s2.771,8.549,2.771,8.549s0.357,6.493-4.908,5.397
					l-1.563-1.697l-0.945-5.034l0.299-4.481"/>
				
					<line fill="none" stroke="#231F20" stroke-width="2" stroke-linecap="round" stroke-linejoin="round" stroke-miterlimit="10" x1="361.107" y1="200.53" x2="366.451" y2="200.782"/>
				<path fill="#231F20" d="M500.027,196.734c0.157,1.429,0.373,2.912,0.641,4.438c6.684-0.848,24.283-2.729,39.605-1.395
					c-0.158-1.531-0.324-3.078-0.492-4.57C523.969,193.874,505.709,195.988,500.027,196.734z"/>
				<path fill="#231F20" d="M540.959,206.715c-0.131-1.365-0.281-2.927-0.445-4.566c-15.094-1.383-32.641,0.478-39.399,1.326
					c0.309,1.45,0.688,2.914,1.125,4.383C509.943,206.939,526.561,205.361,540.959,206.715z"/>
				<path fill="#231F20" d="M538.369,185.91c-0.459-1.07-1.65-3.135-4.113-3.266c0,0-16.111-1.821-31.858-0.155
					c-1.566,0.165-2.771,1.378-2.822,2.879c-0.023,0.639-0.037,1.399-0.041,2.231C504.889,186.889,522.535,184.811,538.369,185.91z"
					/>
				<path fill="#231F20" d="M502.949,210.13c0.344,0.72,1.887,3.715,3.764,3.5c1.894-0.217,22.924-0.368,31.924-1.479
					c1.564-0.192,2.689-1.516,2.552-3.012c-0.003-0.017-0.005-0.031-0.005-0.047C527.152,207.711,510.813,209.209,502.949,210.13z"
					/>
				<path fill="#231F20" d="M499.557,189.958c0.033,1.345,0.119,2.854,0.246,4.444c5.804-0.762,23.851-2.834,39.703-1.568
					c-0.207-1.732-0.41-3.301-0.6-4.539C522.82,187.073,504.52,189.291,499.557,189.958z"/>
				<ellipse fill="#231F20" cx="378.395" cy="74.385" rx="1.408" ry="1.993"/>
				<ellipse fill="#231F20" cx="384.27" cy="104.074" rx="1.408" ry="1.993"/>
				
					<path fill="none" stroke="#231F20" stroke-width="2" stroke-linecap="round" stroke-linejoin="round" stroke-miterlimit="10" d="
					M286.674,36.62l5.691-6.771V18.831l-14.53-0.688l1.377-2.755c0,0,1.607-2.869-0.229-3.902c0,0-2.182-1.147-4.362,1.263
					l-3.328,2.754l-115.69,5.279v-2.754l-4.82,0.115v4.82l-8.608,18.019l0.459,5.509h10.1l3.788-3.673l40.285-1.722l-4.362,10.33
					l3.099,7.805h12.281l2.984-6.198l-1.263-11.247l28.119-3.33l0.574,5.395c0,0,0.459,4.017,3.213,3.443
					c0.864-0.181,1.647-0.707,1.967-1.57c0.285-0.77,0.103-1.596,0.131-2.393c0.054-1.556,0.145-3.121,0.108-4.677
					c-0.003-0.136,0.014-0.296-0.025-0.428C243.535,37.897,286.674,36.62,286.674,36.62z"/>
				
					<path fill="none" stroke="#231F20" stroke-width="2" stroke-linecap="round" stroke-linejoin="round" stroke-miterlimit="10" d="
					M258.098,37.542l3.591,3.479l2.747,7.885c0,0,0.703,2.464,3.238,2.394c2.535-0.069,12.04-6.195,12.04-6.195l6.961-8.484"/>
				
					<polyline fill="none" stroke="#231F20" stroke-width="2" stroke-linecap="round" stroke-linejoin="round" stroke-miterlimit="10" points="
					270.632,37.118 272.386,43.132 277.531,41.021 280.758,36.825 				"/>
				
					<line fill="none" stroke="#231F20" stroke-width="2" stroke-linecap="round" stroke-linejoin="round" stroke-miterlimit="10" x1="304.508" y1="56.353" x2="277.315" y2="46.598"/>
				
					<line fill="none" stroke="#231F20" stroke-width="2" stroke-linecap="round" stroke-linejoin="round" stroke-miterlimit="10" x1="303.344" y1="60.671" x2="271.423" y2="49.915"/>
				
					<line fill="none" stroke="#231F20" stroke-width="2" stroke-linecap="round" stroke-linejoin="round" stroke-miterlimit="10" x1="322.887" y1="38.495" x2="323.037" y2="49.21"/>
				
					<line fill="none" stroke="#231F20" stroke-width="2" stroke-linecap="round" stroke-linejoin="round" stroke-miterlimit="10" x1="331.42" y1="42.741" x2="331.74" y2="54.24"/>
				
					<line fill="none" stroke="#231F20" stroke-width="2" stroke-linecap="round" stroke-linejoin="round" stroke-miterlimit="10" x1="338.99" y1="46.985" x2="339.738" y2="60.671"/>
				
					<polyline fill="none" stroke="#231F20" stroke-width="2" stroke-linecap="round" stroke-linejoin="round" stroke-miterlimit="10" points="
					155.603,20.781 155.603,25.464 169.162,25.077 174.583,19.915 				"/>
				
					<polyline fill="none" stroke="#231F20" stroke-width="2" stroke-linecap="round" stroke-linejoin="round" stroke-miterlimit="10" points="
					148.806,27.103 92.965,29.7 89.556,22.69 85.647,22.69 79.411,30.282 86.146,45.167 142.175,42.755 				"/>
				
					<polyline fill="none" stroke="#231F20" stroke-width="2" stroke-linecap="round" stroke-linejoin="round" stroke-miterlimit="10" points="
					150.783,20.183 145.529,20.747 145.952,27.035 				"/>
				
					<line fill="none" stroke="#231F20" stroke-width="2" stroke-linecap="round" stroke-linejoin="round" stroke-miterlimit="10" x1="145.529" y1="23.421" x2="91.204" y2="26.081"/>
				
					<polyline fill="none" stroke="#231F20" stroke-width="2" stroke-linecap="round" stroke-linejoin="round" stroke-miterlimit="10" points="
					80.341,32.335 26.65,34.554 26.959,45.958 85.368,43.444 				"/>
				
					<polyline fill="none" stroke="#231F20" stroke-width="2" stroke-linecap="round" stroke-linejoin="round" stroke-miterlimit="10" points="
					26.7,36.407 19.126,36.407 16.701,50.599 17.853,53.389 20.947,53.389 22.523,51.204 22.584,48.839 26.959,45.958 				"/>
				
					<line fill="none" stroke="#231F20" stroke-width="2" stroke-linecap="round" stroke-linejoin="round" stroke-miterlimit="10" x1="19.78" y1="53.389" x2="19.78" y2="56.88"/>
				
					<rect x="17.215" y="57.419" fill="none" stroke="#231F20" stroke-width="2" stroke-linecap="round" stroke-linejoin="round" stroke-miterlimit="10" width="5.129" height="5.725"/>
				
					<line fill="none" stroke="#231F20" stroke-width="2" stroke-linecap="round" stroke-linejoin="round" stroke-miterlimit="10" x1="19.968" y1="63.143" x2="19.968" y2="85.714"/>
				
					<path fill="none" stroke="#231F20" stroke-width="2" stroke-linecap="round" stroke-linejoin="round" stroke-miterlimit="10" d="
					M21.442,86.753l-3.008,0.139c0,0-1.356,4.052,1.028,5.561c1.014,0.643,2.062,1.413,2.519,2.567
					c0.436,1.101,0.491,2.116-0.135,3.144c-0.812,1.329-2.957,2.058-4.381,1.473c-0.912-0.373-1.543-1.176-1.807-2.176
					c-0.245-0.929-0.183-1.115-0.065-2.057c0,0,0.319-1.62-1.051-1.669c-1.37-0.049-1.786,0.798-2.023,2.502
					c-0.237,1.704-0.124,10.431,7.449,9.667c7.572-0.764,7.142-8.424,7.142-8.424s-0.069-5.641-3.977-6.739
					C23.133,90.739,20.986,89.784,21.442,86.753z"/>
				
					<polyline fill="none" stroke="#231F20" stroke-width="2" stroke-linecap="round" stroke-linejoin="round" stroke-miterlimit="10" points="
					155.603,44.046 157.842,52.538 165.424,57.452 171.792,57.452 176.584,47.019 175.785,45.733 				"/>
				
					<polyline fill="none" stroke="#231F20" stroke-width="2" stroke-linecap="round" stroke-linejoin="round" stroke-miterlimit="10" points="
					164.333,42.484 165.093,46.048 195.089,45.167 				"/>
				
					<line fill="none" stroke="#231F20" stroke-width="2" stroke-linecap="round" stroke-linejoin="round" stroke-miterlimit="10" x1="172.522" y1="55.86" x2="194.423" y2="56.405"/>
				
					<line fill="none" stroke="#231F20" stroke-width="2" stroke-linecap="round" stroke-linejoin="round" stroke-miterlimit="10" x1="209.083" y1="56.615" x2="227.8" y2="50.749"/>
				
					<polygon fill="none" stroke="#231F20" stroke-width="2" stroke-linecap="round" stroke-linejoin="round" stroke-miterlimit="10" points="
					232.995,45.167 229.998,46.048 227.8,48.919 228.866,52.382 231.93,53.048 235.593,52.183 239.37,46.624 				"/>
				
					<line fill="none" stroke="#231F20" stroke-width="2" stroke-linecap="round" stroke-linejoin="round" stroke-miterlimit="10" x1="242.026" y1="47.114" x2="242.026" y2="55.646"/>
				<circle fill="#231F20" cx="270.365" cy="31.895" r="1.058"/>
				<circle fill="#231F20" cx="285.193" cy="26.522" r="1.057"/>
				
					<path fill="none" stroke="#231F20" stroke-width="2" stroke-linecap="round" stroke-linejoin="round" stroke-miterlimit="10" d="
					M275.073,15.591c0,0-7.169,12.783-23.754,12.957c-16.584,0.172-25.913-8.897-37.833-5.355c-11.92,3.542-3.94,18.593-3.94,18.593
					"/>
				
					<polyline fill="none" stroke="#231F20" stroke-width="2" stroke-linecap="round" stroke-linejoin="round" stroke-miterlimit="10" points="
					32.514,34.312 36.888,39.146 82.617,37.364 				"/>
				
					<polyline fill="none" stroke="#231F20" stroke-width="2" stroke-linecap="round" stroke-linejoin="round" stroke-miterlimit="10" points="
					92.965,29.7 95.824,35.835 107.255,35.222 				"/>
				
					<line fill="none" stroke="#231F20" stroke-width="2" stroke-linecap="round" stroke-linejoin="round" stroke-miterlimit="10" x1="114.266" y1="35.028" x2="118.367" y2="34.667"/>
				
					<path fill="none" stroke="#231F20" stroke-width="2" stroke-linecap="round" stroke-linejoin="round" stroke-miterlimit="10" d="
					M378.232,150.734h-6.711c-0.777,0-1.406-0.629-1.406-1.405v-18.666c0-0.777,0.629-1.408,1.406-1.408h6.711
					c0.774,0,1.405,0.631,1.405,1.408v18.666C379.639,150.105,379.01,150.734,378.232,150.734z"/>
				
					<line fill="none" stroke="#231F20" stroke-width="2" stroke-linecap="round" stroke-linejoin="round" stroke-miterlimit="10" x1="435.533" y1="135.292" x2="431.15" y2="141.136"/>
				
					<line fill="none" stroke="#231F20" stroke-width="2" stroke-linecap="round" stroke-linejoin="round" stroke-miterlimit="10" x1="444.781" y1="134.682" x2="434.068" y2="148.53"/>
				
					<path fill="none" stroke="#231F20" stroke-width="2" stroke-linecap="round" stroke-linejoin="round" stroke-miterlimit="10" d="
					M416.734,116.253l3.953-3.614c0,0,19.311,1.38,27.506,3.186l1.559,3.712"/>
				
					<path fill="none" stroke="#231F20" stroke-width="2" stroke-linecap="round" stroke-linejoin="round" stroke-miterlimit="10" d="
					M355.27,136.068c-0.913-0.493-57.137-2.944-57.137-2.944v36.542l-125.356-2.841l1.054,20.866l79.314,4.349"/>
				
					<polyline fill="none" stroke="#231F20" stroke-width="2" stroke-linecap="round" stroke-linejoin="round" stroke-miterlimit="10" points="
					302.451,133.314 302.451,169.627 312.453,169.034 312.973,134.104 				"/>
				
					<path fill="none" stroke="#231F20" stroke-width="2" stroke-linecap="round" stroke-linejoin="round" stroke-miterlimit="10" d="
					M312.697,152.581l30.614,0.533c0,0,3.906-0.498,3.818,1.971l0.002,18.365c0,0,0.531,3.817-2.133,3.642l-22.469-0.889
					l-1.865,6.039l-10.656-0.534l2.238-6.067l0.205-6.604"/>
				
					<line fill="none" stroke="#231F20" stroke-width="2" stroke-linecap="round" stroke-linejoin="round" stroke-miterlimit="10" x1="322.533" y1="176.203" x2="312.176" y2="175.84"/>
				
					<line fill="none" stroke="#231F20" stroke-width="2" stroke-linecap="round" stroke-linejoin="round" stroke-miterlimit="10" x1="343.313" y1="153.114" x2="343.313" y2="176.455"/>
				
					<path fill="none" stroke="#231F20" stroke-width="2" stroke-linecap="round" stroke-linejoin="round" stroke-miterlimit="10" d="
					M339.422,153.046v-2.873c0,0,0.357-1.426-1.646-1.426h-4.232c0,0-2.451,0.045-2.451,1.336v2.498"/>
				
					<line fill="none" stroke="#231F20" stroke-width="2" stroke-linecap="round" stroke-linejoin="round" stroke-miterlimit="10" x1="352.547" y1="173.273" x2="347.133" y2="173.273"/>
				
					<path fill="none" stroke="#231F20" stroke-width="2" stroke-linecap="round" stroke-linejoin="round" stroke-miterlimit="10" d="
					M345.309,177.745v14.521c0,0,0.054,2.596,2.386,2.596h4.854"/>
				
					<polyline fill="none" stroke="#231F20" stroke-width="2" stroke-linecap="round" stroke-linejoin="round" stroke-miterlimit="10" points="
					320.668,182.242 341.207,182.566 341.207,197.906 				"/>
				
					<polyline fill="none" stroke="#231F20" stroke-width="2" stroke-linecap="round" stroke-linejoin="round" stroke-miterlimit="10" points="
					316.936,182.242 316.936,202.081 331.09,202.081 				"/>
				
					<path fill="none" stroke="#231F20" stroke-width="2" stroke-linecap="round" stroke-linejoin="round" stroke-miterlimit="10" d="
					M340.793,184.282l-9.703,8.616v13.463l19.33,0.869c0,0,3.734,0.584,3.678-1.953"/>
				
					<polyline fill="none" stroke="#231F20" stroke-width="2" stroke-linecap="round" stroke-linejoin="round" stroke-miterlimit="10" points="
					340.598,185.282 335.27,193.428 335.27,198.281 352.547,198.281 				"/>
				
					<line fill="none" stroke="#231F20" stroke-width="2" stroke-linecap="round" stroke-linejoin="round" stroke-miterlimit="10" x1="336.395" y1="202.657" x2="338.563" y2="202.697"/>
				
					<line fill="none" stroke="#231F20" stroke-width="2" stroke-linecap="round" stroke-linejoin="round" stroke-miterlimit="10" x1="343.678" y1="202.747" x2="345.871" y2="202.787"/>
				<ellipse fill="#231F20" cx="321.092" cy="186.389" rx="0.965" ry="1.107"/>
				<ellipse fill="#231F20" cx="321.092" cy="197.673" rx="0.965" ry="1.107"/>
				
					<line fill="none" stroke="#231F20" stroke-width="2" stroke-linecap="round" stroke-linejoin="round" stroke-miterlimit="10" x1="298.133" y1="169.614" x2="298.133" y2="181.645"/>
				
					<line fill="none" stroke="#231F20" stroke-width="2" stroke-linecap="round" stroke-linejoin="round" stroke-miterlimit="10" x1="302.451" y1="169.576" x2="302.451" y2="181.605"/>
				
					<polyline fill="none" stroke="#231F20" stroke-width="2" stroke-linecap="round" stroke-linejoin="round" stroke-miterlimit="10" points="
					310.012,181.708 253.25,183.177 253.985,231.211 261.745,232.05 266.884,229.848 267.199,201.109 316.936,202.081 				"/>
				
					<line fill="none" stroke="#231F20" stroke-width="2" stroke-linecap="round" stroke-linejoin="round" stroke-miterlimit="10" x1="261.745" y1="232.05" x2="261.745" y2="182.957"/>
				
					<path fill="none" stroke="#231F20" stroke-width="2" stroke-linecap="round" stroke-linejoin="round" stroke-miterlimit="10" d="
					M256.383,231.47c-0.12-0.014,0.3,24.655,0.3,24.655l5.429,2.172l3.764-2.244V230.28"/>
				
					<line fill="none" stroke="#231F20" stroke-width="2" stroke-linecap="round" stroke-linejoin="round" stroke-miterlimit="10" x1="261.745" y1="257.573" x2="261.745" y2="246.354"/>
				
					<line fill="none" stroke="#231F20" stroke-width="2" stroke-linecap="round" stroke-linejoin="round" stroke-miterlimit="10" x1="261.745" y1="241.723" x2="261.745" y2="239.768"/>
				
					<polyline fill="none" stroke="#231F20" stroke-width="2" stroke-linecap="round" stroke-linejoin="round" stroke-miterlimit="10" points="
					256.683,256.126 251.617,259.527 262.691,263.581 271.476,258.684 265.875,256.053 				"/>
				<polygon fill="#231F20" points="259.164,207.809 256.193,207.663 256.193,197.445 259.164,197.591 				"/>
				
					<polyline fill="none" stroke="#231F20" stroke-width="2" stroke-linecap="round" stroke-linejoin="round" stroke-miterlimit="10" points="
					279.643,201.354 285.092,196.566 316.936,195.785 				"/>
				
					<line fill="none" stroke="#231F20" stroke-width="2" stroke-linecap="round" stroke-linejoin="round" stroke-miterlimit="10" x1="322.533" y1="176.203" x2="322.533" y2="153.046"/>
				
					<path fill="none" stroke="#231F20" stroke-width="2" stroke-linecap="round" stroke-linejoin="round" stroke-miterlimit="10" d="
					M176.854,181.832c0,0,3.445,0,3.51,0c0.065,0-0.325-10.271-0.325-10.271"/>
				
					<path fill="none" stroke="#231F20" stroke-width="2" stroke-linecap="round" stroke-linejoin="round" stroke-miterlimit="10" d="
					M185.009,182.416c0,0,5.458,0.156,5.523,0.156l-0.322-10.428"/>
				
					<path fill="none" stroke="#231F20" stroke-width="2" stroke-linecap="round" stroke-linejoin="round" stroke-miterlimit="10" d="
					M195.865,182.678c0,0,8.024,0.452,8.089,0.452s-0.339-10.724-0.339-10.724"/>
				
					<path fill="none" stroke="#231F20" stroke-width="2" stroke-linecap="round" stroke-linejoin="round" stroke-miterlimit="10" d="
					M209.689,183.423c0,0,9.728,0.382,9.793,0.382s-0.333-10.617-0.333-10.617"/>
				
					<path fill="none" stroke="#231F20" stroke-width="2" stroke-linecap="round" stroke-linejoin="round" stroke-miterlimit="10" d="
					M224.996,184.232c0,0,9.729,0.382,9.793,0.382s-0.333-10.617-0.333-10.617"/>
				
					<path fill="none" stroke="#231F20" stroke-width="2" stroke-linecap="round" stroke-linejoin="round" stroke-miterlimit="10" d="
					M239.758,184.813c0,0,9.729,0.383,9.793,0.383c0.064,0-0.333-10.617-0.333-10.617"/>
				
					<line fill="none" stroke="#231F20" stroke-width="2" stroke-linecap="round" stroke-linejoin="round" stroke-miterlimit="10" x1="265.136" y1="174.577" x2="265.136" y2="182.205"/>
				
					<line fill="none" stroke="#231F20" stroke-width="2" stroke-linecap="round" stroke-linejoin="round" stroke-miterlimit="10" x1="281.031" y1="174.682" x2="281.031" y2="182.311"/>
				
					<polyline fill="none" stroke="#231F20" stroke-width="2" stroke-linecap="round" stroke-linejoin="round" stroke-miterlimit="10" points="
					172.778,166.825 170.289,162.583 298.133,165.618 				"/>
				
					<polyline fill="none" stroke="#231F20" stroke-width="2" stroke-linecap="round" stroke-linejoin="round" stroke-miterlimit="10" points="
					179.746,188.018 179.964,194.898 185.009,194.531 185.009,188.502 				"/>
				
					<polyline fill="none" stroke="#231F20" stroke-width="2" stroke-linecap="round" stroke-linejoin="round" stroke-miterlimit="10" points="
					190.533,189.009 190.533,225.581 196.398,224.975 				"/>
				
					<line fill="none" stroke="#231F20" stroke-width="2" stroke-linecap="round" stroke-linejoin="round" stroke-miterlimit="10" x1="212.539" y1="189.813" x2="212.539" y2="195.359"/>
				
					<path fill="none" stroke="#231F20" stroke-width="2" stroke-linecap="round" stroke-linejoin="round" stroke-miterlimit="10" d="
					M266.953,223.584l34.071-4.816c0.309-0.045,0.62-0.053,0.932-0.024l46.141,4.032"/>
				
					<path fill="none" stroke="#231F20" stroke-width="2" stroke-linecap="round" stroke-linejoin="round" stroke-miterlimit="10" d="
					M265.875,232.527l36.019-5.637c0.369-0.06,0.744-0.064,1.113-0.021l44.164,5.182"/>
				
					<line fill="none" stroke="#231F20" stroke-width="2" stroke-linecap="round" stroke-linejoin="round" stroke-miterlimit="10" x1="301.955" y1="218.741" x2="301.955" y2="226.176"/>
				
					<line fill="none" stroke="#231F20" stroke-width="2" stroke-linecap="round" stroke-linejoin="round" stroke-miterlimit="10" x1="195.116" y1="188.857" x2="195.116" y2="195.408"/>
				
					<line fill="none" stroke="#231F20" stroke-width="2" stroke-linecap="round" stroke-linejoin="round" stroke-miterlimit="10" x1="195.116" y1="199.339" x2="195.116" y2="200.706"/>
				
					<path fill="none" stroke="#231F20" stroke-width="2" stroke-linecap="round" stroke-linejoin="round" stroke-miterlimit="10" d="
					M295.807,227.844c0,0,0.459,12.924,19.267,13.286c18.52,0.356,20.196-9.7,20.196-9.7"/>
				
					<path fill="none" stroke="#231F20" stroke-width="2" stroke-linecap="round" stroke-linejoin="round" stroke-miterlimit="10" d="
					M296.727,231.43c0,0-8.285,7.357-23.046,3.836c0,0-2.945-0.961-3.789-3.216"/>
				
					<polyline fill="none" stroke="#231F20" stroke-width="2" stroke-linecap="round" stroke-linejoin="round" stroke-miterlimit="10" points="
					348.096,216.124 299.244,213.034 288.814,201.928 				"/>
				
					<line fill="none" stroke="#231F20" stroke-width="2" stroke-linecap="round" stroke-linejoin="round" stroke-miterlimit="10" x1="295.299" y1="208.832" x2="267.13" y2="207.288"/>
				
					<path fill="none" stroke="#231F20" stroke-width="2" stroke-linecap="round" stroke-linejoin="round" stroke-miterlimit="10" d="
					M451.328,246.436c0,0-0.365,8.021-3.783,12.711"/>
				
					<line fill="none" stroke="#231F20" stroke-width="2" stroke-linecap="round" stroke-linejoin="round" stroke-miterlimit="10" x1="445.32" y1="263.04" x2="444.129" y2="264.947"/>
				
					<path fill="none" stroke="#231F20" stroke-width="2" stroke-linecap="round" stroke-linejoin="round" stroke-miterlimit="10" d="
					M414.895,270.836c-0.075,0,8.685,3.754,14.189-6.509"/>
				
					<path fill="none" stroke="#231F20" stroke-width="2" stroke-linecap="round" stroke-linejoin="round" stroke-miterlimit="10" d="
					M228.11,195.611c0,0,8.982-2.641,12.888,2.307"/>
				<path fill="#231F20" d="M486.654,247.561c1.655,4.748,6.434,8.183,12.076,8.183c5.991,0,11.002-3.875,12.34-9.08
					C504.793,247.286,492.643,247.494,486.654,247.561z"/>
				<path fill="#231F20" d="M305.361,226.842c-0.922-0.037-1.968,0.016-2.972,0.098c1.541,3,5.185,5.11,9.438,5.11
					c3.606,0,6.764-1.524,8.584-3.815C315.941,227.775,307.473,226.928,305.361,226.842z"/>
				
					<path fill="none" stroke="#231F20" stroke-width="2" stroke-linecap="round" stroke-linejoin="round" stroke-miterlimit="10" d="
					M523.652,244.925c0,0-0.42,8.366-7.31,12.795"/>
				
					<path fill="none" stroke="#231F20" stroke-width="2" stroke-linecap="round" stroke-linejoin="round" stroke-miterlimit="10" d="
					M431.662,202.779c0,0-17.928-7.883-27.736,3.746"/>
				<circle fill="#231F20" cx="197.168" cy="51.38" r="1.03"/>
				<circle fill="#231F20" cx="205.902" cy="51.38" r="1.03"/>
				
					<line fill="none" stroke="#231F20" stroke-width="2" stroke-linecap="round" stroke-linejoin="round" stroke-miterlimit="10" x1="350.797" y1="73.718" x2="330.393" y2="67.497"/>
				
					<line fill="none" stroke="#231F20" stroke-width="2" stroke-linecap="round" stroke-linejoin="round" stroke-miterlimit="10" x1="462.432" y1="204.02" x2="465.26" y2="215.107"/>
				
					<line fill="none" stroke="#231F20" stroke-width="2" stroke-linecap="round" stroke-linejoin="round" stroke-miterlimit="10" x1="476.189" y1="206.629" x2="478.516" y2="216.045"/>
				
					<path fill="none" stroke="#231F20" stroke-width="2" stroke-linecap="round" stroke-linejoin="round" stroke-miterlimit="10" d="
					M537.85,237.23c0,0-11.248,3.655-27.43,4.181"/>
				
					<line fill="none" stroke="#231F20" stroke-width="2" stroke-linecap="round" stroke-linejoin="round" stroke-miterlimit="10" x1="504.072" y1="241.682" x2="499.598" y2="242.068"/>
			</g>
			
				<line fill="none" stroke="#231F20" stroke-width="2" stroke-linecap="round" stroke-linejoin="round" stroke-miterlimit="10" x1="316.936" y1="186.391" x2="284.291" y2="187.496"/>
			
				<line fill="none" stroke="#231F20" stroke-width="2" stroke-linecap="round" stroke-linejoin="round" stroke-miterlimit="10" x1="278.307" y1="188.018" x2="276.538" y2="188.018"/>
		</g>
		
			<line fill="none" stroke="#231F20" stroke-width="2" stroke-linecap="round" stroke-linejoin="round" stroke-miterlimit="10" x1="502.949" y1="267.917" x2="543.787" y2="267.917"/>
		
			<line fill="none" stroke="#231F20" stroke-width="2" stroke-linecap="round" stroke-linejoin="round" stroke-miterlimit="10" x1="556.398" y1="267.639" x2="561.816" y2="267.639"/>
		
			<line fill="none" stroke="#231F20" stroke-width="2" stroke-linecap="round" stroke-linejoin="round" stroke-miterlimit="10" x1="518.949" y1="273.953" x2="559.107" y2="273.953"/>
		
			<line fill="none" stroke="#231F20" stroke-width="2" stroke-linecap="round" stroke-linejoin="round" stroke-miterlimit="10" x1="421.479" y1="275.885" x2="328.594" y2="275.885"/>
		
			<line fill="none" stroke="#231F20" stroke-width="2" stroke-linecap="round" stroke-linejoin="round" stroke-miterlimit="10" x1="320.129" y1="276.002" x2="312.973" y2="276.002"/>
		
			<line fill="none" stroke="#231F20" stroke-width="2" stroke-linecap="round" stroke-linejoin="round" stroke-miterlimit="10" x1="296.727" y1="276.002" x2="249.217" y2="275.885"/>
		
			<line fill="none" stroke="#231F20" stroke-width="2" stroke-linecap="round" stroke-linejoin="round" stroke-miterlimit="10" x1="279.643" y1="282.787" x2="401.125" y2="282.787"/>
		
			<line fill="none" stroke="#231F20" stroke-width="2" stroke-linecap="round" stroke-linejoin="round" stroke-miterlimit="10" x1="416.434" y1="282.787" x2="421.988" y2="282.787"/>
		
			<line fill="none" stroke="#231F20" stroke-width="2" stroke-linecap="round" stroke-linejoin="round" stroke-miterlimit="10" x1="435.561" y1="273.936" x2="474.803" y2="273.936"/>
		
			<line fill="none" stroke="#231F20" stroke-width="2" stroke-linecap="round" stroke-linejoin="round" stroke-miterlimit="10" x1="213.97" y1="241.852" x2="145.529" y2="241.852"/>
		
			<line fill="none" stroke="#231F20" stroke-width="2" stroke-linecap="round" stroke-linejoin="round" stroke-miterlimit="10" x1="135.273" y1="241.867" x2="123.172" y2="241.867"/>
		
			<line fill="none" stroke="#231F20" stroke-width="2" stroke-linecap="round" stroke-linejoin="round" stroke-miterlimit="10" x1="203.96" y1="249.592" x2="95.697" y2="251.964"/>
	</g>
</g>
</svg>
