<?xml version="1.0" encoding="utf-8"?>
<!-- Generator: Adobe Illustrator 20.0.0, SVG Export Plug-In . SVG Version: 6.00 Build 0)  -->
<svg version="1.1" id="Layer_1" xmlns="http://www.w3.org/2000/svg" xmlns:xlink="http://www.w3.org/1999/xlink" x="0px" y="0px"
	 viewBox="0 0 224.30569 224.30569" style="enable-background:new 0 0 224.30569 224.30569;" xml:space="preserve">
<style type="text/css">
	.st0{display:none;}
	.st1{display:inline;}
	.st2{display:inline;opacity:0.5;clip-path:url(#SVGID_2_);}
	.st3{clip-path:url(#SVGID_4_);}
	.st4{display:inline;clip-path:url(#SVGID_2_);}
	.st5{fill:none;stroke:#231F20;stroke-linecap:round;stroke-linejoin:round;stroke-miterlimit:10;}
</style>
<g id="Guides_For_Artboard">
</g>
<g>
	<g>
		<g id="Layer_1_1_" class="st0">
			<defs>
				
					<rect id="SVGID_1_" x="105.69215" y="100.26743" transform="matrix(0.01581 -0.99988 0.99988 0.01581 -11.26602 235.75797)" width="16.8649" height="46.66866"/>
			</defs>
			<clipPath id="SVGID_2_" class="st1">
				<use xlink:href="#SVGID_1_"  style="overflow:visible;"/>
			</clipPath>
			<g class="st2">
				<g>
					<defs>
						
							<rect id="SVGID_3_" x="79.43265" y="86.14661" transform="matrix(0.01581 -0.99988 0.99988 0.01581 -23.00016 249.19856)" width="71.30457" height="100.27204"/>
					</defs>
					<clipPath id="SVGID_4_">
						<use xlink:href="#SVGID_3_"  style="overflow:visible;"/>
					</clipPath>
					<g id="ZA0que_1_" class="st3">
						
							<image style="overflow:visible;enable-background:new    ;" width="450" height="320" id="ZA0que" xlink:href="90CDF7B3EBFDA133.jpg"  transform="matrix(-0.2228 -0.00352 -0.00352 0.2228 165.7774 101.42822)">
						</image>
					</g>
				</g>
			</g>
			<g id="BxZ2VQ_1_" class="st4">
				
					<image style="overflow:visible;enable-background:new    ;" width="299" height="265" id="BxZ2VQ" xlink:href="90CDF7B3EBFDA131.jpg"  transform="matrix(0.81599 0 0 0.81599 -9.62653 -3.71372)">
				</image>
			</g>
		</g>
		<g id="Layer_2">
			<path class="st5" d="M49.52,64.2c0.65,0.2,1.86,0.78001,1.86,0.78001c0.47,0.2,0.89,0.41,1.41,0.68999
				c0,0,99.27,54.26,127.81001,72.98c1.23,0.8,1.51999,2.46001,0.64999,3.64c-4.82001,6.47-19.60001,26.17001-31.16,39.85001"/>
			<path class="st5" d="M124.74,187.41l-56.29-13.63c0,0-3.23-1.20999,2.02-2.00999l20.17-2.56c0,0-7.14-10.76001-7.76-31.99001
				c-0.03-1.08,0.12-2.17,0.5-3.18001c0.3-0.84,0.78001-1.64,1.48-1.81c3.52-0.89,5.38,3.49001,6.45,5.11
				c1.08,1.61,17.89,26.76001,25.02,33.35001c0,0,7.93-9.55,13.72-9.82001c0,0,1.78,8.36,2.39999,9.82001
				c0,0,11.31-13.58,14.54001-17.35001c3.23-3.75999,4.87999-7.56999,1.75-10.34999c0,0-72.62-50.44-87.69-60.39001l-15.6-9.55
				c0,0-2.25-1.35001-2.79-3.88c-0.19-0.87-0.11-1.71,0.18-2.46c0.36-0.99,1.08-1.8,2.01-2.31c0.59-0.32,0.95-0.45,1.68-0.47"/>
			<path class="st5" d="M49.70758,67.86063L50.66,68.29l2.76,1.35c0.98,0.48,1.3,1.72,0.67,2.61l-0.38,0.54
				c-0.55,0.79-1.64,0.99-2.44,0.44L47.48,70.67c-0.66-0.45-0.93-1.28-0.7-2.00999c0.04-0.13,0.1-0.25,0.17-0.37
				c0.12-0.2,0.28-0.37,0.46-0.51"/>
			<path class="st5" d="M116.32816,170.69044l-6.88519,8.45107c-0.62706,0.76968-1.63152,1.12462-2.60293,0.91978l-23.01929-4.85391
				"/>
			<path class="st5" d="M132.45,170.69c0,0,0.79001,4.87,2.04001,9.42999"/>
			<path class="st5" d="M140.45,184.47l-5.95999-4.35001c0.62,2.26001,1.36,4.45001,2.17,5.92"/>
			<path class="st5" d="M146.13,181.36c2.54999-2.71001,5.7-6.14999,7.53-8.5"/>
			<line class="st5" x1="155.54301" y1="170.30334" x2="157.42566" y2="168.11948"/>
			<path class="st5" d="M90.64046,169.21104c0,0,3.26261,0.73456,7.90098,1.0923"/>
			<line class="st5" x1="81.10658" y1="174.54082" x2="79.42246" y2="174.08151"/>
			<path class="st5" d="M54.41207,78.53472c0,0,1.5066-2.38248,4.03922-1.11617c2.53262,1.26631,24.69302,14.7736,24.69302,14.7736"
				/>
			<line class="st5" x1="86.20454" y1="94.09161" x2="88.94821" y2="95.88554"/>
			<line class="st5" x1="92.00846" y1="97.78501" x2="103.82733" y2="104.85523"/>
			<path class="st5" d="M41.79624,57.54074c0,0,0.46751-1.65487,1.68598-1.73567c0.75799-0.04764,1.63682,0.53824,2.10339,1.07166
				c0.27106,0.32532,1.14349,1.49719,1.45926,1.91302c3.5202,4.78946,2.64451,9.18035,2.64451,9.18035
				c-1.24339,2.46638-2.94896,0.83938-2.94896,0.83938"/>
			<path class="st5" d="M42.84,66.71c-0.54-1.26-1.49-3.6-1.84-6.58"/>
			<g>
				<path class="st5" d="M43.12,47.88l0.95-0.21c0.97-0.21,1.93,0.41,2.14,1.37l1.7,7.82c0.17,0.78-0.2,1.55-0.87,1.93"/>
				<path class="st5" d="M40.54,48.44l-1.53,0.33c-0.97,0.21-1.59,1.17-1.38,2.13l1.7,7.82c0.18,0.81,0.87,1.37,1.67,1.41
					c0.15,0.01,0.31,0,0.47-0.04l3.21-0.69c-0.68-0.88-1.88-1.79-1.88-1.79"/>
				<path class="st5" d="M43.37,50.02l0.36-0.08c0.29-0.07,0.58,0.12,0.65,0.42l1.31,6.06c0.04,0.17-0.01,0.34-0.1,0.46"/>
				<path class="st5" d="M40.8,50.57l-0.54,0.12c-0.3,0.07-0.48,0.36-0.42,0.65l1.32,6.06c0.06,0.3,0.35,0.49,0.65,0.42l0.99-0.21"
					/>
			</g>
			<g>
				<path class="st5" d="M42.30356,32.66059l1.54002,0.06947c1.00002,0.03966,1.77031,0.88939,1.72065,1.86941l-0.35725,7.99012
					c-0.02972,0.80001-0.5895,1.46021-1.32943,1.65046l-1.13993,0.19039"/>
				<path class="st5" d="M39.68352,32.54149l-1.01001-0.03965c-0.99002-0.04966-1.82975,0.72063-1.87941,1.71065l-0.1191,2.61004
					l-0.23814,5.38008c-0.03971,0.83001,0.49053,1.54983,1.25061,1.78957c0.15002,0.03995,0.30003,0.0699,0.46003,0.07984
					l1.91003,0.08934"/>
				<path class="st5" d="M42.1543,34.81064l0.78001,0.02973c0.3,0.0099,0.54009,0.26981,0.5202,0.56982l-0.27787,6.1901
					c-0.00994,0.17-0.08989,0.33003-0.21986,0.42007"/>
				<path class="st5" d="M39.77426,34.70146l-0.39001-0.01987c-0.30001-0.0199-0.54992,0.22019-0.56982,0.5202l-0.06949,1.47002
					l-0.20837,4.72007c-0.0099,0.31001,0.22019,0.55993,0.5202,0.56982l0.78001,0.03973"/>
			</g>
			<g>
				<path class="st5" d="M42.63,16.4l1.41,0.07c0.99,0.04,1.76,0.89,1.72,1.87l-0.36,7.99c-0.04,0.8-0.59,1.45-1.33,1.65l-1.15,0.19
					h-0.61501"/>
				<path class="st5" d="M39.68,27.87l-1.34-0.06c-0.16-0.01-0.32-0.04-0.46-0.09c-0.76-0.23-1.29-0.95-1.25-1.78l0.36-7.99
					c0.04-0.99,0.89-1.76,1.87-1.72l1.15,0.05"/>
				<path class="st5" d="M42.51,18.54l0.62,0.03c0.3,0.02,0.53,0.27,0.52,0.58l-0.28,6.19c-0.01,0.17-0.1,0.32-0.22,0.42
					l-0.84501,0.09096"/>
				<path class="st5" d="M39.69,25.72l-0.44-0.02c-0.3-0.01-0.53-0.27-0.52-0.57l0.28-6.19c0.01-0.31,0.27-0.54,0.57-0.53l0.51,0.02
					"/>
			</g>
			<g>
				<path class="st5" d="M43.0893,0.24301l1.2801,0.06355c0.99,0.04,1.76,0.89,1.72,1.87l-0.36,7.99c-0.04,0.8-0.59,1.45-1.33,1.65
					l-1.15,0.19h-0.61501"/>
				<path class="st5" d="M40.0094,11.70656l-1.34-0.06c-0.16-0.01-0.32-0.04-0.46-0.09c-0.76-0.23-1.29-0.95-1.25-1.78l0.36-7.99
					c0.04-0.99,0.89-1.76,1.87-1.72l1.15,0.05"/>
				<path class="st5" d="M43.02613,2.38559l0.43327,0.02096c0.3,0.02,0.53,0.27,0.52,0.58l-0.28,6.19c-0.01,0.17-0.1,0.32-0.22,0.42
					l-0.84501,0.09096"/>
				<path class="st5" d="M40.0194,9.55656l-0.44-0.02c-0.3-0.01-0.53-0.27-0.52-0.57l0.28-6.19c0.01-0.31,0.27-0.54,0.57-0.53
					l0.51,0.02"/>
			</g>
			<path class="st5" d="M42.8042,57.60586c0,0,1.19323,0.9185,1.87503,1.78935c0.10122,0.12,0.18648,0.24347,0.25406,0.36242
				c2.73802,4.53334,2.55206,7.44661,2.47561,8.05616"/>
			<path class="st5" d="M43.43,59.67c0,0,0.7,3.08,1.42,4.73"/>
			<path class="st5" d="M42.26234,51.61273l-0.06698,0.00766c-0.70163,0.08021-1.33544-0.42356-1.41565-1.12519l-0.94841-8.29643
				c-0.08021-0.70163,0.42356-1.33544,1.12519-1.41565l0.06698-0.00766c0.70163-0.08021,1.33545,0.42356,1.41565,1.12519
				l0.94841,8.29643C43.46775,50.89871,42.96398,51.53252,42.26234,51.61273z"/>
			<path class="st5" d="M42.30124,25.87059l0.00288,8.34997c0.00007,0.21002-0.04991,0.41005-0.14982,0.59008
				c-0.20988,0.41005-0.62977,0.69022-1.11976,0.69039l-0.07001,0.00002c-0.53998,0.00019-1.00011-0.32967-1.19028-0.79964
				c-0.06005-0.14994-0.09007-0.30997-0.09013-0.47995l-0.00288-8.34997c-0.00024-0.71002,0.5695-1.28023,1.27953-1.28047
				l0.07001-0.00002C41.73079,24.59076,42.301,25.16057,42.30124,25.87059z"/>
			<path class="st5" d="M41.35389,19.28532h-0.06741c-0.70621,0-1.2787-0.57249-1.2787-1.2787V9.65615
				c0-0.7062,0.57249-1.2787,1.2787-1.2787h0.06741c0.70621,0,1.2787,0.57249,1.2787,1.2787v8.35046
				C42.63258,18.71282,42.06009,19.28532,41.35389,19.28532z"/>
			<path class="st5" d="M43.10603-0.47867l-0.06217,2.68235C43.0275,2.9097,42.44189,3.46877,41.73587,3.4524l-0.0674-0.00156
				c-0.70601-0.01636-1.26509-0.60197-1.24872-1.30798l0.06232-2.68882"/>
			<path class="st5" d="M148.235,139.75618c0,0,3.81612,1.15637,4.48856,4.36032c0.68916,3.28366-0.64122,6.48918-2.39835,8.88028
				l-4.4922,5.28496"/>
			<path class="st5" d="M0,162.93234c0,0,3.23098,0.49706,5.21923,1.73972c1.98824,1.24265,3.35516,1.61545,4.22502,1.49118"/>
			<line class="st5" x1="67.28097" y1="183.3761" x2="69.0722" y2="183.3761"/>
			<path class="st5" d="M68.17658,168.08417c0,0-2.36239-0.41431-4.58752-0.12407c-2.22512,0.29024-3.77304-2.41861-4.93397-3.96741
				s-2.90234-0.48283-4.25676,0s-3.67629,0.09763-7.64282,0.00089s-9.44134,7.78717-9.44134,7.78717
				s-2.15899,3.88115-5.11168,3.26491"/>
			<path class="st5" d="M59.76757,165.5269c0,0,6.12766-3.85519,8.40901-3.08124s5.08694,0.47185,7.50555-0.10269
				c2.41861-0.57452,5.53857-2.60616,8.1386-1.34848s3.54076,1.20891,3.54076,1.20891"/>
			<path class="st5" d="M162.34991,167.02083c0.12651-0.16084,6.02071-3.1965,8.57817-2.26653
				c2.55746,0.92999,8.16231,2.47998,10.82356,0.69749c2.66125-1.78247,4.36623-2.63496,5.83871-1.93747
				c1.47247,0.69749,11.39233,2.63496,13.40732,1.31747c2.01497-1.31747,6.4324-5.03743,8.67989-3.48744
				c2.24747,1.54997,6.19991,4.64993,7.90489,4.72743"/>
			<path class="st5" d="M212.79611,163.55566c0,0,3.39136-4.92377,6.87881-4.53627c3.48746,0.38748,4.06911-0.04346,4.63077-0.02173
				"/>
			<path class="st5" d="M161.55,187.35001c-4.38-0.24001-7.38-1.85001-8.64-3.54001c-0.44-0.59-1.52-1.2-2.82001-1.67
				c-1.23999-0.45-2.69-0.75999-3.95999-0.78c-1.24001-0.02-2.32001,0.24001-2.89,0.91c-0.60001,0.70999-1.59001,1.5-2.79001,2.2
				c-1.12,0.67-2.44,1.24001-3.78999,1.56999c-1.42,0.35001-2.88,0.44-4.21001,0.07001c-2.42-0.66-5.61,0.39-7.71,1.3
				c-1.32,0.56999-2.21,1.09-2.21,1.09s-2.92,1.31-5.15,0.77"/>
			<line class="st5" x1="114.29824" y1="188.8847" x2="112.15429" y2="188.8847"/>
			<path class="st5" d="M21.01969,172.83377c0,0,2.86355,2.15694,5.09851,1.70705"/>
			<path class="st5" d="M176.00752,168.83522c0.24918,0,4.15286,1.07976,6.22929,0"/>
			<path class="st5" d="M13.3876,197.81755c0,0,1.26159-7.63261,7.12797-7.31721s7.56953,1.70314,9.08343,1.57698
				c1.51391-0.12616,7.69569,0.88312,8.32648,3.02782s-1.89238,3.6586-3.65861,3.6586c-1.76622,0-11.85893,1.577-12.80512,1.13544
				c-0.94619-0.44156-2.77549-1.45084-4.35248-1.57698c-1.57699-0.12616-2.33394,0.2523-3.02781-0.12616
				c-0.69387-0.37848-1.57699-0.6308-2.90165-0.56772"/>
			<path class="st5" d="M37.02425,193.99915c0,0,2.95308-2.21503,5.53269-0.39851c2.57961,1.8165,3.8663,2.49768,4.39611,2.49768
				s1.66513-0.07568,1.8165,0.90826c0.15137,0.98393-0.52981,2.49768-2.57338,2.11925
				c-2.04356-0.37843-10.47411-0.65126-10.47411-0.65126"/>
			<ellipse class="st5" cx="32.03941" cy="210.04836" rx="2.56139" ry="1.04974"/>
			<path class="st5" d="M16.79126,194.15649c0,0,1.40631-2.25009,4.42987-1.96883"/>
			<line class="st5" x1="23.04932" y1="192.50409" x2="23.89311" y2="192.71503"/>
			<path class="st5" d="M201.47052,198.97722c0,0-1.46756-1.36496-5.21367-1.36496s-6.79706-0.79254-8.95976,0.68248
				s-5.02055,1.73921-6.29501,1.73921c-1.27444,0-4.44125-0.22015-4.59573,1.54108
				c-0.15448,1.76122,3.90059,1.93735,5.05917,1.67316c1.1586-0.26418,11.97211,0.66046,11.97211,0.66046
				c1.66064,0.04404,7.02878,0.35225,8.88252-0.79256C204.17389,201.9713,203.90355,200.34216,201.47052,198.97722z"/>
			<path class="st5" d="M180.22841,203.34573c0,0-5.22269-0.42845-7.53181,0s-7.97198,0.26352-7.97198,0.26352"/>
			<line class="st5" x1="162.41548" y1="203.64046" x2="160.82109" y2="203.64046"/>
			<path class="st5" d="M199.44862,198.01419c0,0,3.21652,2.67949-0.85196,2.1297c-4.06848-0.5498-4.15094-0.38486-5.58041-0.19243
				c-1.42946,0.19243-10.42888,1.26828-7.12498-0.89154"/>
			<path class="st5" d="M192.91164,210.05768c0,0,4.66437-0.70073,7.39725-0.28029s5.46574,1.47154,6.86722-0.49051
				c1.40147-1.96207,3.29346-1.96207,4.90515-1.75185s4.20525,0.56059,5.50121-1.96207"/>
			<line class="st5" x1="44.70347" y1="206.69537" x2="45.69448" y2="206.77159"/>
			<line class="st5" x1="49.20115" y1="207.30522" x2="50.18954" y2="207.30522"/>
			<line class="st5" x1="46.6855" y1="210.04836" x2="47.52404" y2="210.04836"/>
			<line class="st5" x1="58.12025" y1="212.64143" x2="58.80634" y2="212.64143"/>
			<line class="st5" x1="64.95721" y1="206.73349" x2="65.97212" y2="206.73349"/>
			<line class="st5" x1="11.17982" y1="175.11198" x2="12.30499" y2="175.40443"/>
			<line class="st5" x1="16.34527" y1="177.49863" x2="16.79126" y2="177.65108"/>
			<line class="st5" x1="12.22876" y1="179.55687" x2="13.21977" y2="180.11842"/>
			<line class="st5" x1="5.21544" y1="182.52991" x2="6.05399" y2="182.75861"/>
			<line class="st5" x1="29.91452" y1="188.39975" x2="30.75307" y2="188.32352"/>
			<line class="st5" x1="34.6008" y1="183.82585" x2="35.72207" y2="183.90208"/>
			<line class="st5" x1="51.71679" y1="174.31117" x2="52.47911" y2="174.54082"/>
			<line class="st5" x1="53.31766" y1="189.23831" x2="54.53736" y2="189.23831"/>
			<line class="st5" x1="57.43417" y1="190.07686" x2="58.12025" y2="190.07686"/>
			<line class="st5" x1="56.51939" y1="186.57019" x2="57.43417" y2="186.72266"/>
			<line class="st5" x1="98.54144" y1="207.30522" x2="100.07445" y2="207.30522"/>
			<line class="st5" x1="104.49153" y1="207.30522" x2="105.94144" y2="207.30522"/>
			<line class="st5" x1="101.86897" y1="212.07021" x2="103.40952" y2="212.14723"/>
			<line class="st5" x1="82.84306" y1="203.15532" x2="83.82074" y2="203.39789"/>
			<line class="st5" x1="87.3615" y1="191.65781" x2="88.08096" y2="191.73483"/>
			<line class="st5" x1="91.31613" y1="192.88507" x2="91.93236" y2="192.88507"/>
			<line class="st5" x1="89.08232" y1="194.50783" x2="89.54449" y2="194.58487"/>
			<line class="st5" x1="98.17162" y1="198.20517" x2="99.30795" y2="198.2822"/>
			<line class="st5" x1="100.55949" y1="193.66052" x2="101.09869" y2="193.81458"/>
			<line class="st5" x1="124.59221" y1="203.15532" x2="125.74763" y2="202.59576"/>
			<line class="st5" x1="118.66106" y1="206.73349" x2="119.0462" y2="206.73349"/>
			<line class="st5" x1="127.21116" y1="212.64143" x2="127.98144" y2="212.10872"/>
			<line class="st5" x1="163.96207" y1="187.41" x2="165.47455" y2="187.41"/>
			<line class="st5" x1="207.26132" y1="188.2506" x2="209.06381" y2="188.02528"/>
			<line class="st5" x1="213.79536" y1="187.41" x2="215.14723" y2="186.89871"/>
			<line class="st5" x1="210.30302" y1="184.19498" x2="211.65489" y2="183.96967"/>
			<line class="st5" x1="200.16402" y1="182.14" x2="201.17792" y2="182.14"/>
			<line class="st5" x1="216.83707" y1="177.11" x2="217.58246" y2="177.11"/>
			<line class="st5" x1="180.22841" y1="187.15436" x2="182.23682" y2="186.56075"/>
			<line class="st5" x1="166.47995" y1="217.76639" x2="167.3812" y2="217.54108"/>
			<line class="st5" x1="174.14053" y1="217.65373" x2="174.92912" y2="217.09045"/>
			<line class="st5" x1="169.97227" y1="214.04875" x2="171.21149" y2="213.71078"/>
			<line class="st5" x1="155.54301" y1="217.65373" x2="156.48434" y2="217.65373"/>
			<line class="st5" x1="151.60939" y1="211.00705" x2="152.28532" y2="210.89439"/>
			<line class="st5" x1="200.65565" y1="219.68155" x2="201.17792" y2="219.11826"/>
			<line class="st5" x1="147.44112" y1="191.06699" x2="148.56769" y2="190.95433"/>
			<path class="st5" d="M3.45118,163.83522c0,0,6.86531-2.09386,9.78,0s8.09638,6.69261,9.00317,7.14601
				c0,0,1.86565,1.60217,4.25461,1.11552c0,0,1.86907-0.39435,3.95077,1.54211s4.40546,3.19518,6.87445,2.37218
				s5.22845-0.3873,6.63239-0.24207s1.21029,0.96823,1.59758,1.16188s3.77611,2.03329,5.80939,1.54918s5.47051,0,7.01968,1.35551
				c1.54917,1.35553,3.04993,3.67929,6.58398,3.53406"/>
			<g>
				<path class="st5" d="M23.1,171.53999c-0.03-0.54999,0-1.20999,0.16-1.89c0.37-1.56999,0.45-3.56-0.17-4.92
					c-0.63-1.36-1.09-3.48-0.31-5.05c0.77-1.56999,0.82-3.17999,0.18-4.67c-0.64-1.48-0.31-2.45999,0.19-3.73
					c0.51-1.28,1.17-2.97,0.84-5.17999c0,0,0.63,1.95,0.5,3.81999c-0.12,1.87,0.32,3.10001,0.67,3.78
					c0.36,0.68001,1.36,3.01001-0.1,5.77c-1.47,2.75999,0.22,3.64999,0.77,4.37c0.54,0.72,1.17,1.40001,0.75,3.65001
					c-0.36,1.90999-0.19,3.59999,0.09,4.59"/>
				<path class="st5" d="M25.02895,172.1545c0,0-0.1973-1.77513,0-3.92805"/>
				<path class="st5" d="M24.75733,165.18008c0,0,0.34615,0.45457,0.27162,1.00577"/>
			</g>
			<g>
				<path class="st5" d="M28.51,172.39c-0.03-0.38-0.08-0.78-0.16-1.19c-0.41-2.25,0.21-2.92,0.76-3.64999
					c0.54-0.72,2.23-1.61,0.77-4.37001c-1.46-2.75-0.46-5.09-0.1-5.76999c0.35-0.68001,0.79-1.91,0.66-3.77
					c-0.12-1.87,0.51-3.81999,0.51-3.81999c-0.34,2.2,0.33,3.89999,0.83,5.17c0.5,1.28,0.84,2.25,0.2,3.73999
					c-0.65,1.48001-0.6,3.10001,0.18,4.67c0.77,1.57001,0.31,3.69-0.31,5.05C31.23,169.8,31.3,171.8,31.68,173.37
					c0.12,0.51001,0.16,0.99001,0.17,1.44"/>
				<path class="st5" d="M29.98,173.25c-0.01-0.41-0.03-0.85001-0.07-1.31"/>
				<path class="st5" d="M30.17859,168.89677c0,0-0.34615,0.45457-0.27162,1.00577"/>
			</g>
			<g>
				<path class="st5" d="M18.41,167.95c0.07-0.58-0.05-1.31-0.56-2.27c-1.46-2.75999-0.46-5.09-0.1-5.76999
					c0.35-0.68001,0.79-1.91,0.67-3.77c-0.13-1.87,0.5-3.81999,0.5-3.81999c-0.34,2.2,0.33,3.89999,0.83,5.17
					c0.5,1.28,0.84,2.25,0.2,3.73999c-0.64,1.48001-0.59,3.10001,0.18,4.67c0.53,1.09001,0.48,2.45001,0.18,3.62001"/>
			</g>
			<g>
				<path class="st5" d="M198.81,164.98c0.28-0.98999,0.45-2.67999,0.09-4.59c-0.42-2.25,0.21001-2.92999,0.75-3.64999
					c0.55-0.72,2.24001-1.61,0.77-4.37001c-1.45999-2.75999-0.45999-5.09-0.09999-5.76999c0.34999-0.68001,0.78999-1.91,0.67-3.78
					c-0.13-1.87001,0.5-3.82001,0.5-3.82001c-0.33,2.21001,0.33,3.89999,0.84,5.17999c0.5,1.27,0.83,2.25,0.19,3.73001
					c-0.64,1.48999-0.59001,3.09999,0.17999,4.67c0.78,1.56999,0.32001,3.69-0.31,5.05c-0.62,1.36-0.53999,3.34999-0.17,4.92
					c0.10001,0.45999,0.14999,0.91,0.16,1.31"/>
				<path class="st5" d="M200.44875,165.05489c0,0,0.1973-1.77513,0-3.92805"/>
				<path class="st5" d="M200.72037,158.08047c0,0-0.34616,0.45457-0.27162,1.00577"/>
			</g>
			<g>
				<path class="st5" d="M194.03,164.92c0.14-1.25,0.05-2.59-0.39999-3.56999c-0.62001-1.36-1.08-3.48001-0.31-5.05
					c0.78-1.57001,0.82999-3.19,0.17999-4.67c-0.64-1.49001-0.3-2.46001,0.2-3.74001c0.5-1.27,1.17-2.97,0.83-5.17
					c0,0,0.63,1.95,0.50999,3.81999c-0.12999,1.86,0.31001,3.09001,0.66,3.77c0.36,0.68001,1.36,3.02-0.09999,5.77
					C194.14,158.84,195.83,159.73,196.37,160.45c0.55,0.73,1.17,1.40001,0.76001,3.65001c-0.08,0.39-0.13,0.78-0.15001,1.14"/>
				<path class="st5" d="M195.57001,164.84c-0.01001,0.09-0.02,0.18001-0.02,0.27"/>
				<path class="st5" d="M195.2991,161.79716c0,0,0.34616,0.45457,0.27162,1.00577"/>
			</g>
			<g>
				<path class="st5" d="M205.10001,162.09c-0.23001-1.09-0.23001-2.3,0.25-3.28999c0.76999-1.57001,0.81999-3.19,0.17999-4.67
					c-0.64-1.49001-0.3-2.46001,0.2-3.74001c0.5-1.27,1.17-2.97,0.83-5.17c0,0,0.63,1.95,0.5,3.81999
					c-0.12,1.86,0.32001,3.09001,0.67,3.77c0.36,0.68001,1.36,3.01001-0.09999,5.77c-0.51001,0.95999-0.63,1.69-0.56,2.27"/>
			</g>
			<circle class="st5" cx="34.20419" cy="143.14627" r="0.95724"/>
			<circle class="st5" cx="24.75733" cy="136.35182" r="1.95971"/>
			<circle class="st5" cx="33.24695" cy="122.65995" r="1.54419"/>
			<circle class="st5" cx="14.17685" cy="109.27693" r="0.97799"/>
			<ellipse class="st5" cx="49.39172" cy="218.69347" rx="2.70623" ry="1.32137"/>
			<ellipse class="st5" cx="152.71901" cy="200.10123" rx="2.82401" ry="1.30582"/>
			
				<ellipse transform="matrix(0.98639 -0.1644 0.1644 0.98639 -26.48383 33.84983)" class="st5" cx="191.25578" cy="176.92223" rx="2.5028" ry="0.97935"/>
			
				<ellipse transform="matrix(0.98 -0.199 0.199 0.98 -31.1203 43.99485)" class="st5" cx="203.30878" cy="176.81706" rx="2.63788" ry="1.41225"/>
			<circle class="st5" cx="206.675" cy="128.01192" r="1.72468"/>
			<circle class="st5" cx="189.96619" cy="115.41962" r="1.29017"/>
			<circle class="st5" cx="206.675" cy="99.53616" r="2.58968"/>
			<circle class="st5" cx="166.92276" cy="94.09161" r="1.79394"/>
			<circle class="st5" cx="187.52834" cy="79.21677" r="1.14767"/>
			<line class="st5" x1="6.94745" y1="213.8857" x2="8.3984" y2="214.17589"/>
			<line class="st5" x1="13.81525" y1="215.53011" x2="14.68582" y2="215.72356"/>
			<line class="st5" x1="11.74241" y1="208.99861" x2="13.13815" y2="210.04836"/>
			<line class="st5" x1="24.94126" y1="220.01483" x2="25.61626" y2="220.01483"/>
			<path class="st5" d="M40.97576,170.36746c0.19305-0.23166,2.97297-3.70656,5.52124-3.89961"/>
			<path class="st5" d="M214.17982,164.48595c0.11288-0.17162,2.22989-2.67673,3.78235-2.92371"/>
			<g>
				<g>
					<path class="st5" d="M99.55604,23.68882c6.58058-0.4519,11.9026-1.39317,14.98769-2.29593c7.86-2.29,19.77-4.86,36.91-1.08
						c17.15001,3.79,36.20001,3.16,41.44,1.81c0,0,5.07802-1.03907,7.28386-1.55206l4.20648-1.07078l4.30908-1.36716"/>
					<path class="st5" d="M84.60427,23.76059c3.17426,0.18784,6.25198,0.23644,9.16833,0.18077"/>
					<path class="st5" d="M45.75,18.14c6.37,0.06,12.59,0.68,17.83,2.17c4.74,1.36,9.56,2.27,14.28,2.84"/>
					<path class="st5" d="M163.92465,25.58279c0,0,27.44522,3.31464,45.34427-2.91688c0,0,10.9906-3.76375,14.64839-3.10083"/>
					<path class="st5" d="M213.73421,17.28292c2.85571-0.78009,6.25334-1.46695,10.06627-1.16301"/>
					<path class="st5" d="M151.91342,24.54636c0,0-15.4068-4.77542-31.99874,0"/>
					<path class="st5" d="M115.63582,26.4635c0,0-3.83957,0.82175-6.29848,0.82175"/>
					<path class="st5" d="M45.67337,22.44136c6.84-0.1,13.14663,0.37,17.59663,2.1c14.23,5.55,38.17,4.17,38.17,4.17"/>
					<path class="st5" d="M74.18313,31.51497c0,0,14.90401,2.5138,22.30206,1.30345"/>
					<line class="st5" x1="69.52794" y1="30.43136" x2="66.2693" y2="29.48532"/>
					<path class="st5" d="M146.00894,26.87439c0.0563-0.00049,19.24312,4.65559,47.77321,2.67574"/>
				</g>
				<g>
					<path class="st5" d="M0.31299,22.82136C4.0764,23.57772,7.11,22.39,7.11,22.39s14.17-3.12,29.86-4"/>
					<path class="st5" d="M13.7,25.86136c0,0,10.86-2.11,22.97-3.04"/>
					<path class="st5" d="M43.4,22.44136c-1.55,0.05-2.92506,0.12087-4.47506,0.22087"/>
					<path class="st5" d="M0.24668,29.42163c0.36879-0.25883,8.27534-2.13639,8.27534-2.13639"/>
					<path class="st5" d="M6.34675,32.70557c0,0,9.74192-2.59086,16.34128-3.22025"/>
					<line class="st5" x1="27.87324" y1="28.86359" x2="30.30872" y2="28.38529"/>
				</g>
			</g>
			<path class="st5" d="M110.41191,163.99692c0.25758,0.32176,4.17532-0.11116,5.91624,0.56218s4.35514,1.62675,4.35514,1.62675"/>
			<path class="st5" d="M93.28627,144.72067c0,0,7.96082,11.46986,10.10815,13.93144"/>
			<line class="st5" x1="91.87218" y1="142.73047" x2="91.24369" y2="141.42111"/>
			<line class="st5" x1="43.39498" y1="36.78021" x2="38.74498" y2="36.78181"/>
			<path class="st5" d="M45.46498,36.7795l121.45999-0.04186c0,0,30.81104-2.64429,48.0246-36.58992"/>
			<line class="st5" x1="36.67498" y1="36.78253" x2="0.39662" y2="36.79503"/>
			<line class="st5" x1="37.05" y1="7.87" x2="0.43842" y2="7.87"/>
			<line class="st5" x1="210.43022" y1="7.87" x2="45.83" y2="7.87"/>
			<line class="st5" x1="43.76" y1="7.87" x2="39.11" y2="7.87"/>
			<line class="st5" x1="37.21" y1="4.13" x2="0.43842" y2="4.13"/>
			<line class="st5" x1="212.75999" y1="4.13" x2="46" y2="4.13"/>
			<line class="st5" x1="43.93" y1="4.13" x2="39.28" y2="4.13"/>
			<path class="st5" d="M205.12743,10.04835c0,0-3.8532,6.08323-6.36244,7.5831"/>
			<line class="st5" x1="198.20898" y1="29.04048" x2="201.1113" y2="28.62676"/>
		</g>
	</g>
</g>
</svg>
