<?xml version="1.0" encoding="utf-8"?>
<!-- Generator: Adobe Illustrator 16.0.3, SVG Export Plug-In . SVG Version: 6.00 Build 0)  -->
<!DOCTYPE svg PUBLIC "-//W3C//DTD SVG 1.1//EN" "http://www.w3.org/Graphics/SVG/1.1/DTD/svg11.dtd">
<svg version="1.1" id="Layer_1" xmlns="http://www.w3.org/2000/svg" xmlns:xlink="http://www.w3.org/1999/xlink" x="0px" y="0px"
	 width="113px" height="70px" viewBox="37.563 326.774 539.474 137.912"
	 enable-background="new 37.563 326.774 539.474 137.912" xml:space="preserve">
<g>
	<g>
		<path fill="#818181" d="M37.563,394.125v-66.505h61.419c6.029,0,12.812,0.096,17.616,4.334c2.449,1.976,4.802,5.745,4.802,12.621
			c0,7.349-1.694,10.456-4.427,12.623c-2.072,1.697-4.616,2.356-6.969,3.014c3.295,0.473,6.406,0.943,9.136,3.015
			c3.014,2.167,4.804,5.37,4.804,13.282c0,6.406-1.979,9.705-3.957,11.964c-0.47,0.659-1.506,1.694-3.107,2.826
			c-4.05,2.826-9.043,3.107-18.652,2.826H37.563L37.563,394.125z M57.628,379.146h39.845c2.64-0.47,4.616-1.036,5.559-3.577
			c0.096-0.377,0.377-1.131,0.377-2.263c0-1.505-0.47-2.542-1.224-3.673c-2.072-2.73-4.805-2.637-7.915-2.544H57.628V379.146z
			 M57.724,353.807h34.664c3.015,0.096,5.559,0.189,7.349-2.26c0.377-0.47,1.224-1.694,1.224-3.484c0-1.225-0.473-2.449-1.224-3.392
			c-1.79-2.449-4.053-2.449-6.879-2.544H57.724V353.807L57.724,353.807z"/>
		<path fill="#818181" d="M198.13,327.621c6.78-0.377,13.375-0.658,18.652,3.58c1.787,1.413,2.918,3.107,3.295,3.769
			c2.826,4.897,2.733,12.339,2.733,13.282c0,0.659,0,6.876-1.32,11.021c-0.188,0.47-0.754,1.883-1.602,3.015
			c-3.203,4.616-9.609,5.744-14.506,6.591c5.463,0,10.833,0.096,14.036,4.239c2.353,2.921,2.353,5.936,2.353,9.42v11.587h-20.627
			v-8.95c0-1.787-0.096-3.578-1.131-5.274c-1.506-2.167-3.958-2.449-6.595-2.73h-34.853v16.955h-20.819v-66.505H198.13z
			 M158.659,360.686h32.592c3.864,0,6.406-0.188,8.007-1.039c3.014-1.694,3.11-6.499,3.11-6.969c0-0.473,0-4.711-1.79-6.876
			c-1.602-1.886-4.523-2.074-7.537-2.263h-34.382V360.686L158.659,360.686z"/>
		<path fill="#818181" d="M259.031,327.621v66.505h-21.101v-66.505H259.031z"/>
		<path fill="#818181" d="M337.109,327.621c1.79,0,3.574,0.096,5.364,0.282c10.555,0.943,15.17,4.993,17.619,9.231
			c3.107,5.277,3.484,11.587,3.67,17.428v10.74c0,1.602,0,3.107-0.09,4.709c-0.568,12.057-3.861,17.332-8.95,20.535
			c-4.993,3.11-9.891,3.392-15.542,3.58h-64.056v-66.505H337.109z M295.848,378.111h33.91c0.754,0,2.64,0.096,4.807-0.282
			c8.101-1.32,8.478-7.441,8.573-14.225v-8.289c-0.191-3.11-0.473-5.84-2.825-8.289c-2.736-2.826-6.879-3.014-11.118-3.203h-33.346
			V378.111L295.848,378.111z"/>
		<path fill="#818181" d="M377.757,346.273c0.096-1.036,0.281-2.072,0.473-3.11c1.036-5.179,3.484-9.606,8.196-12.339
			c3.484-2.071,6.687-2.637,10.645-3.203c8.1-0.47,16.2-0.847,24.396-0.847c9.608,0,19.217,0.377,28.916,0.847
			c1.036,0.096,2.071,0.281,3.113,0.47c2.729,0.473,9.603,1.79,13.656,8.95c2.353,4.334,2.729,8.573,3.011,13.375
			c0.191,4.804,0.378,9.516,0.191,14.32c-0.096,3.107-0.377,6.217-0.563,9.42c-0.664,4.897-1.323,8.759-4.616,12.809
			c-5.088,6.217-12.907,7.067-20.253,7.63c-6.598,0.096-13.285,0.284-19.972,0.284c-7.628,0-15.165-0.188-22.798-0.377
			c-5.934-0.377-11.681-0.754-16.859-4.334c-8.01-5.556-8.196-15.919-8.196-24.396L377.757,346.273z M437.763,378.395
			c4.334-0.377,8.286-0.754,10.363-4.334c0.844-1.413,1.222-2.826,1.599-6.029v-14.413c-0.096-1.506-0.186-2.637-0.659-4.05
			c-1.604-5.274-5.466-5.744-10.74-6.122h-28.449c-4.61,0.282-6.4,0.847-8.286,2.26c-1.317,0.943-1.886,1.883-2.167,2.449
			c-0.754,1.413-1.036,3.203-1.132,3.676c-0.281,2.353-0.377,5.933-0.473,11.114c0.191,5.652,0.568,9.702,2.077,11.869
			c1.694,2.356,5.083,3.107,10.735,3.58H437.763L437.763,378.395z"/>
		<path fill="#818181" d="M517.594,327.621c7.256,8.855,14.512,17.616,21.576,26.564c6.406,8.103,12.717,16.392,19.026,24.681
			l-0.377-30.521v-20.723h19.218v66.504h-32.688c-7.818-9.513-15.638-19.029-23.265-28.824
			c-5.651-7.256-11.213-14.697-16.673-22.043v50.867h-19.409v-66.505H517.594z"/>
	</g>
	<g>
		<rect x="34.963" y="407.672" fill="#818181" width="540.453" height="4.07"/>
	</g>
	<g>
		<path fill="#818181" d="M102.534,422.339l23.873,42.347h-14.698l-3.957-7.56H80.46l-4.019,7.56H62.163l23.516-42.347H102.534z
			 M85.197,448.192h17.816l-8.759-16.498L85.197,448.192z"/>
		<path fill="#818181" d="M153.593,422.339l15.356,27.773l15.415-27.773h20.695v42.347h-12.598v-32.029l-18.534,32.029h-10.377
			l-18.478-32.209v32.209h-12.415v-42.347H153.593z"/>
		<path fill="#818181" d="M262.403,422.339v9.355h-34.43v7.075h32.573v8.883h-32.573v7.436h34.43v9.598h-47.326v-42.347H262.403
			L262.403,422.339z"/>
		<path fill="#818181" d="M310.951,422.339c4.317-0.242,8.517-0.423,11.877,2.279c1.137,0.896,1.857,1.976,2.1,2.398
			c1.802,3.118,1.739,7.857,1.739,8.454c0,0.423,0,4.38-0.839,7.02c-0.123,0.299-0.479,1.199-1.019,1.92
			c-2.043,2.938-6.119,3.659-9.237,4.199c3.479,0,6.896,0.062,8.934,2.702c1.503,1.857,1.503,3.777,1.503,5.995v7.379H312.87v-5.696
			c0-1.143-0.062-2.279-0.721-3.36c-0.957-1.379-2.519-1.56-4.199-1.739h-22.192v10.796h-13.256v-42.347H310.951z M285.817,443.392
			h20.754c2.46,0,4.081-0.118,5.1-0.659c1.92-1.081,1.981-4.138,1.981-4.441c0-0.298,0-3-1.143-4.379
			c-1.019-1.199-2.879-1.317-4.799-1.436h-21.894V443.392z"/>
		<path fill="#818181" d="M349.713,422.339v42.347h-13.437v-42.347H349.713z"/>
		<path fill="#818181" d="M400.144,437.334c0-1.261,0-2.224-0.9-3.298c-1.02-1.262-2.635-1.38-4.38-1.56
			c-2.454-0.124-4.976-0.242-7.498-0.242c-2.634,0-5.218,0.062-7.914,0.18c-0.659,0-1.379,0.063-2.038,0.118
			c-1.081,0.124-4.081,0.484-5.044,3.783c-0.359,1.255-0.478,3.777-0.478,6.896v3.118c0.062,2.342,0.118,4.858,1.801,6.361
			c1.92,1.739,5.038,1.796,5.578,1.857h15.536c0.237-0.062,3.237-0.118,4.56-1.678c0.901-1.019,0.957-2.64,1.081-4.199h12.896
			c0,1.262-0.063,2.517-0.124,3.84c-0.118,3.658-0.479,7.137-3.479,9.535c-2.336,1.92-4.977,2.28-7.797,2.702
			c-4.56,0.298-9.119,0.479-13.679,0.479c-4.976,0-9.957-0.118-14.934-0.299c-3.9-0.602-7.796-1.198-10.498-3.721
			c-2.696-2.521-3.181-5.28-3.597-8.759c-0.242-2.938-0.484-5.938-0.484-8.938c0-3.119,0.242-6.176,0.422-9.294
			c0.36-2.82,0.782-4.863,2.578-7.138c3.242-3.839,8.337-4.441,9.722-4.684c4.857-0.36,9.777-0.658,14.691-0.658
			c4.982,0,9.958,0.242,14.94,0.422c3,0.479,5.994,0.957,8.398,3.181c3.175,2.938,3.236,8.156,3.298,12.052L400.144,437.334z"/>
		<path fill="#818181" d="M458.404,422.339l23.879,42.347h-14.698l-3.963-7.56h-27.289l-4.02,7.56h-14.275l23.513-42.347H458.404z
			 M441.072,448.192h17.816l-8.759-16.498L441.072,448.192z"/>
		<path fill="#818181" d="M509.342,422.339c4.616,5.635,9.237,11.213,13.735,16.915c4.081,5.156,8.1,10.437,12.113,15.716
			l-0.236-19.437v-13.194h12.237v42.347h-20.816c-4.976-6.057-9.957-12.119-14.815-18.356c-3.597-4.615-7.138-9.355-10.616-14.033
			v32.39h-12.355v-42.347H509.342z"/>
	</g>
</g>
</svg>
