<?xml version="1.0" encoding="utf-8"?>
<!-- Generator: Adobe Illustrator 16.0.3, SVG Export Plug-In . SVG Version: 6.00 Build 0)  -->
<!DOCTYPE svg PUBLIC "-//W3C//DTD SVG 1.1//EN" "http://www.w3.org/Graphics/SVG/1.1/DTD/svg11.dtd">
<svg version="1.1" id="Layer_1" xmlns="http://www.w3.org/2000/svg" xmlns:xlink="http://www.w3.org/1999/xlink" x="0px" y="0px"
	 width="167px" height="70px" viewBox="20.5 344.456 566.998 102.764"
	 enable-background="new 20.5 344.456 566.998 102.764" xml:space="preserve">
<g>
	<g>
		<g>
			<path fill="#818181" d="M245.857,439.479l4.797,1.55c-0.598,1.439-1.346,2.634-2.254,3.6c-0.902,0.961-1.948,1.688-3.122,2.183
				c-1.173,0.488-2.602,0.732-4.279,0.732c-2.039,0-3.653-0.298-4.836-0.897c-1.189-0.595-2.116-1.646-2.779-3.153
				c-0.672-1.503-0.794-3.43-0.372-5.776c0.56-3.133,1.813-5.537,3.767-7.221c1.951-1.678,4.433-2.517,7.454-2.517
				c2.362,0,4.133,0.483,5.309,1.444c1.181,0.966,1.919,2.442,2.219,4.438l-5.323,1.152c-0.077-0.579-0.188-0.998-0.337-1.264
				c-0.244-0.451-0.579-0.797-1.003-1.035c-0.43-0.244-0.929-0.361-1.513-0.361c-1.311,0-2.41,0.531-3.302,1.598
				c-0.671,0.791-1.152,2.033-1.458,3.728c-0.374,2.097-0.318,3.53,0.173,4.311c0.494,0.78,1.311,1.163,2.453,1.163
				c1.11,0,2.004-0.313,2.679-0.94C244.812,441.587,245.388,440.674,245.857,439.479z"/>
			<path fill="#818181" d="M257.872,428.304h5.797l-1.187,6.615h6.329l1.187-6.615h5.818l-3.387,18.916h-5.818l1.37-7.65h-6.329
				l-1.37,7.65h-5.797L257.872,428.304z"/>
			<path fill="#818181" d="M290.464,444.099h-6.578l-1.47,3.121h-5.92l10.438-18.916h6.318l3.658,18.916h-6.063L290.464,444.099z
				 M289.992,440.005l-0.849-6.801l-3.265,6.801H289.992z"/>
			<path fill="#818181" d="M304.465,428.304h5.808l-3.387,18.916h-5.809L304.465,428.304z"/>
			<path fill="#818181" d="M316.563,428.304h5.41l5.188,10.47l1.874-10.47h5.457l-3.387,18.916h-5.458l-5.166-10.39l-1.857,10.39
				h-5.447L316.563,428.304z"/>
			<path fill="#818181" d="M364.335,438.02l3.902,0.918c-0.345,0.754-0.664,1.359-0.939,1.821c-0.282,0.451-0.653,0.993-1.12,1.608
				l1.715,1.359c0.212,0.148,0.482,0.34,0.822,0.552l-3.387,3.25c-0.457-0.271-0.935-0.59-1.423-0.951
				c-0.479-0.366-0.919-0.674-1.307-0.929c-1.009,0.6-1.99,1.04-2.951,1.316c-1.317,0.377-2.777,0.563-4.37,0.563
				c-2.5,0-4.263-0.52-5.298-1.571c-1.03-1.051-1.407-2.325-1.142-3.817c0.196-1.077,0.732-2.092,1.619-3.053
				c0.892-0.961,2.209-1.772,3.955-2.437c-0.536-0.833-0.87-1.556-1.014-2.177c-0.154-0.61-0.17-1.237-0.054-1.874
				c0.239-1.343,0.945-2.447,2.118-3.318c1.168-0.865,2.788-1.301,4.853-1.301c2.103,0,3.579,0.414,4.418,1.237
				c0.844,0.828,1.162,1.815,0.955,2.968c-0.116,0.643-0.382,1.269-0.791,1.863c-0.408,0.59-0.854,1.072-1.354,1.438
				c-0.488,0.372-1.349,0.924-2.58,1.657c0.748,0.918,1.545,1.772,2.389,2.569C363.714,439.177,364.043,438.614,364.335,438.02z
				 M356.266,439.299c-0.808,0.51-1.359,0.939-1.662,1.301c-0.298,0.361-0.483,0.749-0.558,1.152
				c-0.111,0.626,0.059,1.184,0.51,1.678c0.446,0.488,1.104,0.732,1.964,0.732c0.93,0,2.039-0.361,3.329-1.094
				C358.898,442.203,357.698,440.95,356.266,439.299z M358.941,434.701c0.737-0.366,1.332-0.77,1.778-1.205
				c0.44-0.436,0.7-0.845,0.77-1.231c0.074-0.409-0.021-0.749-0.276-1.03c-0.26-0.276-0.652-0.419-1.188-0.419
				c-0.531,0-0.988,0.159-1.381,0.467c-0.382,0.308-0.616,0.674-0.695,1.099C357.853,432.912,358.188,433.688,358.941,434.701z"/>
			<path fill="#818181" d="M387.52,428.304h14.329l-0.727,4.062h-8.511l-0.595,3.308h7.269l-0.68,3.817h-7.273l-1.381,7.729h-5.818
				L387.52,428.304z"/>
			<path fill="#818181" d="M407.296,428.304h5.809l-3.388,18.916h-5.808L407.296,428.304z"/>
			<path fill="#818181" d="M418.036,428.304h17.616l-0.839,4.672h-5.909l-2.549,14.244h-5.797l2.548-14.244h-5.909L418.036,428.304z
				"/>
			<path fill="#818181" d="M439.05,428.304h17.615l-0.839,4.672h-5.908l-2.549,14.244h-5.798l2.549-14.244h-5.909L439.05,428.304z"
				/>
			<path fill="#818181" d="M461.613,428.304h5.809l-3.388,18.916h-5.808L461.613,428.304z"/>
			<path fill="#818181" d="M473.713,428.304h5.41l5.187,10.47l1.874-10.47h5.458l-3.387,18.916h-5.458l-5.166-10.39l-1.858,10.39
				h-5.446L473.713,428.304z"/>
			<path fill="#818181" d="M504.855,440.371l0.707-3.939h8.956l-1.444,8.064c-1.927,1.179-3.589,1.986-4.985,2.405
				c-1.391,0.43-2.988,0.643-4.799,0.643c-2.225,0-3.972-0.383-5.235-1.146c-1.264-0.771-2.149-1.912-2.648-3.42
				c-0.505-1.513-0.579-3.254-0.229-5.213c0.366-2.065,1.114-3.865,2.229-5.389c1.12-1.534,2.564-2.687,4.338-3.483
				c1.375-0.61,3.143-0.913,5.293-0.913c2.07,0,3.583,0.187,4.55,0.563c0.956,0.382,1.704,0.966,2.235,1.768
				c0.536,0.796,0.865,1.805,0.987,3.026l-5.771,1.003c-0.101-0.711-0.387-1.258-0.876-1.635c-0.482-0.383-1.146-0.568-1.996-0.568
				c-1.274,0-2.362,0.44-3.28,1.333c-0.914,0.892-1.545,2.304-1.891,4.226c-0.366,2.05-0.244,3.51,0.361,4.391
				c0.605,0.876,1.593,1.317,2.957,1.317c0.647,0,1.285-0.096,1.9-0.282c0.627-0.196,1.354-0.515,2.198-0.972l0.318-1.778H504.855
				L504.855,440.371z"/>
			<path fill="#818181" d="M518.225,440.961l5.568-0.346c-0.037,0.897,0.086,1.588,0.367,2.065c0.456,0.765,1.242,1.142,2.352,1.142
				c0.823,0,1.502-0.191,2.018-0.584c0.515-0.393,0.822-0.844,0.913-1.359c0.085-0.488-0.048-0.929-0.403-1.316
				s-1.279-0.749-2.771-1.094c-2.438-0.584-4.109-1.343-5.022-2.304c-0.924-0.956-1.248-2.172-0.982-3.653
				c0.176-0.972,0.616-1.89,1.327-2.75c0.717-0.865,1.678-1.545,2.889-2.038c1.205-0.5,2.792-0.744,4.746-0.744
				c2.395,0,4.141,0.451,5.234,1.349c1.1,0.897,1.593,2.331,1.481,4.29l-5.521,0.324c0.006-0.85-0.191-1.471-0.584-1.858
				c-0.398-0.388-1.003-0.584-1.821-0.584c-0.674,0-1.205,0.148-1.603,0.436c-0.388,0.286-0.622,0.637-0.696,1.051
				c-0.053,0.303,0.043,0.573,0.276,0.817c0.229,0.244,0.834,0.479,1.821,0.69c2.437,0.552,4.151,1.109,5.145,1.672
				c0.987,0.568,1.662,1.264,2.012,2.098c0.351,0.839,0.431,1.768,0.244,2.803c-0.217,1.211-0.743,2.331-1.598,3.355
				c-0.844,1.024-1.911,1.8-3.201,2.331c-1.29,0.525-2.841,0.791-4.656,0.791c-3.19,0-5.288-0.621-6.291-1.858
				C518.452,444.448,518.044,442.872,518.225,440.961z"/>
		</g>
		<g>
			<path fill="#818181" d="M234.126,373.542l4.409-12.298c0,0-17.286-9.513-37.357,0c-20.07,9.513-25.407,39.329-14.154,49.19
				c0,0,11.571,11.435,36.313,1.74l4.524-12.413l-8.469-0.117c0,0-7.425,6.033-14.27,2.32c-6.845-3.712-3.132-14.269-3.132-14.269
				s3.828-16.59,16.358-16.706c0,0,5.569-0.232,8.237,3.248L234.126,373.542z"/>
			<path fill="#818181" d="M277.363,358.237h-22.127l-31.173,57.224h17.331l5.45-11.445h16.786l0.654,11.445h19.62L277.363,358.237z
				 M253.212,391.094l8.705-16.822l0.941,17.057L253.212,391.094z"/>
			<polygon fill="#818181" points="285.053,415.27 298.423,358.013 321.868,358.013 323.709,386.641 339.017,358.013 
				364.012,358.013 351.32,415.27 332.525,415.27 340.179,380.102 321.675,415.27 310.436,415.27 308.208,379.617 300.166,415.27 
							"/>
			<path fill="#818181" d="M394.8,357.808h-26.323l-13.457,57.604h19.477l4.368-19.004c32.934,2.596,33.052-18.415,33.052-18.415
				C414.395,358.044,394.8,357.808,394.8,357.808z M393.544,376.762c0,0-1.51,7.247-6.341,7.548h-5.737l3.321-14.116h4.378
				C389.165,370.195,394.525,370.497,393.544,376.762z"/>
			<path fill="#818181" d="M447.73,385.298c12.709-0.244,12.709-12.832,12.709-12.832c1.223-14.786-19.308-14.786-19.308-14.786
				h-22.975l-13.075,57.558l27.705,0.488c7.786,0,22.176-2.285,24.598-16.375C459.49,387.102,447.73,385.298,447.73,385.298z
				 M438.704,397.142c0,0-0.969,8.46-11.69,6.522l3.165-11.948C430.179,391.716,440.061,390.683,438.704,397.142z M442.32,375.182
				c0,0-0.903,6.717-9.881,5.425l2.39-10.85C434.829,369.757,443.741,369.176,442.32,375.182z"/>
			<polygon fill="#818181" points="455.626,415.676 469.266,357.729 511.344,357.729 508.313,370.566 485.401,370.566 
				483.084,380.284 498.15,380.284 495.654,392.141 480.053,392.141 477.734,402.304 501.092,402.304 497.704,415.676 			"/>
			<polygon fill="#818181" points="533.933,357.816 514.771,357.816 501.435,415.416 541.777,415.416 544.467,402.417 
				523.735,402.417 			"/>
			<polygon fill="#818181" points="576.964,357.816 557.802,357.816 544.467,415.416 584.809,415.416 587.498,402.417 
				566.767,402.417 			"/>
		</g>
	</g>
	<g>
		<path fill="#818181" d="M108.948,391.67l14.969-10.905c0,0-10.31-23.395-42.329-27.559c0,0-24.741-4.425-46.889,17.646
			c0,0-19.331,18.835-4.758,36.679c0,0,15.317,18.879,36.381,21.71l15.762-11.301c0,0-6.741-4.362-9.517-7.038
			c0,0-8.02,0.95-14.473-3.271c0,0-9.417-5.552-4.064-15.762c0,0,7.237-13.779,25.774-17.745c0,0,15.96-2.677,20.421,11.797
			L108.948,391.67z"/>
		<path fill="#818181" d="M80.944,382.027l-14.969,10.904c0,0,10.31,23.395,42.33,27.559c0,0,24.741,4.425,46.889-17.646
			c0,0,19.331-18.835,4.758-36.679c0,0-15.317-18.879-36.381-21.71l-15.762,11.301c0,0,6.741,4.362,9.517,7.038
			c0,0,8.02-0.951,14.473,3.271c0,0,9.417,5.551,4.064,15.762c0,0-7.237,13.779-25.774,17.744c0,0-15.96,2.677-20.421-11.796
			L80.944,382.027z"/>
	</g>
</g>
</svg>
