<?xml version="1.0" encoding="utf-8"?>
<!-- Generator: Adobe Illustrator 16.0.3, SVG Export Plug-In . SVG Version: 6.00 Build 0)  -->
<!DOCTYPE svg PUBLIC "-//W3C//DTD SVG 1.1//EN" "http://www.w3.org/Graphics/SVG/1.1/DTD/svg11.dtd">
<svg version="1.1" id="Layer_1" xmlns="http://www.w3.org/2000/svg" xmlns:xlink="http://www.w3.org/1999/xlink" x="0px" y="0px"
	 width="76px" height="70px" viewBox="41.602 289.888 528.795 210.947"
	 enable-background="new 41.602 289.888 528.795 210.947" xml:space="preserve">
<path fill="#808080" d="M398.358,340.391l16.864-36.379c-12.274-8.884-27.356-14.124-43.663-14.124
	c-20.778,0-39.569,8.506-53.093,22.221l19.16,40.247c4.971-13.941,18.287-23.922,33.933-23.922
	C382.2,328.433,391.764,333.051,398.358,340.391z"/>
<path fill="#808080" d="M494.934,289.888c-24.447,0-46.149,11.771-59.749,29.953c-0.667,0.893-1.313,1.799-1.94,2.722l-0.133-0.196
	c-0.499,0.893-1.004,1.803-1.517,2.729c-1.471,2.362-2.813,4.812-4.017,7.339c-9.02,16.648-15.857,38.023-26.905,53.17
	c-6.563,8.996-17.134,14.865-29.113,14.865c-4.21,0-8.249-0.726-12.004-2.053l19.164,40.254c22.664-2.16,42.37-14.473,54.525-32.334
	c13.418,19.722,36.042,32.679,61.688,32.679c41.173,0,74.563-33.39,74.563-74.564C569.496,323.277,536.106,289.888,494.934,289.888z
	 M494.934,400.469c-19.89,0-36.019-16.13-36.019-36.018c0-19.889,16.129-36.018,36.019-36.018c19.888,0,36.018,16.128,36.018,36.018
	C530.951,384.339,514.821,400.469,494.934,400.469z"/>
<polygon fill="#808080" points="298.016,297.515 249.994,297.515 317.358,439.015 365.38,439.015 "/>
<path fill="#808080" d="M117.067,439.014c30.843,0,57.321-18.741,68.662-45.452l27.87-52.611l46.742,98.063l23.357-45.582
	l-46.527-95.919h-0.564h-43.715h-0.564l-13.2,25.609l-0.053-0.08l-28.605,55.499c-0.739,1.433-1.567,2.834-2.386,4.222
	c-6.269,10.598-17.815,17.708-31.018,17.708c-19.888,0-36.02-16.132-36.02-36.02s16.132-36.019,36.02-36.019
	c10.938,0,20.738,4.88,27.342,12.58l18.303-35.512c-12.612-9.787-28.448-15.613-45.645-15.613
	c-41.172,0-74.563,33.391-74.563,74.563C42.504,405.623,75.895,439.014,117.067,439.014z"/>
<path fill="#808080" d="M570.397,467.099c0,1.872-0.075,4.684-0.226,8.426c-0.159,3.742-0.236,6.563-0.236,8.441v16.206
	c0,0.444-0.242,0.663-0.713,0.663c-0.395,0-0.99,0.017-1.787,0.051c-0.789,0.033-1.385,0.05-1.779,0.05
	c-0.428,0-1.065-0.033-1.912-0.101c-0.857-0.067-1.495-0.101-1.923-0.101c-0.293,0-0.646-0.269-1.058-0.805
	c-1.184-1.596-3.836-5.12-7.965-10.575c-1.133-1.527-2.853-3.767-5.16-6.738c-0.067-0.102-0.193-0.193-0.37-0.295
	c-0.134,0.118-0.201,0.295-0.201,0.538c0,1.905,0.059,4.758,0.16,8.56c0.108,3.801,0.159,6.655,0.159,8.552
	c0,0.579-0.219,0.864-0.663,0.864h-8.502c-0.478,0-0.713-0.251-0.713-0.764c0-1.771,0.084-4.439,0.251-8.016
	c0.177-3.573,0.262-6.252,0.262-8.038c0-1.89-0.076-4.7-0.236-8.459c-0.151-3.753-0.234-6.563-0.234-8.436
	c0-0.36,0.318-0.536,0.965-0.536c0.948,0,2.123-0.067,3.517-0.201c0.328-0.026,0.974-0.135,1.939-0.319
	c0.821-0.143,1.468-0.219,1.938-0.219c0.202,0,0.503,0.277,0.914,0.84l9.173,12.563c0.815,1.124,2.058,2.786,3.711,4.969
	c0.41,0.504,0.763,0.755,1.057,0.755c0.21,0,0.318-0.638,0.318-1.913c0-1.721-0.092-4.313-0.285-7.771
	c-0.185-3.457-0.277-6.059-0.277-7.796c0-0.604,0.168-0.906,0.513-0.906c0.981,0,2.467-0.042,4.456-0.126
	c1.98-0.075,3.466-0.118,4.447-0.118C570.247,466.343,570.397,466.595,570.397,467.099L570.397,467.099z M516.31,501.741
	L516.31,501.741v-9.215l0,0c2.309,0,4.28-0.932,5.899-2.777c1.544-1.771,2.316-3.826,2.316-6.177c0-2.458-0.747-4.548-2.24-6.27
	c-1.561-1.804-3.551-2.702-5.976-2.702l0,0v-9.172l0,0c5.036,0,9.232,1.778,12.589,5.337c3.299,3.509,4.942,7.797,4.942,12.857
	c0,5.119-1.628,9.398-4.892,12.856C525.616,499.987,521.404,501.741,516.31,501.741L516.31,501.741L516.31,501.741z M516.31,465.429
	L516.31,465.429v9.172c-2.309,0-4.271,0.932-5.874,2.804c-1.562,1.804-2.342,3.877-2.342,6.219c0,2.509,0.729,4.598,2.19,6.27
	c1.544,1.753,3.549,2.634,6.025,2.634v9.215c-5.069,0-9.265-1.771-12.614-5.303c-3.281-3.467-4.917-7.73-4.917-12.815
	c0-5.095,1.636-9.384,4.917-12.857C507.045,467.207,511.24,465.429,516.31,465.429L516.31,465.429z M495.11,467.099L495.11,467.099
	c0,1.872-0.075,4.684-0.227,8.426c-0.159,3.742-0.235,6.563-0.235,8.441v16.206c0,0.444-0.242,0.663-0.713,0.663
	c-0.395,0-0.99,0.017-1.787,0.051c-0.789,0.033-1.386,0.05-1.779,0.05c-0.428,0-1.066-0.033-1.913-0.101
	c-0.856-0.067-1.494-0.101-1.923-0.101c-0.292,0-0.646-0.269-1.057-0.805c-1.184-1.596-3.836-5.12-7.964-10.575
	c-1.134-1.527-2.854-3.767-5.161-6.738c-0.068-0.102-0.192-0.193-0.37-0.295c-0.134,0.118-0.202,0.295-0.202,0.538
	c0,1.905,0.061,4.758,0.161,8.56c0.108,3.801,0.158,6.655,0.158,8.552c0,0.579-0.218,0.864-0.662,0.864h-8.502
	c-0.478,0-0.713-0.251-0.713-0.764c0-1.771,0.084-4.439,0.252-8.016c0.176-3.573,0.26-6.252,0.26-8.038
	c0-1.89-0.075-4.7-0.235-8.459c-0.151-3.753-0.234-6.563-0.234-8.436c0-0.36,0.318-0.536,0.965-0.536
	c0.948,0,2.123-0.067,3.517-0.201c0.327-0.026,0.974-0.135,1.939-0.319c0.821-0.143,1.468-0.219,1.938-0.219
	c0.201,0,0.503,0.277,0.915,0.84l9.173,12.563c0.813,1.124,2.057,2.786,3.709,4.969c0.411,0.504,0.764,0.755,1.058,0.755
	c0.21,0,0.318-0.638,0.318-1.913c0-1.721-0.092-4.313-0.285-7.771c-0.185-3.457-0.276-6.059-0.276-7.796
	c0-0.604,0.168-0.906,0.511-0.906c0.982,0,2.468-0.042,4.457-0.126c1.98-0.075,3.466-0.118,4.447-0.118
	C494.96,466.343,495.11,466.595,495.11,467.099L495.11,467.099z M457.639,467.099L457.639,467.099c0,1.872-0.075,4.684-0.227,8.426
	c-0.159,3.742-0.234,6.563-0.234,8.441v16.206c0,0.444-0.244,0.663-0.715,0.663c-0.395,0-0.99,0.017-1.786,0.051
	c-0.789,0.033-1.386,0.05-1.78,0.05c-0.427,0-1.065-0.033-1.913-0.101c-0.855-0.067-1.493-0.101-1.921-0.101
	c-0.294,0-0.646-0.269-1.058-0.805c-1.185-1.596-3.836-5.12-7.966-10.575c-1.132-1.527-2.853-3.767-5.16-6.738
	c-0.066-0.102-0.192-0.193-0.369-0.295c-0.135,0.118-0.201,0.295-0.201,0.538c0,1.905,0.059,4.758,0.159,8.56
	c0.109,3.801,0.16,6.655,0.16,8.552c0,0.579-0.219,0.864-0.664,0.864h-8.501c-0.479,0-0.714-0.251-0.714-0.764
	c0-1.771,0.085-4.439,0.253-8.016c0.176-3.573,0.26-6.252,0.26-8.038c0-1.89-0.075-4.7-0.235-8.459
	c-0.151-3.753-0.234-6.563-0.234-8.436c0-0.36,0.318-0.536,0.965-0.536c0.948,0,2.124-0.067,3.516-0.201
	c0.328-0.026,0.974-0.135,1.939-0.319c0.822-0.143,1.469-0.219,1.938-0.219c0.201,0,0.504,0.277,0.914,0.84l9.173,12.563
	c0.814,1.124,2.057,2.786,3.71,4.969c0.411,0.504,0.763,0.755,1.058,0.755c0.21,0,0.317-0.638,0.317-1.913
	c0-1.721-0.091-4.313-0.284-7.771c-0.185-3.457-0.277-6.059-0.277-7.796c0-0.604,0.168-0.906,0.512-0.906
	c0.982,0,2.468-0.042,4.457-0.126c1.979-0.075,3.466-0.118,4.448-0.118C457.488,466.343,457.639,466.595,457.639,467.099
	L457.639,467.099z M419.73,482.666L419.73,482.666c0,1.931,0.051,4.842,0.152,8.728c0.092,3.887,0.142,6.799,0.142,8.729
	c0,0.327-0.075,0.537-0.219,0.612c-0.032,0.017-0.251,0.051-0.637,0.101c-1.066,0.135-2.492,0.192-4.28,0.192
	c-2.393,0-3.919-0.058-4.574-0.192c-0.478-0.101-0.714-0.353-0.714-0.764c0,0.26,0.077-1.175,0.219-4.322
	c0.294-6.638,0.444-11.002,0.444-13.083c0-1.754-0.058-4.39-0.168-7.889c-0.117-3.508-0.175-6.144-0.175-7.896
	c0-0.361,0.192-0.538,0.562-0.538c0.513,0,1.276,0.026,2.299,0.067c1.024,0.051,1.796,0.076,2.3,0.076
	c0.513,0,1.259-0.025,2.25-0.076c0.999-0.041,1.745-0.067,2.248-0.067c0.479,0,0.714,0.177,0.714,0.538
	c0,1.753-0.093,4.389-0.276,7.896C419.823,478.276,419.73,480.912,419.73,482.666L419.73,482.666z M406.925,499.458L406.925,499.458
	c0,0.706-0.303,1.168-0.907,1.377c-0.494,0.168-1.787,0.243-3.885,0.243c-2.022,0-3.491-0.075-4.432-0.243
	c-0.437-0.084-0.729-0.167-0.873-0.26c-0.135-0.093-0.31-0.319-0.529-0.696c-1.19-2.199-2.383-4.397-3.558-6.588
	c-1.954-3.542-3.121-5.497-3.491-5.858c-1.771,0.638-2.66,1.1-2.66,1.376c0,1.233,0.05,3.089,0.151,5.572
	c0.092,2.484,0.143,4.348,0.143,5.59c0,0.512-0.219,0.797-0.663,0.864c-0.847,0.135-2.392,0.192-4.624,0.192
	c-2.123,0-3.533-0.058-4.222-0.192c-0.478-0.102-0.713-0.353-0.713-0.764c0-1.771,0.084-4.439,0.251-8.016
	c0.177-3.573,0.261-6.252,0.261-8.038c0-1.897-0.084-4.759-0.243-8.568c-0.168-3.812-0.252-6.664-0.252-8.569
	c0-0.36,0.176-0.537,0.521-0.537c0.511,0,1.274,0.025,2.299,0.067c1.023,0.051,1.787,0.076,2.299,0.076
	c0.521,0,1.301-0.025,2.334-0.076c1.031-0.042,1.804-0.067,2.316-0.067c0.276,0,0.41,0.144,0.41,0.437
	c0,1.217-0.059,3.047-0.185,5.497c-0.118,2.451-0.185,4.279-0.185,5.498c0,1.408,0.386,2.114,1.158,2.114
	c1.955,0,3.466-0.538,4.549-1.604c0.806-0.781,1.61-2.215,2.434-4.297c0.528-1.595,1.385-3.937,2.585-7.033
	c0.176-0.41,0.545-0.612,1.107-0.612c0.42,0,1.065,0.025,1.93,0.067c0.857,0.051,1.503,0.076,1.931,0.076
	c0.437,0,1.1-0.017,1.973-0.051c0.881-0.033,1.536-0.05,1.955-0.05c0.395,0,0.595,0.192,0.595,0.57c0,0.536-0.343,1.863-1.031,3.961
	c-2.039,6.193-4.373,10.063-7.008,11.598c-0.546,0.311-0.813,0.571-0.813,0.764c0-0.016,1.511,2.442,4.531,7.377
	C405.415,495.591,406.925,498.527,406.925,499.458L406.925,499.458z M371.811,484.655L371.811,484.655
	c-0.008,0-0.512-0.127-1.484-0.395c-0.974-0.261-1.763-0.387-2.367-0.387c-1.46,0-2.626,0.438-3.491,1.311
	c-0.872,0.881-1.31,2.046-1.31,3.507c0,1.503,0.479,2.694,1.427,3.55c0.949,0.864,2.191,1.293,3.718,1.293
	c0.714,0,1.528-0.186,2.435-0.554c0.897-0.369,1.326-0.555,1.275-0.555c0.276,0,0.639,1.041,1.082,3.122
	c0.378,1.905,0.563,3.164,0.563,3.785s-1.017,1.158-3.047,1.603c-1.578,0.345-2.845,0.513-3.811,0.513
	c-3.608,0-6.578-1.209-8.929-3.633c-2.342-2.427-3.517-5.457-3.517-9.073c0-3.593,1.184-6.614,3.533-9.063
	c2.35-2.452,5.319-3.677,8.912-3.677c2.443,0,4.592,0.528,6.437,1.577c0.429,0.228,0.647,0.445,0.647,0.663
	c0,0.211-0.253,1.175-0.738,2.896c-0.462,1.661-0.765,2.66-0.898,3.004C372.105,484.487,371.963,484.655,371.811,484.655
	L371.811,484.655z M351.142,500.071L351.142,500.071c0,0.513-0.244,0.764-0.714,0.764h-8.702c-0.478,0-0.714-0.285-0.714-0.864
	c0-1.653,0.059-4.138,0.185-7.444c0.119-3.314,0.186-5.798,0.186-7.451c0-0.479-0.076-0.73-0.228-0.764
	c-0.176,0.101-1.275,2.634-3.289,7.603c-1.184,2.912-2.367,5.824-3.542,8.729c-0.168,0.368-0.369,0.596-0.612,0.663
	c-0.085,0.016-0.411,0.024-0.99,0.024c-0.848,0-1.359-0.167-1.519-0.495c-0.89-1.804-2.048-4.423-3.491-7.872
	c-1.545-3.634-2.703-6.269-3.467-7.888c-0.034-0.084-0.109-0.168-0.227-0.269c-0.107,0.142-0.168,0.385-0.168,0.713
	c0,1.604,0.043,4.011,0.118,7.226c0.083,3.215,0.125,5.623,0.125,7.226c0,0.578-0.226,0.864-0.688,0.864h-8.207
	c-0.337,0-0.529-0.05-0.605-0.159c-0.075-0.109-0.108-0.294-0.108-0.554c0-1.788,0.083-4.474,0.251-8.049
	c0.177-3.583,0.261-6.27,0.261-8.056c0-1.897-0.084-5.463-0.243-10.692c-0.018-1.359-0.093-3.39-0.227-6.075l-0.024-0.421
	c-0.009-0.326,0.335-0.486,1.039-0.486c0.898,0,2.25-0.034,4.054-0.093c1.804-0.05,3.155-0.083,4.054-0.083
	c0.185,0,0.437,0.344,0.764,1.032l7.184,15.761c0.504,1.065,0.933,1.603,1.275,1.603c0.177,0,0.563-0.621,1.158-1.847
	c1.654-3.44,4.104-8.635,7.353-15.566c0.276-0.639,0.579-0.957,0.906-0.957c0.479,0,1.191,0.024,2.147,0.075
	c0.966,0.05,1.688,0.075,2.183,0.075c0.403,0,1.032-0.042,1.88-0.126c0.84-0.084,1.469-0.125,1.88-0.125
	c0.486,0,0.738,0.2,0.738,0.596c0,1.931-0.075,4.817-0.21,8.66c-0.142,3.844-0.209,6.739-0.209,8.67
	c0,1.786,0.075,4.465,0.218,8.038C351.066,495.632,351.142,498.3,351.142,500.071L351.142,500.071z"/>
<path fill="#808080" d="M103.094,470.767c-3.359-3.561-7.554-5.339-12.588-5.339c-5.072,0-9.267,1.778-12.615,5.339
	c-3.282,3.472-4.917,7.764-4.917,12.854c0,5.088,1.636,9.353,4.917,12.816c3.348,3.533,7.542,5.305,12.615,5.305
	c5.091,0,9.306-1.756,12.638-5.262c3.264-3.457,4.891-7.736,4.891-12.859C108.035,478.561,106.392,474.273,103.094,470.767z
	 M96.406,489.748c-1.62,1.849-3.591,2.78-5.899,2.78c-2.478,0-4.484-0.881-6.026-2.637c-1.462-1.67-2.192-3.758-2.192-6.271
	c0-2.338,0.781-4.41,2.343-6.216c1.604-1.871,3.568-2.803,5.876-2.803c2.424,0,4.411,0.897,5.973,2.703
	c1.492,1.72,2.243,3.811,2.243,6.267C98.722,485.921,97.949,487.978,96.406,489.748z"/>
<path fill="#808080" d="M67.299,489.203c-0.167-0.174-0.325-0.267-0.495-0.267c-0.081,0-0.487,0.31-1.199,0.928
	c-0.874,0.738-1.728,1.318-2.559,1.725c-1.284,0.626-2.637,0.939-4.063,0.939c-2.409,0-4.331-0.924-5.772-2.752
	c-1.326-1.698-1.991-3.79-1.991-6.271c0-2.458,0.665-4.53,1.991-6.2c1.442-1.806,3.364-2.703,5.772-2.703
	c1.391,0,2.744,0.329,4.036,0.982c0.846,0.444,1.719,1.056,2.601,1.844c0.738,0.657,1.152,0.981,1.233,0.981
	c0.193,0,0.364-0.064,0.495-0.189c0.293-0.255,1.009-1.368,2.149-3.375c1.141-1.998,1.706-3.154,1.706-3.468
	c0-0.273-0.159-0.595-0.487-0.954c-3.016-3.268-7.183-4.895-12.487-4.895c-4.887,0-8.915,1.821-12.077,5.454
	c-3.031,3.477-4.55,7.705-4.55,12.688c0,5.146,1.554,9.41,4.65,12.793c3.182,3.49,7.326,5.234,12.437,5.234
	c5.003,0,9.012-1.794,12.027-5.386c0.344-0.429,0.51-0.772,0.51-1.032c0-0.185-0.596-1.187-1.786-3.007
	C68.273,490.521,67.562,489.497,67.299,489.203z"/>
<path fill="#808080" d="M129.143,492.853c-2.938,0.163-5.153,0.236-6.623,0.236c-0.41,0-0.63,0-0.646,0
	c-0.224-0.051-0.351-0.166-0.367-0.371c-0.012-0.189-0.027-0.395-0.042-0.584c-0.019-0.967-0.027-2.501-0.027-4.601l0.027-6.486
	c0.243-6.187,0.46-10.811,0.661-13.898l0.027-0.317c0.016-0.313-0.101-0.464-0.344-0.464c-0.545,0-1.353,0.027-2.408,0.085
	c-1.068,0.058-1.872,0.086-2.421,0.086c-0.467,0-1.199-0.028-2.172-0.078c-0.974-0.05-1.701-0.073-2.2-0.073
	c-0.495,0-0.739,0.186-0.739,0.545c0,1.902,0.062,4.751,0.178,8.544c0.108,3.792,0.17,6.646,0.17,8.539
	c0,1.791-0.027,4.466-0.085,8.034c-0.058,3.557-0.085,6.235-0.085,8.022c0,0.429,0.236,0.681,0.715,0.765
	c1.376,0.082,2.432,0.116,3.162,0.101l7.354,0.089c0.719,0.02,2.56,0.063,5.513,0.128c2.258,0.069,4.094,0.101,5.505,0.101
	c0.587,0,0.924-0.016,1.005-0.051c0.263-0.081,0.437-0.336,0.522-0.762c0.402-2.033,0.611-4.449,0.611-7.252
	c0-0.375-0.225-0.568-0.661-0.568C134.296,492.621,132.089,492.702,129.143,492.853z"/>
<path fill="#808080" d="M296.072,484.143c-0.101-0.135-1.191-1.512-3.274-4.128c-1.183-1.463-1.771-2.695-1.771-3.692
	c0-1.118,0.53-1.983,1.597-2.603c0.889-0.545,1.921-0.815,3.104-0.815c0.158,0,0.394,0.027,0.711,0.077
	c0.313,0.051,0.53,0.066,0.666,0.066c0.293,0,0.437-0.132,0.437-0.41c0-0.065-0.027-0.151-0.065-0.251
	c-1.562-3.132-2.552-5.297-2.981-6.487c-0.151-0.395-0.344-0.588-0.587-0.588c-0.101,0-0.244,0.008-0.422,0.023
	c-3.297,0.487-6.073,1.555-8.331,3.189c-2.772,1.991-4.156,4.48-4.156,7.477c0,2.064,0.564,3.955,1.697,5.656
	c0.159,0.244,1.21,1.488,3.147,3.711c1.118,1.311,1.67,2.502,1.67,3.568c0,1.667-0.857,2.935-2.559,3.781
	c-0.766,0.379-2.343,0.843-4.716,1.376c-0.244,0.055-0.372,0.171-0.372,0.344c0,0.515,0.649,1.919,1.941,4.226
	c1.299,2.297,2.13,3.449,2.508,3.449c0.085,0,0.194-0.012,0.318-0.027c3.525-0.568,6.521-1.902,8.98-4.002
	c2.803-2.377,4.206-5.23,4.206-8.559C297.819,487.734,297.228,485.948,296.072,484.143z"/>
<path fill="#808080" d="M271.534,466.46c-1.948,0.085-3.409,0.127-4.384,0.127c-0.397,0-0.61,0.252-0.61,0.762
	c0,2.378,0.059,5.942,0.178,10.693c0.108,4.759,0.166,8.315,0.166,10.701c0,3.256-1.678,4.891-5.033,4.891
	c-2.3,0-3.805-0.618-4.527-1.844c-0.546-0.909-0.812-2.645-0.812-5.211c0-2.166,0.065-5.409,0.208-9.728
	c0.135-4.322,0.213-7.562,0.213-9.727c0-0.364-0.213-0.538-0.623-0.538c-0.998,0-2.509-0.042-4.531-0.127
	c-2.022-0.073-3.534-0.116-4.542-0.116c-0.344,0-0.51,0.194-0.51,0.588c0,1.886,0.092,4.724,0.267,8.532
	c0.186,3.804,0.271,6.657,0.271,8.551c0,0.658-0.027,1.647-0.07,2.981c-0.05,1.326-0.073,2.323-0.073,2.996
	c0,2.903,0.208,4.917,0.638,6.05c0.858,2.309,2.703,3.878,5.556,4.694c1.786,0.51,4.338,0.761,7.647,0.761
	c7.326,0,11.907-1.392,13.744-4.179c1.001-1.527,1.503-4.373,1.503-8.552c0-0.529-0.007-1.318-0.027-2.374
	c-0.016-1.059-0.023-1.848-0.023-2.378c0-1.894,0.073-4.747,0.235-8.551c0.151-3.809,0.224-6.646,0.224-8.532
	c0-0.394-0.235-0.588-0.711-0.588C274.94,466.344,273.479,466.387,271.534,466.46z"/>
<path fill="#808080" d="M209.652,484.015c0-1.929,0.065-4.824,0.209-8.667c0.131-3.843,0.208-6.731,0.208-8.659
	c0-0.395-0.251-0.596-0.738-0.596c-0.414,0-1.04,0.038-1.879,0.124c-0.851,0.084-1.477,0.127-1.882,0.127
	c-0.495,0-1.214-0.026-2.181-0.077c-0.955-0.05-1.67-0.073-2.149-0.073c-0.325,0-0.626,0.316-0.905,0.955
	c-3.248,6.931-5.699,12.127-7.353,15.568c-0.596,1.225-0.981,1.848-1.156,1.848c-0.344,0-0.773-0.537-1.276-1.604l-7.183-15.762
	c-0.329-0.688-0.58-1.032-0.766-1.032c-0.896,0-2.25,0.035-4.055,0.085c-1.801,0.058-3.155,0.093-4.052,0.093
	c-0.704,0-1.047,0.159-1.04,0.487l0.023,0.418c0.135,2.687,0.213,4.717,0.228,6.076c0.159,5.227,0.244,8.796,0.244,10.689
	c0,1.79-0.085,4.473-0.259,8.058c-0.17,3.575-0.255,6.263-0.255,8.048c0,0.264,0.035,0.445,0.108,0.558
	c0.077,0.107,0.271,0.158,0.607,0.158h8.208c0.46,0,0.688-0.286,0.688-0.866c0-1.6-0.042-4.009-0.127-7.226
	c-0.074-3.212-0.116-5.62-0.116-7.225c0-0.329,0.058-0.573,0.166-0.712c0.121,0.101,0.193,0.182,0.229,0.267
	c0.765,1.62,1.922,4.257,3.467,7.891c1.442,3.448,2.602,6.066,3.492,7.871c0.159,0.324,0.668,0.494,1.515,0.494
	c0.58,0,0.909-0.007,0.994-0.026c0.239-0.065,0.444-0.294,0.611-0.661c1.175-2.903,2.358-5.818,3.541-8.729
	c2.014-4.968,3.116-7.5,3.291-7.601c0.15,0.031,0.228,0.283,0.228,0.762c0,1.655-0.069,4.137-0.186,7.454
	c-0.127,3.306-0.186,5.787-0.186,7.441c0,0.58,0.236,0.866,0.715,0.866h8.703c0.472,0,0.711-0.251,0.711-0.765
	c0-1.771-0.073-4.438-0.223-8.015C209.725,488.48,209.652,485.806,209.652,484.015z"/>
<path fill="#808080" d="M242.841,486.134c-0.657-1.427-1.562-2.471-2.702-3.124c-0.43-0.243-0.638-0.43-0.638-0.537
	c0,0.043,0.302-0.267,0.904-0.939c0.688-0.773,1.246-1.534,1.67-2.308c0.588-1.083,0.89-2.107,0.89-3.073
	c0-3.708-1.275-6.337-3.808-7.895c-1.921-1.168-4.895-1.821-8.93-1.964c-0.213-0.008-0.557-0.016-1.033-0.024
	c-1.469-0.019-4.187-0.026-8.142-0.026c-3.256,0-5.149,0.035-5.687,0.101c-0.53,0.059-0.789,0.251-0.774,0.561l0.023,0.345
	c0.128,2.687,0.221,4.708,0.271,6.05c0.194,5.246,0.294,8.822,0.294,10.716c0,1.771-0.1,4.436-0.309,7.992
	c-0.201,3.56-0.306,6.208-0.306,7.963c0,0.414,0.236,0.673,0.715,0.767c1.153,0.251,4.74,0.366,10.794,0.366
	c0.375,0,0.956,0,1.744,0c0.553,0.012,1.009,0.023,1.376,0.023l0.395,0.004c5.389,0,9.166-1.145,11.312-3.417
	c1.882-1.98,2.822-4.481,2.822-7.504C243.723,488.767,243.429,487.405,242.841,486.134z M224.412,475.004
	c0.058-0.631,0.082-1.099,0.082-1.411c0-0.26,0.889-0.395,2.66-0.395c0.773,0,1.457,0.023,2.041,0.069
	c0.781,0.062,1.396,0.163,1.848,0.302c1.407,0.46,2.115,1.392,2.115,2.803c0,1.744-1.322,2.733-3.963,2.966
	c-0.41,0.038-0.85,0.054-1.326,0.054c-1.906,0-2.946-0.065-3.12-0.216c-0.278-0.201-0.421-1.118-0.421-2.753
	C224.327,476.113,224.354,475.642,224.412,475.004z M232.098,492.965c-0.604,0.235-1.569,0.371-2.904,0.406
	c-0.263,0.008-0.545,0.011-0.838,0.011c-2.142,0-3.325-0.1-3.542-0.301c-0.208-0.209-0.32-1.275-0.32-3.217
	c0-1.844,0.093-2.853,0.278-3.012c0.178-0.15,1.326-0.225,3.441-0.225c0.344,0,0.672,0.008,0.981,0.02
	c1.268,0.051,2.219,0.201,2.854,0.469c1.225,0.525,1.848,1.526,1.848,3.004C233.896,491.546,233.292,492.493,232.098,492.965z"/>
<path fill="#808080" d="M163.921,466.46c-1.948,0.085-3.409,0.127-4.38,0.127c-0.406,0-0.615,0.252-0.615,0.762
	c0,2.378,0.058,5.942,0.178,10.693c0.108,4.759,0.166,8.315,0.166,10.701c0,3.256-1.678,4.891-5.033,4.891
	c-2.3,0-3.804-0.618-4.523-1.844c-0.549-0.909-0.815-2.645-0.815-5.211c0-2.166,0.065-5.409,0.208-9.728
	c0.135-4.322,0.212-7.562,0.212-9.727c0-0.364-0.212-0.538-0.622-0.538c-0.998,0-2.509-0.042-4.531-0.127
	c-2.022-0.073-3.534-0.116-4.542-0.116c-0.344,0-0.51,0.194-0.51,0.588c0,1.886,0.092,4.724,0.267,8.532
	c0.186,3.804,0.271,6.657,0.271,8.551c0,0.658-0.027,1.647-0.07,2.981c-0.051,1.326-0.074,2.323-0.074,2.996
	c0,2.903,0.208,4.917,0.638,6.05c0.854,2.309,2.702,3.878,5.555,4.694c1.786,0.51,4.338,0.761,7.647,0.761
	c7.326,0,11.907-1.392,13.744-4.179c1.001-1.527,1.504-4.373,1.504-8.552c0-0.529-0.008-1.318-0.027-2.374
	c-0.016-1.059-0.023-1.848-0.023-2.378c0-1.894,0.074-4.747,0.236-8.551c0.151-3.809,0.224-6.646,0.224-8.532
	c0-0.394-0.235-0.588-0.711-0.588C167.327,466.344,165.866,466.387,163.921,466.46z"/>
</svg>
