<?xml version="1.0" encoding="utf-8"?>
<!-- Generator: Adobe Illustrator 16.0.3, SVG Export Plug-In . SVG Version: 6.00 Build 0)  -->
<!DOCTYPE svg PUBLIC "-//W3C//DTD SVG 1.1//EN" "http://www.w3.org/Graphics/SVG/1.1/DTD/svg11.dtd">
<svg version="1.1" id="Layer_1" xmlns="http://www.w3.org/2000/svg" xmlns:xlink="http://www.w3.org/1999/xlink" x="0px" y="0px"
	 width="576.652px" height="329.072px" viewBox="0 0 576.652 329.072" enable-background="new 0 0 576.652 329.072"
	 xml:space="preserve">
<g id="BG__x2B__Footer__x2B__Supplies__x2B__Pre-Footer__x2B__Body_xA0_Image_1_">
	<g>
		<g>
			<path fill="#202020" d="M134.425,323.677c0,0-122.882-68.022-82.652-234.791c0,0-55.483,145.157,79.043,239.856
				C130.814,328.743,137.149,331.003,134.425,323.677z"/>
			<path fill="#202020" d="M116.65,248.236c0,0-29.034,30.858-4.382,52.406C112.267,300.643,134.727,283.113,116.65,248.236z"/>
			<path fill="#202020" d="M102.342,312.164c0,0-16.32-18.497-60.683-11.521C41.659,300.643,80.576,336.401,102.342,312.164z"/>
			<path fill="#202020" d="M99.262,222.917c0,0-32.775,29.576-11.491,49.562C87.771,272.477,107.256,260.886,99.262,222.917z"/>
			<path fill="#202020" d="M74.166,281.161c0,0-16.87-23.861-54.561-23.101C19.604,258.06,49.849,301.222,74.166,281.161z"/>
			<path fill="#202020" d="M86.627,194.533c0,0-31.46,17.629-19.605,43.77C67.022,238.302,84.956,234.655,86.627,194.533z"/>
			<path fill="#202020" d="M52.889,245.902c0,0-8.663-23.559-47.265-32.068C5.623,213.834,24.62,258.971,52.889,245.902z"/>
			<path fill="#202020" d="M80.584,162.161c0,0-34.535,17.173-26.328,40.274C54.257,202.435,71.046,203.803,80.584,162.161z"/>
			<path fill="#202020" d="M40.436,207.907c0,0-4.113-27.355-40.436-41.187C0,166.721,5.642,210.339,40.436,207.907z"/>
			<path fill="#202020" d="M80.584,131.918c0,0-32.46,4.94-32.863,33.436C47.722,165.352,64.511,168.544,80.584,131.918z"/>
			<path fill="#202020" d="M34.042,166.721c0,0,0.608-26.597-29.332-47.417C4.71,119.304,1.368,158.666,34.042,166.721z"/>
			<path fill="#202020" d="M87.771,99.546c0,0-35.946,1.672-38.377,29.028C49.393,128.574,67.637,132.373,87.771,99.546z"/>
			<path fill="#202020" d="M34.043,126.599c0,0,9.726-23.253-15.655-50.457C18.389,76.141,7.375,112.875,34.043,126.599z"/>
			<path fill="#202020" d="M98.481,69.759c0,0-34.347-1.977-40.122,22.036C58.36,91.795,77.509,99.091,98.481,69.759z"/>
			<path fill="#202020" d="M39.819,36.019c0,0-19.454,36.019,4.103,50.152C43.922,86.172,58.816,72.646,39.819,36.019z"/>
			<path fill="#202020" d="M117.328,42.402c0,0-33.077-8.572-43.466,15.35C73.862,57.752,93.011,68.998,117.328,42.402z"/>
			<path fill="#202020" d="M68.582,0c0,0-22.988,27.009-6.574,50.512C62.008,50.511,80.78,39.21,68.582,0z"/>
			<path fill="#202020" d="M115.504,0c0,0-30.737,6.397-34.195,32.828C81.309,32.828,101.218,37.844,115.504,0z"/>
		</g>
		<g>
			<path fill="#202020" d="M442.227,323.677c0,0,122.883-68.022,82.652-234.791c0,0,55.482,145.157-79.043,239.856
				C445.836,328.743,439.502,331.003,442.227,323.677z"/>
			<path fill="#202020" d="M460.002,248.236c0,0,29.033,30.858,4.383,52.406C464.385,300.643,441.924,283.113,460.002,248.236z"/>
			<path fill="#202020" d="M474.309,312.164c0,0,16.32-18.497,60.684-11.521C534.992,300.643,496.076,336.401,474.309,312.164z"/>
			<path fill="#202020" d="M477.391,222.917c0,0,32.773,29.576,11.49,49.562C488.881,272.477,469.396,260.886,477.391,222.917z"/>
			<path fill="#202020" d="M502.486,281.161c0,0,16.869-23.861,54.561-23.101C557.047,258.06,526.803,301.222,502.486,281.161z"/>
			<path fill="#202020" d="M490.023,194.533c0,0,31.459,17.629,19.604,43.77C509.629,238.302,491.695,234.655,490.023,194.533z"/>
			<path fill="#202020" d="M523.764,245.902c0,0,8.662-23.559,47.266-32.068C571.029,213.834,552.031,258.971,523.764,245.902z"/>
			<path fill="#202020" d="M496.066,162.161c0,0,34.535,17.173,26.328,40.274C522.395,202.435,505.605,203.803,496.066,162.161z"/>
			<path fill="#202020" d="M536.215,207.907c0,0,4.113-27.355,40.438-41.187C576.652,166.721,571.01,210.339,536.215,207.907z"/>
			<path fill="#202020" d="M496.066,131.918c0,0,32.461,4.94,32.863,33.436C528.93,165.352,512.141,168.544,496.066,131.918z"/>
			<path fill="#202020" d="M542.607,166.721c0,0-0.607-26.597,29.332-47.417C571.939,119.304,575.283,158.666,542.607,166.721z"/>
			<path fill="#202020" d="M488.881,99.546c0,0,35.945,1.672,38.377,29.028C527.258,128.574,509.016,132.373,488.881,99.546z"/>
			<path fill="#202020" d="M542.607,126.599c0,0-9.727-23.253,15.654-50.457C558.264,76.141,569.277,112.875,542.607,126.599z"/>
			<path fill="#202020" d="M478.17,69.759c0,0,34.348-1.977,40.121,22.036C518.291,91.795,499.143,99.091,478.17,69.759z"/>
			<path fill="#202020" d="M536.834,36.019c0,0,19.453,36.019-4.104,50.152C532.73,86.172,517.836,72.646,536.834,36.019z"/>
			<path fill="#202020" d="M459.324,42.402c0,0,33.076-8.572,43.465,15.35C502.789,57.752,483.641,68.998,459.324,42.402z"/>
			<path fill="#202020" d="M508.07,0c0,0,22.988,27.009,6.574,50.512C514.645,50.511,495.871,39.21,508.07,0z"/>
			<path fill="#202020" d="M461.148,0c0,0,30.734,6.397,34.193,32.828C495.344,32.828,475.434,37.844,461.148,0z"/>
		</g>
		<g enable-background="new    ">
			<path fill="#202020" d="M208.027,76.515h-16.203l-5.173,10.078h-7.908l23.368-43.287h6.6l8.384,43.287h-7.373L208.027,76.515z
				 M194.916,70.45h12.13l-2.943-17.897L194.916,70.45z"/>
			<path fill="#202020" d="M229.046,86.594H222l7.938-45.666h7.046L229.046,86.594z"/>
			<path fill="#202020" d="M256.042,86.594c-0.238-0.793-0.337-1.794-0.297-3.003c-2.656,2.478-5.52,3.677-8.592,3.598
				c-2.795-0.04-5.109-0.937-6.942-2.69c-1.833-1.754-2.69-3.979-2.571-6.675c0.158-3.39,1.625-6.055,4.4-7.997
				c2.774-1.942,6.5-2.914,11.179-2.914l4.578,0.06l0.417-2.2c0.119-0.772,0.119-1.496,0-2.17c-0.397-2.141-1.813-3.241-4.251-3.3
				c-1.506-0.04-2.83,0.342-3.969,1.145s-1.838,1.878-2.096,3.226l-7.046,0.06c0.139-1.982,0.842-3.722,2.111-5.218
				s2.953-2.661,5.054-3.493c2.101-0.833,4.321-1.229,6.66-1.189c3.508,0.079,6.244,1.135,8.206,3.166
				c1.962,2.032,2.775,4.663,2.438,7.894l-2.468,15.073l-0.238,2.676c-0.06,1.17,0.089,2.31,0.446,3.419l-0.029,0.535H256.042z
				 M248.787,81.421c1.487,0.04,2.864-0.302,4.133-1.026c1.268-0.723,2.349-1.659,3.241-2.809l1.1-6.095l-3.359-0.03
				c-2.656,0-4.777,0.501-6.362,1.501c-1.586,1.002-2.487,2.374-2.706,4.118c-0.159,1.328,0.134,2.374,0.877,3.137
				C246.454,80.979,247.479,81.381,248.787,81.421z"/>
			<path fill="#202020" d="M288.418,77.675c0.336-1.962-0.937-3.325-3.821-4.088c-2.884-0.763-4.851-1.372-5.901-1.828
				c-4.083-1.744-6.055-4.4-5.916-7.968c0.099-2.894,1.412-5.287,3.939-7.181c2.527-1.893,5.555-2.819,9.083-2.779
				c3.41,0.04,6.189,1.001,8.339,2.884s3.206,4.351,3.166,7.402l-6.986-0.029c0.039-1.486-0.367-2.65-1.219-3.493
				c-0.853-0.843-2.021-1.283-3.508-1.323c-1.566,0-2.909,0.387-4.028,1.159c-1.12,0.773-1.769,1.784-1.947,3.033
				c-0.278,1.804,0.991,3.058,3.805,3.761s4.896,1.353,6.243,1.947c3.925,1.725,5.817,4.42,5.679,8.087
				c-0.099,2.041-0.769,3.82-2.007,5.336c-1.238,1.517-2.898,2.676-4.979,3.479s-4.292,1.175-6.63,1.115
				c-3.508-0.04-6.417-1.061-8.726-3.063s-3.444-4.568-3.404-7.7l6.808,0.03c0.04,1.724,0.555,3.032,1.546,3.924
				c0.991,0.893,2.349,1.349,4.073,1.368c1.744,0,3.196-0.361,4.355-1.086C287.541,79.939,288.219,78.943,288.418,77.675z"/>
			<path fill="#202020" d="M312.768,72.858l-3.984,3.538l-1.754,10.197h-7.047l7.908-45.666h7.047l-4.52,25.925l2.468-2.557
				l10.228-9.87h9.008l-14.27,13.735l9.395,18.433h-7.641L312.768,72.858z"/>
			<path fill="#202020" d="M350.197,86.594c-0.237-0.793-0.337-1.794-0.297-3.003c-2.656,2.478-5.52,3.677-8.592,3.598
				c-2.795-0.04-5.109-0.937-6.942-2.69s-2.69-3.979-2.571-6.675c0.158-3.39,1.625-6.055,4.4-7.997
				c2.773-1.942,6.5-2.914,11.178-2.914l4.578,0.06l0.417-2.2c0.118-0.772,0.118-1.496,0-2.17c-0.397-2.141-1.813-3.241-4.251-3.3
				c-1.507-0.04-2.83,0.342-3.97,1.145s-1.839,1.878-2.096,3.226l-7.046,0.06c0.139-1.982,0.842-3.722,2.11-5.218
				s2.953-2.661,5.054-3.493c2.102-0.833,4.321-1.229,6.66-1.189c3.508,0.079,6.244,1.135,8.205,3.166
				c1.963,2.032,2.775,4.663,2.438,7.894l-2.468,15.073l-0.238,2.676c-0.059,1.17,0.09,2.31,0.446,3.419l-0.029,0.535H350.197z
				 M342.943,81.421c1.486,0.04,2.864-0.302,4.133-1.026c1.268-0.723,2.349-1.659,3.24-2.809l1.1-6.095l-3.359-0.03
				c-2.656,0-4.776,0.501-6.361,1.501c-1.586,1.002-2.488,2.374-2.706,4.118c-0.159,1.328,0.134,2.374,0.878,3.137
				C340.609,80.979,341.635,81.381,342.943,81.421z"/>
			<path fill="#202020" d="M375.438,54.395l-0.714,3.776c2.756-2.974,5.937-4.42,9.544-4.341c3.013,0.06,5.242,1.135,6.689,3.226
				c1.446,2.092,1.981,5.01,1.605,8.756l-3.479,20.781h-7.046l3.508-20.871c0.1-0.852,0.109-1.645,0.029-2.378
				c-0.258-2.358-1.664-3.567-4.221-3.627c-2.676-0.04-5.025,1.278-7.047,3.954l-4.014,22.922h-7.045l5.559-32.168L375.438,54.395z"
				/>
		</g>
		<g enable-background="new    ">
			<path fill="#202020" d="M126.452,103.564l6.333,33.119l17.809-33.119h9.632l-7.492,43.287h-7.314l2.527-14.657l3.835-18.046
				l-17.838,32.703h-5.292l-6.63-33.685l-2.706,19.801l-2.408,13.884h-7.313l7.521-43.287H126.452z"/>
			<path fill="#202020" d="M180.026,146.851c-0.238-0.793-0.337-1.794-0.297-3.003c-2.656,2.478-5.52,3.677-8.592,3.598
				c-2.795-0.04-5.109-0.937-6.942-2.69c-1.833-1.754-2.69-3.979-2.571-6.675c0.158-3.39,1.625-6.055,4.4-7.997
				c2.774-1.942,6.5-2.914,11.179-2.914l4.578,0.06l0.417-2.2c0.119-0.772,0.119-1.496,0-2.17c-0.397-2.141-1.813-3.241-4.251-3.3
				c-1.506-0.04-2.83,0.342-3.969,1.145s-1.838,1.878-2.096,3.226l-7.046,0.06c0.139-1.982,0.842-3.722,2.111-5.218
				s2.953-2.661,5.054-3.493c2.101-0.833,4.321-1.229,6.66-1.189c3.508,0.079,6.244,1.135,8.206,3.166
				c1.962,2.032,2.775,4.663,2.438,7.894l-2.468,15.073l-0.238,2.676c-0.06,1.17,0.089,2.31,0.446,3.419l-0.029,0.535H180.026z
				 M172.771,141.678c1.487,0.04,2.864-0.302,4.133-1.026c1.268-0.723,2.349-1.659,3.241-2.809l1.1-6.095l-3.359-0.03
				c-2.656,0-4.777,0.501-6.362,1.501c-1.586,1.002-2.487,2.374-2.706,4.118c-0.159,1.328,0.134,2.374,0.877,3.137
				C170.438,141.237,171.463,141.638,172.771,141.678z"/>
			<path fill="#202020" d="M205.267,114.653l-0.713,3.776c2.755-2.974,5.936-4.42,9.543-4.341c3.013,0.06,5.242,1.135,6.689,3.226
				c1.446,2.092,1.981,5.01,1.605,8.756l-3.479,20.781h-7.046l3.508-20.871c0.099-0.852,0.109-1.645,0.03-2.378
				c-0.258-2.358-1.665-3.567-4.222-3.627c-2.676-0.04-5.024,1.278-7.046,3.954l-4.014,22.922h-7.046l5.56-32.168L205.267,114.653z"
				/>
			<path fill="#202020" d="M246.205,143.671c-2.438,2.597-5.49,3.854-9.157,3.775c-2.081-0.04-3.811-0.556-5.188-1.546
				c-1.378-0.991-2.359-2.373-2.943-4.147c-0.585-1.773-0.758-3.86-0.521-6.259l3.479-20.811h7.046l-3.508,20.9
				c-0.08,0.733-0.089,1.447-0.03,2.141c0.198,2.458,1.437,3.736,3.716,3.835c3.111,0.119,5.629-1.13,7.551-3.746l4.043-23.13h7.046
				l-5.56,32.168h-6.6L246.205,143.671z"/>
			<path fill="#202020" d="M261.903,146.851l4.667-26.816h-4.787l0.952-5.352h4.757l0.476-3.449
				c0.515-3.329,1.858-5.965,4.028-7.908c2.17-1.942,4.97-2.894,8.399-2.854c1.208,0.04,2.606,0.237,4.192,0.594l-0.773,5.649
				c-0.873-0.198-1.754-0.298-2.646-0.298c-1.685-0.02-3.062,0.437-4.132,1.368s-1.754,2.22-2.052,3.864l-0.446,3.033h6.362
				l-0.951,5.352h-6.333l-4.668,26.816H261.903z"/>
			<path fill="#202020" d="M299.779,146.851c-0.238-0.793-0.338-1.794-0.297-3.003c-2.656,2.478-5.521,3.677-8.592,3.598
				c-2.795-0.04-5.11-0.937-6.943-2.69c-1.833-1.754-2.69-3.979-2.571-6.675c0.158-3.39,1.625-6.055,4.4-7.997
				c2.774-1.942,6.501-2.914,11.179-2.914l4.578,0.06l0.416-2.2c0.119-0.772,0.119-1.496,0-2.17c-0.396-2.141-1.813-3.241-4.251-3.3
				c-1.507-0.04-2.829,0.342-3.97,1.145c-1.139,0.803-1.838,1.878-2.096,3.226l-7.046,0.06c0.139-1.982,0.842-3.722,2.111-5.218
				s2.953-2.661,5.054-3.493c2.101-0.833,4.32-1.229,6.66-1.189c3.508,0.079,6.243,1.135,8.205,3.166
				c1.963,2.032,2.775,4.663,2.438,7.894l-2.467,15.073l-0.238,2.676c-0.06,1.17,0.09,2.31,0.445,3.419l-0.029,0.535H299.779z
				 M292.525,141.678c1.486,0.04,2.863-0.302,4.133-1.026c1.268-0.723,2.348-1.659,3.24-2.809l1.1-6.095l-3.359-0.03
				c-2.656,0-4.777,0.501-6.362,1.501c-1.586,1.002-2.487,2.374-2.706,4.118c-0.159,1.328,0.134,2.374,0.877,3.137
				C290.191,141.237,291.217,141.638,292.525,141.678z"/>
			<path fill="#202020" d="M326.953,141.708c1.684,0.04,3.176-0.45,4.475-1.472c1.297-1.021,2.125-2.354,2.482-3.998l6.659-0.03
				c-0.218,2.121-0.986,4.054-2.304,5.798c-1.318,1.744-3.008,3.102-5.069,4.072c-2.062,0.972-4.212,1.428-6.452,1.368
				c-2.755-0.04-5.104-0.753-7.045-2.141c-1.943-1.387-3.36-3.305-4.252-5.753c-0.893-2.447-1.189-5.178-0.893-8.19l0.09-1.041
				c0.336-3.111,1.244-5.931,2.721-8.458c1.476-2.527,3.384-4.475,5.723-5.842c2.338-1.368,4.936-2.012,7.789-1.933
				c3.488,0.079,6.273,1.233,8.354,3.464c2.081,2.229,3.122,5.128,3.122,8.695h-6.601c0-1.843-0.451-3.349-1.353-4.519
				c-0.902-1.169-2.205-1.794-3.91-1.873c-2.755-0.079-4.926,1.09-6.511,3.508c-1.586,2.419-2.438,5.827-2.557,10.228
				C321.284,138.924,323.127,141.629,326.953,141.708z"/>
			<path fill="#202020" d="M359.924,106.864l-1.367,7.819h5.5l-0.922,5.352h-5.53l-3.032,17.966c-0.06,0.494-0.07,0.939-0.029,1.334
				c0.118,1.285,0.91,1.957,2.378,2.017c0.733,0,1.565-0.089,2.497-0.268l-0.476,5.702c-1.467,0.42-2.943,0.63-4.43,0.63
				c-2.458-0.039-4.296-0.877-5.515-2.512s-1.7-3.801-1.442-6.496l3.003-18.373h-5.144l0.952-5.352h5.113l1.367-7.819H359.924z"/>
			<path fill="#202020" d="M383.976,143.671c-2.438,2.597-5.49,3.854-9.157,3.775c-2.08-0.04-3.811-0.556-5.188-1.546
				c-1.378-0.991-2.359-2.373-2.943-4.147c-0.585-1.773-0.758-3.86-0.521-6.259l3.479-20.811h7.046l-3.508,20.9
				c-0.08,0.733-0.09,1.447-0.029,2.141c0.197,2.458,1.437,3.736,3.716,3.835c3.111,0.119,5.629-1.13,7.552-3.746l4.043-23.13h7.046
				l-5.56,32.168h-6.6L383.976,143.671z"/>
			<path fill="#202020" d="M418.254,121.283c-0.91-0.197-1.832-0.297-2.764-0.297c-3.092-0.079-5.551,1.199-7.373,3.835
				l-3.865,22.03h-7.047l5.561-32.168l6.689-0.03l-0.714,3.657c2.2-2.914,4.737-4.341,7.61-4.281c0.654,0,1.557,0.148,2.705,0.446
				L418.254,121.283z"/>
			<path fill="#202020" d="M432.258,147.446c-2.795-0.06-5.217-0.763-7.27-2.111c-2.051-1.348-3.566-3.19-4.549-5.529
				c-0.98-2.339-1.352-4.945-1.113-7.819l0.088-1.219c0.357-3.271,1.313-6.209,2.869-8.815c1.557-2.605,3.494-4.583,5.813-5.931
				s4.836-1.992,7.551-1.933c4.023,0.079,7.041,1.578,9.053,4.496s2.77,6.72,2.275,11.405l-0.416,3.096h-20.246
				c-0.18,2.549,0.336,4.603,1.545,6.163s2.873,2.36,4.994,2.399c3.033,0.1,5.828-1.219,8.385-3.954l3.568,3.746
				c-1.35,1.923-3.123,3.415-5.322,4.475C437.283,146.975,434.875,147.485,432.258,147.446z M435.26,119.856
				c-3.727-0.119-6.52,2.518-8.383,7.908l13.35,0.029l0.117-0.624c0.139-0.911,0.15-1.803,0.031-2.676
				c-0.219-1.407-0.773-2.517-1.666-3.329C437.818,120.352,436.668,119.916,435.26,119.856z"/>
			<path fill="#202020" d="M470.729,121.283c-0.912-0.197-1.834-0.297-2.766-0.297c-3.092-0.079-5.549,1.199-7.373,3.835
				l-3.865,22.03h-7.045l5.559-32.168l6.689-0.03l-0.713,3.657c2.199-2.914,4.736-4.341,7.611-4.281
				c0.654,0,1.555,0.148,2.705,0.446L470.729,121.283z"/>
		</g>
		<g enable-background="new    ">
			<path fill="#202020" d="M148.316,188.535c0.337-3.151,1.264-6.016,2.78-8.592s3.463-4.568,5.842-5.976s5.014-2.071,7.908-1.992
				c2.755,0.04,5.133,0.772,7.135,2.2c2.002,1.427,3.464,3.379,4.385,5.856c0.922,2.478,1.244,5.232,0.966,8.266
				c-0.317,3.409-1.244,6.421-2.78,9.037c-1.536,2.617-3.499,4.624-5.887,6.021c-2.389,1.397-5.039,2.057-7.953,1.978
				c-2.735-0.04-5.099-0.768-7.091-2.186c-1.992-1.417-3.454-3.359-4.385-5.827s-1.269-5.188-1.011-8.161L148.316,188.535z
				 M155.244,192.608c0.099,2.081,0.649,3.751,1.65,5.01c1,1.259,2.393,1.917,4.177,1.977c2.418,0.06,4.444-0.872,6.08-2.795
				c1.635-1.922,2.661-4.548,3.077-7.878l0.178-2.914c0-2.536-0.505-4.528-1.516-5.976c-1.011-1.446-2.478-2.21-4.4-2.289
				c-3.013-0.079-5.392,1.397-7.135,4.43c-1.051,1.844-1.715,3.965-1.992,6.362C155.204,190.2,155.164,191.557,155.244,192.608z"/>
			<path fill="#202020" d="M183.012,204.738l4.667-26.816h-4.787l0.952-5.352h4.757l0.476-3.449
				c0.515-3.329,1.858-5.965,4.028-7.908c2.17-1.942,4.97-2.894,8.399-2.854c1.208,0.04,2.606,0.237,4.192,0.594l-0.773,5.649
				c-0.873-0.198-1.754-0.298-2.646-0.298c-1.685-0.02-3.062,0.437-4.132,1.368s-1.754,2.22-2.052,3.864l-0.446,3.033h6.362
				l-0.951,5.352h-6.333l-4.668,26.816H183.012z"/>
			<path fill="#202020" d="M232.572,164.751l-1.368,7.819h5.5l-0.922,5.352h-5.53l-3.032,17.966c-0.06,0.494-0.07,0.939-0.03,1.334
				c0.119,1.285,0.911,1.957,2.378,2.017c0.733,0,1.565-0.089,2.497-0.268l-0.476,5.702c-1.467,0.42-2.943,0.63-4.43,0.63
				c-2.458-0.039-4.296-0.877-5.515-2.512c-1.219-1.635-1.7-3.801-1.442-6.496l3.003-18.373h-5.144l0.952-5.352h5.113l1.368-7.819
				H232.572z"/>
			<path fill="#202020" d="M248.359,176.108c2.676-2.814,5.718-4.183,9.127-4.104c3.052,0.04,5.316,1.12,6.793,3.241
				c1.476,2.121,2.026,5.054,1.65,8.8l-3.449,20.692h-7.046l3.508-20.781c0.099-0.853,0.119-1.646,0.06-2.379
				c-0.258-2.418-1.685-3.656-4.281-3.716c-2.616-0.04-4.955,1.248-7.016,3.864l-4.014,23.012h-7.046l7.908-45.666h7.076
				L248.359,176.108z"/>
			<path fill="#202020" d="M284.392,205.333c-2.794-0.06-5.218-0.763-7.269-2.111c-2.051-1.348-3.567-3.19-4.549-5.529
				c-0.981-2.339-1.353-4.945-1.115-7.819l0.089-1.219c0.356-3.271,1.313-6.209,2.869-8.815c1.556-2.605,3.494-4.583,5.813-5.931
				s4.836-1.992,7.551-1.933c4.023,0.079,7.041,1.578,9.053,4.496s2.77,6.72,2.275,11.405l-0.417,3.096h-20.246
				c-0.179,2.549,0.336,4.603,1.546,6.163c1.208,1.561,2.874,2.36,4.995,2.399c3.032,0.1,5.828-1.219,8.384-3.954l3.567,3.746
				c-1.349,1.923-3.122,3.415-5.321,4.475C289.416,204.862,287.008,205.372,284.392,205.333z M287.395,177.743
				c-3.727-0.119-6.521,2.518-8.384,7.908l13.348,0.029l0.119-0.624c0.139-0.911,0.148-1.803,0.03-2.676
				c-0.219-1.407-0.773-2.517-1.665-3.329C289.951,178.239,288.802,177.802,287.395,177.743z"/>
			<path fill="#202020" d="M334.993,181.905l13.2-20.454h8.503l-19.087,27.738l-2.705,15.549h-7.373l2.854-16.322l-9.246-26.965
				h7.76L334.993,181.905z"/>
			<path fill="#202020" d="M365.764,205.333c-2.795-0.06-5.218-0.763-7.27-2.111c-2.051-1.348-3.566-3.19-4.549-5.529
				c-0.98-2.339-1.352-4.945-1.114-7.819l0.089-1.219c0.357-3.271,1.313-6.209,2.869-8.815c1.556-2.605,3.494-4.583,5.813-5.931
				s4.836-1.992,7.551-1.933c4.023,0.079,7.041,1.578,9.054,4.496c2.011,2.918,2.77,6.72,2.274,11.405l-0.416,3.096h-20.246
				c-0.18,2.549,0.336,4.603,1.545,6.163s2.874,2.36,4.995,2.399c3.032,0.1,5.827-1.219,8.384-3.954l3.568,3.746
				c-1.349,1.923-3.122,3.415-5.322,4.475C370.788,204.862,368.38,205.372,365.764,205.333z M368.767,177.743
				c-3.727-0.119-6.521,2.518-8.384,7.908l13.349,0.029l0.119-0.624c0.138-0.911,0.148-1.803,0.03-2.676
				c-0.219-1.407-0.773-2.517-1.666-3.329C371.323,178.239,370.174,177.802,368.767,177.743z"/>
			<path fill="#202020" d="M402.303,204.738c-0.238-0.793-0.338-1.794-0.298-3.003c-2.656,2.478-5.521,3.677-8.592,3.598
				c-2.795-0.04-5.109-0.937-6.942-2.69c-1.834-1.754-2.69-3.979-2.571-6.675c0.158-3.39,1.624-6.055,4.399-7.997
				s6.501-2.914,11.18-2.914l4.578,0.06l0.416-2.2c0.119-0.772,0.119-1.496,0-2.17c-0.396-2.141-1.813-3.241-4.252-3.3
				c-1.506-0.04-2.829,0.342-3.969,1.145s-1.838,1.878-2.096,3.226l-7.047,0.06c0.139-1.982,0.843-3.722,2.111-5.218
				s2.953-2.661,5.055-3.493c2.1-0.833,4.32-1.229,6.659-1.189c3.509,0.079,6.243,1.135,8.206,3.166
				c1.962,2.032,2.774,4.663,2.438,7.894l-2.468,15.073l-0.237,2.676c-0.061,1.17,0.089,2.31,0.445,3.419l-0.029,0.535H402.303z
				 M395.048,199.565c1.487,0.04,2.864-0.302,4.133-1.026c1.269-0.723,2.349-1.659,3.241-2.809l1.1-6.095l-3.359-0.03
				c-2.656,0-4.777,0.501-6.363,1.501c-1.586,1.002-2.486,2.374-2.705,4.118c-0.158,1.328,0.134,2.374,0.877,3.137
				C392.715,199.124,393.74,199.525,395.048,199.565z"/>
			<path fill="#202020" d="M436.492,179.17c-0.912-0.197-1.834-0.297-2.766-0.297c-3.092-0.079-5.549,1.199-7.373,3.835
				l-3.864,22.03h-7.046l5.559-32.168l6.689-0.03l-0.713,3.657c2.199-2.914,4.736-4.341,7.611-4.281
				c0.653,0,1.555,0.148,2.705,0.446L436.492,179.17z"/>
		</g>
		<g enable-background="new    ">
			<path fill="#202020" d="M247.014,294.285h-28.838l0.981-6.232l15.371-14.393c3.151-2.949,5.242-5.344,6.273-7.185
				s1.417-3.643,1.16-5.404c-0.416-2.454-1.833-3.711-4.251-3.771c-1.903-0.04-3.493,0.624-4.771,1.992
				c-1.279,1.367-2.057,3.161-2.334,5.381l-8.384,0.029c0.158-2.695,0.961-5.147,2.408-7.357c1.446-2.209,3.374-3.928,5.782-5.158
				c2.408-1.229,5.01-1.834,7.804-1.814c4.023,0.08,7.155,1.212,9.395,3.396c2.239,2.184,3.23,5.092,2.973,8.725
				c-0.317,4.09-2.725,8.358-7.224,12.805l-4.281,4.079l-8.86,7.981l17.898,0.059L247.014,294.285z"/>
			<path fill="#202020" d="M266.755,294.88c-3.746-0.079-6.64-1.348-8.682-3.806c-2.042-2.457-3.092-5.887-3.151-10.287
				c-0.02-1.466,0.06-2.933,0.238-4.399l1.219-8.116c0.971-5.906,2.884-10.386,5.738-13.438c2.854-3.052,6.511-4.528,10.971-4.43
				c3.746,0.079,6.645,1.343,8.696,3.79c2.052,2.448,3.107,5.862,3.167,10.242c0.02,1.487-0.06,2.964-0.238,4.431l-1.249,8.057
				c-0.991,5.946-2.898,10.45-5.723,13.513C274.916,293.497,271.254,294.978,266.755,294.88z M276.833,263.442
				c0-3.937-1.387-5.974-4.162-6.112c-4.004-0.178-6.551,2.868-7.641,9.14l-1.486,10.029c-0.317,2.097-0.476,3.838-0.476,5.223
				c-0.099,4.016,1.279,6.093,4.133,6.23c4.023,0.258,6.58-2.877,7.67-9.406l1.576-10.563
				C276.705,266.261,276.833,264.749,276.833,263.442z"/>
			<path fill="#202020" d="M300.945,294.88c-3.746-0.079-6.641-1.348-8.682-3.806c-2.041-2.457-3.092-5.887-3.151-10.287
				c-0.021-1.466,0.06-2.933,0.237-4.399l1.22-8.116c0.971-5.906,2.884-10.386,5.737-13.438c2.854-3.052,6.512-4.528,10.971-4.43
				c3.746,0.079,6.645,1.343,8.696,3.79c2.052,2.448,3.106,5.862,3.167,10.242c0.02,1.487-0.061,2.964-0.238,4.431l-1.249,8.057
				c-0.991,5.946-2.898,10.45-5.723,13.513C309.105,293.497,305.444,294.978,300.945,294.88z M311.023,263.442
				c0-3.937-1.387-5.974-4.162-6.112c-4.004-0.178-6.551,2.868-7.641,9.14l-1.486,10.029c-0.317,2.097-0.477,3.838-0.477,5.223
				c-0.099,4.016,1.279,6.093,4.133,6.23c4.023,0.258,6.58-2.877,7.671-9.406l1.575-10.563
				C310.895,266.261,311.023,264.749,311.023,263.442z"/>
			<path fill="#202020" d="M350.179,250.522l-0.654,7.105l-1.636,0.029c-6.798,0.357-11.703,4.103-14.716,11.238
				c2.478-2.438,5.382-3.617,8.711-3.538c2.339,0.04,4.315,0.694,5.931,1.962c1.615,1.27,2.8,3.003,3.553,5.203
				c0.754,2.2,1.021,4.628,0.803,7.284c-0.237,2.834-1.084,5.426-2.541,7.774s-3.365,4.173-5.724,5.471s-4.905,1.917-7.641,1.857
				c-2.835-0.079-5.267-0.877-7.299-2.393c-2.032-1.517-3.513-3.593-4.444-6.229s-1.239-5.51-0.922-8.622l0.327-2.676
				c0.931-7.452,3.661-13.394,8.19-17.823s10.173-6.645,16.932-6.645H350.179z M339.029,272.195
				c-1.447-0.039-2.745,0.318-3.895,1.073c-1.149,0.754-2.102,1.717-2.854,2.889l-0.387,2.681c-0.1,0.894-0.139,1.866-0.119,2.919
				c0.039,1.867,0.465,3.366,1.278,4.498c0.813,1.132,1.962,1.708,3.448,1.728c1.467,0.06,2.805-0.417,4.014-1.43
				s2.102-2.373,2.676-4.081c0.575-1.707,0.764-3.445,0.565-5.212c-0.179-1.549-0.679-2.775-1.501-3.679
				C341.433,272.677,340.357,272.216,339.029,272.195z"/>
		</g>
	</g>
</g>
<g id="Industry_1_">
	<g id="All_Industries_________Oil__x26__Gas__________Construction_1_">
	</g>
</g>
<g id="Featured_1_">
	<g id="arctic-wire-rope-6317_xA0_Image_1_">
	</g>
	<g id="down_arrow_xA0_Image_1_">
	</g>
	<g id="Your__x23_1_Supplier_of__Wire_x2C__Rope_x2C__Rigging__x26__Marine_Products._1_">
	</g>
	<g id="underline_xA0_Image_1_">
	</g>
	<g id="underline_1000s_xA0_Image_1_">
	</g>
	<g id="Shop_100s_of_products_online._Speedy_shipping_worldwide._1_">
	</g>
</g>
<g id="Nav_1_">
	<g id="cart_xA0_Image_1_">
	</g>
	<g id="_x30_">
	</g>
	<g id="Slings__x26__Wire_Rope_______Rigging_______Cordage__x26__Rope_______Ind_1_">
	</g>
</g>
<g id="Header_1_">
	<g id="phone_text_1_">
		<g id="Open_M-F_10am-6pm_PST_xA0_Image_1_">
		</g>
		<g id="_x28_907_x29__562-0707_xA0_Image_1_">
		</g>
		<g id="vDiv_2_" opacity="0.502" enable-background="new    ">
		</g>
		<g id="_x28_800_x29__478-0707_xA0_Image_1_">
		</g>
		<g id="phone_xA0_Image_1_">
		</g>
	</g>
	<g id="logo_xA0_Image_1_">
	</g>
</g>
<g id="Utility_Header_1_">
	<g id="Speedy_worldwide_shipping.">
	</g>
	<g id="Login">
	</g>
	<g id="user_2_xA0_Image_1_">
	</g>
	<g id="truck_xA0_Image_1_">
	</g>
	<g id="_x36_407_Arctic_Spur_Rd._Anchorage_x2C__AK_99518_1_">
	</g>
	<g id="map_xA0_Image_1_">
	</g>
	<g id="search_1_">
		<g id="search_icon_xA0_Image_1_" opacity="0.702">
		</g>
		<g id="search...">
		</g>
	</g>
</g>
</svg>
