<?xml version="1.0" encoding="utf-8"?>
<!-- Generator: Adobe Illustrator 16.0.0, SVG Export Plug-In . SVG Version: 6.00 Build 0)  -->
<!DOCTYPE svg PUBLIC "-//W3C//DTD SVG 1.1//EN" "http://www.w3.org/Graphics/SVG/1.1/DTD/svg11.dtd">
<svg version="1.1" id="Layer_1" xmlns="http://www.w3.org/2000/svg" xmlns:xlink="http://www.w3.org/1999/xlink" x="0px" y="0px"
	 width="580.903px" height="153.042px" viewBox="0 0 580.903 153.042" enable-background="new 0 0 580.903 153.042"
	 xml:space="preserve">
<path fill="#ffffff" d="M192.982,102.808l34.014-74.939h16.586l33.491,74.939h-15.958L253.768,86.2h-37.899l-7.874,16.607H192.982z
	 M235.5,41.951l-12.599,29.005h24.88l-12.178-29.005H235.5z"/>
<path fill="#ffffff" d="M324.33,75.059l20.994,27.846H325.17l-18.896-27.006h-8.081v27.006h-16.586V27.763h33.803
	c18.893,0,26.135,11.877,26.135,24.067c0,10.196-5.352,20.495-17.847,23.229H324.33z M298.192,40.585v22.596h12.804
	c7.874,0,14.385-1.785,14.385-11.352c0-9.772-6.511-11.245-14.385-11.245H298.192z"/>
<path fill="#ffffff" d="M383.328,103.019c-20.997,0-38.004-17.029-38.004-38.048c0-20.813,17.007-38.049,38.004-38.049
	c14.382,0,26.561,7.989,32.962,19.443c-6.401,3.366-6.929,3.679-14.064,7.149c-3.676-6.413-10.815-10.829-18.897-10.829
	c-12.283,0-22.255,10.093-22.255,22.286c0,12.293,9.972,22.276,22.255,22.276c8.398,0,15.749-4.519,19.526-11.665
	c7.14,3.677,7.347,4.095,14.068,7.146C410.518,94.816,398.132,103.019,383.328,103.019"/>
<polygon fill="#ffffff" points="441.905,41.636 418.075,41.636 418.075,27.87 482.007,27.87 482.007,41.74 458.388,41.74 
	458.388,102.808 441.905,102.808 "/>
<rect x="487.418" y="27.763" fill="#ffffff" width="16.479" height="75.037"/>
<path fill="#ffffff" d="M547.309,103.019c-20.994,0-38-17.029-38-38.048c0-20.813,17.006-38.049,38-38.049
	c14.386,0,26.564,7.989,32.962,19.443c-6.397,3.366-6.929,3.679-14.065,7.149c-3.675-6.413-10.811-10.829-18.896-10.829
	c-12.28,0-22.252,10.093-22.252,22.286c0,12.293,9.972,22.276,22.252,22.276c8.401,0,15.749-4.519,19.529-11.665
	c7.137,3.677,7.348,4.095,14.065,7.146C574.502,94.816,562.112,103.019,547.309,103.019"/>
<polygon fill="#ffffff" points="217.522,121.274 212.814,136.338 207.778,121.063 205.398,121.297 200.691,136.338 195.658,121.063 
	192.986,121.063 199.541,140.058 201.979,139.848 206.71,125.214 211.668,140.058 214.033,140.058 220.399,121.063 219.987,121.063 
	"/>
<rect x="227.799" y="121.063" fill="#ffffff" width="2.696" height="18.994"/>
<path fill="#ffffff" d="M254.549,131.495c0.744-1.07,1.118-2.396,1.118-3.954c0-2.041-0.678-3.653-2.013-4.79
	c-1.314-1.115-3.174-1.688-5.534-1.688h-7.277v18.994h2.696v-5.807h4.581c0.305,0,0.721-0.022,0.983-0.188l4.058,5.994h2.958
	l-4.408-6.409C252.922,133.182,253.875,132.459,254.549,131.495 M243.54,123.685h4.581c1.604,0,2.841,0.339,3.687,0.994
	c0.836,0.663,1.241,1.611,1.241,2.915c0,1.317-0.42,2.319-1.241,2.989c-0.85,0.693-2.086,1.047-3.687,1.047h-4.581V123.685z"/>
<polygon fill="#ffffff" points="267.893,131.751 277.155,131.751 277.155,129.13 267.893,129.13 267.893,123.685 278.262,123.685 
	278.262,121.063 265.196,121.063 265.196,140.058 278.601,140.058 278.601,137.46 267.893,137.46 "/>
<path fill="#ffffff" d="M287.801,136.985c-0.432,0-0.802,0.158-1.092,0.459c-0.292,0.302-0.439,0.693-0.439,1.152
	c0,0.618,0.243,1.002,0.505,1.235l-0.957,2.116h1.777l1.322-2.025c0.294-0.452,0.44-0.889,0.44-1.296
	c0-0.481-0.15-0.881-0.456-1.183C288.606,137.144,288.231,136.985,287.801,136.985"/>
<path fill="#ffffff" d="M324.488,131.495c0.746-1.07,1.119-2.396,1.119-3.954c0-2.041-0.679-3.653-2.016-4.79
	c-1.313-1.115-3.17-1.688-5.531-1.688h-7.275v18.994h2.696v-5.807h4.579c0.305,0,0.723-0.022,0.982-0.188l4.056,5.994h2.96
	l-4.409-6.409C322.861,133.182,323.814,132.459,324.488,131.495 M313.481,123.685h4.579c1.604,0,2.843,0.339,3.687,0.994
	c0.836,0.663,1.243,1.611,1.243,2.915c0,1.317-0.422,2.319-1.243,2.989c-0.848,0.693-2.086,1.047-3.687,1.047h-4.579V123.685z"/>
<path fill="#ffffff" d="M343.336,121.011c-2.76,0-5.129,0.934-7.046,2.765c-1.913,1.837-2.884,4.119-2.884,6.785
	c0,2.659,0.971,4.956,2.884,6.809c1.917,1.853,4.29,2.794,7.046,2.794c2.738,0,5.106-0.941,7.02-2.794s2.889-4.149,2.889-6.809
	c0-2.666-0.976-4.948-2.889-6.785C348.442,121.944,346.078,121.011,343.336,121.011 M343.336,137.543
	c-1.977,0-3.69-0.693-5.095-2.049c-1.42-1.371-2.112-2.982-2.112-4.934c0-1.95,0.692-3.555,2.112-4.918
	c1.404-1.355,3.118-2.033,5.095-2.033c1.959,0,3.66,0.678,5.054,2.033c1.394,1.341,2.102,2.998,2.102,4.918
	c0,1.951-0.686,3.563-2.102,4.934C346.996,136.85,345.295,137.543,343.336,137.543"/>
<path fill="#ffffff" d="M369.057,121.063h-7.2v18.994h2.696v-5.807h4.504c2.338,0,4.184-0.595,5.486-1.762
	c1.307-1.168,1.974-2.84,1.974-4.948c0-2.049-0.667-3.66-1.978-4.79C373.244,121.636,371.398,121.063,369.057,121.063
	 M364.553,123.685h4.429c1.597,0,2.839,0.339,3.683,0.994c0.836,0.663,1.239,1.611,1.239,2.915c0,1.317-0.419,2.319-1.243,2.989
	c-0.844,0.693-2.082,1.047-3.679,1.047h-4.429V123.685z"/>
<polygon fill="#ffffff" points="387.49,131.751 396.754,131.751 396.754,129.13 387.49,129.13 387.49,123.685 397.86,123.685 
	397.86,121.063 384.797,121.063 384.797,140.058 398.199,140.058 398.199,137.46 387.49,137.46 "/>
<path fill="#ffffff" d="M433.277,131.901l-1.702-1.318l-0.146,0.362c-0.493,1.235-1.051,2.319-1.661,3.224
	c-1.729-1.702-3.054-3.088-3.946-4.105c0.569-0.309,1.032-0.58,1.397-0.806c0.426-0.264,0.896-0.61,1.408-1.032
	c0.535-0.437,0.927-0.926,1.187-1.468c0.252-0.543,0.38-1.138,0.38-1.771c0-1.189-0.437-2.169-1.288-2.907
	c-0.839-0.723-1.938-1.1-3.261-1.1c-1.4,0-2.557,0.407-3.445,1.198c-0.889,0.806-1.341,1.837-1.341,3.072
	c0,1.25,0.587,2.674,1.735,4.24c-1.193,0.663-2.146,1.379-2.843,2.124c-0.783,0.844-1.179,1.921-1.179,3.201
	c0,1.514,0.562,2.802,1.672,3.818c1.1,1.009,2.475,1.528,4.086,1.528c2.022,0,3.939-0.903,5.697-2.688l3.077,3.051l1.514-1.59
	l-3.2-3.155C432.122,134.786,432.773,133.589,433.277,131.901 M423.811,123.647c0.463-0.438,1.065-0.648,1.834-0.648
	c0.712,0,1.262,0.188,1.672,0.558c0.403,0.369,0.599,0.828,0.599,1.431c0,0.392-0.083,0.754-0.244,1.077
	c-0.158,0.324-0.426,0.647-0.803,0.957c-0.388,0.323-0.757,0.587-1.118,0.806c-0.313,0.181-0.727,0.406-1.224,0.67
	c-0.927-1.288-1.394-2.388-1.394-3.269C423.133,124.596,423.358,124.068,423.811,123.647 M421.683,132.715
	c0.517-0.534,1.254-1.077,2.188-1.619c0.938,1.077,2.463,2.681,4.561,4.782c-1.284,1.326-2.633,2.004-4.022,2.004
	c-1.017,0-1.838-0.294-2.52-0.904c-0.666-0.609-0.99-1.37-0.99-2.319C420.899,133.897,421.156,133.257,421.683,132.715"/>
<path fill="#ffffff" d="M464.304,130.282c-0.765-0.331-1.604-0.655-2.5-0.964c-0.896-0.309-1.732-0.58-2.505-0.813
	c-0.734-0.227-1.321-0.564-1.796-1.024c-0.452-0.437-0.67-0.964-0.67-1.619c0-0.663,0.305-1.175,0.922-1.552
	c0.655-0.392,1.563-0.595,2.689-0.595c1.77,0,3.423,0.497,4.899,1.499l0.297,0.195l1.138-2.523l-0.204-0.143
	c-1.743-1.167-3.762-1.763-5.998-1.763c-1.966,0-3.574,0.46-4.787,1.363c-1.234,0.927-1.859,2.169-1.859,3.698
	c0,0.949,0.199,1.77,0.602,2.455c0.399,0.678,0.935,1.221,1.586,1.597c0.629,0.369,1.325,0.686,2.075,0.941
	c0.741,0.264,1.483,0.497,2.222,0.716c0.723,0.219,1.382,0.452,1.973,0.7c0.562,0.233,1.018,0.565,1.359,0.979
	c0.328,0.398,0.494,0.889,0.494,1.461c0,0.783-0.336,1.371-1.021,1.83c-0.716,0.467-1.714,0.716-2.983,0.716
	c-1.009,0-2.056-0.227-3.099-0.663c-1.062-0.444-2.007-1.069-2.813-1.853l-0.286-0.294l-0.185,0.369l-0.885,2.244
	c0.919,0.881,2.022,1.59,3.295,2.109c1.273,0.52,2.603,0.79,3.943,0.79c2.037,0,3.717-0.489,4.985-1.445
	c1.296-0.972,1.955-2.29,1.955-3.909c0-1.085-0.275-2.026-0.817-2.81C465.795,131.209,465.113,130.644,464.304,130.282"/>
<path fill="#ffffff" d="M489.143,132.188c0,1.702-0.471,3.035-1.396,3.954c-0.927,0.927-2.237,1.394-3.895,1.394
	c-1.656,0-2.979-0.467-3.92-1.408c-0.945-0.935-1.424-2.26-1.424-3.939v-11.124h-2.699v11.124c0,2.471,0.723,4.437,2.15,5.845
	c1.423,1.416,3.404,2.131,5.893,2.131c2.467,0,4.44-0.715,5.853-2.131c1.42-1.408,2.139-3.374,2.139-5.845v-11.124h-2.7V132.188z"/>
<path fill="#ffffff" d="M508.97,121.063h-7.2v18.994h2.696v-5.807h4.504c2.335,0,4.184-0.595,5.486-1.762
	c1.307-1.168,1.974-2.84,1.974-4.948c0-2.049-0.667-3.66-1.977-4.79C513.157,121.636,511.309,121.063,508.97,121.063
	 M504.466,123.685h4.425c1.601,0,2.843,0.339,3.687,0.994c0.832,0.663,1.239,1.611,1.239,2.915c0,1.317-0.422,2.319-1.243,2.989
	c-0.843,0.693-2.082,1.047-3.683,1.047h-4.425V123.685z"/>
<path fill="#ffffff" d="M531.907,121.063h-7.2v18.994h2.696v-5.807h4.504c2.338,0,4.184-0.595,5.486-1.762
	c1.307-1.168,1.978-2.84,1.978-4.948c0-2.049-0.671-3.66-1.981-4.79C536.095,121.636,534.249,121.063,531.907,121.063
	 M527.403,123.685h4.429c1.6,0,2.839,0.339,3.687,0.994c0.832,0.663,1.235,1.611,1.235,2.915c0,1.317-0.418,2.319-1.239,2.989
	c-0.848,0.693-2.083,1.047-3.683,1.047h-4.429V123.685z"/>
<polygon fill="#ffffff" points="550.344,121.063 547.647,121.063 547.647,140.058 558.402,140.058 558.402,137.46 550.344,137.46 
	"/>
<polygon fill="#ffffff" points="580.903,121.063 580.388,121.063 577.978,121.207 572.352,130.388 566.397,121.063 563.697,121.063 
	571.029,133.536 571.029,140.058 573.699,140.058 573.662,133.604 "/>
<polygon fill="#ffffff" points="96.596,113.352 114.372,153.058 138.878,153.058 116.609,103.177 "/>
<path fill="#ffffff" d="M80.438,24.039L69.757,0L58.998,24.039l-42.146,91.346l31.311-14.973L69.68,54.83l13.651,28.81l20.245-9.688
	L80.438,24.039z M154.478,99.493h-3.51V60.962L111.48,79.166l-1.271,0.587l-98.025,46.063l-1.58,3.592L0,153.042l144.027-70.065
	v16.517h-3.664c-1.504,0-2.7,1.469-2.7,3.307v5.762c0,0.881,0.231,1.656,0.732,2.244c0,0,6.287,4.91,6.402,4.986v1.619
	c0,2.38,1.081,4.729,2.854,6.529c0.578,0.588,0.964,1.544,0.964,2.568c0.037,1.213-0.503,2.501-2.005,3.156
	c-2.122,0.918-6.17,0.956-7.404-4.181c-1.272-4.993-2.431-5.219-3.163-4.888c-1.118,0.406-0.192,1.288-0.347,4.519
	c-0.271,3.781,0.732,6.199,4.589,8.767c4.434,2.976,14.306,1.288,15.347-6.454c0.309-2.681-0.578-4.587-1.965-6.093
	c-1.428-1.394-3.395-2.749-3.395-5.062v-0.7c0.077,0,6.132-4.768,6.132-4.768c0.424-0.588,0.693-1.363,0.693-2.244V102.8
	C157.099,100.962,155.903,99.493,154.478,99.493 M147.535,110.105c-1.734,0-3.124-1.326-3.124-2.824
	c0-1.582,1.389-2.862,3.124-2.862c1.659,0,3.046,1.28,3.046,2.862C150.582,108.779,149.194,110.105,147.535,110.105"/>
</svg>
