<?xml version="1.0" encoding="utf-8"?>
<!-- Generator: Adobe Illustrator 16.0.0, SVG Export Plug-In . SVG Version: 6.00 Build 0)  -->
<!DOCTYPE svg PUBLIC "-//W3C//DTD SVG 1.1//EN" "http://www.w3.org/Graphics/SVG/1.1/DTD/svg11.dtd">
<svg version="1.1" id="Layer_1" xmlns="http://www.w3.org/2000/svg" xmlns:xlink="http://www.w3.org/1999/xlink" x="0px" y="0px"
	 width="240.956px" height="48.002px" viewBox="0 0 240.956 48.002" enable-background="new 0 0 240.956 48.002"
	 xml:space="preserve">
<g>
	<path fill="#ffffff" d="M95.311,44.67c0.221,1.301,1.383,1.479,2.185,1.479c0.762,0,1.925-0.222,1.925-1.231
		c0-2.104-5.881-0.747-5.881-4.441c0-2.034,1.91-2.989,3.695-2.989c2.062,0,3.958,0.899,3.958,3.183l-2.104-0.306
		c-0.263-1.146-1.272-1.189-1.951-1.189c-0.693,0-1.494,0.292-1.494,1.121c0,0.733,0.47,0.899,2.946,1.496
		c0.734,0.179,2.934,0.636,2.934,2.877c0,1.813-1.412,3.168-4.108,3.168c-2.214,0-4.208-1.08-4.208-3.514L95.311,44.67z"/>
	<path fill="#ffffff" d="M114.243,43.867c0,2.671-1.578,3.97-4.221,3.97c-2.67,0-4.208-1.271-4.208-3.97v-6.142h2.173v6.142
		c0,1.08,0.277,2.145,2.035,2.145c1.55,0,2.048-0.664,2.048-2.145v-6.142h2.173V43.867z"/>
	<path fill="#ffffff" d="M119.157,37.725h4.457c2.476,0,3.417,1.563,3.417,3.167c0,1.605-0.941,3.168-3.417,3.168h-2.285v3.542
		h-2.172V37.725z M121.33,42.373h1.689c0.996,0,1.91-0.221,1.91-1.481c0-1.259-0.914-1.479-1.91-1.479h-1.689V42.373z"/>
	<path fill="#ffffff" d="M131.433,37.725h4.457c2.476,0,3.417,1.563,3.417,3.167c0,1.605-0.941,3.168-3.417,3.168h-2.283v3.542
		h-2.173V37.725z M133.606,42.373h1.687c0.998,0,1.912-0.221,1.912-1.481c0-1.259-0.914-1.479-1.912-1.479h-1.687V42.373z"/>
	<polygon fill="#ffffff" points="143.503,47.535 143.503,37.684 145.634,37.684 145.634,45.708 150.699,45.708 150.699,47.535 	"/>
	<polygon fill="#ffffff" points="155.986,43.756 152.346,37.724 154.796,37.724 157.106,41.626 159.403,37.724 161.823,37.724 
		158.156,43.812 158.156,47.603 155.986,47.603 	"/>
	<path fill="#ffffff" d="M84.411,46.166c-0.231-0.241-0.444-0.471-0.642-0.689c0.193-0.363,0.35-0.752,0.47-1.16
		c0.141-0.486,0.236-0.989,0.286-1.496l0.038-0.4h-1.729l-0.033,0.328c-0.033,0.341-0.091,0.667-0.176,0.973
		c-0.031,0.111-0.063,0.218-0.101,0.324c-0.33-0.386-0.624-0.744-0.888-1.069c-0.273-0.341-0.528-0.667-0.763-0.98
		c0.188-0.146,0.369-0.292,0.547-0.439c0.287-0.236,0.54-0.482,0.762-0.735c0.224-0.265,0.408-0.546,0.546-0.838
		c0.149-0.319,0.221-0.647,0.221-1.008c0-0.288-0.06-0.582-0.178-0.868c-0.117-0.292-0.295-0.56-0.528-0.791
		c-0.23-0.233-0.519-0.423-0.86-0.574c-0.34-0.141-0.735-0.215-1.178-0.215c-0.423,0-0.808,0.068-1.148,0.208
		c-0.346,0.145-0.627,0.325-0.859,0.551c-0.231,0.227-0.412,0.489-0.534,0.779c-0.122,0.284-0.183,0.583-0.183,0.886
		c0,0.421,0.106,0.888,0.319,1.391c0.17,0.396,0.4,0.828,0.694,1.294c-0.211,0.162-0.42,0.327-0.625,0.495
		c-0.31,0.249-0.582,0.512-0.823,0.786c-0.245,0.285-0.446,0.588-0.597,0.898c-0.161,0.333-0.243,0.696-0.243,1.081
		c0,0.366,0.063,0.732,0.186,1.093c0.13,0.376,0.341,0.718,0.626,1.012c0.284,0.297,0.657,0.543,1.111,0.727
		c0.447,0.183,0.995,0.275,1.626,0.275c0.338,0,0.664-0.038,0.97-0.111c0.306-0.075,0.597-0.174,0.871-0.303
		c0.275-0.129,0.533-0.281,0.766-0.455c0.123-0.094,0.242-0.189,0.353-0.293c0.075,0.085,0.834,0.872,0.834,0.872h2.364
		L84.411,46.166z M79.046,46.159c-0.211-0.054-0.404-0.139-0.57-0.253c-0.158-0.113-0.282-0.247-0.379-0.416
		c-0.089-0.149-0.136-0.344-0.136-0.576c0-0.158,0.04-0.317,0.117-0.47c0.095-0.179,0.222-0.358,0.377-0.527
		c0.168-0.186,0.363-0.366,0.583-0.549c0.143-0.115,0.291-0.229,0.442-0.344c0.297,0.391,0.617,0.787,0.956,1.188
		c0.353,0.426,0.729,0.86,1.128,1.312c-0.211,0.196-0.442,0.357-0.694,0.48c-0.338,0.164-0.718,0.248-1.129,0.248
		C79.509,46.252,79.278,46.223,79.046,46.159 M80.191,38.235c0.167,0,0.309,0.016,0.438,0.055c0.12,0.031,0.222,0.079,0.314,0.148
		c0.077,0.054,0.137,0.126,0.181,0.212c0.042,0.087,0.065,0.198,0.065,0.325c0,0.143-0.032,0.274-0.102,0.415
		c-0.075,0.157-0.182,0.309-0.318,0.46c-0.148,0.163-0.32,0.327-0.517,0.488c-0.111,0.094-0.229,0.183-0.351,0.275
		c-0.207-0.346-0.366-0.648-0.478-0.911c-0.13-0.309-0.198-0.562-0.198-0.759c0-0.117,0.022-0.211,0.066-0.292
		c0.085-0.144,0.19-0.207,0.19-0.207c0.091-0.066,0.196-0.117,0.321-0.154C79.923,38.255,80.048,38.235,80.191,38.235"/>
	<path fill="#ffffff" d="M40.043,20.49l4.856,6.442h-4.663l-4.371-6.248h-1.869v6.248H30.16V9.549h7.819
		c4.371,0,6.045,2.748,6.045,5.568c0,2.358-1.237,4.74-4.128,5.373H40.043z M33.996,12.515v5.227h2.962
		c1.822,0,3.328-0.414,3.328-2.625c0-2.262-1.506-2.602-3.328-2.602H33.996z"/>
	<path fill="#ffffff" d="M53.69,26.957c-4.856,0-8.791-3.939-8.791-8.801c0-4.813,3.935-8.802,8.791-8.802
		c3.327,0,6.144,1.848,7.625,4.498c-1.481,0.777-1.603,0.851-3.254,1.653c-0.85-1.483-2.502-2.504-4.371-2.504
		c-2.841,0-5.148,2.334-5.148,5.155c0,2.845,2.307,5.153,5.148,5.153c1.942,0,3.643-1.044,4.517-2.698
		c1.652,0.851,1.701,0.949,3.255,1.653C59.981,25.06,57.114,26.957,53.69,26.957"/>
	<polygon fill="#ffffff" points="67.241,12.758 61.728,12.758 61.728,9.573 76.518,9.573 76.518,12.783 71.054,12.783 
		71.054,26.907 67.241,26.907 	"/>
	<rect x="77.77" y="9.549" fill="#ffffff" width="3.813" height="17.359"/>
	<path fill="#ffffff" d="M91.624,26.957c-4.856,0-8.791-3.939-8.791-8.801c0-4.813,3.935-8.802,8.791-8.802
		c3.327,0,6.144,1.848,7.625,4.498c-1.48,0.777-1.602,0.851-3.253,1.653c-0.85-1.483-2.502-2.504-4.372-2.504
		c-2.842,0-5.147,2.334-5.147,5.155c0,2.845,2.305,5.153,5.147,5.153c1.942,0,3.644-1.044,4.516-2.698
		c1.653,0.851,1.701,0.949,3.255,1.653C97.914,25.06,95.047,26.957,91.624,26.957"/>
	<path fill="#ffffff" d="M27.618,15.816h-0.607V9.224L25.832,9.77l-7.226,3.565l-3.651,1.789l-6.451,3.149l-5.79,2.837L0,26.957
		l5.412-2.639v-0.01l11.236-5.486l3.661-1.787l0.549-0.274l4.972-2.449v1.505h-0.633c-0.256,0-0.464,0.256-0.464,0.567v0.983
		c0,0.152,0.046,0.285,0.133,0.389c0,0,1.068,0.842,1.097,0.851v0.284c0,0.406,0.179,0.805,0.482,1.117
		c0.104,0.094,0.169,0.264,0.169,0.435c0,0.208-0.084,0.425-0.35,0.539c-0.359,0.161-1.049,0.169-1.268-0.71
		c-0.218-0.861-0.416-0.898-0.539-0.841c-0.189,0.074-0.028,0.227-0.057,0.775c-0.047,0.643,0.123,1.059,0.785,1.504
		c0.757,0.501,2.449,0.217,2.629-1.108c0.047-0.463-0.104-0.783-0.339-1.04c-0.247-0.246-0.578-0.473-0.578-0.87v-0.123
		c0.009,0,1.05-0.813,1.05-0.813c0.065-0.104,0.113-0.236,0.113-0.389v-0.983C28.062,16.072,27.854,15.816,27.618,15.816
		 M26.425,17.632c-0.292,0-0.53-0.227-0.53-0.482c0-0.265,0.237-0.492,0.53-0.492c0.285,0,0.52,0.227,0.52,0.492
		C26.945,17.405,26.709,17.632,26.425,17.632"/>
	<polygon fill="#ffffff" points="12.467,9.713 14.142,13.363 17.802,11.577 12.495,0 4.001,18.311 9.791,15.483 	"/>
	<polygon fill="#ffffff" points="17.396,20.608 20.375,26.956 24.859,26.956 21.113,18.793 	"/>
	<polygon fill="#ffffff" points="124.843,26.9 121.038,26.9 118.083,15.043 118.036,15.043 115.132,26.9 111.253,26.9 
		106.643,9.479 110.159,9.479 113.138,21.387 116.304,9.479 119.89,9.479 123.043,21.496 126.063,9.479 129.528,9.479 	"/>
	<rect x="131.624" y="9.48" fill="#ffffff" width="3.83" height="17.421"/>
	<path fill="#ffffff" d="M148.633,20.482l4.879,6.466h-4.685l-4.392-6.27h-1.878v6.27h-3.855V9.505h7.857
		c4.392,0,6.074,2.756,6.074,5.587c0,2.365-1.243,4.758-4.146,5.39H148.633z M142.558,12.481v5.245h2.977
		c1.83,0,3.343-0.414,3.343-2.634c0-2.27-1.513-2.611-3.343-2.611H142.558z"/>
	<polygon fill="#ffffff" points="159.322,19.971 159.322,23.679 169.154,23.679 169.154,26.9 155.613,26.9 155.613,9.431 
		168.325,9.431 168.325,12.653 159.322,12.653 159.322,16.58 167.275,16.58 167.275,19.971 	"/>
	<path fill="#ffffff" d="M187.115,20.458l4.88,6.466h-4.686l-4.392-6.27h-1.878v6.27h-3.855V9.481h7.856
		c4.393,0,6.074,2.757,6.074,5.587c0,2.366-1.243,4.758-4.147,5.39H187.115z M181.04,12.457v5.245h2.977
		c1.83,0,3.344-0.414,3.344-2.634c0-2.27-1.514-2.611-3.344-2.611H181.04z"/>
	<path fill="#ffffff" d="M201.329,27.121c-4.977,0-9.002-4.027-9.002-9.004c0-5.001,4.025-9.026,9.002-9.026
		c4.953,0,9.026,4.025,9.026,9.026C210.355,23.093,206.282,27.121,201.329,27.121 M196.01,18.117c0,2.904,2.414,5.319,5.318,5.319
		c2.903,0,5.27-2.416,5.27-5.319c0-2.902-2.366-5.342-5.27-5.342C198.424,12.774,196.01,15.215,196.01,18.117"/>
	<path fill="#ffffff" d="M212.066,9.481h7.855c4.367,0,6.027,2.757,6.027,5.587c0,2.831-1.66,5.587-6.027,5.587h-4.025V26.9h-3.83
		V9.481z M215.896,17.679h2.977c1.758,0,3.368-0.391,3.368-2.611c0-2.221-1.61-2.611-3.368-2.611h-2.977V17.679z"/>
	<polygon fill="#ffffff" points="231.124,19.947 231.124,23.655 240.956,23.655 240.956,26.875 227.416,26.875 227.416,9.407 
		240.127,9.407 240.127,12.629 231.124,12.629 231.124,16.556 239.077,16.556 239.077,19.947 	"/>
</g>
</svg>
