<?xml version="1.0" encoding="utf-8"?>
<!-- Generator: Adobe Illustrator 16.0.3, SVG Export Plug-In . SVG Version: 6.00 Build 0)  -->
<!DOCTYPE svg PUBLIC "-//W3C//DTD SVG 1.1//EN" "http://www.w3.org/Graphics/SVG/1.1/DTD/svg11.dtd">
<svg version="1.1" id="Layer_1" xmlns="http://www.w3.org/2000/svg" xmlns:xlink="http://www.w3.org/1999/xlink" x="0px" y="0px"
	 width="510px" height="388px" viewBox="0 0 510 388" enable-background="new 0 0 510 388" xml:space="preserve">
<g id="Guides_For_Artboard">
</g>
<g id="Layer_1_1_">
</g>
<g id="Layer_2">
	<g>
		<g>
			<path fill="none" stroke="#231F20" stroke-width="2" stroke-linecap="round" stroke-linejoin="round" stroke-miterlimit="10" d="
				M73.028,342.61l14.226,10.161c0,0-0.156,26.575,0,26.341c0.156-0.233-14.226-14.538-14.226-14.538V342.61z"/>
			<polygon fill="#231F20" points="79.229,369.754 76.783,368.174 76.783,352.422 79.229,354.002 			"/>
			
				<polygon fill="none" stroke="#231F20" stroke-width="2" stroke-linecap="round" stroke-linejoin="round" stroke-miterlimit="10" points="
				317.733,318.371 336.583,323.013 336.583,333.97 317.733,328.955 			"/>
			
				<polyline fill="none" stroke="#231F20" stroke-width="2" stroke-linecap="round" stroke-linejoin="round" stroke-miterlimit="10" points="
				336.583,333.97 336.583,336.84 377.383,328.779 377.383,317.22 336.583,324.75 			"/>
			<ellipse fill="#231F20" cx="325.967" cy="316.655" rx="4.106" ry="0.926"/>
			<ellipse fill="#231F20" cx="332.98" cy="318.371" rx="4.106" ry="0.927"/>
			<ellipse fill="#231F20" cx="340.495" cy="320.224" rx="4.105" ry="0.926"/>
			
				<polyline fill="none" stroke="#231F20" stroke-width="2" stroke-linecap="round" stroke-linejoin="round" stroke-miterlimit="10" points="
				320.754,329.759 320.754,332.185 317.634,333.062 329.209,336.365 332.168,335.426 332.168,332.795 			"/>
			
				<polyline fill="none" stroke="#231F20" stroke-width="2" stroke-linecap="round" stroke-linejoin="round" stroke-miterlimit="10" points="
				317.733,321.149 305.975,322.502 305.975,330.215 317.733,328.291 			"/>
			
				<polyline fill="none" stroke="#231F20" stroke-width="2" stroke-linecap="round" stroke-linejoin="round" stroke-miterlimit="10" points="
				377.383,318.846 384.805,317.22 384.805,310.347 341.029,316.866 355.574,321.149 			"/>
			
				<polyline fill="none" stroke="#231F20" stroke-width="2" stroke-linecap="round" stroke-linejoin="round" stroke-miterlimit="10" points="
				316.923,272.065 326.503,273.08 374.314,268.661 374.314,264.243 326.503,268.414 319.921,267.827 313.7,267.264 
				296.682,265.754 296.682,269.924 310.77,271.411 			"/>
			
				<line fill="none" stroke="#231F20" stroke-width="2" stroke-linecap="round" stroke-linejoin="round" stroke-miterlimit="10" x1="326.499" y1="268.415" x2="326.499" y2="272.242"/>
			
				<polyline fill="none" stroke="#231F20" stroke-width="2" stroke-linecap="round" stroke-linejoin="round" stroke-miterlimit="10" points="
				324.902,273.08 328.465,286.063 330.561,293.728 336.398,315.097 331.146,315.006 326.773,299.385 324.655,291.879 
				319.245,272.606 			"/>
			
				<polyline fill="none" stroke="#231F20" stroke-width="2" stroke-linecap="round" stroke-linejoin="round" stroke-miterlimit="10" points="
				246.641,329.252 251.824,319.153 253.605,315.66 262.464,298.416 272.878,278.084 301.077,270.397 301.077,274.545 
				294.675,275.221 297.402,275.604 303.016,276.416 306.87,276.957 			"/>
			
				<polyline fill="none" stroke="#231F20" stroke-width="2" stroke-linecap="round" stroke-linejoin="round" stroke-miterlimit="10" points="
				312.889,277.813 314.76,278.084 320.372,276.596 			"/>
			
				<line fill="none" stroke="#231F20" stroke-width="2" stroke-linecap="round" stroke-linejoin="round" stroke-miterlimit="10" x1="314.76" y1="275.153" x2="314.76" y2="278.084"/>
			
				<line fill="none" stroke="#231F20" stroke-width="2" stroke-linecap="round" stroke-linejoin="round" stroke-miterlimit="10" x1="303.013" y1="276.414" x2="304.158" y2="280.334"/>
			
				<polyline fill="none" stroke="#231F20" stroke-width="2" stroke-linecap="round" stroke-linejoin="round" stroke-miterlimit="10" points="
				302.674,293.155 308.826,313.658 314.101,314.384 306.241,287.469 			"/>
			
				<line fill="none" stroke="#231F20" stroke-width="2" stroke-linecap="round" stroke-linejoin="round" stroke-miterlimit="10" x1="297.41" y1="275.613" x2="300.456" y2="285.764"/>
			
				<line fill="none" stroke="#231F20" stroke-width="2" stroke-linecap="round" stroke-linejoin="round" stroke-miterlimit="10" x1="371.249" y1="268.945" x2="343.802" y2="316.455"/>
			
				<polyline fill="none" stroke="#231F20" stroke-width="2" stroke-linecap="round" stroke-linejoin="round" stroke-miterlimit="10" points="
				363.602,269.653 338.075,314.555 343.605,315.748 			"/>
			
				<polyline fill="none" stroke="#231F20" stroke-width="2" stroke-linecap="round" stroke-linejoin="round" stroke-miterlimit="10" points="
				359.297,265.55 358.751,251.445 320.362,253.198 320.362,256.04 331.97,255.798 331.97,267.92 			"/>
			
				<line fill="none" stroke="#231F20" stroke-width="2" stroke-linecap="round" stroke-linejoin="round" stroke-miterlimit="10" x1="320.362" y1="256.04" x2="320.362" y2="267.164"/>
			
				<line fill="none" stroke="#231F20" stroke-width="2" stroke-linecap="round" stroke-linejoin="round" stroke-miterlimit="10" x1="358.782" y1="313.226" x2="358.782" y2="290.526"/>
			
				<line fill="none" stroke="#231F20" stroke-width="2" stroke-linecap="round" stroke-linejoin="round" stroke-miterlimit="10" x1="358.782" y1="278.129" x2="358.782" y2="270.104"/>
			
				<line fill="none" stroke="#231F20" stroke-width="2" stroke-linecap="round" stroke-linejoin="round" stroke-miterlimit="10" x1="364.513" y1="280.604" x2="364.513" y2="312.711"/>
			
				<polyline fill="none" stroke="#231F20" stroke-width="2" stroke-linecap="round" stroke-linejoin="round" stroke-miterlimit="10" points="
				358.848,253.935 369.796,253.26 370.101,264.237 			"/>
			
				<polyline fill="none" stroke="#231F20" stroke-width="2" stroke-linecap="round" stroke-linejoin="round" stroke-miterlimit="10" points="
				316.191,267.493 316.191,260.275 297.491,258.941 297.491,254.896 292.204,254.667 291.836,265.522 296.674,265.746 			"/>
			
				<line fill="none" stroke="#231F20" stroke-width="2" stroke-linecap="round" stroke-linejoin="round" stroke-miterlimit="10" x1="297.491" y1="258.941" x2="297.491" y2="265.746"/>
			
				<line fill="none" stroke="#231F20" stroke-width="2" stroke-linecap="round" stroke-linejoin="round" stroke-miterlimit="10" x1="292.181" y1="262.125" x2="316.191" y2="263.871"/>
			
				<line fill="none" stroke="#231F20" stroke-width="2" stroke-linecap="round" stroke-linejoin="round" stroke-miterlimit="10" x1="310.248" y1="260.68" x2="310.083" y2="266.633"/>
			
				<line fill="none" stroke="#231F20" stroke-width="2" stroke-linecap="round" stroke-linejoin="round" stroke-miterlimit="10" x1="304.306" y1="260.275" x2="304.306" y2="265.999"/>
			
				<polyline fill="none" stroke="#231F20" stroke-width="2" stroke-linecap="round" stroke-linejoin="round" stroke-miterlimit="10" points="
				272.878,278.084 266.724,279.842 256.941,299.092 248.173,316.381 246.393,319.897 242.74,327.065 			"/>
			
				<polyline fill="none" stroke="#231F20" stroke-width="2" stroke-linecap="round" stroke-linejoin="round" stroke-miterlimit="10" points="
				241.834,331.534 241.834,327.744 247.199,330.227 247.092,334.07 			"/>
			
				<polyline fill="none" stroke="#231F20" stroke-width="2" stroke-linecap="round" stroke-linejoin="round" stroke-miterlimit="10" points="
				210.568,336.653 241.518,331.983 247.29,334.33 216.863,339.207 			"/>
			
				<polyline fill="none" stroke="#231F20" stroke-width="2" stroke-linecap="round" stroke-linejoin="round" stroke-miterlimit="10" points="
				271.684,336.375 302.361,292.758 314.76,275.153 316.923,272.065 319.921,267.827 320.372,267.174 			"/>
			
				<polyline fill="none" stroke="#231F20" stroke-width="2" stroke-linecap="round" stroke-linejoin="round" stroke-miterlimit="10" points="
				267.085,333.332 310.364,271.996 310.77,271.411 313.7,267.264 			"/>
			
				<line fill="none" stroke="#231F20" stroke-width="2" stroke-linecap="round" stroke-linejoin="round" stroke-miterlimit="10" x1="268.041" y1="331.983" x2="273.963" y2="333.115"/>
			
				<line fill="none" stroke="#231F20" stroke-width="2" stroke-linecap="round" stroke-linejoin="round" stroke-miterlimit="10" x1="271.002" y1="328.207" x2="276.443" y2="329.246"/>
			
				<line fill="none" stroke="#231F20" stroke-width="2" stroke-linecap="round" stroke-linejoin="round" stroke-miterlimit="10" x1="273.723" y1="324.374" x2="279.163" y2="325.414"/>
			
				<line fill="none" stroke="#231F20" stroke-width="2" stroke-linecap="round" stroke-linejoin="round" stroke-miterlimit="10" x1="276.314" y1="320.629" x2="281.756" y2="321.669"/>
			
				<line fill="none" stroke="#231F20" stroke-width="2" stroke-linecap="round" stroke-linejoin="round" stroke-miterlimit="10" x1="278.906" y1="316.884" x2="284.348" y2="317.924"/>
			
				<line fill="none" stroke="#231F20" stroke-width="2" stroke-linecap="round" stroke-linejoin="round" stroke-miterlimit="10" x1="281.498" y1="313.138" x2="286.939" y2="314.178"/>
			
				<line fill="none" stroke="#231F20" stroke-width="2" stroke-linecap="round" stroke-linejoin="round" stroke-miterlimit="10" x1="284.09" y1="309.393" x2="289.531" y2="310.433"/>
			
				<line fill="none" stroke="#231F20" stroke-width="2" stroke-linecap="round" stroke-linejoin="round" stroke-miterlimit="10" x1="286.682" y1="305.646" x2="292.123" y2="306.687"/>
			
				<line fill="none" stroke="#231F20" stroke-width="2" stroke-linecap="round" stroke-linejoin="round" stroke-miterlimit="10" x1="289.273" y1="301.901" x2="294.715" y2="302.941"/>
			
				<line fill="none" stroke="#231F20" stroke-width="2" stroke-linecap="round" stroke-linejoin="round" stroke-miterlimit="10" x1="291.865" y1="298.156" x2="297.307" y2="299.196"/>
			
				<line fill="none" stroke="#231F20" stroke-width="2" stroke-linecap="round" stroke-linejoin="round" stroke-miterlimit="10" x1="294.698" y1="294.457" x2="299.898" y2="295.45"/>
			
				<line fill="none" stroke="#231F20" stroke-width="2" stroke-linecap="round" stroke-linejoin="round" stroke-miterlimit="10" x1="297.288" y1="290.711" x2="302.49" y2="291.705"/>
			
				<line fill="none" stroke="#231F20" stroke-width="2" stroke-linecap="round" stroke-linejoin="round" stroke-miterlimit="10" x1="299.889" y1="286.967" x2="305.082" y2="287.96"/>
			
				<line fill="none" stroke="#231F20" stroke-width="2" stroke-linecap="round" stroke-linejoin="round" stroke-miterlimit="10" x1="302.485" y1="283.223" x2="307.674" y2="284.214"/>
			
				<line fill="none" stroke="#231F20" stroke-width="2" stroke-linecap="round" stroke-linejoin="round" stroke-miterlimit="10" x1="304.825" y1="279.429" x2="310.266" y2="280.469"/>
			
				<line fill="none" stroke="#231F20" stroke-width="2" stroke-linecap="round" stroke-linejoin="round" stroke-miterlimit="10" x1="307.852" y1="275.767" x2="313.293" y2="276.807"/>
			
				<polyline fill="none" stroke="#231F20" stroke-width="2" stroke-linecap="round" stroke-linejoin="round" stroke-miterlimit="10" points="
				316.31,272.941 310.364,271.996 310.003,271.93 			"/>
			
				<polyline fill="none" stroke="#231F20" stroke-width="2" stroke-linecap="round" stroke-linejoin="round" stroke-miterlimit="10" points="
				370.009,260.914 377.39,260.5 377.253,263.903 374.314,264.243 			"/>
			
				<polyline fill="none" stroke="#231F20" stroke-width="2" stroke-linecap="round" stroke-linejoin="round" stroke-miterlimit="10" points="
				373.059,260.5 373.059,255.034 377.39,254.794 377.39,260.5 			"/>
			
				<line fill="none" stroke="#231F20" stroke-width="2" stroke-linecap="round" stroke-linejoin="round" stroke-miterlimit="10" x1="375.225" y1="254.794" x2="374.949" y2="248.881"/>
			
				<polygon fill="none" stroke="#231F20" stroke-width="2" stroke-linecap="round" stroke-linejoin="round" stroke-miterlimit="10" points="
				428.455,334.871 480.822,323.785 495.348,326.17 442.98,337.929 			"/>
			
				<polyline fill="none" stroke="#231F20" stroke-width="2" stroke-linecap="round" stroke-linejoin="round" stroke-miterlimit="10" points="
				428.455,334.871 428.951,352.664 442.026,356.545 496.591,341.773 486.875,339.744 			"/>
			
				<line fill="none" stroke="#231F20" stroke-width="2" stroke-linecap="round" stroke-linejoin="round" stroke-miterlimit="10" x1="442.885" y1="338.463" x2="442.885" y2="355.601"/>
			
				<line fill="none" stroke="#231F20" stroke-width="2" stroke-linecap="round" stroke-linejoin="round" stroke-miterlimit="10" x1="456.239" y1="334.951" x2="456.239" y2="351.81"/>
			
				<polyline fill="none" stroke="#231F20" stroke-width="2" stroke-linecap="round" stroke-linejoin="round" stroke-miterlimit="10" points="
				456.239,348.789 486.801,341.03 486.503,328.451 			"/>
			
				<polyline fill="none" stroke="#231F20" stroke-width="2" stroke-linecap="round" stroke-linejoin="round" stroke-miterlimit="10" points="
				457.228,334.729 460.838,337.929 464.821,333.024 			"/>
			
				<line fill="none" stroke="#231F20" stroke-width="2" stroke-linecap="round" stroke-linejoin="round" stroke-miterlimit="10" x1="460.838" y1="337.929" x2="461.023" y2="351.119"/>
			<g>
				
					<polyline fill="none" stroke="#231F20" stroke-width="2" stroke-linecap="round" stroke-linejoin="round" stroke-miterlimit="10" points="
					474.791,330.979 478.401,334.179 482.385,329.274 				"/>
				
					<line fill="none" stroke="#231F20" stroke-width="2" stroke-linecap="round" stroke-linejoin="round" stroke-miterlimit="10" x1="478.401" y1="334.179" x2="478.577" y2="346.649"/>
			</g>
			<g>
				
					<polyline fill="none" stroke="#231F20" stroke-width="2" stroke-linecap="round" stroke-linejoin="round" stroke-miterlimit="10" points="
					488.336,327.888 491.946,331.087 495.93,326.184 				"/>
				
					<line fill="none" stroke="#231F20" stroke-width="2" stroke-linecap="round" stroke-linejoin="round" stroke-miterlimit="10" x1="491.946" y1="331.087" x2="492.114" y2="342.985"/>
			</g>
			<g>
				<polygon fill="#231F20" points="449.49,349.039 446.844,349.628 446.844,341.996 449.49,341.405 				"/>
				<polygon fill="#231F20" points="452.956,348.283 450.309,348.873 450.309,341.239 452.956,340.649 				"/>
			</g>
			
				<polygon fill="none" stroke="#231F20" stroke-width="2" stroke-linecap="round" stroke-linejoin="round" stroke-miterlimit="10" points="
				417.89,334.283 427.103,331.746 408.338,327.9 397.463,330.028 			"/>
			
				<polyline fill="none" stroke="#231F20" stroke-width="2" stroke-linecap="round" stroke-linejoin="round" stroke-miterlimit="10" points="
				397.463,330.028 397.463,336.84 417.875,341.482 417.875,334.283 			"/>
			
				<polyline fill="none" stroke="#231F20" stroke-width="2" stroke-linecap="round" stroke-linejoin="round" stroke-miterlimit="10" points="
				417.875,341.482 427.103,338.491 427.103,331.746 			"/>
			
				<polyline fill="none" stroke="#231F20" stroke-width="2" stroke-linecap="round" stroke-linejoin="round" stroke-miterlimit="10" points="
				397.463,336.84 397.463,340.171 417.875,344.871 428.519,341.779 			"/>
			
				<line fill="none" stroke="#231F20" stroke-width="2" stroke-linecap="round" stroke-linejoin="round" stroke-miterlimit="10" x1="417.875" y1="341.482" x2="417.875" y2="344.871"/>
			
				<polyline fill="none" stroke="#231F20" stroke-width="2" stroke-linecap="round" stroke-linejoin="round" stroke-miterlimit="10" points="
				354.794,247.378 369.141,246.92 369.141,253.26 			"/>
			
				<line fill="none" stroke="#231F20" stroke-width="2" stroke-linecap="round" stroke-linejoin="round" stroke-miterlimit="10" x1="363.73" y1="247.093" x2="363.872" y2="253.378"/>
			
				<line fill="none" stroke="#231F20" stroke-width="2" stroke-linecap="round" stroke-linejoin="round" stroke-miterlimit="10" x1="324.655" y1="291.879" x2="312.9" y2="309.912"/>
			
				<line fill="none" stroke="#231F20" stroke-width="2" stroke-linecap="round" stroke-linejoin="round" stroke-miterlimit="10" x1="337.458" y1="272.245" x2="328.465" y2="286.063"/>
			
				<line fill="none" stroke="#231F20" stroke-width="2" stroke-linecap="round" stroke-linejoin="round" stroke-miterlimit="10" x1="326.773" y1="299.385" x2="316.31" y2="314.384"/>
			
				<line fill="none" stroke="#231F20" stroke-width="2" stroke-linecap="round" stroke-linejoin="round" stroke-miterlimit="10" x1="345.551" y1="271.321" x2="330.561" y2="293.728"/>
			<path fill="none" stroke="#231F20" stroke-width="2" stroke-linecap="round" stroke-linejoin="round" stroke-miterlimit="10" d="
				M73.028,342.61c0,0,7.47-5.596,22.067-3.619l15.053,10.111l0.684,17.639"/>
			
				<line fill="none" stroke="#231F20" stroke-width="2" stroke-linecap="round" stroke-linejoin="round" stroke-miterlimit="10" x1="87.254" y1="379.112" x2="106.347" y2="375.56"/>
			
				<line fill="none" stroke="#231F20" stroke-width="2" stroke-linecap="round" stroke-linejoin="round" stroke-miterlimit="10" x1="87.187" y1="374.724" x2="106.803" y2="371.303"/>
			<path fill="none" stroke="#231F20" stroke-width="2" stroke-linecap="round" stroke-linejoin="round" stroke-miterlimit="10" d="
				M87.254,352.771c0,0,10.198-4.353,22.895-3.669"/>
			
				<line fill="none" stroke="#231F20" stroke-width="2" stroke-linecap="round" stroke-linejoin="round" stroke-miterlimit="10" x1="312.464" y1="242.535" x2="330.815" y2="242.824"/>
			
				<polyline fill="none" stroke="#231F20" stroke-width="2" stroke-linecap="round" stroke-linejoin="round" stroke-miterlimit="10" points="
				105.494,345.977 206.491,330.335 206.491,335.685 			"/>
			<path fill="none" stroke="#231F20" stroke-width="2" stroke-linecap="round" stroke-linejoin="round" stroke-miterlimit="10" d="
				M95.095,338.991c7.542-5.573,21.108-3.473,21.108-3.473c6.597-4.146,20.357-2.45,20.357-2.45
				c4.524-3.676,18.566-3.204,18.566-3.204c4.901-3.581,19.509-3.205,19.509-3.205c4.807-3.108,14.608-2.731,14.608-2.731
				l17.247,6.408l30.81-4.206l-0.916-16.867l-57.746,6.723"/>
			
				<line fill="none" stroke="#231F20" stroke-width="2" stroke-linecap="round" stroke-linejoin="round" stroke-miterlimit="10" x1="116.204" y1="335.519" x2="127.136" y2="342.021"/>
			
				<line fill="none" stroke="#231F20" stroke-width="2" stroke-linecap="round" stroke-linejoin="round" stroke-miterlimit="10" x1="136.561" y1="333.068" x2="146.928" y2="338.991"/>
			
				<line fill="none" stroke="#231F20" stroke-width="2" stroke-linecap="round" stroke-linejoin="round" stroke-miterlimit="10" x1="155.127" y1="329.864" x2="167.285" y2="336.03"/>
			
				<line fill="none" stroke="#231F20" stroke-width="2" stroke-linecap="round" stroke-linejoin="round" stroke-miterlimit="10" x1="174.636" y1="326.659" x2="186.699" y2="332.947"/>
			
				<polygon fill="none" stroke="#231F20" stroke-width="2" stroke-linecap="round" stroke-linejoin="round" stroke-miterlimit="10" points="
				115.53,368.446 111.581,366.741 106.994,368.689 106.994,377.336 109.485,378.713 115.53,377.649 			"/>
			<path fill="none" stroke="#231F20" stroke-width="2" stroke-linecap="round" stroke-linejoin="round" stroke-miterlimit="10" d="
				M115.53,374.724l98.211-17.704v-2.628l-3.942-2.701c0,0,1.321-9.999,0.77-15.037l-5.588-1.059l-14.309,2.007l0.151,3.705
				l-3.947-2.738l-15.695,2.245v2.774l-4.015-2.19l-16.374,2.409v3.504l-3.556-2.993l-17.082,2.628l0.365,3.955l-4.307-3.079
				l-15.381,2.337"/>
			<path fill="none" stroke="#231F20" stroke-width="2" stroke-linecap="round" stroke-linejoin="round" stroke-miterlimit="10" d="
				M110.358,354.509l20.163-3.608c0,0,0.604,10.862-1.93,13.751l-15.804,2.61"/>
			<path fill="none" stroke="#231F20" stroke-width="2" stroke-linecap="round" stroke-linejoin="round" stroke-miterlimit="10" d="
				M131.27,350.587l20.163-3.607c0,0,0.604,10.861-1.93,13.75l-15.804,2.61c0,0-2.452,0.384-3.602-2.769"/>
			<path fill="none" stroke="#231F20" stroke-width="2" stroke-linecap="round" stroke-linejoin="round" stroke-miterlimit="10" d="
				M151.495,347.869l19.866-3.635c0,0,0.604,10.862-1.93,13.751l-15.804,2.609c0,0-1.388,0.456-2.835-2.405"/>
			<path fill="none" stroke="#231F20" stroke-width="2" stroke-linecap="round" stroke-linejoin="round" stroke-miterlimit="10" d="
				M171.059,344.265l19.769-2.953c0,0,0.699,10.166-1.849,13.052l-15.801,2.614c0,0-1.172,0.384-2.502-1.825"/>
			<path fill="none" stroke="#231F20" stroke-width="2" stroke-linecap="round" stroke-linejoin="round" stroke-miterlimit="10" d="
				M190.916,338.436c0.179,0,4.479,2.204,4.479,2.204l15.173-2.483"/>
			<path fill="none" stroke="#231F20" stroke-width="2" stroke-linecap="round" stroke-linejoin="round" stroke-miterlimit="10" d="
				M190.557,352.428c0,0,1.452,1.489,3.495,0.952l15.214-2.098"/>
			<path fill="none" stroke="#231F20" stroke-width="2" stroke-linecap="round" stroke-linejoin="round" stroke-miterlimit="10" d="
				M135.129,349.896c0,0,0.826,9.828-2.122,13.42"/>
			<path fill="none" stroke="#231F20" stroke-width="2" stroke-linecap="round" stroke-linejoin="round" stroke-miterlimit="10" d="
				M156.528,346.979c0,0,0.826,9.827-2.122,13.419"/>
			<path fill="none" stroke="#231F20" stroke-width="2" stroke-linecap="round" stroke-linejoin="round" stroke-miterlimit="10" d="
				M176.445,343.726c0,0,0.826,9.346-2.122,12.761"/>
			<path fill="none" stroke="#231F20" stroke-width="2" stroke-linecap="round" stroke-linejoin="round" stroke-miterlimit="10" d="
				M196.229,340.599c0,0,0.826,9.346-2.122,12.761"/>
			
				<line fill="none" stroke="#231F20" stroke-width="2" stroke-linecap="round" stroke-linejoin="round" stroke-miterlimit="10" x1="128.591" y1="364.651" x2="128.591" y2="368.018"/>
			
				<line fill="none" stroke="#231F20" stroke-width="2" stroke-linecap="round" stroke-linejoin="round" stroke-miterlimit="10" x1="135.344" y1="363.316" x2="135.344" y2="366.906"/>
			
				<line fill="none" stroke="#231F20" stroke-width="2" stroke-linecap="round" stroke-linejoin="round" stroke-miterlimit="10" x1="149.864" y1="360.621" x2="149.864" y2="363.953"/>
			
				<line fill="none" stroke="#231F20" stroke-width="2" stroke-linecap="round" stroke-linejoin="round" stroke-miterlimit="10" x1="156.306" y1="360.152" x2="156.306" y2="363.154"/>
			
				<line fill="none" stroke="#231F20" stroke-width="2" stroke-linecap="round" stroke-linejoin="round" stroke-miterlimit="10" x1="170.186" y1="357.003" x2="170.255" y2="360.398"/>
			
				<line fill="none" stroke="#231F20" stroke-width="2" stroke-linecap="round" stroke-linejoin="round" stroke-miterlimit="10" x1="176.551" y1="356.606" x2="176.551" y2="359.542"/>
			
				<line fill="none" stroke="#231F20" stroke-width="2" stroke-linecap="round" stroke-linejoin="round" stroke-miterlimit="10" x1="190.402" y1="353.046" x2="190.402" y2="357.423"/>
			
				<line fill="none" stroke="#231F20" stroke-width="2" stroke-linecap="round" stroke-linejoin="round" stroke-miterlimit="10" x1="195.96" y1="353.359" x2="196.099" y2="356.486"/>
			<path fill="none" stroke="#231F20" stroke-width="2" stroke-linecap="round" stroke-linejoin="round" stroke-miterlimit="10" d="
				M186.141,323.961c-0.078,0.003-3.117-6.438-3.117-6.438l-74.997,9.552l1.229,7.66"/>
			
				<polyline fill="none" stroke="#231F20" stroke-width="2" stroke-linecap="round" stroke-linejoin="round" stroke-miterlimit="10" points="
				183.024,317.522 176.551,315.252 104.055,323.912 108.027,327.074 			"/>
			
				<line fill="none" stroke="#231F20" stroke-width="2" stroke-linecap="round" stroke-linejoin="round" stroke-miterlimit="10" x1="104.055" y1="323.912" x2="104.055" y2="335.113"/>
			
				<line fill="none" stroke="#231F20" stroke-width="2" stroke-linecap="round" stroke-linejoin="round" stroke-miterlimit="10" x1="91.652" y1="373.945" x2="91.652" y2="364.651"/>
			
				<line fill="none" stroke="#231F20" stroke-width="2" stroke-linecap="round" stroke-linejoin="round" stroke-miterlimit="10" x1="95.405" y1="373.013" x2="95.405" y2="357.104"/>
			<g>
				
					<polyline fill="none" stroke="#231F20" stroke-width="2" stroke-linecap="round" stroke-linejoin="round" stroke-miterlimit="10" points="
					300.247,258.456 315.343,227.841 335.333,228.385 				"/>
				
					<path fill="none" stroke="#231F20" stroke-width="2" stroke-linecap="round" stroke-linejoin="round" stroke-miterlimit="10" d="
					M326.888,252.556c0.193-0.004,8.911-22.524,8.911-22.524l0.116-4.269c0,0-0.172-2.896,2.964-2.685
					c3.135,0.212,2.352,3.646,2.352,3.646l-0.055,4.334l9.225,20.769"/>
				
					<polyline fill="none" stroke="#231F20" stroke-width="2" stroke-linecap="round" stroke-linejoin="round" stroke-miterlimit="10" points="
					330.916,252.481 338.267,233.994 346.448,251.927 				"/>
				
					<polyline fill="none" stroke="#231F20" stroke-width="2" stroke-linecap="round" stroke-linejoin="round" stroke-miterlimit="10" points="
					304.443,258.735 317.894,231.569 335.021,232.036 				"/>
				
					<path fill="none" stroke="#231F20" stroke-width="2" stroke-linecap="round" stroke-linejoin="round" stroke-miterlimit="10" d="
					M315.343,227.841c0,0,0.144-5.129,2.614-4.647c2.471,0.482,3.033,4.587,3.033,4.587"/>
				
					<line fill="none" stroke="#231F20" stroke-width="2" stroke-linecap="round" stroke-linejoin="round" stroke-miterlimit="10" x1="322.281" y1="231.688" x2="328.182" y2="249.484"/>
				
					<line fill="none" stroke="#231F20" stroke-width="2" stroke-linecap="round" stroke-linejoin="round" stroke-miterlimit="10" x1="317.894" y1="231.569" x2="324.912" y2="252.317"/>
				
					<path fill="none" stroke="#231F20" stroke-width="2" stroke-linecap="round" stroke-linejoin="round" stroke-miterlimit="10" d="
					M317.95,223.193c0,0,7.583-167.403,6.866-197.392l6.369-2.893c0,0,8.686,2.377,9.538,2.515"/>
				
					<path fill="none" stroke="#231F20" stroke-width="2" stroke-linecap="round" stroke-linejoin="round" stroke-miterlimit="10" d="
					M340.725,25.424c0.384,14.893,4.789,174.479,14.836,226.167"/>
				
					<path fill="none" stroke="#231F20" stroke-width="2" stroke-linecap="round" stroke-linejoin="round" stroke-miterlimit="10" d="
					M338.879,223.08c0,0-6.383-132.182-7.732-199.014"/>
				
					<polyline fill="none" stroke="#231F20" stroke-width="2" stroke-linecap="round" stroke-linejoin="round" stroke-miterlimit="10" points="
					324.816,25.802 324.9,22.737 333.172,18.058 345.285,21.218 340.732,25.128 				"/>
				
					<polyline fill="none" stroke="#231F20" stroke-width="2" stroke-linecap="round" stroke-linejoin="round" stroke-miterlimit="10" points="
					317.349,179.185 336.614,176.264 350.035,177.202 				"/>
				
					<polyline fill="none" stroke="#231F20" stroke-width="2" stroke-linecap="round" stroke-linejoin="round" stroke-miterlimit="10" points="
					318.396,151.747 335.049,147.907 348.217,149.167 				"/>
				
					<polyline fill="none" stroke="#231F20" stroke-width="2" stroke-linecap="round" stroke-linejoin="round" stroke-miterlimit="10" points="
					319.668,121.309 334.313,117.229 346.35,118.38 				"/>
				
					<polyline fill="none" stroke="#231F20" stroke-width="2" stroke-linecap="round" stroke-linejoin="round" stroke-miterlimit="10" points="
					321.173,90.349 333.049,86.801 345.208,89.417 				"/>
				
					<polyline fill="none" stroke="#231F20" stroke-width="2" stroke-linecap="round" stroke-linejoin="round" stroke-miterlimit="10" points="
					321.734,69.731 332.317,65.937 343.99,68.769 				"/>
				
					<polyline fill="none" stroke="#231F20" stroke-width="2" stroke-linecap="round" stroke-linejoin="round" stroke-miterlimit="10" points="
					321.58,49.472 331.486,45.452 343.249,48.95 				"/>
				
					<polyline fill="none" stroke="#231F20" stroke-width="2" stroke-linecap="round" stroke-linejoin="round" stroke-miterlimit="10" points="
					322.105,30.241 331.2,26.646 343.091,29.739 				"/>
				
					<polyline fill="none" stroke="#231F20" stroke-width="2" stroke-linecap="round" stroke-linejoin="round" stroke-miterlimit="10" points="
					316.521,209.559 338.188,208.448 352.288,209.087 				"/>
				
					<polyline fill="none" stroke="#231F20" stroke-width="2" stroke-linecap="round" stroke-linejoin="round" stroke-miterlimit="10" points="
					318.001,222.064 339.052,222.062 351.399,221.907 				"/>
				
					<line fill="none" stroke="#231F20" stroke-width="2" stroke-linecap="round" stroke-linejoin="round" stroke-miterlimit="10" x1="318.592" y1="208.765" x2="336.614" y2="176.264"/>
				
					<line fill="none" stroke="#231F20" stroke-width="2" stroke-linecap="round" stroke-linejoin="round" stroke-miterlimit="10" x1="336.614" y1="176.264" x2="321.314" y2="151.075"/>
				
					<line fill="none" stroke="#231F20" stroke-width="2" stroke-linecap="round" stroke-linejoin="round" stroke-miterlimit="10" x1="321.314" y1="151.075" x2="334.313" y2="117.229"/>
				
					<line fill="none" stroke="#231F20" stroke-width="2" stroke-linecap="round" stroke-linejoin="round" stroke-miterlimit="10" x1="333.76" y1="117.215" x2="323.352" y2="90.409"/>
				
					<line fill="none" stroke="#231F20" stroke-width="2" stroke-linecap="round" stroke-linejoin="round" stroke-miterlimit="10" x1="323.376" y1="89.69" x2="332.317" y2="65.937"/>
				
					<line fill="none" stroke="#231F20" stroke-width="2" stroke-linecap="round" stroke-linejoin="round" stroke-miterlimit="10" x1="332.317" y1="65.937" x2="324.617" y2="48.239"/>
				
					<line fill="none" stroke="#231F20" stroke-width="2" stroke-linecap="round" stroke-linejoin="round" stroke-miterlimit="10" x1="331.2" y1="26.646" x2="324.617" y2="48.239"/>
				
					<line fill="none" stroke="#231F20" stroke-width="2" stroke-linecap="round" stroke-linejoin="round" stroke-miterlimit="10" x1="318.703" y1="209.927" x2="337.851" y2="222.062"/>
				
					<line fill="none" stroke="#231F20" stroke-width="2" stroke-linecap="round" stroke-linejoin="round" stroke-miterlimit="10" x1="349.976" y1="208.981" x2="340.475" y2="220.96"/>
				
					<line fill="none" stroke="#231F20" stroke-width="2" stroke-linecap="round" stroke-linejoin="round" stroke-miterlimit="10" x1="349.91" y1="206.618" x2="337.422" y2="191.807"/>
				
					<line fill="none" stroke="#231F20" stroke-width="2" stroke-linecap="round" stroke-linejoin="round" stroke-miterlimit="10" x1="348.317" y1="177.081" x2="337.422" y2="191.807"/>
				
					<line fill="none" stroke="#231F20" stroke-width="2" stroke-linecap="round" stroke-linejoin="round" stroke-miterlimit="10" x1="336.065" y1="161.327" x2="347.76" y2="176.566"/>
				
					<line fill="none" stroke="#231F20" stroke-width="2" stroke-linecap="round" stroke-linejoin="round" stroke-miterlimit="10" x1="346.318" y1="148.986" x2="336.743" y2="162.21"/>
				
					<line fill="none" stroke="#231F20" stroke-width="2" stroke-linecap="round" stroke-linejoin="round" stroke-miterlimit="10" x1="345.719" y1="147.196" x2="334.798" y2="131.452"/>
				
					<line fill="none" stroke="#231F20" stroke-width="2" stroke-linecap="round" stroke-linejoin="round" stroke-miterlimit="10" x1="344.249" y1="119.135" x2="335.496" y2="131.491"/>
				
					<line fill="none" stroke="#231F20" stroke-width="2" stroke-linecap="round" stroke-linejoin="round" stroke-miterlimit="10" x1="344.153" y1="117.145" x2="333.626" y2="102.133"/>
				
					<line fill="none" stroke="#231F20" stroke-width="2" stroke-linecap="round" stroke-linejoin="round" stroke-miterlimit="10" x1="343.417" y1="89.798" x2="334.318" y2="102.095"/>
				
					<line fill="none" stroke="#231F20" stroke-width="2" stroke-linecap="round" stroke-linejoin="round" stroke-miterlimit="10" x1="342.862" y1="87.982" x2="332.951" y2="75.898"/>
				
					<line fill="none" stroke="#231F20" stroke-width="2" stroke-linecap="round" stroke-linejoin="round" stroke-miterlimit="10" x1="342.355" y1="68.372" x2="333.102" y2="76.577"/>
				
					<line fill="none" stroke="#231F20" stroke-width="2" stroke-linecap="round" stroke-linejoin="round" stroke-miterlimit="10" x1="342.355" y1="68.372" x2="331.98" y2="55.515"/>
				
					<line fill="none" stroke="#231F20" stroke-width="2" stroke-linecap="round" stroke-linejoin="round" stroke-miterlimit="10" x1="341.67" y1="48.479" x2="332.523" y2="56.188"/>
				
					<line fill="none" stroke="#231F20" stroke-width="2" stroke-linecap="round" stroke-linejoin="round" stroke-miterlimit="10" x1="341.125" y1="46.652" x2="331.764" y2="35.247"/>
				
					<line fill="none" stroke="#231F20" stroke-width="2" stroke-linecap="round" stroke-linejoin="round" stroke-miterlimit="10" x1="341.174" y1="28.974" x2="332.19" y2="35.767"/>
				
					<polyline fill="none" stroke="#231F20" stroke-width="2" stroke-linecap="round" stroke-linejoin="round" stroke-miterlimit="10" points="
					344.887,131.864 366.486,133.222 361.676,136.696 345.432,136.253 				"/>
				
					<line fill="none" stroke="#231F20" stroke-width="2" stroke-linecap="round" stroke-linejoin="round" stroke-miterlimit="10" x1="360.673" y1="247.19" x2="359.966" y2="136.649"/>
				
					<line fill="none" stroke="#231F20" stroke-width="2" stroke-linecap="round" stroke-linejoin="round" stroke-miterlimit="10" x1="355.577" y1="136.53" x2="355.775" y2="158.575"/>
				
					<line fill="none" stroke="#231F20" stroke-width="2" stroke-linecap="round" stroke-linejoin="round" stroke-miterlimit="10" x1="355.918" y1="166.428" x2="355.97" y2="171.067"/>
				
					<line fill="none" stroke="#231F20" stroke-width="2" stroke-linecap="round" stroke-linejoin="round" stroke-miterlimit="10" x1="356.255" y1="180.245" x2="356.328" y2="197.212"/>
				
					<line fill="none" stroke="#231F20" stroke-width="2" stroke-linecap="round" stroke-linejoin="round" stroke-miterlimit="10" x1="351.113" y1="136.409" x2="351.258" y2="143.151"/>
				
					<line fill="none" stroke="#231F20" stroke-width="2" stroke-linecap="round" stroke-linejoin="round" stroke-miterlimit="10" x1="355.805" y1="211.993" x2="355.891" y2="221.333"/>
				
					<polyline fill="none" stroke="#231F20" stroke-width="2" stroke-linecap="round" stroke-linejoin="round" stroke-miterlimit="10" points="
					344.662,127.501 349.799,127.642 349.855,125.585 366.183,126.751 366.211,133.104 				"/>
				
					<line fill="none" stroke="#231F20" stroke-width="2" stroke-linecap="round" stroke-linejoin="round" stroke-miterlimit="10" x1="360.867" y1="126.372" x2="360.927" y2="132.097"/>
				
					<line fill="none" stroke="#231F20" stroke-width="2" stroke-linecap="round" stroke-linejoin="round" stroke-miterlimit="10" x1="355.273" y1="125.973" x2="355.043" y2="131.9"/>
				
					<line fill="none" stroke="#231F20" stroke-width="2" stroke-linecap="round" stroke-linejoin="round" stroke-miterlimit="10" x1="339.551" y1="19.722" x2="339.286" y2="10.887"/>
				
					<polyline fill="none" stroke="#231F20" stroke-width="2" stroke-linecap="round" stroke-linejoin="round" stroke-miterlimit="10" points="
					344.385,20.982 344.186,16.099 333.051,13.366 325.677,17.501 325.827,21.844 				"/>
				
					<line fill="none" stroke="#231F20" stroke-width="2" stroke-linecap="round" stroke-linejoin="round" stroke-miterlimit="10" x1="333.051" y1="13.366" x2="332.933" y2="17.7"/>
				
					<line fill="none" stroke="#231F20" stroke-width="2" stroke-linecap="round" stroke-linejoin="round" stroke-miterlimit="10" x1="362.945" y1="126.521" x2="363.088" y2="121.278"/>
				
					<line fill="none" stroke="#231F20" stroke-width="2" stroke-linecap="round" stroke-linejoin="round" stroke-miterlimit="10" x1="353.119" y1="125.674" x2="353.163" y2="114.524"/>
				
					<polyline fill="none" stroke="#231F20" stroke-width="2" stroke-linecap="round" stroke-linejoin="round" stroke-miterlimit="10" points="
					327.814,27.981 327.95,37.313 328.085,46.825 328.221,56.497 328.355,67.36 328.491,76.13 328.648,88.099 328.874,104.644 
					329.077,118.687 329.234,130.432 329.505,149.185 329.73,164.919 329.889,177.271 330.046,188.092 330.339,208.852 
					330.452,217.372 330.52,222.061 330.609,228.26 				"/>
				
					<line fill="none" stroke="#231F20" stroke-width="2" stroke-linecap="round" stroke-linejoin="round" stroke-miterlimit="10" x1="330.813" y1="242.821" x2="330.655" y2="231.934"/>
				
					<line fill="none" stroke="#231F20" stroke-width="2" stroke-linecap="round" stroke-linejoin="round" stroke-miterlimit="10" x1="341.084" y1="222.693" x2="352.55" y2="231.979"/>
				
					<line fill="none" stroke="#231F20" stroke-width="2" stroke-linecap="round" stroke-linejoin="round" stroke-miterlimit="10" x1="346.421" y1="241.88" x2="352.55" y2="231.979"/>
				
					<line fill="none" stroke="#231F20" stroke-width="2" stroke-linecap="round" stroke-linejoin="round" stroke-miterlimit="10" x1="351.042" y1="156.399" x2="351.326" y2="164.478"/>
			</g>
			
				<polyline fill="none" stroke="#231F20" stroke-width="2" stroke-linecap="round" stroke-linejoin="round" stroke-miterlimit="10" points="
				336.583,331.113 348.278,328.728 348.278,322.592 			"/>
			
				<polyline fill="none" stroke="#231F20" stroke-width="2" stroke-linecap="round" stroke-linejoin="round" stroke-miterlimit="10" points="
				308.826,313.658 304.158,313.226 304.158,322.592 305.975,322.592 			"/>
			
				<polyline fill="none" stroke="#231F20" stroke-width="2" stroke-linecap="round" stroke-linejoin="round" stroke-miterlimit="10" points="
				314.101,314.384 317.733,315.097 317.733,318.371 			"/>
			
				<polyline fill="none" stroke="#231F20" stroke-width="2" stroke-linecap="round" stroke-linejoin="round" stroke-miterlimit="10" points="
				368.473,273.751 395.494,310.347 400.045,309.912 370.738,270.104 			"/>
			
				<polyline fill="none" stroke="#231F20" stroke-width="2" stroke-linecap="round" stroke-linejoin="round" stroke-miterlimit="10" points="
				366.896,278.084 388.204,306.901 395.494,310.347 			"/>
			
				<line fill="none" stroke="#231F20" stroke-width="2" stroke-linecap="round" stroke-linejoin="round" stroke-miterlimit="10" x1="365.802" y1="278.374" x2="374.314" y2="311.157"/>
			
				<line fill="none" stroke="#231F20" stroke-width="2" stroke-linecap="round" stroke-linejoin="round" stroke-miterlimit="10" x1="364.474" y1="291.879" x2="370.009" y2="312.551"/>
			
				<line fill="none" stroke="#231F20" stroke-width="2" stroke-linecap="round" stroke-linejoin="round" stroke-miterlimit="10" x1="368.91" y1="308.447" x2="373.699" y2="308.792"/>
			
				<line fill="none" stroke="#231F20" stroke-width="2" stroke-linecap="round" stroke-linejoin="round" stroke-miterlimit="10" x1="367.613" y1="303.025" x2="371.805" y2="303.328"/>
			
				<line fill="none" stroke="#231F20" stroke-width="2" stroke-linecap="round" stroke-linejoin="round" stroke-miterlimit="10" x1="366.317" y1="297.604" x2="370.484" y2="297.904"/>
			
				<line fill="none" stroke="#231F20" stroke-width="2" stroke-linecap="round" stroke-linejoin="round" stroke-miterlimit="10" x1="365.021" y1="292.183" x2="369.21" y2="292.484"/>
			
				<line fill="none" stroke="#231F20" stroke-width="2" stroke-linecap="round" stroke-linejoin="round" stroke-miterlimit="10" x1="364.513" y1="286.818" x2="368.061" y2="287.073"/>
			
				<line fill="none" stroke="#231F20" stroke-width="2" stroke-linecap="round" stroke-linejoin="round" stroke-miterlimit="10" x1="315.445" y1="277.901" x2="315.065" y2="306.167"/>
			
				<line fill="none" stroke="#231F20" stroke-width="2" stroke-linecap="round" stroke-linejoin="round" stroke-miterlimit="10" x1="341.029" y1="316.866" x2="331.146" y2="315.006"/>
			
				<line fill="none" stroke="#231F20" stroke-width="2" stroke-linecap="round" stroke-linejoin="round" stroke-miterlimit="10" x1="344.09" y1="273.505" x2="346.18" y2="300.298"/>
			
				<line fill="none" stroke="#231F20" stroke-width="2" stroke-linecap="round" stroke-linejoin="round" stroke-miterlimit="10" x1="335.497" y1="286.901" x2="342.431" y2="306.167"/>
			<ellipse fill="#231F20" cx="353.326" cy="257.532" rx="1.449" ry="2.379"/>
			<ellipse fill="#231F20" cx="346.448" cy="258.419" rx="1.448" ry="2.379"/>
			
				<line fill="none" stroke="#231F20" stroke-width="2" stroke-linecap="round" stroke-linejoin="round" stroke-miterlimit="10" x1="332.018" y1="280.604" x2="329.452" y2="272.807"/>
			
				<polyline fill="none" stroke="#231F20" stroke-width="2" stroke-linecap="round" stroke-linejoin="round" stroke-miterlimit="10" points="
				344.573,277.053 353.91,276.286 357.101,270.397 			"/>
			
				<polyline fill="none" stroke="#231F20" stroke-width="2" stroke-linecap="round" stroke-linejoin="round" stroke-miterlimit="10" points="
				210.7,340.19 218.205,338.991 224.003,341.621 224.003,352.39 213.741,354.392 			"/>
			
				<polyline fill="none" stroke="#231F20" stroke-width="2" stroke-linecap="round" stroke-linejoin="round" stroke-miterlimit="10" points="
				210.975,341.513 215.37,343.049 224.003,341.621 			"/>
			
				<line fill="none" stroke="#231F20" stroke-width="2" stroke-linecap="round" stroke-linejoin="round" stroke-miterlimit="10" x1="215.465" y1="343.334" x2="215.465" y2="353.046"/>
			
				<polyline fill="none" stroke="#231F20" stroke-width="2" stroke-linecap="round" stroke-linejoin="round" stroke-miterlimit="10" points="
				414.306,333.537 414.306,326.037 422.762,323.785 422.762,330.45 			"/>
			
				<line fill="none" stroke="#231F20" stroke-width="2" stroke-linecap="round" stroke-linejoin="round" stroke-miterlimit="10" x1="416.51" y1="325.45" x2="416.51" y2="322.437"/>
			
				<line fill="none" stroke="#231F20" stroke-width="2" stroke-linecap="round" stroke-linejoin="round" stroke-miterlimit="10" x1="420.4" y1="324.414" x2="420.4" y2="320.802"/>
			
				<line fill="none" stroke="#231F20" stroke-width="2" stroke-linecap="round" stroke-linejoin="round" stroke-miterlimit="10" x1="317.733" y1="315.097" x2="330.073" y2="312.576"/>
			<polygon fill="#231F20" points="201.342,318.061 183.584,320.232 183.584,317.621 201.342,315.447 			"/>
			<polygon fill="#231F20" points="220.525,315.668 202.767,317.841 202.767,315.228 220.525,313.055 			"/>
			<polygon fill="#231F20" points="236.852,313.841 221.783,315.664 221.783,313.051 236.852,311.229 			"/>
			
				<line fill="none" stroke="#231F20" stroke-width="2" stroke-linecap="round" stroke-linejoin="round" stroke-miterlimit="10" x1="237.105" y1="322.523" x2="199.575" y2="327.766"/>
			
				<polyline fill="none" stroke="#231F20" stroke-width="2" stroke-linecap="round" stroke-linejoin="round" stroke-miterlimit="10" points="
				178.639,315.984 134.116,298.556 184.379,292.864 236.384,309.258 236.158,301.729 256.941,299.092 			"/>
			
				<polyline fill="none" stroke="#231F20" stroke-width="2" stroke-linecap="round" stroke-linejoin="round" stroke-miterlimit="10" points="
				262.464,298.416 277.725,296.478 277.725,301.053 268.302,302.586 268.686,313.653 253.605,315.66 			"/>
			
				<line fill="none" stroke="#231F20" stroke-width="2" stroke-linecap="round" stroke-linejoin="round" stroke-miterlimit="10" x1="248.173" y1="316.381" x2="236.857" y2="317.869"/>
			
				<line fill="none" stroke="#231F20" stroke-width="2" stroke-linecap="round" stroke-linejoin="round" stroke-miterlimit="10" x1="277.725" y1="298.694" x2="292.703" y2="297.025"/>
			
				<line fill="none" stroke="#231F20" stroke-width="2" stroke-linecap="round" stroke-linejoin="round" stroke-miterlimit="10" x1="134.116" y1="298.556" x2="134.116" y2="313.267"/>
			
				<polyline fill="none" stroke="#231F20" stroke-width="2" stroke-linecap="round" stroke-linejoin="round" stroke-miterlimit="10" points="
				236.158,301.729 221.783,297.66 221.783,304.655 			"/>
			<g>
				
					<line fill="none" stroke="#231F20" stroke-width="2" stroke-linecap="round" stroke-linejoin="round" stroke-miterlimit="10" x1="210.568" y1="301.157" x2="209.975" y2="275.948"/>
				
					<path fill="none" stroke="#231F20" stroke-width="2" stroke-linecap="round" stroke-linejoin="round" stroke-miterlimit="10" d="
					M203.954,274.366c0,0,3.735-0.795,5.979,2.012c0,0,2.385-3.129,5.512-2.103"/>
			</g>
			<g>
				
					<line fill="none" stroke="#231F20" stroke-width="2" stroke-linecap="round" stroke-linejoin="round" stroke-miterlimit="10" x1="483.605" y1="323.391" x2="482.659" y2="283.289"/>
				
					<path fill="none" stroke="#231F20" stroke-width="2" stroke-linecap="round" stroke-linejoin="round" stroke-miterlimit="10" d="
					M476.639,281.707c0,0,3.735-0.797,5.98,2.011c0,0,2.386-3.129,5.512-2.103"/>
			</g>
			<g>
				
					<line fill="none" stroke="#231F20" stroke-width="2" stroke-linecap="round" stroke-linejoin="round" stroke-miterlimit="10" x1="184.453" y1="314.702" x2="183.858" y2="289.493"/>
				
					<path fill="none" stroke="#231F20" stroke-width="2" stroke-linecap="round" stroke-linejoin="round" stroke-miterlimit="10" d="
					M177.837,287.911c0,0,3.735-0.796,5.98,2.011c0,0,2.385-3.128,5.511-2.103"/>
			</g>
			<g>
				
					<line fill="none" stroke="#231F20" stroke-width="2" stroke-linecap="round" stroke-linejoin="round" stroke-miterlimit="10" x1="142.614" y1="301.744" x2="142.019" y2="276.535"/>
				
					<path fill="none" stroke="#231F20" stroke-width="2" stroke-linecap="round" stroke-linejoin="round" stroke-miterlimit="10" d="
					M135.998,274.953c0,0,3.735-0.796,5.98,2.011c0,0,2.385-3.128,5.511-2.103"/>
			</g>
			<g>
				
					<line fill="none" stroke="#231F20" stroke-width="2" stroke-linecap="round" stroke-linejoin="round" stroke-miterlimit="10" x1="190.771" y1="294.543" x2="190.176" y2="269.334"/>
				
					<path fill="none" stroke="#231F20" stroke-width="2" stroke-linecap="round" stroke-linejoin="round" stroke-miterlimit="10" d="
					M184.155,267.752c0,0,3.735-0.795,5.98,2.011c0,0,2.385-3.129,5.511-2.103"/>
			</g>
			
				<polyline fill="none" stroke="#231F20" stroke-width="2" stroke-linecap="round" stroke-linejoin="round" stroke-miterlimit="10" points="
				154.886,317.841 142.316,312.31 110.833,315.984 118.949,321.695 			"/>
			
				<line fill="none" stroke="#231F20" stroke-width="2" stroke-linecap="round" stroke-linejoin="round" stroke-miterlimit="10" x1="110.833" y1="315.984" x2="110.833" y2="322.657"/>
			
				<line fill="none" stroke="#231F20" stroke-width="2" stroke-linecap="round" stroke-linejoin="round" stroke-miterlimit="10" x1="277.725" y1="296.478" x2="264.177" y2="295.08"/>
			
				<polyline fill="none" stroke="#231F20" stroke-width="2" stroke-linecap="round" stroke-linejoin="round" stroke-miterlimit="10" points="
				221.777,297.649 256.063,294.246 259.24,294.584 			"/>
			
				<line fill="none" stroke="#231F20" stroke-width="2" stroke-linecap="round" stroke-linejoin="round" stroke-miterlimit="10" x1="279.843" y1="315.254" x2="251.824" y2="319.153"/>
			
				<line fill="none" stroke="#231F20" stroke-width="2" stroke-linecap="round" stroke-linejoin="round" stroke-miterlimit="10" x1="246.393" y1="319.897" x2="237.309" y2="321.16"/>
			
				<line fill="none" stroke="#231F20" stroke-width="2" stroke-linecap="round" stroke-linejoin="round" stroke-miterlimit="10" x1="306.87" y1="308.041" x2="289.852" y2="310.543"/>
			
				<line fill="none" stroke="#231F20" stroke-width="2" stroke-linecap="round" stroke-linejoin="round" stroke-miterlimit="10" x1="282.391" y1="311.647" x2="268.686" y2="313.653"/>
		</g>
		
			<line fill="none" stroke="#231F20" stroke-width="2" stroke-linecap="round" stroke-linejoin="round" stroke-miterlimit="10" x1="431.767" y1="221.449" x2="445.264" y2="221.449"/>
		
			<line fill="none" stroke="#231F20" stroke-width="2" stroke-linecap="round" stroke-linejoin="round" stroke-miterlimit="10" x1="459.715" y1="221.449" x2="462.304" y2="221.449"/>
		
			<line fill="none" stroke="#231F20" stroke-width="2" stroke-linecap="round" stroke-linejoin="round" stroke-miterlimit="10" x1="476.639" y1="221.449" x2="493.75" y2="221.449"/>
		
			<line fill="none" stroke="#231F20" stroke-width="2" stroke-linecap="round" stroke-linejoin="round" stroke-miterlimit="10" x1="231.212" y1="243.87" x2="240.509" y2="243.87"/>
		
			<line fill="none" stroke="#231F20" stroke-width="2" stroke-linecap="round" stroke-linejoin="round" stroke-miterlimit="10" x1="254.761" y1="243.87" x2="257.809" y2="243.87"/>
		
			<line fill="none" stroke="#231F20" stroke-width="2" stroke-linecap="round" stroke-linejoin="round" stroke-miterlimit="10" x1="73.028" y1="364.574" x2="32.803" y2="364.574"/>
		
			<line fill="none" stroke="#231F20" stroke-width="2" stroke-linecap="round" stroke-linejoin="round" stroke-miterlimit="10" x1="23.524" y1="364.574" x2="13.745" y2="364.574"/>
		
			<line fill="none" stroke="#231F20" stroke-width="2" stroke-linecap="round" stroke-linejoin="round" stroke-miterlimit="10" x1="20.635" y1="372.727" x2="62.087" y2="372.727"/>
		
			<line fill="none" stroke="#231F20" stroke-width="2" stroke-linecap="round" stroke-linejoin="round" stroke-miterlimit="10" x1="237.309" y1="139.358" x2="244.516" y2="139.358"/>
		
			<line fill="none" stroke="#231F20" stroke-width="2" stroke-linecap="round" stroke-linejoin="round" stroke-miterlimit="10" x1="256.285" y1="139.2" x2="273.723" y2="139.2"/>
		
			<line fill="none" stroke="#231F20" stroke-width="2" stroke-linecap="round" stroke-linejoin="round" stroke-miterlimit="10" x1="202.767" y1="139.2" x2="196.336" y2="139.2"/>
		
			<line fill="none" stroke="#231F20" stroke-width="2" stroke-linecap="round" stroke-linejoin="round" stroke-miterlimit="10" x1="202.767" y1="192.716" x2="209.7" y2="192.716"/>
		
			<line fill="none" stroke="#231F20" stroke-width="2" stroke-linecap="round" stroke-linejoin="round" stroke-miterlimit="10" x1="305.975" y1="365.111" x2="314.76" y2="365.111"/>
		
			<line fill="none" stroke="#231F20" stroke-width="2" stroke-linecap="round" stroke-linejoin="round" stroke-miterlimit="10" x1="327.158" y1="365.111" x2="331.293" y2="365.111"/>
		
			<line fill="none" stroke="#231F20" stroke-width="2" stroke-linecap="round" stroke-linejoin="round" stroke-miterlimit="10" x1="350.837" y1="365.111" x2="401.417" y2="365.111"/>
		
			<line fill="none" stroke="#231F20" stroke-width="2" stroke-linecap="round" stroke-linejoin="round" stroke-miterlimit="10" x1="311.855" y1="373.945" x2="377.39" y2="373.945"/>
	</g>
</g>
</svg>
