<?xml version="1.0" encoding="utf-8"?>
<!-- Generator: Adobe Illustrator 16.0.3, SVG Export Plug-In . SVG Version: 6.00 Build 0)  -->
<!DOCTYPE svg PUBLIC "-//W3C//DTD SVG 1.1//EN" "http://www.w3.org/Graphics/SVG/1.1/DTD/svg11.dtd">
<svg version="1.1" id="Layer_1" xmlns="http://www.w3.org/2000/svg" xmlns:xlink="http://www.w3.org/1999/xlink" x="0px" y="0px"
	 width="612px" height="368px" viewBox="0 189.5 612 368" enable-background="new 0 189.5 612 368" xml:space="preserve">
<g id="Guides_For_Artboard">
</g>
<g id="Layer_1_1_" display="none">
	<g id="X3N1GL_1_" display="inline" opacity="0.7">
	</g>
</g>
<g id="Layer_2">
	<g>
		<g>
			<g>
				
					<path fill="none" stroke="#231F20" stroke-width="3" stroke-linecap="round" stroke-linejoin="round" stroke-miterlimit="10" d="
					M533.47,437.696c0,0-112.293,9.333-133.065,13.247c0,0-37.59,24.581-121.743,24.581l-220.618-6.823l2.599,23.069h3.899
					l1.3,14.946c0,0-0.65,4.873-3.899,5.849h228.741l210.546,1.299C501.229,513.864,519.573,486.946,533.47,437.696z"/>
				
					<path fill="none" stroke="#231F20" stroke-width="3" stroke-linecap="round" stroke-linejoin="round" stroke-miterlimit="10" d="
					M295.756,475.175l14.29-31.372H306v-10.129c0,0,147.304-5.788,151.404-2.412l-2.326,13.438"/>
				
					<polyline fill="none" stroke="#231F20" stroke-width="3" stroke-linecap="round" stroke-linejoin="round" stroke-miterlimit="10" points="
					306,433.674 299.935,433.674 299.935,425.086 327.105,425.086 327.105,432.892 				"/>
				
					<path fill="none" stroke="#231F20" stroke-width="3" stroke-linecap="round" stroke-linejoin="round" stroke-miterlimit="10" d="
					M327.105,427.29l126.667-4.929c0,0,12.966-0.194,13.201,2.725c0.413,5.118-2.417,5.747-9.569,6.176"/>
				
					<line fill="none" stroke="#231F20" stroke-width="3" stroke-linecap="round" stroke-linejoin="round" stroke-miterlimit="10" x1="463.898" y1="430.4" x2="461.933" y2="443.678"/>
				
					<path fill="none" stroke="#231F20" stroke-width="3" stroke-linecap="round" stroke-linejoin="round" stroke-miterlimit="10" d="
					M303.408,424.175v-10.22l48.492-13.047c0,0,81.328-6.989,94.158-4.908c0,0,12.629,0.559,17.84,4.689v21.67"/>
				
					<path fill="none" stroke="#231F20" stroke-width="3" stroke-linecap="round" stroke-linejoin="round" stroke-miterlimit="10" d="
					M357.545,400.436l5.233-17.228c0,0,1.688-5.728-3.574-8.51l105.968-4.291c2.97-0.121,5.953,0.087,8.848,0.757
					c2.176,0.504,4.421,1.265,5.613,2.388l-10.366,2.528l-7.334,23.373"/>
				
					<path fill="none" stroke="#231F20" stroke-width="3" stroke-linecap="round" stroke-linejoin="round" stroke-miterlimit="10" d="
					M359.204,374.697h-3.791v-6.383l96.873-4.964c1.674-0.085,8.175,0.045,9.849,0.104c8.331,0.294,26.548,1.722,17.498,10.097"/>
				
					<polygon fill="none" stroke="#231F20" stroke-width="3" stroke-linecap="round" stroke-linejoin="round" stroke-miterlimit="10" points="
					378.045,378.792 373.556,394.448 404.573,392.164 411.695,377.336 				"/>
				
					<polygon fill="none" stroke="#231F20" stroke-width="3" stroke-linecap="round" stroke-linejoin="round" stroke-miterlimit="10" points="
					410.508,392.34 417.28,377.336 435.094,376.6 428.762,391.375 				"/>
				
					<path fill="none" stroke="#231F20" stroke-width="3" stroke-linecap="round" stroke-linejoin="round" stroke-miterlimit="10" d="
					M440.411,376.997l-5.541,14.019c0,0,10.39,0.113,13.213,0.357l5.005-15.293L440.411,376.997z"/>
			</g>
			
				<rect x="325.532" y="439.006" fill="none" stroke="#231F20" stroke-width="3" stroke-linecap="round" stroke-linejoin="round" stroke-miterlimit="10" width="10.776" height="4.284"/>
			
				<rect x="343.938" y="439.006" fill="none" stroke="#231F20" stroke-width="3" stroke-linecap="round" stroke-linejoin="round" stroke-miterlimit="10" width="10.776" height="12.918"/>
			
				<rect x="325.532" y="447.641" fill="none" stroke="#231F20" stroke-width="3" stroke-linecap="round" stroke-linejoin="round" stroke-miterlimit="10" width="10.776" height="4.283"/>
			<path fill="none" stroke="#231F20" stroke-width="3" stroke-linecap="round" stroke-linejoin="round" stroke-miterlimit="10" d="
				M469.267,376.08h-11.028l-4.761,16.26c0,0,7.846,1.528,9.929,2.417"/>
			
				<circle fill="none" stroke="#231F20" stroke-width="3" stroke-linecap="round" stroke-linejoin="round" stroke-miterlimit="10" cx="378.738" cy="441.983" r="3.215"/>
			
				<circle fill="none" stroke="#231F20" stroke-width="3" stroke-linecap="round" stroke-linejoin="round" stroke-miterlimit="10" cx="392.625" cy="441.983" r="3.215"/>
			
				<polyline fill="none" stroke="#231F20" stroke-width="3" stroke-linecap="round" stroke-linejoin="round" stroke-miterlimit="10" points="
				523.479,438.54 535.014,430.204 541.237,438.004 530.487,447.731 			"/>
			
				<polyline fill="none" stroke="#231F20" stroke-width="3" stroke-linecap="round" stroke-linejoin="round" stroke-miterlimit="10" points="
				537.024,432.385 544.335,426.255 547.119,429.577 539.498,435.717 			"/>
			<path fill="none" stroke="#231F20" stroke-width="3" stroke-linecap="round" stroke-linejoin="round" stroke-miterlimit="10" d="
				M64.541,491.771c0,0,178.113,0.664,250.591,0.052c3.065-0.026,5.547,2.451,5.547,5.518l0,0c0,3.047-2.471,5.518-5.518,5.518H306"
				/>
			
				<line fill="none" stroke="#231F20" stroke-width="3" stroke-linecap="round" stroke-linejoin="round" stroke-miterlimit="10" x1="300.55" y1="502.857" x2="296.19" y2="502.857"/>
			
				<line fill="none" stroke="#231F20" stroke-width="3" stroke-linecap="round" stroke-linejoin="round" stroke-miterlimit="10" x1="281.063" y1="502.857" x2="65.505" y2="502.857"/>
			<path fill="none" stroke="#231F20" stroke-width="3" stroke-linecap="round" stroke-linejoin="round" stroke-miterlimit="10" d="
				M527.615,438.189c0,0-13.801,49.603-33.286,75.675"/>
			
				<polyline fill="none" stroke="#231F20" stroke-width="3" stroke-linecap="round" stroke-linejoin="round" stroke-miterlimit="10" points="
				443.511,363.322 443.511,357.854 459.902,357.854 459.902,363.322 			"/>
			
				<line fill="none" stroke="#231F20" stroke-width="3" stroke-linecap="round" stroke-linejoin="round" stroke-miterlimit="10" x1="447.604" y1="357.854" x2="454.525" y2="352.465"/>
			
				<line fill="none" stroke="#231F20" stroke-width="3" stroke-linecap="round" stroke-linejoin="round" stroke-miterlimit="10" x1="454.525" y1="357.854" x2="461.372" y2="352.191"/>
			<path fill="none" stroke="#231F20" stroke-width="3" stroke-linecap="round" stroke-linejoin="round" stroke-miterlimit="10" d="
				M461.928,352.191h-18.779v-3.29c0-1.552,1.258-2.811,2.81-2.811h13.16c1.552,0,2.81,1.258,2.81,2.811V352.191z"/>
			
				<line fill="none" stroke="#231F20" stroke-width="3" stroke-linecap="round" stroke-linejoin="round" stroke-miterlimit="10" x1="59.331" y1="474.208" x2="114.686" y2="475.78"/>
			
				<line fill="none" stroke="#231F20" stroke-width="3" stroke-linecap="round" stroke-linejoin="round" stroke-miterlimit="10" x1="120.578" y1="476.089" x2="125.266" y2="476.089"/>
			
				<line fill="none" stroke="#231F20" stroke-width="3" stroke-linecap="round" stroke-linejoin="round" stroke-miterlimit="10" x1="134.013" y1="476.089" x2="185.336" y2="477.867"/>
			
				<line fill="none" stroke="#231F20" stroke-width="3" stroke-linecap="round" stroke-linejoin="round" stroke-miterlimit="10" x1="446.846" y1="404.38" x2="443.222" y2="413.364"/>
			
				<line fill="none" stroke="#231F20" stroke-width="3" stroke-linecap="round" stroke-linejoin="round" stroke-miterlimit="10" x1="441.436" y1="400.704" x2="435.615" y2="415.508"/>
			
				<polyline fill="none" stroke="#231F20" stroke-width="3" stroke-linecap="round" stroke-linejoin="round" stroke-miterlimit="10" points="
				323.061,408.106 317.66,404.123 309.561,404.123 306,407.498 306,413.258 288.711,397.475 			"/>
			
				<polyline fill="none" stroke="#231F20" stroke-width="3" stroke-linecap="round" stroke-linejoin="round" stroke-miterlimit="10" points="
				366.396,367.751 366.77,363.322 408.194,361.311 408.194,365.195 			"/>
			
				<polyline fill="none" stroke="#231F20" stroke-width="3" stroke-linecap="round" stroke-linejoin="round" stroke-miterlimit="10" points="
				412.613,365.383 412.613,361.311 418.753,360.923 418.753,364.531 			"/>
			
				<polyline fill="none" stroke="#231F20" stroke-width="3" stroke-linecap="round" stroke-linejoin="round" stroke-miterlimit="10" points="
				402.99,361.311 402.889,356.103 382.015,357.078 377.963,362.779 316.384,254.738 			"/>
			
				<line fill="none" stroke="#231F20" stroke-width="3" stroke-linecap="round" stroke-linejoin="round" stroke-miterlimit="10" x1="395.487" y1="356.449" x2="395.487" y2="288.12"/>
			
				<polyline fill="none" stroke="#231F20" stroke-width="3" stroke-linecap="round" stroke-linejoin="round" stroke-miterlimit="10" points="
				395.487,347.859 391.294,347.859 391.294,356.449 			"/>
			
				<rect x="395.769" y="332" fill="none" stroke="#231F20" stroke-width="3" stroke-linecap="round" stroke-linejoin="round" stroke-miterlimit="10" width="7.222" height="9.402"/>
			
				<polyline fill="none" stroke="#231F20" stroke-width="3" stroke-linecap="round" stroke-linejoin="round" stroke-miterlimit="10" points="
				317.66,404.123 316.161,228.654 312.622,201.702 309.561,228.927 309.561,404.123 			"/>
			
				<rect x="316.331" y="248.527" fill="none" stroke="#231F20" stroke-width="3" stroke-linecap="round" stroke-linejoin="round" stroke-miterlimit="10" width="26.646" height="3.412"/>
			
				<polyline fill="none" stroke="#231F20" stroke-width="3" stroke-linecap="round" stroke-linejoin="round" stroke-miterlimit="10" points="
				340.475,248.527 343.747,220.383 315.075,220.383 			"/>
			
				<line fill="none" stroke="#231F20" stroke-width="3" stroke-linecap="round" stroke-linejoin="round" stroke-miterlimit="10" x1="336.612" y1="220.383" x2="334.742" y2="248.527"/>
			
				<line fill="none" stroke="#231F20" stroke-width="3" stroke-linecap="round" stroke-linejoin="round" stroke-miterlimit="10" x1="329.411" y1="220.383" x2="329.411" y2="248.527"/>
			
				<line fill="none" stroke="#231F20" stroke-width="3" stroke-linecap="round" stroke-linejoin="round" stroke-miterlimit="10" x1="322.771" y1="220.383" x2="322.771" y2="248.527"/>
			
				<polyline fill="none" stroke="#231F20" stroke-width="3" stroke-linecap="round" stroke-linejoin="round" stroke-miterlimit="10" points="
				316.703,292.071 321.529,292.071 321.529,301.436 317.248,301.436 			"/>
			<path fill="none" stroke="#231F20" stroke-width="3" stroke-linecap="round" stroke-linejoin="round" stroke-miterlimit="10" d="
				M321.529,292.071c0,0,2.429-7.074,7.914-7.243c3.277-0.102,6.132,2.555,6.454,5.818c0.354,3.59-1.692,8.146-14.368,8.146"/>
			
				<line fill="none" stroke="#231F20" stroke-width="3" stroke-linecap="round" stroke-linejoin="round" stroke-miterlimit="10" x1="382.069" y1="474.171" x2="316.588" y2="270.317"/>
			
				<polyline fill="none" stroke="#231F20" stroke-width="3" stroke-linecap="round" stroke-linejoin="round" stroke-miterlimit="10" points="
				327.105,407.579 327.105,360.923 331.971,360.923 331.971,406.109 			"/>
			
				<polygon fill="none" stroke="#231F20" stroke-width="3" stroke-linecap="round" stroke-linejoin="round" stroke-miterlimit="10" points="
				317.19,349.141 340.489,344.727 371.425,351.309 342.604,351.309 			"/>
			
				<circle fill="none" stroke="#231F20" stroke-width="3" stroke-linecap="round" stroke-linejoin="round" stroke-miterlimit="10" cx="382.069" cy="474.17" r="2.577"/>
			<path fill="none" stroke="#231F20" stroke-width="3" stroke-linecap="round" stroke-linejoin="round" stroke-miterlimit="10" d="
				M388.423,476.279c0,2.363-2.845,4.566-6.354,4.566c-3.51,0-6.354-2.203-6.354-4.566"/>
			
				<circle fill="none" stroke="#231F20" stroke-width="3" stroke-linecap="round" stroke-linejoin="round" stroke-miterlimit="10" cx="395.487" cy="411.699" r="11.783"/>
			
				<circle fill="none" stroke="#231F20" stroke-width="3" stroke-linecap="round" stroke-linejoin="round" stroke-miterlimit="10" cx="395.487" cy="411.7" r="4.708"/>
			
				<line fill="none" stroke="#231F20" stroke-width="3" stroke-linecap="round" stroke-linejoin="round" stroke-miterlimit="10" x1="388.345" y1="402.329" x2="392.93" y2="407.75"/>
			
				<line fill="none" stroke="#231F20" stroke-width="3" stroke-linecap="round" stroke-linejoin="round" stroke-miterlimit="10" x1="403.084" y1="402.694" x2="398.966" y2="408.531"/>
			
				<line fill="none" stroke="#231F20" stroke-width="3" stroke-linecap="round" stroke-linejoin="round" stroke-miterlimit="10" x1="392.476" y1="415.317" x2="388.012" y2="420.806"/>
			
				<line fill="none" stroke="#231F20" stroke-width="3" stroke-linecap="round" stroke-linejoin="round" stroke-miterlimit="10" x1="398.991" y1="414.843" x2="404.739" y2="418.994"/>
			<g>
				
					<line fill="none" stroke="#231F20" stroke-width="3" stroke-linecap="round" stroke-linejoin="round" stroke-miterlimit="10" x1="303.408" y1="420.256" x2="338.22" y2="419.713"/>
				
					<line fill="none" stroke="#231F20" stroke-width="3" stroke-linecap="round" stroke-linejoin="round" stroke-miterlimit="10" x1="342.937" y1="419.605" x2="346.162" y2="419.436"/>
			</g>
			
				<line fill="none" stroke="#231F20" stroke-width="3" stroke-linecap="round" stroke-linejoin="round" stroke-miterlimit="10" x1="421.31" y1="448.164" x2="421.31" y2="448.164"/>
			
				<polyline fill="none" stroke="#231F20" stroke-width="3" stroke-linecap="round" stroke-linejoin="round" stroke-miterlimit="10" points="
				306,407.498 150.23,264.921 146.424,269.021 303.408,416.408 			"/>
			
				<polyline fill="none" stroke="#231F20" stroke-width="3" stroke-linecap="round" stroke-linejoin="round" stroke-miterlimit="10" points="
				148.488,266.798 145.429,264.101 135.685,264.465 			"/>
			
				<circle fill="none" stroke="#231F20" stroke-width="3" stroke-linecap="round" stroke-linejoin="round" stroke-miterlimit="10" cx="139.372" cy="266.798" r="2.159"/>
			
				<polyline fill="none" stroke="#231F20" stroke-width="3" stroke-linecap="round" stroke-linejoin="round" stroke-miterlimit="10" points="
				307.413,406.159 236.213,253.814 240.85,251.938 309.561,392.34 			"/>
			
				<circle fill="none" stroke="#231F20" stroke-width="3" stroke-linecap="round" stroke-linejoin="round" stroke-miterlimit="10" cx="288.133" cy="375.444" r="4.13"/>
			
				<line fill="none" stroke="#231F20" stroke-width="3" stroke-linecap="round" stroke-linejoin="round" stroke-miterlimit="10" x1="313.61" y1="403.818" x2="313.61" y2="390.01"/>
			
				<line fill="none" stroke="#231F20" stroke-width="3" stroke-linecap="round" stroke-linejoin="round" stroke-miterlimit="10" x1="313.61" y1="386.114" x2="313.61" y2="383.325"/>
			<g>
				
					<line fill="none" stroke="#231F20" stroke-width="3" stroke-linecap="round" stroke-linejoin="round" stroke-miterlimit="10" x1="150.23" y1="264.921" x2="157.793" y2="264.101"/>
				
					<rect x="157.742" y="261.509" transform="matrix(-0.9953 0.0973 -0.0973 -0.9953 348.3013 509.9872)" fill="none" stroke="#231F20" stroke-width="3" stroke-linecap="round" stroke-linejoin="round" stroke-miterlimit="10" width="7.942" height="3.958"/>
			</g>
			<g>
				
					<line fill="none" stroke="#231F20" stroke-width="3" stroke-linecap="round" stroke-linejoin="round" stroke-miterlimit="10" x1="187.852" y1="299.107" x2="192.855" y2="296.736"/>
				
					<rect x="192.386" y="292.893" transform="matrix(-0.9082 0.4185 -0.4185 -0.9082 498.0881 480.5166)" fill="none" stroke="#231F20" stroke-width="3" stroke-linecap="round" stroke-linejoin="round" stroke-miterlimit="10" width="7.943" height="3.958"/>
			</g>
			
				<line fill="none" stroke="#231F20" stroke-width="3" stroke-linecap="round" stroke-linejoin="round" stroke-miterlimit="10" x1="165.66" y1="263.032" x2="236.213" y2="253.814"/>
			
				<polyline fill="none" stroke="#231F20" stroke-width="3" stroke-linecap="round" stroke-linejoin="round" stroke-miterlimit="10" points="
				309.561,374.697 277.441,259.954 282.95,258.423 309.561,346.091 			"/>
			
				<line fill="none" stroke="#231F20" stroke-width="3" stroke-linecap="round" stroke-linejoin="round" stroke-miterlimit="10" x1="277.453" y1="259.953" x2="250.414" y2="271.521"/>
			
				<line fill="none" stroke="#231F20" stroke-width="3" stroke-linecap="round" stroke-linejoin="round" stroke-miterlimit="10" x1="245.476" y1="273.623" x2="199.911" y2="293.131"/>
			<path fill="none" stroke="#231F20" stroke-width="3" stroke-linecap="round" stroke-linejoin="round" stroke-miterlimit="10" d="
				M275.815,390.501c0,0-9.446,12.385-2.929,17.078c6.518,4.691,15.825-4.97,15.825-4.97"/>
			
				<polyline fill="none" stroke="#231F20" stroke-width="3" stroke-linecap="round" stroke-linejoin="round" stroke-miterlimit="10" points="
				196.359,315.903 194.978,321.632 204.868,330.962 210.906,329.561 			"/>
			
				<line fill="none" stroke="#231F20" stroke-width="3" stroke-linecap="round" stroke-linejoin="round" stroke-miterlimit="10" x1="294.005" y1="407.579" x2="288.133" y2="414.483"/>
			
				<line fill="none" stroke="#231F20" stroke-width="3" stroke-linecap="round" stroke-linejoin="round" stroke-miterlimit="10" x1="298.135" y1="411.709" x2="292.805" y2="417.976"/>
			
				<circle fill="none" stroke="#231F20" stroke-width="3" stroke-linecap="round" stroke-linejoin="round" stroke-miterlimit="10" cx="288.133" cy="419.023" r="4.535"/>
			
				<line fill="none" stroke="#231F20" stroke-width="3" stroke-linecap="round" stroke-linejoin="round" stroke-miterlimit="10" x1="306" y1="439.56" x2="296.36" y2="439.56"/>
			
				<rect x="289.489" y="429.38" fill="none" stroke="#231F20" stroke-width="3" stroke-linecap="round" stroke-linejoin="round" stroke-miterlimit="10" width="6.871" height="19.058"/>
			
				<line fill="none" stroke="#231F20" stroke-width="3" stroke-linecap="round" stroke-linejoin="round" stroke-miterlimit="10" x1="309.561" y1="401.088" x2="299.794" y2="380.762"/>
			
				<polyline fill="none" stroke="#231F20" stroke-width="3" stroke-linecap="round" stroke-linejoin="round" stroke-miterlimit="10" points="
				408.368,449.729 410.568,437.696 443.813,437.039 443.813,445.802 			"/>
			<circle fill="#231F20" cx="329.411" cy="291.043" r="2.088"/>
			
				<polyline fill="none" stroke="#231F20" stroke-width="3" stroke-linecap="round" stroke-linejoin="round" stroke-miterlimit="10" points="
				332.591,284.825 335.678,278.914 342.977,291.809 335.935,292.071 			"/>
			<path fill="none" stroke="#231F20" stroke-width="3" stroke-linecap="round" stroke-linejoin="round" stroke-miterlimit="10" d="
				M335.678,278.914v-7.392c0,0-0.325-4.775,4.637-4.775h19.373l-6.836,25.063h-9.875"/>
			
				<line fill="none" stroke="#231F20" stroke-width="3" stroke-linecap="round" stroke-linejoin="round" stroke-miterlimit="10" x1="354.144" y1="266.746" x2="347.143" y2="291.581"/>
			<path fill="none" stroke="#231F20" stroke-width="3" stroke-linecap="round" stroke-linejoin="round" stroke-miterlimit="10" d="
				M342.676,271.075c0,0-2.777-0.842-2.777,2.091"/>
			
				<line fill="none" stroke="#231F20" stroke-width="3" stroke-linecap="round" stroke-linejoin="round" stroke-miterlimit="10" x1="237.707" y1="257.011" x2="283.598" y2="386.994"/>
			
				<polyline fill="none" stroke="#231F20" stroke-width="3" stroke-linecap="round" stroke-linejoin="round" stroke-miterlimit="10" points="
				247.636,364.045 243.217,369.532 252.951,378.064 257.466,373.274 			"/>
			
				<polyline fill="none" stroke="#231F20" stroke-width="3" stroke-linecap="round" stroke-linejoin="round" stroke-miterlimit="10" points="
				260.763,376.905 256.345,382.392 266.078,390.925 270.594,386.134 			"/>
			
				<polyline fill="none" stroke="#231F20" stroke-width="3" stroke-linecap="round" stroke-linejoin="round" stroke-miterlimit="10" points="
				194.978,321.632 188.353,322.002 180.404,332.242 197.514,346.118 205.193,336.822 204.868,330.962 			"/>
			<path fill="none" stroke="#231F20" stroke-width="3" stroke-linecap="round" stroke-linejoin="round" stroke-miterlimit="10" d="
				M272.887,407.579c0,0-58.945-16.908-75.373-61.461"/>
			<path fill="none" stroke="#231F20" stroke-width="3" stroke-linecap="round" stroke-linejoin="round" stroke-miterlimit="10" d="
				M261.594,386.994c0,0-38.468-2.063-59.575-46.329"/>
			
				<line fill="none" stroke="#231F20" stroke-width="3" stroke-linecap="round" stroke-linejoin="round" stroke-miterlimit="10" x1="188.353" y1="322.002" x2="205.193" y2="336.822"/>
			
				<polyline fill="none" stroke="#231F20" stroke-width="3" stroke-linecap="round" stroke-linejoin="round" stroke-miterlimit="10" points="
				58.043,468.701 58.043,456.539 194.978,462.62 194.978,471.594 			"/>
			
				<polyline fill="none" stroke="#231F20" stroke-width="3" stroke-linecap="round" stroke-linejoin="round" stroke-miterlimit="10" points="
				164.251,465.703 188.943,466.795 188.943,472.742 			"/>
			
				<line fill="none" stroke="#231F20" stroke-width="3" stroke-linecap="round" stroke-linejoin="round" stroke-miterlimit="10" x1="159.122" y1="465.485" x2="137.431" y2="464.53"/>
			
				<line fill="none" stroke="#231F20" stroke-width="3" stroke-linecap="round" stroke-linejoin="round" stroke-miterlimit="10" x1="132.301" y1="464.312" x2="112.848" y2="463.466"/>
			
				<line fill="none" stroke="#231F20" stroke-width="3" stroke-linecap="round" stroke-linejoin="round" stroke-miterlimit="10" x1="107.718" y1="463.248" x2="87.337" y2="462.348"/>
			
				<polyline fill="none" stroke="#231F20" stroke-width="3" stroke-linecap="round" stroke-linejoin="round" stroke-miterlimit="10" points="
				63.436,468.868 63.436,461.311 82.207,462.129 			"/>
			
				<line fill="none" stroke="#231F20" stroke-width="3" stroke-linecap="round" stroke-linejoin="round" stroke-miterlimit="10" x1="82.197" y1="462.136" x2="82" y2="469.442"/>
			
				<line fill="none" stroke="#231F20" stroke-width="3" stroke-linecap="round" stroke-linejoin="round" stroke-miterlimit="10" x1="87.337" y1="462.348" x2="87.009" y2="469.142"/>
			
				<line fill="none" stroke="#231F20" stroke-width="3" stroke-linecap="round" stroke-linejoin="round" stroke-miterlimit="10" x1="107.718" y1="463.248" x2="107.527" y2="470.232"/>
			
				<line fill="none" stroke="#231F20" stroke-width="3" stroke-linecap="round" stroke-linejoin="round" stroke-miterlimit="10" x1="112.848" y1="463.466" x2="112.547" y2="470.287"/>
			
				<line fill="none" stroke="#231F20" stroke-width="3" stroke-linecap="round" stroke-linejoin="round" stroke-miterlimit="10" x1="132.301" y1="464.312" x2="132.11" y2="470.614"/>
			
				<line fill="none" stroke="#231F20" stroke-width="3" stroke-linecap="round" stroke-linejoin="round" stroke-miterlimit="10" x1="137.431" y1="464.53" x2="137.103" y2="470.669"/>
			
				<line fill="none" stroke="#231F20" stroke-width="3" stroke-linecap="round" stroke-linejoin="round" stroke-miterlimit="10" x1="159.122" y1="465.485" x2="158.931" y2="471.569"/>
			
				<line fill="none" stroke="#231F20" stroke-width="3" stroke-linecap="round" stroke-linejoin="round" stroke-miterlimit="10" x1="164.251" y1="465.703" x2="163.923" y2="471.624"/>
			<path fill="none" stroke="#231F20" stroke-width="3" stroke-linecap="round" stroke-linejoin="round" stroke-miterlimit="10" d="
				M385.665,467.907c0,0,2.086,1.343,2.511,3.217"/>
		</g>
		<path fill="none" stroke="#231F20" stroke-width="3" stroke-linecap="round" stroke-linejoin="round" stroke-miterlimit="10" d="
			M309.561,243.535c0,0-5.142-0.535-5.142,3.792s4.53,3.341,4.53,3.341"/>
		<path fill="none" stroke="#231F20" stroke-width="3" stroke-linecap="round" stroke-linejoin="round" stroke-miterlimit="10" d="
			M240.85,251.938c0,0,46.014,7.549,63.569-4.612"/>
		
			<line fill="none" stroke="#231F20" stroke-width="3" stroke-linecap="round" stroke-linejoin="round" stroke-miterlimit="10" x1="72.821" y1="512.565" x2="10.327" y2="512.565"/>
		
			<line fill="none" stroke="#231F20" stroke-width="3" stroke-linecap="round" stroke-linejoin="round" stroke-miterlimit="10" x1="494.329" y1="513.864" x2="538.911" y2="513.864"/>
		
			<line fill="none" stroke="#231F20" stroke-width="3" stroke-linecap="round" stroke-linejoin="round" stroke-miterlimit="10" x1="504.79" y1="508.068" x2="518.408" y2="508.068"/>
		
			<line fill="none" stroke="#231F20" stroke-width="3" stroke-linecap="round" stroke-linejoin="round" stroke-miterlimit="10" x1="526.358" y1="508.068" x2="533.47" y2="508.068"/>
		
			<line fill="none" stroke="#231F20" stroke-width="3" stroke-linecap="round" stroke-linejoin="round" stroke-miterlimit="10" x1="544.351" y1="508.068" x2="570.713" y2="508.068"/>
		
			<line fill="none" stroke="#231F20" stroke-width="3" stroke-linecap="round" stroke-linejoin="round" stroke-miterlimit="10" x1="545.815" y1="513.864" x2="551.674" y2="513.864"/>
		
			<line fill="none" stroke="#231F20" stroke-width="3" stroke-linecap="round" stroke-linejoin="round" stroke-miterlimit="10" x1="65.841" y1="506.717" x2="50.504" y2="506.717"/>
		
			<line fill="none" stroke="#231F20" stroke-width="3" stroke-linecap="round" stroke-linejoin="round" stroke-miterlimit="10" x1="42.736" y1="506.717" x2="36.951" y2="506.717"/>
		
			<line fill="none" stroke="#231F20" stroke-width="3" stroke-linecap="round" stroke-linejoin="round" stroke-miterlimit="10" x1="30.669" y1="506.717" x2="17.611" y2="506.717"/>
		
			<line fill="none" stroke="#231F20" stroke-width="3" stroke-linecap="round" stroke-linejoin="round" stroke-miterlimit="10" x1="24.14" y1="520.019" x2="144.962" y2="520.019"/>
		
			<line fill="none" stroke="#231F20" stroke-width="3" stroke-linecap="round" stroke-linejoin="round" stroke-miterlimit="10" x1="154.463" y1="520.019" x2="163.923" y2="520.019"/>
		
			<line fill="none" stroke="#231F20" stroke-width="3" stroke-linecap="round" stroke-linejoin="round" stroke-miterlimit="10" x1="175.248" y1="520.019" x2="270.594" y2="520.019"/>
		
			<line fill="none" stroke="#231F20" stroke-width="3" stroke-linecap="round" stroke-linejoin="round" stroke-miterlimit="10" x1="288.711" y1="520.019" x2="510.973" y2="521.048"/>
		
			<line fill="none" stroke="#231F20" stroke-width="3" stroke-linecap="round" stroke-linejoin="round" stroke-miterlimit="10" x1="519.36" y1="521.194" x2="525.679" y2="521.194"/>
		
			<line fill="none" stroke="#231F20" stroke-width="3" stroke-linecap="round" stroke-linejoin="round" stroke-miterlimit="10" x1="537.024" y1="521.194" x2="582.685" y2="521.194"/>
		
			<line fill="none" stroke="#231F20" stroke-width="3" stroke-linecap="round" stroke-linejoin="round" stroke-miterlimit="10" x1="63.436" y1="529.051" x2="200.384" y2="529.051"/>
		
			<line fill="none" stroke="#231F20" stroke-width="3" stroke-linecap="round" stroke-linejoin="round" stroke-miterlimit="10" x1="47.354" y1="529.051" x2="54.177" y2="529.051"/>
		
			<line fill="none" stroke="#231F20" stroke-width="3" stroke-linecap="round" stroke-linejoin="round" stroke-miterlimit="10" x1="215.082" y1="529.051" x2="231.807" y2="529.051"/>
		
			<line fill="none" stroke="#231F20" stroke-width="3" stroke-linecap="round" stroke-linejoin="round" stroke-miterlimit="10" x1="248.254" y1="529.051" x2="313.52" y2="529.051"/>
		
			<line fill="none" stroke="#231F20" stroke-width="3" stroke-linecap="round" stroke-linejoin="round" stroke-miterlimit="10" x1="335.935" y1="529.051" x2="488.624" y2="529.738"/>
		
			<line fill="none" stroke="#231F20" stroke-width="3" stroke-linecap="round" stroke-linejoin="round" stroke-miterlimit="10" x1="498.187" y1="530.028" x2="556.82" y2="530.028"/>
		
			<line fill="none" stroke="#231F20" stroke-width="3" stroke-linecap="round" stroke-linejoin="round" stroke-miterlimit="10" x1="564.935" y1="530.028" x2="567.156" y2="530.028"/>
		
			<line fill="none" stroke="#231F20" stroke-width="3" stroke-linecap="round" stroke-linejoin="round" stroke-miterlimit="10" x1="70.533" y1="538.789" x2="106.012" y2="538.789"/>
		
			<line fill="none" stroke="#231F20" stroke-width="3" stroke-linecap="round" stroke-linejoin="round" stroke-miterlimit="10" x1="114.686" y1="538.789" x2="120.578" y2="538.789"/>
		
			<line fill="none" stroke="#231F20" stroke-width="3" stroke-linecap="round" stroke-linejoin="round" stroke-miterlimit="10" x1="129.567" y1="538.789" x2="325.532" y2="538.789"/>
		
			<line fill="none" stroke="#231F20" stroke-width="3" stroke-linecap="round" stroke-linejoin="round" stroke-miterlimit="10" x1="343.938" y1="538.789" x2="352.617" y2="538.789"/>
		
			<line fill="none" stroke="#231F20" stroke-width="3" stroke-linecap="round" stroke-linejoin="round" stroke-miterlimit="10" x1="368.029" y1="538.789" x2="522.52" y2="538.789"/>
		
			<line fill="none" stroke="#231F20" stroke-width="3" stroke-linecap="round" stroke-linejoin="round" stroke-miterlimit="10" x1="59.331" y1="538.789" x2="18.66" y2="538.789"/>
		
			<line fill="none" stroke="#231F20" stroke-width="3" stroke-linecap="round" stroke-linejoin="round" stroke-miterlimit="10" x1="538.911" y1="539.577" x2="579.308" y2="540.377"/>
		<g>
			<g>
				
					<path fill="none" stroke="#231F20" stroke-width="3" stroke-linecap="round" stroke-linejoin="round" stroke-miterlimit="10" d="
					M484.893,513.749c0,0,12.196-14.524,18.451-33.602"/>
			</g>
			
				<line fill="none" stroke="#231F20" stroke-width="3" stroke-linecap="round" stroke-linejoin="round" stroke-miterlimit="10" x1="504.908" y1="474.171" x2="506.315" y2="469.516"/>
		</g>
		<path fill="none" stroke="#231F20" stroke-width="3" stroke-linecap="round" stroke-linejoin="round" stroke-miterlimit="10" d="
			M476.959,513.715c0,0,7.864-11.93,10.744-18.741"/>
		
			<line fill="none" stroke="#231F20" stroke-width="3" stroke-linecap="round" stroke-linejoin="round" stroke-miterlimit="10" x1="87.337" y1="548.526" x2="254.822" y2="548.526"/>
		
			<line fill="none" stroke="#231F20" stroke-width="3" stroke-linecap="round" stroke-linejoin="round" stroke-miterlimit="10" x1="266.167" y1="548.526" x2="273.317" y2="548.526"/>
		
			<line fill="none" stroke="#231F20" stroke-width="3" stroke-linecap="round" stroke-linejoin="round" stroke-miterlimit="10" x1="285.631" y1="548.526" x2="412.547" y2="549.594"/>
		
			<line fill="none" stroke="#231F20" stroke-width="3" stroke-linecap="round" stroke-linejoin="round" stroke-miterlimit="10" x1="419.896" y1="549.396" x2="452.072" y2="549.396"/>
		
			<line fill="none" stroke="#231F20" stroke-width="3" stroke-linecap="round" stroke-linejoin="round" stroke-miterlimit="10" x1="468.052" y1="549.396" x2="477.35" y2="549.396"/>
		<path fill="none" stroke="#231F20" stroke-width="3" stroke-linecap="round" stroke-linejoin="round" stroke-miterlimit="10" d="
			M441.457,218.835c0,0,11.29-2.142,16.759,5.953c0,0,11.404-2.392,17.246,4.042"/>
		<path fill="none" stroke="#231F20" stroke-width="3" stroke-linecap="round" stroke-linejoin="round" stroke-miterlimit="10" d="
			M497.772,238.645c0,0,11.289-2.143,16.759,5.953c0,0,11.404-2.391,17.246,4.042"/>
		<path fill="none" stroke="#231F20" stroke-width="3" stroke-linecap="round" stroke-linejoin="round" stroke-miterlimit="10" d="
			M467.517,250.964c0,0,6.234-1.183,9.254,3.288c0,0,6.298-1.321,9.523,2.232"/>
	</g>
</g>
</svg>
